<?xml version="1.0" encoding="utf-8"?>
<!-- Generator: Adobe Illustrator 25.4.1, SVG Export Plug-In . SVG Version: 6.00 Build 0)  -->
<svg version="1.1" id="Layer_1" xmlns="http://www.w3.org/2000/svg" xmlns:xlink="http://www.w3.org/1999/xlink" x="0px" y="0px"
	 viewBox="0 0 402 146" style="enable-background:new 0 0 402 146;" xml:space="preserve">
<style type="text/css">
	.st0{fill:#363435;}
	.st1{fill-rule:evenodd;clip-rule:evenodd;fill:#363435;}
	.st2{clip-path:url(#SVGID_00000060743153005168802640000005880696340408944537_);}
	.st3{clip-path:url(#SVGID_00000137847991372310889640000014947176328231082409_);}
	.st4{clip-path:url(#SVGID_00000119816857595145707050000009292917964436495288_);}
	.st5{clip-path:url(#SVGID_00000049188908795518143240000000811166860070288272_);}
	.st6{clip-path:url(#SVGID_00000120552279217562154020000000637739440222267286_);}
	.st7{clip-path:url(#SVGID_00000023241989010197290970000000504976229842418359_);}
	.st8{clip-path:url(#SVGID_00000119812624086143449210000014056062382230029444_);}
	.st9{enable-background:new    ;}
</style>
<g>
	<path class="st0" d="M57.3,64.3c-1.2-2.4-2.5-4.7-3.7-7.1c0.8-1,1.6-2,2.5-2.9c3.6-0.8,7.6-0.3,11.2-0.2c0.6,0.9,1.1,1.7,1.7,2.6
		c-1.3,1.8-2.5,4-4.4,5.2C62.5,63.3,59.6,63.8,57.3,64.3z"/>
	<path class="st0" d="M76.3,94.5c-2,2.7-3.6,8.4-8,6.3c-3.5-3.1-5.2-7.3-6.1-11.7c2.4-0.4,4.4-1.1,6.8-0.2
		C72.2,89.9,74.1,92.2,76.3,94.5z"/>
	<path class="st0" d="M44.3,73.2c1.5-2.3,2.9-4.9,4.8-6.9c3.6-0.9,7.5,0,11.1-0.7c3.7-0.5,6.9-3.1,9-6.1c1.1-1.5,1-3.7,0.5-5.3
		c-2.7-3.6-9.4-2-13.3-2.3c2-2.5,3-6.2,6.8-5.8c4.6,0,11.2-0.9,14.7,3c2.7,2.7,1.9,6.5,0.4,9.6c-3.1,5.9-9.1,10.5-15.2,12.9
		C57.1,73.9,50.6,73,44.3,73.2z"/>
	<path class="st0" d="M90.6,101.2c-2.9,0-5.8,0-8.6-0.1c-2-2.8-3.6-5.9-5.5-8.8c-2.2-3.5-6.2-5.4-10.2-5.9c-2.6-0.2-6.3,1.9-5.6,4.9
		c0.9,3.5,3.3,6.7,5.2,9.8h-6.4c-3.1-4.3-7.5-10-7.1-15.6c0.1-4,4.2-6.2,7.8-6.4c6.7-0.5,13.7,2.6,19,6.5
		C84.7,90,86.9,95.5,90.6,101.2z"/>
	<path class="st0" d="M101.7,65.3c1,2.5-1.2,5.3-2.3,7.4c-1.3,1.8-2.5,4.8-5.2,4.4c-4.3-4.1-4-9.1-1.3-14
		C95.9,63.2,99.8,62.3,101.7,65.3z"/>
	<path class="st0" d="M106.8,74.6c-2.2,4.5-4.7,8.8-7.9,12.7c1.1-0.1,2.2-0.2,3.3-0.3c-3,4.2-5.1,9.1-8.2,13.3c-0.7,0-1.4,0-2.1,0
		c-2-3.1-3.7-6.5-5.7-9.5c-5.3-7.4-13.9-12.5-23-13.5C59,76.8,54.7,78,52,81.5c-2.1,2.3-1.3,5.8-1.4,8.7c-2.1-4.6-5.4-8.8-7-13.6
		l1.6-1.2c4.3-0.7,8.9,0.2,13.2-0.7c8.4-1.6,16.2-6.8,20.8-14.1c1.6-2.8,3.1-6.5,1.7-9.7c-1.1-2.9-3.4-4.3-5.7-6.2
		c4.7,0.1,9.3-0.1,14,0.4c-0.6,4.1-2.9,7.1-4.8,10.7c-3.9,7.2-3.9,16.4-1.5,24c1.9,5.6,5.2,9.6,11.1,11.3c1.9-0.8,3.8-1.7,5.8-2.5
		c-0.5-0.5-1-1-1.5-1.4c-2.1,0.7-3.8,2.2-6.1,1.3c-3.1-0.9-5.1-3.8-6.5-6.5c-2.8-5.5-2.8-12.3-2.2-18.3c1-5.7,4.5-11.1,7.5-16
		c1.7,2.1,3.8,5.1,3.8,7.9c-1.9,5.4-6.6,9-5.8,15.5c0.6,4.3,2.4,6.4,6,8.6c4.1-2.7,6-6.7,8.3-10.9C104.7,70.7,105.7,72.6,106.8,74.6
		z"/>
	<path class="st0" d="M145.9,57c0.1,11.7,0.1,23.3,0,35c-2,0-3.9,0-5.9,0c-5-7.4-9.6-15-14.5-22.6c-0.7,7.5,0.1,15.1-0.5,22.6
		c-2.1,0-4.1-0.1-6.2-0.1c0-11.6,0-23.2,0-34.8c2.1,0,4.1,0,6.2,0c4.9,7.5,9.6,15.2,14.6,22.7c0.1-7.6,0-15.1,0.1-22.7
		C141.7,57,143.8,57,145.9,57z"/>
	<path class="st0" d="M177.4,73.8c-2.2-5.8-8.8-9.6-15-8.2c-5.9,1.5-10.3,6.9-10.4,13c-0.2,6,3.8,11.6,9.5,13.4
		c3.4,0.7,7.6,0.6,10.6-1.5C177.5,87.1,179.9,79.7,177.4,73.8z M164.3,86.4c-5.7-0.5-7-7.2-4.9-11.6c1.3-2.2,3.6-2.9,5.9-3.7
		c3.4,1.1,6.3,2.5,6.7,6.5C172.7,82.3,169.3,87.1,164.3,86.4z"/>
	<path class="st0" d="M205.9,91.9c-2,0-4,0-6.1,0c-0.1-5.5,0.3-11-0.2-16.4c-0.1-2.2-1.9-4.5-4.3-4.3c-2.8,0.4-4.5,2.7-5,5.4
		c-0.7,5-0.2,10.3-0.3,15.3c-2.1,0-4.1,0-6.2,0c0.1-8.6-0.2-17.2,0.1-25.7c2-0.2,4-0.2,5.9-0.3c0.1,0.8,0.1,1.6,0.2,2.4
		c1.7-1,3.5-2.1,5.4-2.7c4.7-1.4,10.1,2.2,10.3,7.2C206.1,79.1,205.8,85.5,205.9,91.9z"/>
	<path class="st0" d="M218.2,75.5c-1.4,3.7-0.8,8.2,3,10.2c4.2,1.9,7.2,0,11-1.5c1.6,0.8,3,1.8,4.4,2.8c-5.8,7.8-19.6,7.3-24-1.8
		c-3.9-6.8-0.3-15.7,6.7-18.7c6.4-2.8,13.5-1,17.5,4.8c-1.5,0.9-3,1.8-4.6,2.7c-1.9-1-4-2.4-6.1-2.7C222.9,71,219.5,72.7,218.2,75.5
		z"/>
	<path class="st0" d="M252.2,86.5c-2.8-0.8-3.6-3.2-5.2-5.4c6.9-0.3,13.9-0.1,20.8-0.2c-0.1-4-0.4-7.6-3.1-10.8
		c-4.8-6-14.6-6.6-19.7-0.7c-3.7,3.8-4,8.9-3,13.9c1.4,4.9,6,8.9,11.2,9c2.7,0.1,5.9,0.1,8.3-1.4c1.8-1,3.3-2.8,4.7-4.3
		c-1.6-0.6-3.3-1.4-5-1.8C258.1,85.6,255.4,87.7,252.2,86.5z M254.2,70.9c3.9-0.3,5.5,1.8,7.3,4.8c-4.6,0.2-9.2,0.2-13.8,0
		C249.4,73.2,250.7,70.9,254.2,70.9z"/>
	<path class="st0" d="M291.8,78.8c-1-3.2-3.5-4.4-6.1-6.2c1.7-1.8,3.4-3.3,3.8-5.9c0.7-4.3-2.3-8.6-6.6-9.4
		c-3.6-0.5-7.4-0.3-11.1-0.2c0,11.6,0,23.2,0,34.8c4.5-0.1,9.5,0.6,13.8-0.8C290.7,89.3,293.6,83.9,291.8,78.8z M275.5,60.1
		c3.3,0.2,8.2-0.4,10.1,3c0.5,1.8,0.6,4.6-0.8,6c-2,2.8-6.3,2-9.3,2.4C275.4,67.7,275.4,63.9,275.5,60.1z M287.4,85.7
		c-2.5,3.5-8.1,2.3-11.9,2.6c0-4.4-0.2-8.9,0.1-13.3c3.3-0.2,7.7-0.5,10.6,1.6C289,78.7,289.9,83.1,287.4,85.7z"/>
	<path class="st0" d="M301.5,56.1c0,12.1,0,24.2,0,36.3l-2.6-0.8c-1-0.8-0.7-2.8-0.8-4c0-10.5,0-21,0-31.5
		C299.2,56.1,300.4,56.1,301.5,56.1z"/>
	<path class="st0" d="M329.4,69.5c-3-3.3-7.5-4.9-12-3.9c-7.2,1.5-11.9,9.6-10.1,16.6c1,4.3,4.3,8.2,8.5,9.6c4.3,1,9,0.8,12.4-2.2
		C334.1,84.8,334.7,74.9,329.4,69.5z M326.9,86.3c-3.5,4.2-10.7,3.9-14.1-0.2c-4.2-5.3-2.7-14.3,3.9-16.9c3.5-1,7.2-0.6,9.8,2.2
		C330.7,75.3,330.9,82.1,326.9,86.3z"/>
	<path class="st0" d="M358.4,91.8c-1.2,0.1-2.3,0.1-3.5,0.2c-2.7-3.6-5.2-7.2-7.8-10.9c-2.7,3.5-5.3,7.1-7.8,10.8
		c-1.3,0-2.5,0-3.8-0.1c3.2-4.5,6.2-9,9.5-13.4c-2.6-4.2-5.8-8.1-8.5-12.2c1.2-0.1,2.5-0.2,3.7-0.2c2.2,3.2,4.4,6.4,6.7,9.5
		c2-2.8,3.7-5.7,5.8-8.3c0.9-1.4,3-1,4.5-1.3c-2.4,4.1-5.8,7.7-7.9,12c0,1.3,1.1,2.7,1.8,3.8C353.6,85,356.1,88.3,358.4,91.8z"/>
	<path class="st0" d="M99,87.2c1.1-0.1,2.2-0.2,3.3-0.3c-3,4.2-5.1,9.1-8.2,13.3c-0.7,0-1.4,0-2.1,0c-2-3.1-3.7-6.5-5.7-9.5
		c-5.3-7.4-13.9-12.5-23-13.5C59,76.8,54.7,78,52,81.5c-2.1,2.3-1.3,5.8-1.4,8.7c-2.1-4.6-5.4-8.8-7-13.6l1.6-1.2
		c4.3-0.7,8.9,0.2,13.2-0.7c8.4-1.6,16.2-6.8,20.8-14.1c1.6-2.8,3.1-6.5,1.7-9.7c-1.1-2.9-3.4-4.3-5.7-6.2c4.7,0.1,9.3-0.1,14,0.4
		c-0.6,4.1-2.9,7.1-4.8,10.7c-3.9,7.2-3.9,16.4-1.5,24c1.9,5.6,5.2,9.6,11.1,11.3c1.9-0.8,3.8-1.7,5.8-2.5c-0.5-0.5-1-1-1.5-1.4
		c-2.1,0.7-3.8,2.2-6.1,1.3c-3.1-0.9-5.1-3.8-6.5-6.5c-2.8-5.5-2.8-12.3-2.2-18.3c1-5.7,4.5-11.1,7.5-16c1.7,2.1,3.8,5.1,3.8,7.9
		c-1.9,5.4-6.6,9-5.8,15.5c0.6,4.3,2.4,6.4,6,8.6c4.1-2.7,6-6.7,8.3-10.9c1.1,1.9,2.2,3.9,3.3,5.8C104.6,79.1,102.1,83.4,99,87.2z"
		/>
	<path class="st0" d="M78.2,58.6c-3.1,5.9-9.1,10.5-15.2,12.9c-6,2.5-12.5,1.5-18.8,1.7c1.5-2.3,2.9-4.9,4.8-6.9
		c3.6-0.9,7.5,0,11.1-0.7c3.7-0.5,6.9-3.1,9-6.1c1.1-1.5,1-3.7,0.5-5.3c-2.7-3.6-9.4-2-13.3-2.3c2-2.5,3-6.2,6.8-5.8
		c4.6,0,11.2-0.9,14.7,3C80.5,51.7,79.7,55.5,78.2,58.6z"/>
	<path class="st0" d="M69,56.7c-1.3,1.8-2.5,4-4.4,5.2c-2,1.4-4.9,1.8-7.3,2.4c-1.2-2.4-2.5-4.7-3.7-7.1c0.8-1,1.6-2,2.5-2.9
		c3.6-0.8,7.6-0.3,11.2-0.2C67.9,55,68.4,55.8,69,56.7z"/>
	<path class="st0" d="M145.9,91.9c-2,0-3.9,0-5.9,0c-5-7.4-9.6-15-14.5-22.6c-0.7,7.5,0.1,15.1-0.5,22.6c-2.1,0-4.1-0.1-6.2-0.1
		c0-11.6,0-23.2,0-34.8c2.1,0,4.1,0,6.2,0c4.9,7.5,9.6,15.2,14.6,22.7c0.1-7.6,0-15.1,0.1-22.7c2.1,0,4.2,0,6.2-0.1
		C146,68.6,146,80.3,145.9,91.9z"/>
	<path class="st0" d="M291.8,78.8c-1-3.2-3.5-4.4-6.1-6.2c1.7-1.8,3.4-3.3,3.8-5.9c0.7-4.3-2.3-8.6-6.6-9.4
		c-3.6-0.5-7.4-0.3-11.1-0.2c0,11.6,0,23.2,0,34.8c4.5-0.1,9.5,0.6,13.8-0.8C290.7,89.3,293.6,83.9,291.8,78.8z M275.5,60.1
		c3.3,0.2,8.2-0.4,10.1,3c0.5,1.8,0.6,4.6-0.8,6c-2,2.8-6.3,2-9.3,2.4C275.4,67.7,275.4,63.9,275.5,60.1z M287.4,85.7
		c-2.5,3.5-8.1,2.3-11.9,2.6c0-4.4-0.2-8.9,0.1-13.3c3.3-0.2,7.7-0.5,10.6,1.6C289,78.7,289.9,83.1,287.4,85.7z"/>
	<path class="st0" d="M301.5,92.3l-2.6-0.8c-1-0.8-0.7-2.8-0.8-4c0-10.5,0-21,0-31.5c1.2,0,2.3,0,3.5-0.1
		C301.5,68.1,301.6,80.2,301.5,92.3z"/>
	<path class="st0" d="M99.4,72.7c-1.3,1.8-2.5,4.8-5.2,4.4c-4.3-4.1-4-9.1-1.3-14c3,0.2,6.9-0.7,8.7,2.2
		C102.6,67.7,100.5,70.6,99.4,72.7z"/>
	<path class="st0" d="M252.2,86.5c-2.8-0.8-3.6-3.2-5.2-5.4c6.9-0.3,13.9-0.1,20.8-0.2c-0.1-4-0.4-7.6-3.1-10.8
		c-4.8-6-14.6-6.6-19.7-0.7c-3.7,3.8-4,8.9-3,13.9c1.4,4.9,6,8.9,11.2,9c2.7,0.1,5.9,0.1,8.3-1.4c1.8-1,3.3-2.8,4.7-4.3
		c-1.6-0.6-3.3-1.4-5-1.8C258.1,85.6,255.4,87.7,252.2,86.5z M254.2,70.9c3.9-0.3,5.5,1.8,7.3,4.8c-4.6,0.2-9.2,0.2-13.8,0
		C249.4,73.2,250.7,70.9,254.2,70.9z"/>
	<path class="st0" d="M177.4,73.8c-2.2-5.8-8.8-9.6-15-8.2c-5.9,1.5-10.3,6.9-10.4,13c-0.2,6,3.8,11.6,9.5,13.4
		c3.4,0.7,7.6,0.6,10.6-1.5C177.5,87.1,179.9,79.7,177.4,73.8z M164.3,86.4c-5.7-0.5-7-7.2-4.9-11.6c1.3-2.2,3.6-2.9,5.9-3.7
		c3.4,1.1,6.3,2.5,6.7,6.5C172.7,82.3,169.3,87.1,164.3,86.4z"/>
	<path class="st0" d="M205.9,91.9c-2,0-4,0-6.1,0c-0.1-5.5,0.3-11-0.2-16.4c-0.1-2.2-1.9-4.5-4.3-4.3c-2.8,0.4-4.5,2.7-5,5.4
		c-0.7,5-0.2,10.3-0.3,15.3c-2.1,0-4.1,0-6.2,0c0.1-8.6-0.2-17.2,0.1-25.7c2-0.2,4-0.2,5.9-0.3c0.1,0.8,0.1,1.6,0.2,2.4
		c1.7-1,3.5-2.1,5.4-2.7c4.7-1.4,10.1,2.2,10.3,7.2C206.1,79.1,205.8,85.5,205.9,91.9z"/>
	<path class="st0" d="M232.2,84.2c1.6,0.8,3,1.8,4.4,2.8c-5.8,7.8-19.6,7.3-24-1.8c-3.9-6.8-0.3-15.7,6.7-18.7
		c6.4-2.8,13.5-1,17.5,4.8c-1.5,0.9-3,1.8-4.6,2.7c-1.9-1-4-2.4-6.1-2.7c-3.1-0.3-6.5,1.4-7.8,4.2c-1.4,3.7-0.8,8.2,3,10.2
		C225.3,87.6,228.3,85.7,232.2,84.2z"/>
	<path class="st0" d="M329.4,69.5c-3-3.3-7.5-4.9-12-3.9c-7.2,1.5-11.9,9.6-10.1,16.6c1,4.3,4.3,8.2,8.5,9.6c4.3,1,9,0.8,12.4-2.2
		C334.1,84.8,334.7,74.9,329.4,69.5z M326.9,86.3c-3.5,4.2-10.7,3.9-14.1-0.2c-4.2-5.3-2.7-14.3,3.9-16.9c3.5-1,7.2-0.6,9.8,2.2
		C330.7,75.3,330.9,82.1,326.9,86.3z"/>
	<path class="st0" d="M358.4,91.8c-1.2,0.1-2.3,0.1-3.5,0.2c-2.7-3.6-5.2-7.2-7.8-10.9c-2.7,3.5-5.3,7.1-7.8,10.8
		c-1.3,0-2.5,0-3.8-0.1c3.2-4.5,6.2-9,9.5-13.4c-2.6-4.2-5.8-8.1-8.5-12.2c1.2-0.1,2.5-0.2,3.7-0.2c2.2,3.2,4.4,6.4,6.7,9.5
		c2-2.8,3.7-5.7,5.8-8.3c0.9-1.4,3-1,4.5-1.3c-2.4,4.1-5.8,7.7-7.9,12c0,1.3,1.1,2.7,1.8,3.8C353.6,85,356.1,88.3,358.4,91.8z"/>
	<path class="st0" d="M90.6,101.2c-2.9,0-5.8,0-8.6-0.1c-2-2.8-3.6-5.9-5.5-8.8c-2.2-3.5-6.2-5.4-10.2-5.9c-2.6-0.2-6.3,1.9-5.6,4.9
		c0.9,3.5,3.3,6.7,5.2,9.8h-6.4c-3.1-4.3-7.5-10-7.1-15.6c0.1-4,4.2-6.2,7.8-6.4c6.7-0.5,13.7,2.6,19,6.5
		C84.7,90,86.9,95.5,90.6,101.2z"/>
	<path class="st0" d="M76.3,94.5c-2,2.7-3.6,8.4-8,6.3c-3.5-3.1-5.2-7.3-6.1-11.7c2.4-0.4,4.4-1.1,6.8-0.2
		C72.2,89.9,74.1,92.2,76.3,94.5z"/>
</g>
</svg>
