<?xml version="1.0" encoding="utf-8"?>
<!-- Generator: Adobe Illustrator 25.4.1, SVG Export Plug-In . SVG Version: 6.00 Build 0)  -->
<svg version="1.1" id="Layer_1" xmlns="http://www.w3.org/2000/svg" xmlns:xlink="http://www.w3.org/1999/xlink" x="0px" y="0px"
	 viewBox="0 0 402 146" style="enable-background:new 0 0 402 146;" xml:space="preserve">
<style type="text/css">
	.st0{fill:#363435;}
	.st1{fill-rule:evenodd;clip-rule:evenodd;fill:#363435;}
	.st2{clip-path:url(#SVGID_00000065074168960219297030000006568357646796424090_);}
	.st3{clip-path:url(#SVGID_00000050646707745916513390000006542479725020897671_);}
	.st4{clip-path:url(#SVGID_00000179612308783271952810000017464267214599945651_);}
	.st5{clip-path:url(#SVGID_00000106144990293415617440000014776520914752711078_);}
	.st6{clip-path:url(#SVGID_00000085938149240849538240000004575497388625755058_);}
	.st7{clip-path:url(#SVGID_00000158733896164982985290000005205714157765890236_);}
	.st8{clip-path:url(#SVGID_00000006669644384047159000000001698497203818102945_);}
	.st9{enable-background:new    ;}
</style>
<g>
	<path class="st0" d="M172.9,65.8c-1-2.1-2.5-3.6-4.4-4.7c-1.8-1.2-4.1-1.8-6.5-1.8c-3.5,0-6.9,1.2-10,3.7l-0.7-3h-7.1v37.9h8.2
		V83.5c1,1,2.3,1.8,3.7,2.2c1.4,0.6,2.8,0.8,4.4,0.8c2.7,0,5.2-0.6,7.3-1.7c2.1-1,3.8-2.5,4.9-4.6c1.3-2.1,1.8-4.4,1.8-7.2
		C174.6,70.4,174,67.9,172.9,65.8z M164,78.3c-1.4,1.2-3.1,1.9-5.2,1.9c-1.6,0-2.8-0.4-3.9-1.1c-1-0.7-1.8-1.7-2.3-2.9V70
		c0.7-1.2,1.5-2.2,2.7-2.8c1.1-0.7,2.5-1,4.1-1c1.8,0,3.5,0.6,4.8,1.9s2,3,2,5.1S165.4,77,164,78.3z"/>
	<path class="st0" d="M204.9,66.1c-1.3-2.1-3-3.7-5.1-4.8c-2.3-1.2-4.8-1.8-7.6-1.8c-2.8,0-5.4,0.7-7.6,1.8
		c-2.3,1.1-3.9,2.8-5.2,4.7c-1.1,2.1-1.8,4.4-1.8,7.1c0,2.8,0.7,5.1,1.8,7.2c1.3,2.1,3,3.6,5.2,4.7c2.3,1.1,4.8,1.7,7.6,1.7
		c2.8,0,5.5-0.7,7.6-1.8c2.3-1.1,3.8-2.8,5.1-4.8c1.3-2.1,1.8-4.3,1.8-6.9C206.7,70.4,206.1,68.2,204.9,66.1z M196.7,78
		c-1.1,1.2-2.7,1.9-4.5,1.9c-1.8,0-3.4-0.6-4.5-1.9c-1.3-1.4-1.8-3-1.8-5c0-2.1,0.6-3.7,1.7-5.1c1.3-1.2,2.7-1.9,4.5-1.9
		c2,0,3.4,0.7,4.7,2.1c1.1,1.2,1.7,2.9,1.7,5C198.4,74.9,197.8,76.7,196.7,78z"/>
	<rect x="211.8" y="40.3" class="st0" width="8.2" height="45.6"/>
	<polygon class="st0" points="253.5,60.7 236.9,98.1 229,98.1 235.2,84.6 223.3,60.7 232.6,60.7 239.4,75.6 246.2,60.7 	"/>
	<path class="st0" d="M277.2,60.7l-0.8,1.9c-0.8-1-2.1-1.8-3.8-2.4c-1.7-0.6-3.5-0.8-5.6-0.8c-2.3,0-4.4,0.6-6.3,1.8
		c-2.1,1.2-3.7,2.9-4.9,5c-1.3,2.1-1.8,4.4-1.8,6.9c0,2.5,0.7,4.7,1.8,6.8c1.3,2.1,2.8,3.7,4.8,4.8c2,1.2,4.2,1.8,6.5,1.8
		c2.3,0,4.2-0.4,5.9-1.2c1.7-0.8,2.8-1.9,3.7-3.2v3.6c0,1.8-0.7,3.3-2.1,4.3c-1.4,1-3.1,1.5-5.2,1.5c-1.7,0-3.2-0.4-4.4-1
		c-1.1-0.6-2.4-1.4-3.5-2.5l-4.8,5.5c1.3,1.1,2.4,1.9,3.5,2.6c1,0.6,2.3,1.1,3.8,1.7c1.6,0.4,3.4,0.7,5.5,0.7c2.8,0,5.4-0.6,7.8-1.7
		c2.4-1.1,4.2-2.6,5.6-4.6c1.4-1.9,2.1-4.2,2.1-6.5V60.7H277.2z M276.5,76.2c-1.4,2.5-3.8,3.7-7.1,3.9c-2,0-3.7-0.7-5.1-2.1
		c-1.4-1.4-2.1-3.2-2.1-5.1c0-2.1,0.7-3.7,2.1-5c1.4-1.2,3.1-1.9,5.1-1.9c1.7,0,3.1,0.4,4.4,1.1c1.3,0.7,2.1,1.7,2.7,2.9V76.2z"/>
	<path class="st0" d="M317.1,65.9c-1.3-2.1-3-3.7-5.1-4.8c-2.3-1.2-4.8-1.8-7.6-1.8c-2.8,0-5.4,0.7-7.6,1.8
		c-2.3,1.2-3.9,2.8-5.2,4.8c-1.3,2.1-1.8,4.4-1.8,6.8c0,2.9,0.6,5.3,1.8,7.3c1.3,2.1,3,3.6,5.2,4.7c2.3,1.1,4.8,1.7,7.6,1.7
		c2.8,0,5.5-0.7,7.6-1.8c2.3-1.1,3.9-2.8,5.1-4.8c1.3-2.1,1.8-4.3,1.8-6.9C318.9,70.2,318.2,68,317.1,65.9z M308.8,78
		c-1.1,1.2-2.7,1.9-4.5,1.9c-1.8,0-3.4-0.6-4.5-1.9s-1.7-3-1.8-5c0-1.9,0.6-3.7,1.8-5c1.3-1.2,2.7-1.9,4.5-1.9
		c1.8,0,3.4,0.7,4.5,1.9c1.1,1.2,1.7,2.9,1.7,5C310.5,74.9,309.9,76.7,308.8,78z"/>
	<path class="st0" d="M350.4,66.9v19H342V69.9c-0.1-2.5-1.4-3.7-3.8-3.7c-1.8,0-3.4,0.8-4.5,2.6c-1.1,1.8-1.7,4-1.7,6.6v10.4h-8.2
		V60.7h7.5l0.6,4c1-1.7,2.3-2.9,3.9-3.9c1.7-1,3.7-1.4,5.9-1.4c2.4,0,4.5,0.7,6.1,2.1C349.5,62.9,350.2,64.7,350.4,66.9z"/>
	<path class="st0" d="M128,73.6V92c0,1.7-1,3.2-2.4,4l-16.2,9.1c-1.5,0.8-3.4,0.8-4.8,0L88.4,96c-1.6-0.8-2.4-2.4-2.4-4v-6.4
		l7.5-4.3v6.4c0,1.7,1,3.2,2.4,4l8.6,4.8c1.5,0.8,3.4,0.8,4.8,0l8.6-5c1.5-0.8,2.4-2.4,2.4-4v-9.8c0-1.7-1-3.2-2.4-4l-8.6-4.8
		c-1.6-0.8-3.4-0.8-4.8,0l-11,6.2L86,79.4l-11,6.2c-1.6,0.8-3.4,0.8-4.8,0L54,76.5c-1.6-0.8-2.4-2.4-2.4-4V54c0-1.7,0.8-3.2,2.4-4
		l16.2-9.1c1.5-0.8,3.4-0.8,4.8,0L91,50c1.5,0.8,2.4,2.4,2.4,4v6.4l-7.5,4.3v-6.4c0-1.7-1-3.2-2.4-4l-8.6-4.8
		c-1.6-0.8-3.4-0.8-4.8,0l-8.6,4.8c-1.6,0.8-2.4,2.4-2.4,4v9.8c0,1.7,1,3.2,2.4,4l8.7,5c1.5,0.8,3.4,0.8,4.8,0l11-6.4l7.5-4.2
		l11-6.4c1.5-0.8,3.4-0.8,4.8,0l16.4,9.3C127.2,70.4,128,71.9,128,73.6z"/>
</g>
</svg>
