<?xml version="1.0" encoding="utf-8"?>
<!-- Generator: Adobe Illustrator 25.4.1, SVG Export Plug-In . SVG Version: 6.00 Build 0)  -->
<svg version="1.1" id="Layer_1" xmlns="http://www.w3.org/2000/svg" xmlns:xlink="http://www.w3.org/1999/xlink" x="0px" y="0px"
	 viewBox="0 0 402 146" style="enable-background:new 0 0 402 146;" xml:space="preserve">
<style type="text/css">
	.st0{fill:#363435;}
	.st1{fill-rule:evenodd;clip-rule:evenodd;fill:#363435;}
	.st2{clip-path:url(#SVGID_00000085940182122866377820000000019758860631143100_);}
	.st3{clip-path:url(#SVGID_00000010994820445476368760000009711196847243995575_);}
	.st4{clip-path:url(#SVGID_00000071538620526767565250000009753121513934583478_);}
	.st5{clip-path:url(#SVGID_00000121998887000822195650000007981267275433572769_);}
	.st6{clip-path:url(#SVGID_00000155849548799999632440000013758467257433014144_);}
	.st7{clip-path:url(#SVGID_00000171716032036730722940000018129012033546136471_);}
	.st8{clip-path:url(#SVGID_00000125594081148360029560000000701608595331650484_);}
	.st9{enable-background:new    ;}
</style>
<g>
	<path class="st0" d="M132.1,64.8c-4.7-4.8-11.9-5.9-18.2-4.4c-3.9,1-7.4,3.3-9.7,6.7c-3,4.4-3.5,10.2-2.4,15.3
		c1.1,5.2,4.7,9.6,9.7,11.6c5.6,2.2,12.5,1.9,17.7-1.2c4.4-2.7,7-7.4,7.6-12.5C137.4,74.7,136.1,69,132.1,64.8z M124.7,83.3
		c-2.3,3.3-7.3,3.8-10.2,1c-2.4-2.2-2.7-6-2.3-9c0.4-2.5,1.9-4.7,4.2-5.7c3.6-1.5,7.7,0.1,9.1,3.8C126.6,76.4,126.5,80.6,124.7,83.3
		z"/>
	<path class="st0" d="M176.9,74.7c0,6.7,0,13.5,0,20.2c-3.5,0-7,0-10.5,0c0-6.1,0-12.3,0-18.4c0-2-0.2-3.8-1.4-5.4
		c-2.5-3.5-8.8-3.2-11,0.5c-1.1,1.7-1.2,3.6-1.2,5.5c0,5.9,0,11.9,0,17.8h-10.5c0-11.6,0-23.1,0-34.7c3.5,0,7,0,10.5,0
		c0,2.1,0,4.2,0,6.3c1.5-2.9,3.9-5.1,7.1-6.1c4.4-1.3,9.7-0.6,13,2.8C176,66.4,176.9,70.5,176.9,74.7z"/>
	<path class="st0" d="M194.9,70.8c-1.7,1.9-2.1,4.5-2.1,7c0,2.5,0.5,5,2.3,6.8c2.3,2.4,6.8,2.2,8.8-0.5c0.5-0.7,0.9-1.7,1.2-2.5
		c3.7,0,7.4,0,11,0c-0.7,3.7-2.3,7.1-5.1,9.7c-5,4.7-13.4,5.3-19.5,2.6c-5-2.2-8.2-7-9.1-12.3c-0.9-5.8,0-12.1,4.2-16.6
		c4.9-5.3,13.7-6.3,20.1-3.7c5.2,2.2,8.5,7,9.4,12.4c-3.7,0-7.4,0-11.1,0c-0.4-0.9-0.7-1.9-1.3-2.7
		C201.7,68.4,197.2,68.3,194.9,70.8z"/>
	<path class="st0" d="M249.2,64.2c-4.8-4.6-12.7-5.4-18.8-3.2c-5,1.7-8.6,5.9-9.9,11c-1.5,6.2-0.7,13.5,3.8,18.3
		c4.6,5,12.5,6.2,18.8,4.2c5.4-1.8,9.4-6.2,10.5-11.8c-3.7,0-7.4,0-11.1,0c-1.4,4.4-6.9,5.5-10.3,2.7c-1.8-1.6-2-3.6-2.3-5.9
		c8,0,15.9,0,23.9,0C254.8,74,253.4,68.1,249.2,64.2z M230.1,75.1c0.3-1.4,0.4-2.7,1.3-4c2.3-3.6,8.3-3.9,10.9-0.6
		c1.1,1.4,1.2,2.9,1.3,4.5C239.1,75.1,234.6,75.1,230.1,75.1z"/>
	<path class="st0" d="M300.3,51c-5,14.7-10.1,29.3-15.1,43.9c-4.5,0-9.1,0.1-13.7-0.1c-4.9-14.7-10-29.2-15-43.9c3.7,0,7.5,0,11.2,0
		c3.6,10.9,7,22,10.7,32.9c3.6-10.9,7-22,10.6-32.9C292.8,51,296.6,51,300.3,51z"/>
	<path class="st0" d="M95.8,95c-3.5,0-7,0-10.5,0c-5.9-9-11.7-18-17.6-27c0,9,0,18,0,27c-3.5,0-7,0-10.5,0V51c3.5-0.1,7.1,0,10.6,0
		c5.8,9.1,11.7,18.1,17.5,27.2c0-9.1,0-18.1,0-27.2c3.5,0,7,0,10.5,0C95.8,65.7,95.8,80.3,95.8,95z"/>
	<path class="st0" d="M300.3,51c-5,14.7-10.1,29.3-15.1,43.9c-4.5,0-9.1,0.1-13.7-0.1c-4.9-14.7-10-29.2-15-43.9c3.7,0,7.5,0,11.2,0
		c3.6,10.9,7,22,10.7,32.9c3.6-10.9,7-22,10.6-32.9C292.8,51,296.6,51,300.3,51z"/>
	<path class="st0" d="M317.6,62.8c-3.8,3.5-4.4,9.6-3.3,14.4c1,4.4,4.4,8.1,9.1,8.2c4.8,0.3,8.6-2.1,10.6-6.4c3.6,0,7.3,0,10.9,0
		v0.9c-1.2,4.5-3.6,8.5-7.4,11.4c-4.8,3.7-11.3,4.6-17.2,3.8c-5.3-0.8-10.3-3.8-13.3-8.2c-3.3-4.8-4.3-10.6-3.8-16.4
		c0.4-5.2,2.4-10.3,6.1-14.1c3.3-3.3,7.6-5.2,12.2-5.6c5.3-0.5,10.7,0.3,15.1,3.3c4.2,2.8,7,7.3,8.2,12.2v0.6c-3.6,0-7.3,0-10.9,0
		c-0.8-1.4-1.5-2.7-2.6-3.8C327.7,59.7,321.2,59.4,317.6,62.8z"/>
	<path class="st0" d="M132.1,64.8c-4.7-4.8-11.9-5.9-18.2-4.4c-3.9,1-7.4,3.3-9.7,6.7c-3,4.4-3.5,10.2-2.4,15.3
		c1.1,5.2,4.7,9.6,9.7,11.6c5.6,2.2,12.5,1.9,17.7-1.2c4.4-2.7,7-7.4,7.6-12.5C137.4,74.7,136.1,69,132.1,64.8z M124.7,83.3
		c-2.3,3.3-7.3,3.8-10.2,1c-2.4-2.2-2.7-6-2.3-9c0.4-2.5,1.9-4.7,4.2-5.7c3.6-1.5,7.7,0.1,9.1,3.8C126.6,76.4,126.5,80.6,124.7,83.3
		z"/>
	<path class="st0" d="M176.9,95c-3.5,0-7,0-10.5,0c0-6.1,0-12.3,0-18.4c0-2-0.2-3.8-1.4-5.4c-2.5-3.5-8.8-3.2-11,0.5
		c-1.1,1.7-1.2,3.6-1.2,5.5c0,5.9,0,11.9,0,17.8h-10.5c0-11.6,0-23.1,0-34.7c3.5,0,7,0,10.5,0c0,2.1,0,4.2,0,6.3
		c1.5-2.9,3.9-5.1,7.1-6.1c4.4-1.3,9.7-0.6,13,2.8c3.1,3.1,4,7.2,4,11.5C177,81.5,176.9,88.2,176.9,95z"/>
	<path class="st0" d="M205.1,81.5c3.7,0,7.4,0,11,0c-0.7,3.7-2.3,7.1-5.1,9.7c-5,4.7-13.4,5.3-19.5,2.6c-5-2.2-8.2-7-9.1-12.3
		c-0.9-5.8,0-12.1,4.2-16.6c4.9-5.3,13.7-6.3,20.1-3.7c5.2,2.2,8.5,7,9.4,12.4c-3.7,0-7.4,0-11.1,0c-0.4-0.9-0.7-1.9-1.3-2.7
		c-2.1-2.6-6.6-2.7-8.9-0.2c-1.7,1.9-2.1,4.5-2.1,7c0,2.5,0.5,5,2.3,6.8c2.3,2.4,6.8,2.2,8.8-0.5C204.5,83.3,204.8,82.4,205.1,81.5z
		"/>
	<path class="st0" d="M249.2,64.2c-4.8-4.6-12.7-5.4-18.8-3.2c-5,1.7-8.6,5.9-9.9,11c-1.5,6.2-0.7,13.5,3.8,18.3
		c4.6,5,12.5,6.2,18.8,4.2c5.4-1.8,9.4-6.2,10.5-11.8c-3.7,0-7.4,0-11.1,0c-1.4,4.4-6.9,5.5-10.3,2.7c-1.8-1.6-2-3.6-2.3-5.9
		c8,0,15.9,0,23.9,0C254.8,74,253.4,68.1,249.2,64.2z M230.1,75.1c0.3-1.4,0.4-2.7,1.3-4c2.3-3.6,8.3-3.9,10.9-0.6
		c1.1,1.4,1.2,2.9,1.3,4.5C239.1,75.1,234.6,75.1,230.1,75.1z"/>
</g>
</svg>
