<?xml version="1.0" encoding="utf-8"?>
<!-- Generator: Adobe Illustrator 25.4.1, SVG Export Plug-In . SVG Version: 6.00 Build 0)  -->
<svg version="1.1" id="Layer_1" xmlns="http://www.w3.org/2000/svg" xmlns:xlink="http://www.w3.org/1999/xlink" x="0px" y="0px"
	 viewBox="0 0 38.8 38.8" style="enable-background:new 0 0 38.8 38.8;" xml:space="preserve">
<style type="text/css">
	.st0{fill:#363435;}
</style>
<g id="setup">
</g>
<g id="statue_placement">
</g>
<g id="footer">
</g>
<g id="timeline">
</g>
<g id="team">
	<path class="st0" d="M35.8,0H3.1C1.4,0,0,1.4,0,3.1v32.7c0,1.7,1.4,3.1,3.1,3.1h32.7c1.7,0,3.1-1.4,3.1-3.1V3.1
		C38.8,1.4,37.5,0,35.8,0z M23.3,23.8c0.6,0.5,1.2,1.5,1.2,3.1c0,2.2,0,4.1,0,4.6c0,0.4,0.2,0.8,1.2,0.8H14.9c0.9,0,1.2-0.4,1.2-0.8
		s0-1.5,0-2.9c-4.8,1-5.8-2.3-5.8-2.3c-0.8-1.9-1.9-2.5-1.9-2.5c-1.5-1,0.1-1,0.1-1c1.7,0.1,2.6,1.7,2.6,1.7c1.5,2.6,4,1.8,5,1.4
		c0.2-1.1,0.6-1.8,1.1-2.2c-3.8-0.4-7.8-1.9-7.8-8.3c0-1.8,0.7-3.3,1.8-4.5c-0.2-0.4-0.8-2.1,0.2-4.4c0,0,1.4-0.4,4.7,1.7
		c1.4-0.4,2.8-0.6,4.3-0.6c1.5,0,2.9,0.2,4.3,0.6c3.2-2.2,4.7-1.7,4.7-1.7c0.9,2.3,0.3,4,0.2,4.4c1.1,1.2,1.8,2.7,1.8,4.5
		C31.1,22,27.1,23.4,23.3,23.8z"/>
</g>
<g id="partners">
</g>
<g id="key_features">
</g>
<g id="market_size">
</g>
<g id="about">
</g>
<g id="hero">
</g>
<g id="navbar">
</g>
</svg>
