<?xml version="1.0" encoding="utf-8"?>
<!-- Generator: Adobe Illustrator 25.4.1, SVG Export Plug-In . SVG Version: 6.00 Build 0)  -->
<svg version="1.1" xmlns="http://www.w3.org/2000/svg" xmlns:xlink="http://www.w3.org/1999/xlink" x="0px" y="0px"
	 viewBox="0 0 402 146" style="enable-background:new 0 0 402 146;" xml:space="preserve">
<style type="text/css">
	.st0{display:none;}
	.st1{display:inline;fill:#190836;}
	.st2{fill:#EBE6FA;}
	.st3{fill:#363435;}
	.st4{fill-rule:evenodd;clip-rule:evenodd;fill:#363435;}
	.st5{font-family:'NeueMontreal-Medium';}
	.st6{font-size:15.9873px;}
</style>
<g id="Layer_2" class="st0">
</g>
<g id="Layer_1">
	<g>
		<g>
			<path class="st3" d="M75.5,48.7v2.6H70v9.4h5.5v32.5h12.5V60.7h7.6v-9.4h-7.6v-2.5c0-2.2,1.3-3.3,3.7-3.3h3.9V34.9h-6.8
				C79.9,34.9,75.5,39.4,75.5,48.7z"/>
			<path class="st3" d="M102.9,48.7v2.6h-5.5v9.4h5.5v32.5h12.5V60.7h7.6v-9.4h-7.6v-2.5c0-2.2,1.3-3.3,3.7-3.3h3.9V34.9h-6.8
				C107.2,34.9,102.9,39.4,102.9,48.7z"/>
			<path class="st3" d="M205.5,58.3l0.2-5.2h-12.3v40.7H206V82.1c0-7.7,0.4-11.3,1.5-13.9c1.2-2.8,4.4-4.5,8.3-4.5
				c1,0,1.5,0,2.9,0.2l0.5,0.1V52l-0.4,0C211.2,52,207.8,53.4,205.5,58.3z"/>
			<path class="st3" d="M340.9,56.2c-2.7-2.5-5.7-3.6-9.7-3.6c-10.9,0-18.2,8.7-18.2,21.5c0,12.8,7.2,21.4,17.9,21.4
				c4.6,0,7.8-1.4,10.6-4.6v3.5h12V38.6h-12.5V56.2z M333.3,85.2c-4.9,0-8-4.4-8-11.2c0-6.8,3.1-11.2,8-11.2c4.9,0,8,4.4,8,11.3
				C341.4,80.8,338.1,85.2,333.3,85.2z"/>
			<path class="st3" d="M48.2,50.6c-14,0-22.4,9.2-22.4,22.2c0,13,8.4,22.2,22.4,22.2c13.9,0,22.3-9.2,22.3-22.2
				C70.6,59.9,62.1,50.6,48.2,50.6z M48.2,85.3c-5.8,0-9.3-4.3-9.3-12.4c0-8.1,3.5-12.4,9.3-12.4c5.7,0,9.2,4.3,9.2,12.4
				C57.5,81,54,85.3,48.2,85.3z"/>
			<path class="st3" d="M170.1,50.6c-6.1,0-10.5,3.3-12.1,5.5h-0.2V35.4h-13.1v58.5h13.1v-4.2h0.2c1.6,2.2,6.1,5.5,12.1,5.5
				c11.1,0,18.2-8.5,18.2-22.2C188.4,59.1,181.3,50.6,170.1,50.6z M166.7,85.3c-5.3,0-8.6-4.3-8.6-12.4c0-8.2,3.3-12.4,8.6-12.4
				c5.3,0,8.6,4.3,8.6,12.4C175.3,81.1,172,85.3,166.7,85.3z"/>
			<path class="st3" d="M260.7,87.6V68.4c0-13.2-6.5-17.7-18.3-17.7c-13.7,0-19.4,6.8-19.8,14.8h12.3c0.4-4,2.7-5.8,7.4-5.8
				c3.6,0,5.3,1.5,5.3,3.9c0,3.5-5.3,4.3-10.7,5.4c-9.8,2-15.9,5.8-15.9,14.1c0,7,4.9,12,13.7,12c5.6,0,10.5-2.6,13.2-5.7h0.2
				c0,2.9,1.6,5.7,7.5,5.7c2.6,0,5-0.3,7.6-1.3v-3.1C261.5,90.7,260.7,89.8,260.7,87.6z M247.6,78.5c0,4-2.7,7.6-8.3,7.6
				c-3.2,0-5.2-1.5-5.2-4.9c0-2.6,1.7-4.7,6.9-5.9c3-0.7,5.1-1.2,6.7-1.9V78.5z"/>
			<path class="st3" d="M295.2,50.6c-7.4,0-11.5,3.5-13.7,7.4h-0.2V52h-13.1v41.9h13.1V69.6c0-5.8,2.9-8.3,7.8-8.3
				c4.3,0,6.5,2.1,6.5,8.4v24.1h13.1V65.5C308.7,56,303.2,50.6,295.2,50.6z"/>
			<path class="st3" d="M369.2,80.7c-3.9,0-7,2.8-7,6.9c0,4.3,3,7,7,7c3.8,0,6.9-2.7,6.9-7C376.2,83.4,373.1,80.7,369.2,80.7z"/>
		</g>
		<text transform="matrix(1 0 0 1 144.7901 116.8497)" class="st3 st5 st6">Digital Experiences, Web &amp; 3D</text>
	</g>
</g>
</svg>
