<?xml version="1.0" encoding="utf-8"?>
<!-- Generator: Adobe Illustrator 25.4.1, SVG Export Plug-In . SVG Version: 6.00 Build 0)  -->
<svg version="1.1" id="All__work" xmlns="http://www.w3.org/2000/svg" xmlns:xlink="http://www.w3.org/1999/xlink" x="0px" y="0px"
	 viewBox="0 0 2460.8 478.5" style="enable-background:new 0 0 2460.8 478.5;" xml:space="preserve">
<style type="text/css">
	.st0{fill:#FFFFFF;}
</style>
<g>
	<g>
		<path class="st0" d="M252.6,110c0.1-19.4-0.2-38.7-0.1-58c0.1-17.3-0.1-34.7-0.1-52c-20.5,8-40.8,16.4-61.3,24.4
			c-0.2,9.1-0.3,18.2-0.1,27.3c0.2,8.5,0.2,17,0.1,25.5C211.6,88.1,232,99.2,252.6,110z"/>
		<path class="st0" d="M358.2,187.8c0.4-13.5-0.1-27.1-0.1-40.6c-24.4,8.8-48.8,17.8-73.3,26.2c-0.1,5.5-0.2,11.1-0.2,16.6
			c3.6,1.9,7.3,3.8,10.9,5.8c21.1,12,42,24.6,63.1,36.6C358.5,217.5,358.1,202.6,358.2,187.8z"/>
		<path class="st0" d="M161,284.9c0.1-26-0.1-52.1,0-78.1c0-37.6,0.1-75.2-0.2-112.7c-25.8,9.8-51.3,21.1-76.5,32.3
			c0.6,24.6-0.2,49.2,0.1,73.8c0.2,17.3,0,34.5,0,51.8C110,263,135.5,274,161,284.9z"/>
		<path class="st0" d="M256.5,336.4c0.4-45.6-0.4-91.2-0.3-136.8c-22.2,10.8-44.8,20.9-67.1,31.7c0.1,39.2-0.5,78.4-0.1,117.6
			c0.3,43.2-0.2,86.4-0.2,129.6c22.7,0,45.4,0.1,68.1,0C256.8,431.1,256.1,383.7,256.5,336.4z"/>
		<path class="st0" d="M71.5,366.8c0.4-32.2-0.2-64.4-0.2-96.6c-23.7,11.4-47.5,22.2-71.2,33.6c0,19.9-0.1,39.9,0,59.8
			c0,37.3-0.1,74.6-0.1,111.9c23.9,0,47.9,0.1,71.8,0C71.8,439.3,71.2,403,71.5,366.8z"/>
		<path class="st0" d="M449.3,402.7c0.1-33.2,0-66.6-0.5-99.8c-24.4,11.1-48.6,22.9-72.9,34.2c-0.1,22-0.6,44-0.2,66
			c0.4,24.4-0.3,48.8-0.2,73.1c24.7,0.1,49.4,0.1,74,0C449.6,451.6,449,427.1,449.3,402.7z"/>
	</g>
	<g>
		<path class="st0" d="M645.8,394.1c-46.8,0-83.4-23.2-84.9-67.3h56.4c1.5,16.7,12.1,24.8,27,24.8c15.5,0,25.4-7.8,25.4-20.5
			c0-40.3-108.8-18.6-108.2-95.8c0-41.2,33.8-64.2,79.4-64.2c47.4,0,79.4,23.6,81.5,65.1H665c-0.9-14-10.8-22.3-25.1-22.6
			c-12.7-0.3-22.3,6.2-22.3,19.8c0,37.8,107.6,20.8,107.6,93.6C725.2,363.7,696.7,394.1,645.8,394.1z"/>
		<path class="st0" d="M823.4,216.5c25.7,0,44,11.8,53.3,27V219h53v173h-53v-24.5c-9.6,15.2-27.9,27-53.6,27
			c-42.2,0-75.9-34.7-75.9-89.3S781,216.5,823.4,216.5z M838.9,262.7c-19.8,0-37.8,14.9-37.8,42.5s18,43.1,37.8,43.1
			c20.1,0,37.8-15.2,37.8-42.8S859.1,262.7,838.9,262.7z"/>
		<path class="st0" d="M976.6,263h-21.1v-44h21.1v-42.2h53V219h34.7v44h-34.7v69.4c0,10.2,4.3,14.6,16.1,14.6h18.9v44.9h-27
			c-36,0-61.1-15.2-61.1-60.1L976.6,263L976.6,263z"/>
		<path class="st0" d="M1172.8,394.4c-50.8,0-89.3-34.1-89.3-89s39.4-89,89.9-89c50.8,0,89.9,34.1,89.9,89
			S1223.6,394.4,1172.8,394.4z M1172.8,348.5c18.9,0,36.6-13.9,36.6-43.1c0-29.4-17.4-43.1-36-43.1c-19.2,0-36,13.6-36,43.1
			C1137.5,334.6,1153.6,348.5,1172.8,348.5z"/>
		<path class="st0" d="M1361.9,394.4c-46.2,0-77.2-25.7-79.7-59.2h52.4c1.2,12.1,12.1,20.1,26.7,20.1c13.6,0,20.8-6.2,20.8-14
			c0-27.9-94.2-7.8-94.2-71.3c0-29.4,25.1-53.6,70.4-53.6c44.6,0,69.4,24.8,72.8,58.9h-49c-1.5-11.8-10.5-19.5-25.4-19.5
			c-12.4,0-19.2,5-19.2,13.3c0,27.6,93.6,8.1,94.5,72.5C1432,371.8,1405.3,394.4,1361.9,394.4z"/>
		<path class="st0" d="M1464.5,162.5h53v79.7c10.5-14.9,29.4-25.1,53.3-25.1c39.4,0,65.7,27.3,65.7,73.8V392h-52.7v-94
			c0-23.6-13-36.6-33.2-36.6s-33.2,13-33.2,36.6v93.9h-53L1464.5,162.5L1464.5,162.5z"/>
		<path class="st0" d="M1668.5,172.4c0-16.1,12.7-28.8,31.6-28.8c18.6,0,31.3,12.7,31.3,28.8c0,15.8-12.7,28.5-31.3,28.5
			C1681.2,201,1668.5,188.3,1668.5,172.4z M1673.5,218.9h53v173h-53V218.9z"/>
		<path class="st0" d="M1931.1,171.8c51.8,0,90.8,29.1,103.2,76.3H1976c-9-18.6-25.4-27.9-45.6-27.9c-32.5,0-54.9,24.2-54.9,62.6
			s22.3,62.6,54.9,62.6c20.1,0,36.6-9.3,45.6-27.9h58.3c-12.4,47.1-51.5,75.9-103.2,75.9c-64.2,0-109.4-45.6-109.4-110.7
			S1866.9,171.8,1931.1,171.8z"/>
		<path class="st0" d="M2061.9,172.4c0-16.1,12.7-28.8,31.6-28.8c18.6,0,31.3,12.7,31.3,28.8c0,15.8-12.7,28.5-31.3,28.5
			C2074.6,201,2061.9,188.3,2061.9,172.4z M2066.8,218.9h53v173h-53V218.9z"/>
		<path class="st0" d="M2166.7,263h-21.1v-44h21.1v-42.2h53V219h34.7v44h-34.7v69.4c0,10.2,4.3,14.6,16.1,14.6h18.9v44.9h-27
			c-36,0-61.1-15.2-61.1-60.1V263H2166.7z"/>
		<path class="st0" d="M2403.5,218.9h57.3L2352.3,474h-57l39.7-88l-70.4-167.1h59.2l40,108.2L2403.5,218.9z"/>
	</g>
</g>
</svg>
