<?xml version="1.0" encoding="utf-8"?>
<!-- Generator: Adobe Illustrator 25.4.1, SVG Export Plug-In . SVG Version: 6.00 Build 0)  -->
<svg version="1.1" xmlns="http://www.w3.org/2000/svg" xmlns:xlink="http://www.w3.org/1999/xlink" x="0px" y="0px"
	 viewBox="0 0 402 146" style="enable-background:new 0 0 402 146;" xml:space="preserve">
<style type="text/css">
	.st0{display:none;}
	.st1{display:inline;fill:#190836;}
	.st2{fill:#363435;}
</style>
<g id="Layer_2" class="st0">
</g>
<g id="Layer_1">
	<g>
		<path class="st2" d="M141.5,55.4c-4.1,9.6-8.4,19.2-12.5,28.7c-0.8,0-1.6,0-2.4,0c-4.1-9.6-8.5-19-12.5-28.7
			c2.3-0.1,4.7-0.1,7-0.1c2.2,5.4,4.5,10.8,6.7,16.2c2.2-5.4,4.4-10.8,6.6-16.2C136.8,55.4,139.1,55.4,141.5,55.4z"/>
		<path class="st2" d="M160.7,74.8c-0.1,2.6-0.9,5-2.8,6.8c-2.8,2.7-7.2,3.1-10.8,2c-3.4-1.2-5.7-4.3-5.9-7.9
			c-0.3-4.4-0.1-8.8-0.1-13.2c2,0,4.1,0,6.1,0c0,3.6,0,7.2,0,10.8c0.1,1.5,0,3,1.2,4.1c1.9,1.9,5.4,1,5.9-1.8
			c0.5-4.3,0.1-8.8,0.2-13.2c2.1,0,4.1,0,6.2,0C160.7,66.5,160.8,70.6,160.7,74.8z"/>
		<path class="st2" d="M170.2,51.6c0.1,10.7,0,21.3,0,32h-6.2c0.1-10.6-0.2-21.3,0.1-31.9C166.2,51.5,168.2,51.6,170.2,51.6z"/>
		<path class="st2" d="M189.2,75.4c1.5,1.1,2.9,2.3,4.4,3.4c-1.5,1.8-2.8,3.5-5,4.4c-4.1,1.7-9.2,1.1-12.5-2.1
			c-4.6-4-4.6-12.1-0.1-16.2c3.3-3.3,8.7-3.9,12.8-2.1c2.1,0.9,3.3,2.7,4.7,4.4c-1.4,1.1-2.9,2.3-4.3,3.4c-1.1-1-2.4-2.3-3.8-2.8
			c-2.7-0.8-5.5,1-6.3,3.7c-0.8,3,1,6.3,4.1,6.8C185.9,78.8,187.4,76.8,189.2,75.4z"/>
		<path class="st2" d="M213,69.9c-0.2-2.3-0.9-4.4-2.7-5.9c-2.5-2.1-6.5-2.4-9.6-1.7c-2.6,0.6-4.4,2.3-6.3,4
			c1.1,1.3,2.2,2.6,3.3,3.9c2.1-1.5,3.8-3.3,6.7-2.8c2.1,0.4,2.2,2.2,3,3.8c-3.5,0.3-8.3-0.4-11.2,1.7c-3.6,2.5-2.7,8.7,1.3,10.3
			c3.5,1.5,7,0.6,10.1-1.2l-0.1,1.5h5.7C213,79,213.3,74.4,213,69.9z M204,79.2c-1.8,0.4-4.6-0.4-3.6-2.8c1.8-1.3,4.8-0.7,6.9-0.8
			C206.3,77.1,205.8,78.8,204,79.2z"/>
		<path class="st2" d="M236.2,83.6h-6.1c-0.1-4,0.1-8.1-0.1-12.1c-0.1-1.7-0.7-3.2-2.4-3.8c-2.1-0.7-4.4,0.7-4.7,3
			c-0.4,4.3-0.1,8.6-0.2,12.9h-6.2c0-7.1,0-14.1,0-21.2c1.8,0,3.5-0.1,5.3-0.1c0.2,0.4,0.4,0.8,0.6,1.1c2.5-1,4.9-1.9,7.7-1.3
			c3.4,0.5,5.7,3.6,5.8,6.9C236.4,73.9,236.1,78.8,236.2,83.6z"/>
		<path class="st2" d="M256.2,67.5h10.3v5.6c-3.4,0-6.9,0-10.3,0c0,3.5,0,7,0,10.5c-2,0-4.1,0-6.1,0c0-9.4-0.1-18.8,0.1-28.2
			c6.2,0,12.4,0,18.7,0V61h-12.6V67.5z"/>
		<path class="st2" d="M287.7,64.9c-3-2.9-7.2-3.5-11.1-2.7c-4.5,1.1-8.2,5.3-8.2,10.1c-0.2,3.5,1,6.7,3.7,9.1
			c4.4,4,12.3,3.6,16.3-1C292.3,76.3,292.1,68.7,287.7,64.9z M282.2,77.5c-2.2,1.4-5.2,0.7-6.6-1.4c-2-2.9-0.8-7.1,2.6-8.3
			c2.3-0.7,4.6,0.3,5.8,2.4C285.4,72.7,284.7,76.1,282.2,77.5z"/>
		<path class="st2" d="M306.9,67.6c-2.8,0.5-5.6,0.3-6.8,3.4c-0.8,4-0.3,8.4-0.4,12.6h-6.2c0.1-7-0.1-14,0.1-21
			c1.8-0.4,3.8-0.3,5.7-0.3l-0.3,1.6c2.8-1.5,4.6-1.9,7.7-1.8C306.8,64,306.8,65.8,306.9,67.6z"/>
		<path class="st2" d="M329,62.3c-1.9,0-3.8,0-5.7,0c0,0.5,0,1.1,0,1.6c-4.6-3-10.9-3-14.6,1.4c-2.3,2.8-2.7,6.8-1.9,10.2
			c0.8,3.8,4.1,6.9,8,7.3c3,0.4,5.6-0.6,8.4-1.6c-1.1,1.8-1.5,3.8-3.7,4.4c-3.5,1.1-6.1-0.8-9-2.4c-1.1,1.5-2.2,2.9-3.3,4.4
			c2.6,1.8,5.2,3.5,8.5,3.8c3.8,0.5,8.6-0.1,11-3.4c2-2.5,2.2-5.5,2.3-8.5C329,73.8,329,68.1,329,62.3z M320.4,76.9
			c-2.3,1.4-5.3,0.5-6.7-1.8c-1.6-2.7-0.6-6.4,2.4-7.6c1.8-0.6,3.8-0.4,5.2,0.9C323.7,70.7,323.3,75.3,320.4,76.9z"/>
		<path class="st2" d="M352.2,75.1c0.2-3.2,0.6-6.1-1.2-8.9c-3.4-5.5-12.3-5.7-16.5-1.1c-4.5,4.4-4.1,12.8,1,16.6
			c5,3.8,11.4,2.8,16.3-0.7c-0.8-1.5-1.7-3-2.6-4.5c-2.4,1.1-4.5,2.5-7.4,2c-2.1-0.4-3-1.9-4.4-3.3C342.3,75,347.3,75.2,352.2,75.1z
			 M337.3,70.5c1.6-1.7,2.5-3.6,5.1-3.4c2.2-0.1,3.2,2,4.4,3.4C343.7,70.7,340.5,70.7,337.3,70.5z"/>
		<path class="st2" d="M376.2,51.6c-2,0-4.1-0.1-6.1,0.1c-0.3,4-0.1,8-0.1,11.9c-3.5-1.8-7.3-2.6-11-0.6c-7,3.7-7.2,15.6-0.4,19.7
			c3.9,2.3,8.3,1.6,12-0.7l-0.2,1.6c1.9,0,3.8,0,5.7,0C376.3,72.9,376.2,62.3,376.2,51.6z M367.9,77.5c-2.1,1.5-5.2,0.9-6.7-1.2
			c-1.9-2.7-1.1-6.8,2-8.3c1.6-0.7,3.5-0.5,4.9,0.5C370.8,70.6,370.7,75.6,367.9,77.5z"/>
		<path class="st2" d="M170.3,83.6h-6.2c0.1-10.6-0.2-21.3,0.1-31.9c2-0.2,4-0.1,6-0.1C170.3,62.3,170.2,73,170.3,83.6z"/>
		<path class="st2" d="M376.2,51.6c-2,0-4.1-0.1-6.1,0.1c-0.3,4-0.1,8-0.1,11.9c-3.5-1.8-7.3-2.6-11-0.6c-7,3.7-7.2,15.6-0.4,19.7
			c3.9,2.3,8.3,1.6,12-0.7l-0.2,1.6c1.9,0,3.8,0,5.7,0C376.3,72.9,376.2,62.3,376.2,51.6z M367.9,77.5c-2.1,1.5-5.2,0.9-6.7-1.2
			c-1.9-2.7-1.1-6.8,2-8.3c1.6-0.7,3.5-0.5,4.9,0.5C370.8,70.6,370.7,75.6,367.9,77.5z"/>
		<path class="st2" d="M141.5,55.4c-4.1,9.6-8.4,19.2-12.5,28.7c-0.8,0-1.6,0-2.4,0c-4.1-9.6-8.5-19-12.5-28.7
			c2.3-0.1,4.7-0.1,7-0.1c2.2,5.4,4.5,10.8,6.7,16.2c2.2-5.4,4.4-10.8,6.6-16.2C136.8,55.4,139.1,55.4,141.5,55.4z"/>
		<path class="st2" d="M256.2,61v6.4h10.3v5.6c-3.4,0-6.9,0-10.3,0c0,3.5,0,7,0,10.5c-2,0-4.1,0-6.1,0c0-9.4-0.1-18.8,0.1-28.2
			c6.2,0,12.4,0,18.7,0V61H256.2z"/>
		<path class="st2" d="M193.6,78.8c-1.5,1.8-2.8,3.5-5,4.4c-4.1,1.7-9.2,1.1-12.5-2.1c-4.6-4-4.6-12.1-0.1-16.2
			c3.3-3.3,8.7-3.9,12.8-2.1c2.1,0.9,3.3,2.7,4.7,4.4c-1.4,1.1-2.9,2.3-4.3,3.4c-1.1-1-2.4-2.3-3.8-2.8c-2.7-0.8-5.5,1-6.3,3.7
			c-0.8,3,1,6.3,4.1,6.8c2.6,0.5,4.1-1.5,5.9-2.9C190.7,76.5,192.1,77.6,193.6,78.8z"/>
		<path class="st2" d="M213,69.9c-0.2-2.3-0.9-4.4-2.7-5.9c-2.5-2.1-6.5-2.4-9.6-1.7c-2.6,0.6-4.4,2.3-6.3,4
			c1.1,1.3,2.2,2.6,3.3,3.9c2.1-1.5,3.8-3.3,6.7-2.8c2.1,0.4,2.2,2.2,3,3.8c-3.5,0.3-8.3-0.4-11.2,1.7c-3.6,2.5-2.7,8.7,1.3,10.3
			c3.5,1.5,7,0.6,10.1-1.2l-0.1,1.5h5.7C213,79,213.3,74.4,213,69.9z M204,79.2c-1.8,0.4-4.6-0.4-3.6-2.8c1.8-1.3,4.8-0.7,6.9-0.8
			C206.3,77.1,205.8,78.8,204,79.2z"/>
		<path class="st2" d="M236.2,83.6h-6.1c-0.1-4,0.1-8.1-0.1-12.1c-0.1-1.7-0.7-3.2-2.4-3.8c-2.1-0.7-4.4,0.7-4.7,3
			c-0.4,4.3-0.1,8.6-0.2,12.9h-6.2c0-7.1,0-14.1,0-21.2c1.8,0,3.5-0.1,5.3-0.1c0.2,0.4,0.4,0.8,0.6,1.1c2.5-1,4.9-1.9,7.7-1.3
			c3.4,0.5,5.7,3.6,5.8,6.9C236.4,73.9,236.1,78.8,236.2,83.6z"/>
		<path class="st2" d="M287.7,64.9c-3-2.9-7.2-3.5-11.1-2.7c-4.5,1.1-8.2,5.3-8.2,10.1c-0.2,3.5,1,6.7,3.7,9.1
			c4.4,4,12.3,3.6,16.3-1C292.3,76.3,292.1,68.7,287.7,64.9z M282.2,77.5c-2.2,1.4-5.2,0.7-6.6-1.4c-2-2.9-0.8-7.1,2.6-8.3
			c2.3-0.7,4.6,0.3,5.8,2.4C285.4,72.7,284.7,76.1,282.2,77.5z"/>
		<path class="st2" d="M306.9,67.6c-2.8,0.5-5.6,0.3-6.8,3.4c-0.8,4-0.3,8.4-0.4,12.6h-6.2c0.1-7-0.1-14,0.1-21
			c1.8-0.4,3.8-0.3,5.7-0.3l-0.3,1.6c2.8-1.5,4.6-1.9,7.7-1.8C306.8,64,306.8,65.8,306.9,67.6z"/>
		<path class="st2" d="M329,62.3c-1.9,0-3.8,0-5.7,0c0,0.5,0,1.1,0,1.6c-4.6-3-10.9-3-14.6,1.4c-2.3,2.8-2.7,6.8-1.9,10.2
			c0.8,3.8,4.1,6.9,8,7.3c3,0.4,5.6-0.6,8.4-1.6c-1.1,1.8-1.5,3.8-3.7,4.4c-3.5,1.1-6.1-0.8-9-2.4c-1.1,1.5-2.2,2.9-3.3,4.4
			c2.6,1.8,5.2,3.5,8.5,3.8c3.8,0.5,8.6-0.1,11-3.4c2-2.5,2.2-5.5,2.3-8.5C329,73.8,329,68.1,329,62.3z M320.4,76.9
			c-2.3,1.4-5.3,0.5-6.7-1.8c-1.6-2.7-0.6-6.4,2.4-7.6c1.8-0.6,3.8-0.4,5.2,0.9C323.7,70.7,323.3,75.3,320.4,76.9z"/>
		<path class="st2" d="M352.2,75.1c0.2-3.2,0.6-6.1-1.2-8.9c-3.4-5.5-12.3-5.7-16.5-1.1c-4.5,4.4-4.1,12.8,1,16.6
			c5,3.8,11.4,2.8,16.3-0.7c-0.8-1.5-1.7-3-2.6-4.5c-2.4,1.1-4.5,2.5-7.4,2c-2.1-0.4-3-1.9-4.4-3.3C342.3,75,347.3,75.2,352.2,75.1z
			 M337.3,70.5c1.6-1.7,2.5-3.6,5.1-3.4c2.2-0.1,3.2,2,4.4,3.4C343.7,70.7,340.5,70.7,337.3,70.5z"/>
		<path class="st2" d="M160.7,74.8c-0.1,2.6-0.9,5-2.8,6.8c-2.8,2.7-7.2,3.1-10.8,2c-3.4-1.2-5.7-4.3-5.9-7.9
			c-0.3-4.4-0.1-8.8-0.1-13.2c2,0,4.1,0,6.1,0c0,3.6,0,7.2,0,10.8c0.1,1.5,0,3,1.2,4.1c1.9,1.9,5.4,1,5.9-1.8
			c0.5-4.3,0.1-8.8,0.2-13.2c2.1,0,4.1,0,6.2,0C160.7,66.5,160.8,70.6,160.7,74.8z"/>
		<g>
			<path class="st2" d="M93.5,74.6c-2.2-0.9-4.4-1.7-6.5-2.7c-1.2-0.6-2.4-1.1-3.6-1.7c-3-1.6-6-3.2-8.7-5.2
				c-1.5-1.1-3.1-2.3-4.3-3.7c1.3,0.9,2.7,1.7,4.2,2.4c3.2,1.6,6.7,2.6,10.2,3.1c1.6-3,3.3-5.9,4.9-8.9c3.4-6.1,6.8-12.3,10.2-18.4
				H85.5h-9.7c-4.2,8-8.4,16-12.5,24c-0.2-0.2-0.3-0.4-0.4-0.6c-4.8-7.7-9.6-15.4-14.5-23.1l-0.2-0.3H25.8v0
				c3.6,4.2,7.4,8.1,11.5,11.9c2.2,1.9,4.3,3.9,6.6,5.7c1.8,1.4,3.6,2.8,5.5,4.1c1.3,0.9,2.7,1.9,4.1,2.6c-0.5-0.6-1.1-1.2-1.5-1.9
				c-2.3-3-3.9-6.5-4.7-10.3c4.6,4.6,9.7,8.8,15.1,12.4c2.1,1.4,4.2,2.7,6.4,3.9c1.2,0.7,2.5,1.3,3.7,1.9c1.4,0.7,2.9,1.4,4.3,2
				c6.7,2.9,13.7,5,21,5.9c2.5,0.3,4.9,0.6,7.4,0.6C101.2,77.4,97.3,76.1,93.5,74.6z"/>
			<path class="st2" d="M58.9,67.8c1,1.8,2.1,3.6,3.4,5.2c1.3,1.6,2.7,3.1,4.2,4.5c-2.3-0.9-4.7-1.9-7-2.9
				c-7.8-3.4-15.3-7.2-22.4-11.8c-1.8-1.1-3.5-2.3-5.3-3.5c-1.6-1.2-3.2-2.4-4.9-3.6c2.2,2.5,4.6,5,7,7.4c2.5,2.5,5,4.9,7.8,7.1
				c1.9,1.6,3.9,3.2,6,4.7c3.7,2.6,7.5,4.8,11.7,6.5c-1.5-0.2-2.9-0.6-4.4-1c-2.9-0.9-5.6-2-8.3-3.4c5.3,9.9,10.9,19.7,16.3,29.5
				c0.1-0.1,0.2-0.3,0.3-0.4c5.3-9.6,10.6-19.3,16-28.9c-3.6-1.4-7.2-2.7-10.7-4.3C65.4,71.2,62.1,69.5,58.9,67.8z"/>
		</g>
	</g>
</g>
</svg>
