<?xml version="1.0" encoding="utf-8"?>
<!-- Generator: Adobe Illustrator 25.4.1, SVG Export Plug-In . SVG Version: 6.00 Build 0)  -->
<svg version="1.1" xmlns="http://www.w3.org/2000/svg" xmlns:xlink="http://www.w3.org/1999/xlink" x="0px" y="0px"
	 viewBox="0 0 402 146" style="enable-background:new 0 0 402 146;" xml:space="preserve">
<style type="text/css">
	.st0{display:none;}
	.st1{display:inline;fill:#190836;}
	.st2{fill:#363435;}
</style>
<g id="Layer_2" class="st0">
</g>
<g id="Layer_1">
	<g>
		<path class="st2" d="M34.8,78c-1.6,0.9-3.4,1.6-4.9,2.6c2.3-0.3,4.4-1.1,6.5-1.7c2.3-0.5,4.4-1.4,6.7-1.9c-0.4,1-0.7,2.1-0.9,3.1
			c-0.6,0.7-1.6,1-2.3,1.5c-4.7,2.3-10.4,2.3-15.4,1.1c2.2-3.4,5.1-6.5,8.5-8.8c3.9-2.6,8.6-3.5,13.3-3.2c-0.4,0.6-0.8,1.3-1.3,1.8
			c-0.7,0.7-1.8,1.2-2.7,1.6C39.8,75.4,37.3,76.7,34.8,78z"/>
		<path class="st2" d="M39.8,64.3c-2.9-3.8-3.8-8.2-3.9-12.9c0.3,0.2,0.7,0.3,1.1,0.5c5.6,2.4,10.5,6.4,12.3,12.5
			c0,0.6,0,1.2-0.1,1.8c-2.4-2.6-4.8-5.1-7.2-7.7c-0.5-0.6-1.1-1.1-1.7-1.6c1.9,3.5,3.8,7,5.8,10.4C45,67.1,44,67,43,67
			C41.8,66.2,40.8,65.3,39.8,64.3z"/>
		<path class="st2" d="M102.9,101.5c-1.5,2.2-3.2,4.1-5.1,5.9c-2.6,2.1-5.3,3.6-8.4,4.7c-4,1.2-8,2-12.2,1.2c-1.5-0.3-3-0.7-4.5-1
			c-5.8-1.8-10.8-5.5-14-10.7c3.8,0.3,7.6-0.2,11-2c3.9-2,7.2-5.3,8.9-9.4c0.2-0.5,0.5-1.1,0.8-1.5c0.8-0.1,1.7,0,2.6,0
			c1.9,4.6,5,8.6,9.5,10.8C95.1,101.4,99,101.9,102.9,101.5z"/>
		<path class="st2" d="M97.8,42.3c-1.5-1.3-3-2.5-4.6-3.7c0.3,3.9,0.4,7.8,0.5,11.6c-2.4-2.9-4.3-6.2-6.6-9.1
			c-2.6-3.5-5.8-6.6-9.7-8.7c0.1,3-0.3,5.9-1.1,8.8c-0.8,2.2-2,4.2-3.6,5.8c-3.2,3.4-7.4,5.8-11.3,8.3c0.2-1.3,0.6-2.4,1.1-3.6
			c0.7-2.1,1.4-4.3,2.1-6.4c-4.9,3.4-8.8,8-10.7,13.7c-0.8,2.1-0.9,4.3-1.4,6.5c1.3-0.5,2.6-1.1,4-1.5c3.7-0.9,7-0.3,10.7-0.6
			c1.9-0.1,3.8,0,5.8,0.1c9.1,0,18.1,0,27.2,0c1.7,0,3.5,0.2,5.2,0.6c1.2,0.4,2.3,0.9,3.4,1.3C108.4,56.6,104.1,48.5,97.8,42.3z
			 M79.8,52.4c-0.6,0.6-1.3,1-2,1.5c-0.2,0.3-0.4,0.6-0.7,0.9c0.8-1.4,1.3-3.3,2.8-4C79.8,51.3,79.8,51.9,79.8,52.4z"/>
		<path class="st2" d="M115.5,80.3c-0.6-5.8-5.1-10.8-10.6-12.5c-1.6-0.4-3.3-0.7-5-0.7c-12.5,0-25,0-37.5,0c-2-0.1-4.1,0.3-6,0.8
			c-3.6,1.3-6.7,3.7-8.5,7.1c-1.5,2.5-2.1,5.1-2,8.1c0,7.3,6.1,14,13.3,14.8c2.5,0.2,5,0.2,7.4-0.8c5.2-1.8,9.1-6.5,10-11.9
			c2.8-0.1,5.5,0,8.3,0c0.5,1.3,0.9,2.6,1.4,3.9c1.6,3.3,4.3,6.1,7.7,7.6c4.2,1.9,9.3,1.8,13.4-0.4
			C113.2,93.3,116.6,86.8,115.5,80.3z M69.2,85.4c-1.7,0.1-3.4,0-5.1,0.1c0,1.7,0,3.5,0,5.2c-1.9,0-3.8,0-5.6,0c0-1.7,0-3.5,0-5.2
			c-1.9-0.1-3.6,0.1-5.4-0.2c0-1.8,0-3.6,0-5.4c1.8,0,3.5,0,5.3,0c0-1.8,0-3.5,0-5.3c1.9,0,3.8,0,5.6,0c0,1.8,0,3.5,0,5.3
			c1.7,0,3.5,0,5.2,0C69.3,81.6,69.4,83.5,69.2,85.4z M98.3,75.3c1.1-1,2.2-0.7,3.6-0.4c0.6,0.8,1.3,1.4,1.2,2.5
			c0.1,1.1-0.7,1.6-1.3,2.5c-0.9,0.1-1.7,0.5-2.6,0.1c-0.9-0.3-1.4-1.3-1.7-2.1C97.4,76.9,97.9,75.9,98.3,75.3z M95,85.5
			c-1.1-0.4-2-0.6-2.6-1.8c-1-1.9,1-4.3,3-3.9c1.2,0.1,2.1,1.3,2.4,2.4c0.1,0.9-0.4,1.6-0.7,2.4C96.3,84.9,95.6,85.2,95,85.5z
			 M103.1,88c0,1.6-1.6,2.9-3.2,2.6c-1.5-0.1-2-1.3-2.4-2.5c0.1-0.9,0.5-2.1,1.4-2.5C100.6,84.3,103.3,86.1,103.1,88z M107.1,84.9
			c-1.7,1-4,0.1-4.2-2c-0.1-1.3,0.5-2.1,1.5-2.8c1.5-0.6,3.1-0.1,3.8,1.3C108.5,82.6,108.5,84.4,107.1,84.9z"/>
		<path class="st2" d="M97.8,42.3c-1.5-1.3-3-2.5-4.6-3.7c0.3,3.9,0.4,7.8,0.5,11.6c-2.4-2.9-4.3-6.2-6.6-9.1
			c-2.6-3.5-5.8-6.6-9.7-8.7c0.1,3-0.3,5.9-1.1,8.8c-0.8,2.2-2,4.2-3.6,5.8c-3.2,3.4-7.4,5.8-11.3,8.3c0.2-1.3,0.6-2.4,1.1-3.6
			c0.7-2.1,1.4-4.3,2.1-6.4c-4.9,3.4-8.8,8-10.7,13.7c-0.8,2.1-0.9,4.3-1.4,6.5c1.3-0.5,2.6-1.1,4-1.5c3.7-0.9,7-0.3,10.7-0.6
			c1.9-0.1,3.8,0,5.8,0.1c9.1,0,18.1,0,27.2,0c1.7,0,3.5,0.2,5.2,0.6c1.2,0.4,2.3,0.9,3.4,1.3C108.4,56.6,104.1,48.5,97.8,42.3z
			 M79.8,52.4c-0.6,0.6-1.3,1-2,1.5c-0.2,0.3-0.4,0.6-0.7,0.9c0.8-1.4,1.3-3.3,2.8-4C79.8,51.3,79.8,51.9,79.8,52.4z"/>
		<path class="st2" d="M41.9,58.3c-0.5-0.6-1.1-1.1-1.7-1.6c1.9,3.5,3.8,7,5.8,10.4C45,67.1,44,67,43,67c-1.2-0.8-2.2-1.7-3.2-2.8
			c-2.9-3.8-3.8-8.2-3.9-12.9c0.3,0.2,0.7,0.3,1.1,0.5c5.6,2.4,10.5,6.4,12.3,12.5c0,0.6,0,1.2-0.1,1.8
			C46.7,63.5,44.3,60.9,41.9,58.3z"/>
		<g>
			<path class="st2" d="M163.8,37.3c4,10.4,7.9,20.9,11.9,31.3c-2.3,0-4.5,0-6.8,0c-3.3-8.6-6.5-17.3-9.8-25.9
				c-0.4-1.1-0.8-2.3-1.4-3.2c-0.7-1-2.3-1-3,0c-0.6,0.9-0.9,2-1.3,2.9c-3.4,8.7-6.9,17.5-10.3,26.2c-2.2,0-4.5,0-6.7,0
				c4.1-10.3,8.1-20.6,12.2-31c0.7-1.7,1.4-3.3,3.2-4.2c2.5-1.3,6.2-1.3,8.7-0.2C162.3,34,163.1,35.6,163.8,37.3z"/>
			<path class="st2" d="M199.7,40.9v5.2c-3,0-6,0-9,0c-1.2,0-2.6,0.2-3.5,1c-0.8,0.9-0.9,2.3-1,3.5c0,6,0,12,0,18h-5.5
				c0-6.4,0-12.8,0-19.2c0.1-2.3,0.2-4.8,1.8-6.6c0.9-1.1,2.1-1.4,3.3-1.8C190.5,40.8,195.1,40.9,199.7,40.9z"/>
			<path class="st2" d="M216.8,40.9c4.5,0,9,0,13.6,0v5.2c-4.4,0-8.8,0-13.2,0c-1.8,0-3.9,0.2-5.3,1.5c-1.5,1.3-2,3.4-2.2,5.3
				c-0.2,2.4-0.1,5.2,0.9,7.4c0.9,1.9,3,3,5.1,3c4.9,0,9.8,0,14.7,0v5.4c-4.9,0-9.8,0-14.7,0c-3.2,0-6.7-1.3-8.8-3.9
				c-1.6-2-2.3-4.4-2.7-6.8c-0.3-3.7-0.3-7.2,1.2-10.6c1.2-2.9,3.8-5.1,6.8-5.9C213.7,40.9,215.2,40.9,216.8,40.9z"/>
			<path class="st2" d="M264.6,50.2c0-2-0.5-4.3-1.7-6c-1.8-2.3-4.7-3.3-7.5-3.3c-5.7,0-11.5,0-17.3,0c0,1.7,0,3.4,0,5.2
				c5.5,0,11,0,16.5,0c1.3,0,3,0.3,3.7,1.5c1,1.4,0.8,2.9,0.8,4.6c-5.2,0.1-10.5-0.3-15.7,0.3c-2,0.2-4.2,1-5.5,2.6
				c-1.2,1.5-1.5,3.3-1.5,5.1c0,2.3,0.6,4.6,2.2,6.3c1.6,1.6,4.1,2.1,6.3,2.2c4.9,0,9.7,0,14.6,0c1.5,0,3.5-0.4,4.3-1.9
				c0.6-1.2,0.7-2.6,0.7-3.9C264.6,58.6,264.6,54.4,264.6,50.2z M259.2,61.7c0,0.6-0.3,1-0.6,1.5c-3.9,0-7.7,0-11.6,0
				c-0.9,0-1.9,0.1-2.9-0.1c-2.4-0.6-2.8-4.3-1.1-5.8c0.8-0.7,2.2-0.7,3.2-0.8c4.3,0,8.7,0,13,0C259.2,58.3,259.3,60,259.2,61.7z"/>
			<path class="st2" d="M295.7,28.7c0,4.1,0,8.1,0,12.2c-4.4,0-8.7,0-13.1,0c-3.5,0-7.2,1.7-9.1,4.8c-2,3.2-2.2,6.9-2.1,10.6
				c0.1,3.1,1,6.5,3.1,8.8c2.3,2.4,5.6,3.5,8.8,3.4c2.8,0,5.6,0,8.4,0c2.9-0.1,6-1.3,7.6-3.9c1.7-2.6,1.8-5.7,1.9-8.7
				c0-9.1,0-18.2,0-27.2H295.7z M295.7,55.9c-0.1,1.8,0,3.4-0.9,5c-0.8,1.5-2.5,2.3-4.2,2.3c-2.6,0-5.1,0-7.7,0
				c-2.1,0-4.2-1-5.1-2.9c-1.1-2.3-1.1-5-0.9-7.4c0.2-1.8,0.7-3.9,2-5.2c1.5-1.4,3.6-1.6,5.5-1.6c3.7,0,7.5,0,11.2,0
				C295.8,49.3,295.7,52.6,295.7,55.9z"/>
			<path class="st2" d="M327.4,57.3c2.1,0,4-0.2,5.9-1.1c1.9-1,3.1-3.1,3.3-5.2c0.3-2.7,0-5.6-1.9-7.7c-1.7-1.7-4.2-2.3-6.6-2.3
				c-3.5,0-6.9,0-10.4,0c-2.2,0-4.4,0.5-6.1,2c-1.6,1.2-2.4,3-2.7,5c-0.4,2.9-0.2,5.9-0.3,8.8c0,2.1,0,4.5,0.6,6.5
				c0.8,2.5,2.9,4.3,5.4,5c1.8,0.6,3.5,0.4,5.3,0.4c5.1,0,10.2,0,15.3,0c0-1.8,0-3.6,0-5.4c-5.9,0-11.8,0-17.6,0
				c-1.1,0-2.2-0.3-2.9-1.3c-1-1.4-0.9-3-0.9-4.6C318.5,57.3,323,57.3,327.4,57.3z M314.1,53c0-1.8-0.2-3.8,0.8-5.4
				c0.8-1.2,2.3-1.5,3.7-1.5c2.7,0,5.4,0,8.1,0c1.2,0,2.9,0.2,3.8,1c1.3,1.3,1.3,3.9-0.1,5.2c-1,0.7-2.5,0.7-3.7,0.8
				C322.5,53,318.3,53.1,314.1,53z"/>
			<path class="st2" d="M175.5,81.1c0,9.5,0,19,0,28.5c0.1,2.9-1.3,5.7-4,6.8c-2.6,1-5.7,1-8.2-0.1c-2.3-1.1-3.7-3.5-4.6-5.8
				c-3.3-7.4-6.7-14.7-10.1-22.1c-0.3-0.6-0.6-1.4-1.2-1.8c-0.8-0.6-2.1-0.5-2.9,0.1c-0.7,0.6-0.7,1.7-0.8,2.5c0,9.1,0,18.2,0,27.2
				h-6v-28c0-1.9,0.2-3.7,1.4-5.3c1.3-1.9,3.5-2.7,5.7-2.8c2.2-0.1,4.5,0.1,6.3,1.4c1.9,1.5,2.8,3.6,3.7,5.8
				c3.2,7.1,6.5,14.2,9.7,21.3c0.4,0.9,1,1.5,1.6,2.2c1.3-0.1,2.9,0.2,3.1-1.6c0.1-9.5,0-19.1,0-28.6
				C171.4,81.1,173.4,81.1,175.5,81.1z"/>
			<path class="st2" d="M208.1,104c1.6-0.9,2.7-2.7,3-4.5c0.5-2.4,0.2-5.1-1.1-7.3c-1.4-2.3-4.1-3.2-6.7-3.3c-3.3-0.1-6.6,0-10,0
				c-2.6,0-5.2,0.3-7.3,2.1c-2,1.6-2.7,4-2.8,6.5c-0.1,3.3,0,6.6,0,10c0,2.3,0.5,4.8,2.1,6.5c1.8,2,4.6,2.8,7.2,2.8
				c5.8,0,11.6,0,17.3,0v-5.4c-5.9,0-11.8,0-17.7,0c-1,0-2-0.3-2.7-1.1c-1.1-1.2-0.9-3.2-1-4.8c4.5,0,9.1,0,13.6,0
				C204.3,105.2,206.3,105,208.1,104z M188.6,101c0-1.5-0.1-2.9,0.3-4.4c0.4-1,1-1.8,2-2.2c1.8-0.6,4-0.3,6-0.4
				c2.3,0.1,4.9-0.3,7.1,0.4c2.4,0.8,2.7,4.4,0.8,5.9c-0.9,0.6-2.3,0.7-3.3,0.7C197.2,101,192.9,101,188.6,101z"/>
			<path class="st2" d="M232.6,88.9v5.2c-2.6,0-5.1,0-7.7,0c0,4.2,0,8.3,0,12.5c0,1.2,0,3,0.9,4c1.6,1.5,4.7,0.8,6.8,1v5
				c-2.1,0-4.1,0-6.2,0c-2.1-0.2-4.2-0.8-5.5-2.6c-1.2-1.7-1.5-4.2-1.5-6.2c0-4.6,0-9.1,0-13.7c-1.3,0-2.5,0-3.8,0v-5.2
				c1.3,0,2.5,0,3.8,0c0-2.2,0-4.4,0-6.6h5.5c0,2.2,0,4.4,0,6.6C227.4,88.9,230,88.9,232.6,88.9z"/>
			<path class="st2" d="M279.2,88.9c2,0,3.9,0,5.9,0c-0.9,7.1-2,14.1-2.9,21.2c-0.3,2.1-0.8,4-2.4,5.5c-1.5,1.4-3.5,1.6-5.5,1.7
				c-1.9-0.1-4-0.4-5.4-1.9c-1.6-1.6-1.9-3.7-2.4-5.8c-1.1-5-2.2-10-3.3-15c-0.3-1.7-2-1.7-3.3-1.4c-0.9,0.4-1,1.3-1.2,2.2
				c-1.2,5.3-2.5,10.6-3.7,15.9c-0.4,1.8-1.2,3.5-2.7,4.6c-1.3,1-3.2,1.2-4.8,1.3c-2.1-0.1-4.1-0.4-5.7-1.9c-1.6-1.5-1.9-3.9-2.2-6
				c-0.9-6.8-1.8-13.7-2.7-20.5c2,0,3.9,0,5.9,0c0.8,6.6,1.5,13.1,2.3,19.7c0.1,1,0.1,2.3,0.7,3.1c0.6,0.8,1.5,0.7,2.4,0.6
				c0.9-0.3,1.2-1.1,1.4-1.9c1.3-5.5,2.5-11,3.9-16.5c0.5-2.2,1.7-4.1,3.9-4.9c2.3-0.8,5-0.9,7.3,0c2.2,0.9,3.3,2.9,3.8,5
				c1.2,5.5,2.4,10.9,3.6,16.4c0.2,0.8,0.4,1.5,1.2,1.8c0.7,0.1,1.4,0.1,2.1,0.2c0.6-0.6,0.9-1.2,1.1-2
				C277.3,103.2,278.2,96,279.2,88.9z"/>
			<path class="st2" d="M318,95c-1.7-3.6-5.4-5.9-9.4-6c-2.5-0.1-5.1,0-7.6,0c-3.5,0-7,1.5-9,4.5c-1.9,2.7-2.3,6.2-2.4,9.4
				c0.1,3.2,0.5,6.7,2.5,9.4c1.9,2.7,5,4.1,8.2,4.4c1.4,0.1,2.8,0,4.2,0c2.3,0,4.3,0.2,6.5-0.4c2.5-0.6,4.7-2,6.2-4.2
				c1.3-1.8,1.8-4,2.2-6.2C319.6,102.1,319.6,98.4,318,95z M314,104.3c-0.2,2.3-0.8,4.9-3,6.1c-2.1,1.2-4.2,0.7-6.5,0.8
				c-2-0.1-4.1,0.3-5.9-0.6c-1.8-0.8-2.8-2.5-3.2-4.4c-0.4-2.3-0.4-4.6,0-6.9c0.4-1.8,1.3-3.7,3.1-4.5c2.2-1.1,5.2-0.7,7.5-0.8
				c2.3,0,4.9,0.3,6.4,2.3C314,98.5,314.1,101.8,314,104.3z"/>
			<path class="st2" d="M345.2,88.9v5.2c-3,0-5.9,0-8.9,0c-1.1,0-2.6,0.2-3.5,1c-0.9,0.9-1,2.3-1,3.5c0,6,0,12,0,18h-5.5
				c0-6.6,0-13.3,0-20c0.1-2,0.4-4.6,2-6.1c0.9-0.9,2-1.2,3.2-1.6C336,88.8,340.6,88.9,345.2,88.9z"/>
			<path class="st2" d="M377.4,116.6c-2,0-4.1,0-6.1,0c-1.4-2.6-2.9-5.1-4.3-7.7c-0.8-1.3-1.6-2.8-3.2-3.3c-2.3-0.8-5.1-0.3-7.5-0.4
				v11.5h-5.5c0-13.3,0-26.6,0-39.9h5.5c0,7.9,0,15.8,0,23.7c2.1,0,4.4,0.2,6.5-0.3c1.6-0.3,2.4-1.6,3.2-2.9
				c1.5-2.8,3.1-5.5,4.6-8.3c2-0.1,4,0,6,0c-1.9,3.3-3.6,6.7-5.6,9.9c-1,1.7-2.4,2.8-4.2,3.7c2.1,0.8,3.4,1.9,4.6,3.7
				C373.6,109.6,375.5,113.1,377.4,116.6z"/>
			<path class="st2" d="M295.7,28.7c0,4.1,0,8.1,0,12.2c-4.4,0-8.7,0-13.1,0c-3.5,0-7.2,1.7-9.1,4.8c-2,3.2-2.2,6.9-2.1,10.6
				c0.1,3.1,1,6.5,3.1,8.8c2.3,2.4,5.6,3.5,8.8,3.4c2.8,0,5.6,0,8.4,0c2.9-0.1,6-1.3,7.6-3.9c1.7-2.6,1.8-5.7,1.9-8.7
				c0-9.1,0-18.2,0-27.2H295.7z M295.7,55.9c-0.1,1.8,0,3.4-0.9,5c-0.8,1.5-2.5,2.3-4.2,2.3c-2.6,0-5.1,0-7.7,0
				c-2.1,0-4.2-1-5.1-2.9c-1.1-2.3-1.1-5-0.9-7.4c0.2-1.8,0.7-3.9,2-5.2c1.5-1.4,3.6-1.6,5.5-1.6c3.7,0,7.5,0,11.2,0
				C295.8,49.3,295.7,52.6,295.7,55.9z"/>
			<path class="st2" d="M377.4,116.6c-2,0-4.1,0-6.1,0c-1.4-2.6-2.9-5.1-4.3-7.7c-0.8-1.3-1.6-2.8-3.2-3.3c-2.3-0.8-5.1-0.3-7.5-0.4
				v11.5h-5.5c0-13.3,0-26.6,0-39.9h5.5c0,7.9,0,15.8,0,23.7c2.1,0,4.4,0.2,6.5-0.3c1.6-0.3,2.4-1.6,3.2-2.9
				c1.5-2.8,3.1-5.5,4.6-8.3c2-0.1,4,0,6,0c-1.9,3.3-3.6,6.7-5.6,9.9c-1,1.7-2.4,2.8-4.2,3.7c2.1,0.8,3.4,1.9,4.6,3.7
				C373.6,109.6,375.5,113.1,377.4,116.6z"/>
			<path class="st2" d="M175.7,68.6c-2.3,0-4.5,0-6.8,0c-3.3-8.6-6.5-17.3-9.8-25.9c-0.4-1.1-0.8-2.3-1.4-3.2c-0.7-1-2.3-1-3,0
				c-0.6,0.9-0.9,2-1.3,2.9c-3.4,8.7-6.9,17.5-10.3,26.2c-2.2,0-4.5,0-6.7,0c4.1-10.3,8.1-20.6,12.2-31c0.7-1.7,1.4-3.3,3.2-4.2
				c2.5-1.3,6.2-1.3,8.7-0.2c1.8,0.7,2.6,2.3,3.3,4C167.8,47.7,171.7,58.1,175.7,68.6z"/>
			<path class="st2" d="M175.5,109.7c0.1,2.9-1.3,5.7-4,6.8c-2.6,1-5.7,1-8.2-0.1c-2.3-1.1-3.7-3.5-4.6-5.8
				c-3.3-7.4-6.7-14.7-10.1-22.1c-0.3-0.6-0.6-1.4-1.2-1.8c-0.8-0.6-2.1-0.5-2.9,0.1c-0.7,0.6-0.7,1.7-0.8,2.5c0,9.1,0,18.2,0,27.2
				h-6v-28c0-1.9,0.2-3.7,1.4-5.3c1.3-1.9,3.5-2.7,5.7-2.8c2.2-0.1,4.5,0.1,6.3,1.4c1.9,1.5,2.8,3.6,3.7,5.8
				c3.2,7.1,6.5,14.2,9.7,21.3c0.4,0.9,1,1.5,1.6,2.2c1.3-0.1,2.9,0.2,3.1-1.6c0.1-9.5,0-19.1,0-28.6c2.1,0,4.2,0,6.2,0
				C175.5,90.6,175.5,100.1,175.5,109.7z"/>
			<path class="st2" d="M224.9,94.1c0,4.2,0,8.3,0,12.5c0,1.2,0,3,0.9,4c1.6,1.5,4.7,0.8,6.8,1v5c-2.1,0-4.1,0-6.2,0
				c-2.1-0.2-4.2-0.8-5.5-2.6c-1.2-1.7-1.5-4.2-1.5-6.2c0-4.6,0-9.1,0-13.7c-1.3,0-2.5,0-3.8,0v-5.2c1.3,0,2.5,0,3.8,0
				c0-2.2,0-4.4,0-6.6h5.5c0,2.2,0,4.4,0,6.6c2.6,0,5.1,0,7.7,0v5.2C230,94.1,227.4,94,224.9,94.1z"/>
			<path class="st2" d="M285.1,88.9c-0.9,7.1-2,14.1-2.9,21.2c-0.3,2.1-0.8,4-2.4,5.5c-1.5,1.4-3.5,1.6-5.5,1.7
				c-1.9-0.1-4-0.4-5.4-1.9c-1.6-1.6-1.9-3.7-2.4-5.8c-1.1-5-2.2-10-3.3-15c-0.3-1.7-2-1.7-3.3-1.4c-0.9,0.4-1,1.3-1.2,2.2
				c-1.2,5.3-2.5,10.6-3.7,15.9c-0.4,1.8-1.2,3.5-2.7,4.6c-1.3,1-3.2,1.2-4.8,1.3c-2.1-0.1-4.1-0.4-5.7-1.9c-1.6-1.5-1.9-3.9-2.2-6
				c-0.9-6.8-1.8-13.7-2.7-20.5c2,0,3.9,0,5.9,0c0.8,6.6,1.5,13.1,2.3,19.7c0.1,1,0.1,2.3,0.7,3.1c0.6,0.8,1.5,0.7,2.4,0.6
				c0.9-0.3,1.2-1.1,1.4-1.9c1.3-5.5,2.5-11,3.9-16.5c0.5-2.2,1.7-4.1,3.9-4.9c2.3-0.8,5-0.9,7.3,0c2.2,0.9,3.3,2.9,3.8,5
				c1.2,5.5,2.4,10.9,3.6,16.4c0.2,0.8,0.4,1.5,1.2,1.8c0.7,0.1,1.4,0.1,2.1,0.2c0.6-0.6,0.9-1.2,1.1-2c1-7.2,1.9-14.3,2.9-21.5
				C281.2,88.9,283.2,88.9,285.1,88.9z"/>
			<path class="st2" d="M199.7,40.9v5.2c-3,0-6,0-9,0c-1.2,0-2.6,0.2-3.5,1c-0.8,0.9-0.9,2.3-1,3.5c0,6,0,12,0,18h-5.5
				c0-6.4,0-12.8,0-19.2c0.1-2.3,0.2-4.8,1.8-6.6c0.9-1.1,2.1-1.4,3.3-1.8C190.5,40.8,195.1,40.9,199.7,40.9z"/>
			<path class="st2" d="M209.6,52.8c-0.2,2.4-0.1,5.2,0.9,7.4c0.9,1.9,3,3,5.1,3c4.9,0,9.8,0,14.7,0v5.4c-4.9,0-9.8,0-14.7,0
				c-3.2,0-6.7-1.3-8.8-3.9c-1.6-2-2.3-4.4-2.7-6.8c-0.3-3.7-0.3-7.2,1.2-10.6c1.2-2.9,3.8-5.1,6.8-5.9c1.5-0.5,3-0.5,4.6-0.5
				c4.5,0,9,0,13.6,0v5.2c-4.4,0-8.8,0-13.2,0c-1.8,0-3.9,0.2-5.3,1.5C210.3,48.8,209.8,51,209.6,52.8z"/>
			<path class="st2" d="M264.6,50.2c0-2-0.5-4.3-1.7-6c-1.8-2.3-4.7-3.3-7.5-3.3c-5.7,0-11.5,0-17.3,0c0,1.7,0,3.4,0,5.2
				c5.5,0,11,0,16.5,0c1.3,0,3,0.3,3.7,1.5c1,1.4,0.8,2.9,0.8,4.6c-5.2,0.1-10.5-0.3-15.7,0.3c-2,0.2-4.2,1-5.5,2.6
				c-1.2,1.5-1.5,3.3-1.5,5.1c0,2.3,0.6,4.6,2.2,6.3c1.6,1.6,4.1,2.1,6.3,2.2c4.9,0,9.7,0,14.6,0c1.5,0,3.5-0.4,4.3-1.9
				c0.6-1.2,0.7-2.6,0.7-3.9C264.6,58.6,264.6,54.4,264.6,50.2z M259.2,61.7c0,0.6-0.3,1-0.6,1.5c-3.9,0-7.7,0-11.6,0
				c-0.9,0-1.9,0.1-2.9-0.1c-2.4-0.6-2.8-4.3-1.1-5.8c0.8-0.7,2.2-0.7,3.2-0.8c4.3,0,8.7,0,13,0C259.2,58.3,259.3,60,259.2,61.7z"/>
			<path class="st2" d="M327.4,57.3c2.1,0,4-0.2,5.9-1.1c1.9-1,3.1-3.1,3.3-5.2c0.3-2.7,0-5.6-1.9-7.7c-1.7-1.7-4.2-2.3-6.6-2.3
				c-3.5,0-6.9,0-10.4,0c-2.2,0-4.4,0.5-6.1,2c-1.6,1.2-2.4,3-2.7,5c-0.4,2.9-0.2,5.9-0.3,8.8c0,2.1,0,4.5,0.6,6.5
				c0.8,2.5,2.9,4.3,5.4,5c1.8,0.6,3.5,0.4,5.3,0.4c5.1,0,10.2,0,15.3,0c0-1.8,0-3.6,0-5.4c-5.9,0-11.8,0-17.6,0
				c-1.1,0-2.2-0.3-2.9-1.3c-1-1.4-0.9-3-0.9-4.6C318.5,57.3,323,57.3,327.4,57.3z M314.1,53c0-1.8-0.2-3.8,0.8-5.4
				c0.8-1.2,2.3-1.5,3.7-1.5c2.7,0,5.4,0,8.1,0c1.2,0,2.9,0.2,3.8,1c1.3,1.3,1.3,3.9-0.1,5.2c-1,0.7-2.5,0.7-3.7,0.8
				C322.5,53,318.3,53.1,314.1,53z"/>
			<path class="st2" d="M208.1,104c1.6-0.9,2.7-2.7,3-4.5c0.5-2.4,0.2-5.1-1.1-7.3c-1.4-2.3-4.1-3.2-6.7-3.3c-3.3-0.1-6.6,0-10,0
				c-2.6,0-5.2,0.3-7.3,2.1c-2,1.6-2.7,4-2.8,6.5c-0.1,3.3,0,6.6,0,10c0,2.3,0.5,4.8,2.1,6.5c1.8,2,4.6,2.8,7.2,2.8
				c5.8,0,11.6,0,17.3,0v-5.4c-5.9,0-11.8,0-17.7,0c-1,0-2-0.3-2.7-1.1c-1.1-1.2-0.9-3.2-1-4.8c4.5,0,9.1,0,13.6,0
				C204.3,105.2,206.3,105,208.1,104z M188.6,101c0-1.5-0.1-2.9,0.3-4.4c0.4-1,1-1.8,2-2.2c1.8-0.6,4-0.3,6-0.4
				c2.3,0.1,4.9-0.3,7.1,0.4c2.4,0.8,2.7,4.4,0.8,5.9c-0.9,0.6-2.3,0.7-3.3,0.7C197.2,101,192.9,101,188.6,101z"/>
			<path class="st2" d="M318,95c-1.7-3.6-5.4-5.9-9.4-6c-2.5-0.1-5.1,0-7.6,0c-3.5,0-7,1.5-9,4.5c-1.9,2.7-2.3,6.2-2.4,9.4
				c0.1,3.2,0.5,6.7,2.5,9.4c1.9,2.7,5,4.1,8.2,4.4c1.4,0.1,2.8,0,4.2,0c2.3,0,4.3,0.2,6.5-0.4c2.5-0.6,4.7-2,6.2-4.2
				c1.3-1.8,1.8-4,2.2-6.2C319.6,102.1,319.6,98.4,318,95z M314,104.3c-0.2,2.3-0.8,4.9-3,6.1c-2.1,1.2-4.2,0.7-6.5,0.8
				c-2-0.1-4.1,0.3-5.9-0.6c-1.8-0.8-2.8-2.5-3.2-4.4c-0.4-2.3-0.4-4.6,0-6.9c0.4-1.8,1.3-3.7,3.1-4.5c2.2-1.1,5.2-0.7,7.5-0.8
				c2.3,0,4.9,0.3,6.4,2.3C314,98.5,314.1,101.8,314,104.3z"/>
			<path class="st2" d="M345.2,88.9v5.2c-3,0-5.9,0-8.9,0c-1.1,0-2.6,0.2-3.5,1c-0.9,0.9-1,2.3-1,3.5c0,6,0,12,0,18h-5.5
				c0-6.6,0-13.3,0-20c0.1-2,0.4-4.6,2-6.1c0.9-0.9,2-1.2,3.2-1.6C336,88.8,340.6,88.9,345.2,88.9z"/>
		</g>
		<path class="st2" d="M115.5,80.3c-0.6-5.8-5.1-10.8-10.6-12.5c-1.6-0.4-3.3-0.7-5-0.7c-12.5,0-25,0-37.5,0c-2-0.1-4.1,0.3-6,0.8
			c-3.6,1.3-6.7,3.7-8.5,7.1c-1.5,2.5-2.1,5.1-2,8.1c0,7.3,6.1,14,13.3,14.8c2.5,0.2,5,0.2,7.4-0.8c5.2-1.8,9.1-6.5,10-11.9
			c2.8-0.1,5.5,0,8.3,0c0.5,1.3,0.9,2.6,1.4,3.9c1.6,3.3,4.3,6.1,7.7,7.6c4.2,1.9,9.3,1.8,13.4-0.4
			C113.2,93.3,116.6,86.8,115.5,80.3z M69.2,85.4c-1.7,0.1-3.4,0-5.1,0.1c0,1.7,0,3.5,0,5.2c-1.9,0-3.8,0-5.6,0c0-1.7,0-3.5,0-5.2
			c-1.9-0.1-3.6,0.1-5.4-0.2c0-1.8,0-3.6,0-5.4c1.8,0,3.5,0,5.3,0c0-1.8,0-3.5,0-5.3c1.9,0,3.8,0,5.6,0c0,1.8,0,3.5,0,5.3
			c1.7,0,3.5,0,5.2,0C69.3,81.6,69.4,83.5,69.2,85.4z M98.3,75.3c1.1-1,2.2-0.7,3.6-0.4c0.6,0.8,1.3,1.4,1.2,2.5
			c0.1,1.1-0.7,1.6-1.3,2.5c-0.9,0.1-1.7,0.5-2.6,0.1c-0.9-0.3-1.4-1.3-1.7-2.1C97.4,76.9,97.9,75.9,98.3,75.3z M95,85.5
			c-1.1-0.4-2-0.6-2.6-1.8c-1-1.9,1-4.3,3-3.9c1.2,0.1,2.1,1.3,2.4,2.4c0.1,0.9-0.4,1.6-0.7,2.4C96.3,84.9,95.6,85.2,95,85.5z
			 M103.1,88c0,1.6-1.6,2.9-3.2,2.6c-1.5-0.1-2-1.3-2.4-2.5c0.1-0.9,0.5-2.1,1.4-2.5C100.6,84.3,103.3,86.1,103.1,88z M107.1,84.9
			c-1.7,1-4,0.1-4.2-2c-0.1-1.3,0.5-2.1,1.5-2.8c1.5-0.6,3.1-0.1,3.8,1.3C108.5,82.6,108.5,84.4,107.1,84.9z"/>
		<path class="st2" d="M34.8,78c-1.6,0.9-3.4,1.6-4.9,2.6c2.3-0.3,4.4-1.1,6.5-1.7c2.3-0.5,4.4-1.4,6.7-1.9c-0.4,1-0.7,2.1-0.9,3.1
			c-0.6,0.7-1.6,1-2.3,1.5c-4.7,2.3-10.4,2.3-15.4,1.1c2.2-3.4,5.1-6.5,8.5-8.8c3.9-2.6,8.6-3.5,13.3-3.2c-0.4,0.6-0.8,1.3-1.3,1.8
			c-0.7,0.7-1.8,1.2-2.7,1.6C39.8,75.4,37.3,76.7,34.8,78z"/>
		<path class="st2" d="M102.9,101.5c-1.5,2.2-3.2,4.1-5.1,5.9c-2.6,2.1-5.3,3.6-8.4,4.7c-4,1.2-8,2-12.2,1.2c-1.5-0.3-3-0.7-4.5-1
			c-5.8-1.8-10.8-5.5-14-10.7c3.8,0.3,7.6-0.2,11-2c3.9-2,7.2-5.3,8.9-9.4c0.2-0.5,0.5-1.1,0.8-1.5c0.8-0.1,1.7,0,2.6,0
			c1.9,4.6,5,8.6,9.5,10.8C95.1,101.4,99,101.9,102.9,101.5z"/>
	</g>
</g>
</svg>
