<?xml version="1.0" encoding="utf-8"?>
<!-- Generator: Adobe Illustrator 25.4.1, SVG Export Plug-In . SVG Version: 6.00 Build 0)  -->
<svg version="1.1" xmlns="http://www.w3.org/2000/svg" xmlns:xlink="http://www.w3.org/1999/xlink" x="0px" y="0px"
	 viewBox="0 0 402 146" style="enable-background:new 0 0 402 146;" xml:space="preserve">
<style type="text/css">
	.st0{display:none;}
	.st1{display:inline;fill:#190836;}
	.st2{fill:#363435;}
</style>
<g id="Layer_2" class="st0">
</g>
<g id="Layer_1">
	<g>
		<path class="st2" d="M56.9,57.3h4.9c0,13.2,0,26.4,0,39.6c-1.7,0-3.3-0.1-5-0.1C50.1,86.4,43.3,76,36.3,65.6c0,10.4,0,20.9,0,31.3
			h-5V57.3h5c6.9,10.4,13.7,21,20.6,31.4C56.9,78.2,56.9,67.7,56.9,57.3z"/>
		<path class="st2" d="M95.9,70.1c-4.2-4.3-10.7-5.3-16.3-3.7c-7.8,2.2-11.4,10.2-10.2,17.9c0.7,5.6,4.2,10.2,9.6,12
			c6.2,2,13.6,0.8,17.8-4.5C101.5,85.9,101.2,75.6,95.9,70.1z M94.8,83.5c-0.3,2.9-1.7,5.7-4,7.4c-5,3.5-12.9,2.1-15.4-3.8
			c-2.9-6.5-0.6-15.6,7.2-16.9c3.4-0.5,6.9,0.3,9.4,2.8C94.8,75.9,95.2,79.7,94.8,83.5z"/>
		<path class="st2" d="M132.7,70.2c1.9,2.7,2.2,5.8,2.2,9c0,5.9,0,11.7,0,17.6h-4.9c0-5.3,0-10.6,0-16c0-2.7-0.1-5.6-1.8-7.9
			c-3.4-4.6-11.4-4.3-14.5,0.4c-1.8,2.5-1.7,5.4-1.8,8.3c0,5,0,10.1,0,15.1h-5V66.1h5.1c0,2.3-0.1,4.6-0.1,6.9
			c1.3-2.3,2.4-4.4,4.8-5.8C121.5,64.2,129.3,65.2,132.7,70.2z"/>
		<path class="st2" d="M147.9,75c-2.1,4.3-2,10.4,0.9,14.3c3,4.1,9.4,4.5,13.5,1.8c1.9-1.3,2.7-3.4,3.8-5.3c1.7,0,3.4,0,5.2,0
			c-1.1,3.2-2.2,6.2-5,8.3c-5.7,4.4-15.2,4.1-20.4-1c-5.3-5.2-5.7-14.5-2.2-20.8c4.1-7.2,14.8-8.7,21.5-4.5c3.4,2.2,4.9,5.4,6.1,9.1
			c-1.7,0-3.4,0.1-5.2,0.1c-0.8-1.6-1.6-3.4-2.9-4.7C158.7,68.5,150.6,69.5,147.9,75z"/>
		<path class="st2" d="M205.6,82.6c0-3.9-0.1-7.5-2.3-10.8c-5.3-8.1-19-8.1-24.6-0.4c-3.9,5.6-4.1,14.4-0.1,20
			c4.8,7,16.1,7.7,22.5,2.4c2.4-2,3.3-4.7,4.5-7.5c-1.7,0-3.5-0.1-5.2-0.1c-1.1,2-2,4.2-3.9,5.4c-4,2.4-10,2-13.1-1.6
			c-1.9-2-2.2-4.8-2.8-7.4C188.8,82.6,197.2,82.7,205.6,82.6z M180.4,80.1c0.6-2.3,0.9-5,2.6-6.8c3.7-4.6,11.9-4.7,15.6-0.1
			c1.6,2.1,1.7,4.4,2.1,6.9C193.9,80.2,187.2,80.1,180.4,80.1z"/>
		<path class="st2" d="M231,59c-3.9,0-7.8,0-11.7,0c-4,13.1-8,26.2-12,39.3c3,0.1,6.1,0.1,9.1,0.2c0.9-3.3,1.8-6.7,2.8-10
			c3.3,0,6.8-0.4,10.1,0c1.6,0.2,1.7,1.5,2.2,2.7c0.7,2.4,1.4,4.9,2.1,7.3c3.2,0,6.3,0,9.5,0C239.1,85.3,235,72.2,231,59z
			 M220.6,81.6c1.4-5.1,2.8-10.3,4.2-15.4c1.4,5.1,2.8,10.3,4.3,15.4C226.3,81.7,223.5,81.6,220.6,81.6z"/>
		<path class="st2" d="M272.6,70.1c1.1,9.3,0.6,18.9,0.5,28.3c-2.5,0-4.9,0-7.4-0.1c-0.3-1.2-0.5-2.3-0.8-3.5
			c-2.1,1.7-3.9,3.5-6.6,4.1c-3,0.5-6.5,0.1-8.9-2c-2-1.8-2.7-4.2-3.1-6.7c-0.9-6.7-0.8-13.6-0.4-20.3h8.6
			c0.4,5.8-0.7,11.9,0.3,17.6c0.5,2.4,1.8,4.5,4.6,4.4c3-0.1,4.1-2.6,4.6-5.2c0.8-5.5-0.3-11.2,0.2-16.8
			C267.1,69.7,269.8,69.7,272.6,70.1z"/>
		<path class="st2" d="M319.2,77.4c-0.1,0.6-0.1,1.2-0.2,1.8c1,1.2,2.4,1.6,2.2,3.4c0.1,5.3-0.1,10.6-0.1,15.9
			c-2.9,0-5.8-0.1-8.8-0.1c0-5.8-0.1-11.5,0-17.3c1.1-1.1,1.9-2.2,2.6-3.5c-2.8-1.1-5.2-1.3-6.7-4.2c2.7,0.8,5.4,2.2,8.2,2.1
			c2.1-0.1,4.1-0.3,6.2-0.3C321.6,76,320.4,76.7,319.2,77.4z"/>
		<path class="st2" d="M322.1,52.7c-2.6-1.6-5.7-1.6-8.5-0.7c-2.5,0.8-4.7,2.5-6,4.8c-2.8,5.3-0.1,12.7,5.6,14.8
			c4.2,1.5,9.6,0,12.2-3.8C328.6,63.2,327.1,55.7,322.1,52.7z M311.4,59c-2.1,3.9-0.2,7,1.3,10.6c-1.8-2.3-3.7-4.1-4-7.1
			c-0.3-3.3,1.3-6.3,4.2-7.8c2.8-1.5,5.5-0.8,8.5-0.5C317.5,55.2,313.7,55.1,311.4,59z"/>
		<path class="st2" d="M337.3,89.4c-0.8-4.2-0.3-8.6-0.2-12.9c2.1-0.1,4.2-0.1,6.3-0.2c0-2.1,0-4.3,0-6.4c-2,0-4.1-0.1-6.1-0.1
			c-0.1-2.5-0.2-5.1-0.3-7.6c-1.5,0.4-3,0.7-4.6,1.1c-0.4-2.7-0.5-5.8-1.7-8.2c-3.4-6.5-11.4-10.4-18.5-7.9c-4.8,1.7-7.6,5.3-10,9.6
			c-1.5,0-3,0-4.5,0c0,5,0,10,0,15c-3.4-1.7-6.5-3.1-10.4-2.4c-4.4,0.8-7.6,4.2-9.1,8.4c-1.9,5.6-1.3,12.6,2.5,17.3
			c2.7,3.4,7.5,5.1,11.8,3.7c2.3-0.7,3.9-2.3,5.6-3.8c0.3,1.1,0.6,2.3,0.9,3.4c2.5,0.1,5.1,0.1,7.7,0.2c0.1-8.4,0.3-16.8-0.2-25.2
			c-0.1-4.5-3.7-7-3.3-11.7c0.1-5.3,3.1-10,8-12.2c5.4-2.4,12.1-1.3,16,3.3c2.8,3.4,4.6,8.1,3.1,12.4c-1.5,3.9-4.7,6.8-6,10.8
			c1.4,0.2,2.7,0.3,4.1,0.5c0,4.8-0.4,9.8,0.3,14.5c0.5,2.9,1.5,5.8,4.3,7.2c3.1,1.6,6.9,0.7,10.2,0.2c0-2.1,0-4.3,0.1-6.4
			C341.1,91.5,337.7,92.1,337.3,89.4z M297.2,88.4c-0.8,2.3-2.4,3.6-4.9,3.7c-3.2,0.2-5.1-2.5-5.8-5.3c-1-4,0.1-9.1,4.5-10.5
			c2-0.7,4-0.2,5.3,1.6C298.2,80.8,298.3,85.1,297.2,88.4z"/>
		<path class="st2" d="M366.1,97.7c-4.2,2.3-9.9,2.3-14.4,0.9c-3.9-1.3-6.1-4.5-7.4-8.2c2.4-0.3,4.8-0.5,7.2-0.8
			c0.9,1.2,1.8,2.9,3.1,3.6c2.2,0.8,4.7,0.8,6.9-0.1c1.6-0.9,2.3-2,1.4-3.8c-4.4-2-10.3-2.1-14.6-4.9c-4.3-3.2-3.8-10.3,0.7-13.1
			c3.9-2.4,9.4-2.2,13.7-1.3c4,1,5.8,4.1,7.2,7.6c-2.2,0.3-4.5,0.6-6.7,0.9c-1.1-1.2-1.9-2.5-3.4-3c-2.1-0.7-4.7-0.1-6.8,0.3
			c-0.4,0.7-0.8,1.5-1.2,2.2c3.9,2.8,8.2,2.6,12.8,4.3c2,0.8,4.4,1.9,5.3,4C371.8,90.6,370.1,95.5,366.1,97.7z"/>
		<path class="st2" d="M337.3,89.4c-0.8-4.2-0.3-8.6-0.2-12.9c2.1-0.1,4.2-0.1,6.3-0.2c0-2.1,0-4.3,0-6.4c-2,0-4.1-0.1-6.1-0.1
			c-0.1-2.5-0.2-5.1-0.3-7.6c-1.5,0.4-3,0.7-4.6,1.1c-0.4-2.7-0.5-5.8-1.7-8.2c-3.4-6.5-11.4-10.4-18.5-7.9c-4.8,1.7-7.6,5.3-10,9.6
			c-1.5,0-3,0-4.5,0c0,5,0,10,0,15c-3.4-1.7-6.5-3.1-10.4-2.4c-4.4,0.8-7.6,4.2-9.1,8.4c-1.9,5.6-1.3,12.6,2.5,17.3
			c2.7,3.4,7.5,5.1,11.8,3.7c2.3-0.7,3.9-2.3,5.6-3.8c0.3,1.1,0.6,2.3,0.9,3.4c2.5,0.1,5.1,0.1,7.7,0.2c0.1-8.4,0.3-16.8-0.2-25.2
			c-0.1-4.5-3.7-7-3.3-11.7c0.1-5.3,3.1-10,8-12.2c5.4-2.4,12.1-1.3,16,3.3c2.8,3.4,4.6,8.1,3.1,12.4c-1.5,3.9-4.7,6.8-6,10.8
			c1.4,0.2,2.7,0.3,4.1,0.5c0,4.8-0.4,9.8,0.3,14.5c0.5,2.9,1.5,5.8,4.3,7.2c3.1,1.6,6.9,0.7,10.2,0.2c0-2.1,0-4.3,0.1-6.4
			C341.1,91.5,337.7,92.1,337.3,89.4z M297.2,88.4c-0.8,2.3-2.4,3.6-4.9,3.7c-3.2,0.2-5.1-2.5-5.8-5.3c-1-4,0.1-9.1,4.5-10.5
			c2-0.7,4-0.2,5.3,1.6C298.2,80.8,298.3,85.1,297.2,88.4z"/>
		<path class="st2" d="M322.1,52.7c-2.6-1.6-5.7-1.6-8.5-0.7c-2.5,0.8-4.7,2.5-6,4.8c-2.8,5.3-0.1,12.7,5.6,14.8
			c4.2,1.5,9.6,0,12.2-3.8C328.6,63.2,327.1,55.7,322.1,52.7z M311.4,59c-2.1,3.9-0.2,7,1.3,10.6c-1.8-2.3-3.7-4.1-4-7.1
			c-0.3-3.3,1.3-6.3,4.2-7.8c2.8-1.5,5.5-0.8,8.5-0.5C317.5,55.2,313.7,55.1,311.4,59z"/>
		<path class="st2" d="M61.9,57.3c0,13.2,0,26.4,0,39.6c-1.7,0-3.3-0.1-5-0.1C50.1,86.4,43.3,76,36.3,65.6c0,10.4,0,20.9,0,31.3h-5
			V57.3h5c6.9,10.4,13.7,21,20.6,31.4c0-10.4,0-20.9,0-31.4H61.9z"/>
		<path class="st2" d="M231,59c-3.9,0-7.8,0-11.7,0c-4,13.1-8,26.2-12,39.3c3,0.1,6.1,0.1,9.1,0.2c0.9-3.3,1.8-6.7,2.8-10
			c3.3,0,6.8-0.4,10.1,0c1.6,0.2,1.7,1.5,2.2,2.7c0.7,2.4,1.4,4.9,2.1,7.3c3.2,0,6.3,0,9.5,0C239.1,85.3,235,72.2,231,59z
			 M220.6,81.6c1.4-5.1,2.8-10.3,4.2-15.4c1.4,5.1,2.8,10.3,4.3,15.4C226.3,81.7,223.5,81.6,220.6,81.6z"/>
		<path class="st2" d="M95.9,70.1c-4.2-4.3-10.7-5.3-16.3-3.7c-7.8,2.2-11.4,10.2-10.2,17.9c0.7,5.6,4.2,10.2,9.6,12
			c6.2,2,13.6,0.8,17.8-4.5C101.5,85.9,101.2,75.6,95.9,70.1z M94.8,83.5c-0.3,2.9-1.7,5.7-4,7.4c-5,3.5-12.9,2.1-15.4-3.8
			c-2.9-6.5-0.6-15.6,7.2-16.9c3.4-0.5,6.9,0.3,9.4,2.8C94.8,75.9,95.2,79.7,94.8,83.5z"/>
		<path class="st2" d="M134.9,79.3c0,5.9,0,11.7,0,17.6h-4.9c0-5.3,0-10.6,0-16c0-2.7-0.1-5.6-1.8-7.9c-3.4-4.6-11.4-4.3-14.5,0.4
			c-1.8,2.5-1.7,5.4-1.8,8.3c0,5,0,10.1,0,15.1h-5V66.1h5.1c0,2.3-0.1,4.6-0.1,6.9c1.3-2.3,2.4-4.4,4.8-5.8c5-3,12.7-2,16.1,3
			C134.6,72.9,134.9,76,134.9,79.3z"/>
		<path class="st2" d="M166,85.8c1.7,0,3.4,0,5.2,0c-1.1,3.2-2.2,6.2-5,8.3c-5.7,4.4-15.2,4.1-20.4-1c-5.3-5.2-5.7-14.5-2.2-20.8
			c4.1-7.2,14.8-8.7,21.5-4.5c3.4,2.2,4.9,5.4,6.1,9.1c-1.7,0-3.4,0.1-5.2,0.1c-0.8-1.6-1.6-3.4-2.9-4.7c-4.4-4-12.5-2.9-15.2,2.6
			c-2.1,4.3-2,10.4,0.9,14.3c3,4.1,9.4,4.5,13.5,1.8C164.2,89.8,165,87.8,166,85.8z"/>
		<path class="st2" d="M205.6,82.6c0-3.9-0.1-7.5-2.3-10.8c-5.3-8.1-19-8.1-24.6-0.4c-3.9,5.6-4.1,14.4-0.1,20
			c4.8,7,16.1,7.7,22.5,2.4c2.4-2,3.3-4.7,4.5-7.5c-1.7,0-3.5-0.1-5.2-0.1c-1.1,2-2,4.2-3.9,5.4c-4,2.4-10,2-13.1-1.6
			c-1.9-2-2.2-4.8-2.8-7.4C188.8,82.6,197.2,82.7,205.6,82.6z M180.4,80.1c0.6-2.3,0.9-5,2.6-6.8c3.7-4.6,11.9-4.7,15.6-0.1
			c1.6,2.1,1.7,4.4,2.1,6.9C193.9,80.2,187.2,80.1,180.4,80.1z"/>
		<path class="st2" d="M366.1,97.7c-4.2,2.3-9.9,2.3-14.4,0.9c-3.9-1.3-6.1-4.5-7.4-8.2c2.4-0.3,4.8-0.5,7.2-0.8
			c0.9,1.2,1.8,2.9,3.1,3.6c2.2,0.8,4.7,0.8,6.9-0.1c1.6-0.9,2.3-2,1.4-3.8c-4.4-2-10.3-2.1-14.6-4.9c-4.3-3.2-3.8-10.3,0.7-13.1
			c3.9-2.4,9.4-2.2,13.7-1.3c4,1,5.8,4.1,7.2,7.6c-2.2,0.3-4.5,0.6-6.7,0.9c-1.1-1.2-1.9-2.5-3.4-3c-2.1-0.7-4.7-0.1-6.8,0.3
			c-0.4,0.7-0.8,1.5-1.2,2.2c3.9,2.8,8.2,2.6,12.8,4.3c2,0.8,4.4,1.9,5.3,4C371.8,90.6,370.1,95.5,366.1,97.7z"/>
		<path class="st2" d="M273.1,98.5c-2.5,0-4.9,0-7.4-0.1c-0.3-1.2-0.5-2.3-0.8-3.5c-2.1,1.7-3.9,3.5-6.6,4.1c-3,0.5-6.5,0.1-8.9-2
			c-2-1.8-2.7-4.2-3.1-6.7c-0.9-6.7-0.8-13.6-0.4-20.3h8.6c0.4,5.8-0.7,11.9,0.3,17.6c0.5,2.4,1.8,4.5,4.6,4.4
			c3-0.1,4.1-2.6,4.6-5.2c0.8-5.5-0.3-11.2,0.2-16.8c2.8-0.1,5.6-0.1,8.3,0.3C273.7,79.5,273.2,89.1,273.1,98.5z"/>
		<path class="st2" d="M321.2,82.6c0.1,5.3-0.1,10.6-0.1,15.9c-2.9,0-5.8-0.1-8.8-0.1c0-5.8-0.1-11.5,0-17.3
			c1.1-1.1,1.9-2.2,2.6-3.5c-2.8-1.1-5.2-1.3-6.7-4.2c2.7,0.8,5.4,2.2,8.2,2.1c2.1-0.1,4.1-0.3,6.2-0.3c-1.2,0.8-2.3,1.6-3.6,2.3
			c-0.1,0.6-0.1,1.2-0.2,1.8C320,80.4,321.4,80.8,321.2,82.6z"/>
	</g>
</g>
</svg>
