<?xml version="1.0" encoding="utf-8"?>
<!-- Generator: Adobe Illustrator 25.4.1, SVG Export Plug-In . SVG Version: 6.00 Build 0)  -->
<svg version="1.1" xmlns="http://www.w3.org/2000/svg" xmlns:xlink="http://www.w3.org/1999/xlink" x="0px" y="0px"
	 viewBox="0 0 402 146" style="enable-background:new 0 0 402 146;" xml:space="preserve">
<style type="text/css">
	.st0{display:none;}
	.st1{display:inline;fill:#190836;}
	.st2{fill:#363435;}
</style>
<g id="Layer_2" class="st0">
</g>
<g id="Layer_1">
	<g>
		<path class="st2" d="M67.3,90.3c-2.1,3.7-4.4,7.4-6.5,11.1c-0.4,0.7-0.8,1.7-1.6,2.1c-0.9-1-1.5-2.4-2.2-3.6
			c-1.9-3.3-3.8-6.6-5.7-9.9c-0.7-1.2-1.4-2.2-1.9-3.5c1.2-0.3,2.5-0.2,3.7-0.2c4.1,0,8.3,0,12.4,0c1.3,0,2.7-0.2,4,0.2
			C69,87.8,68,89.1,67.3,90.3z"/>
		<path class="st2" d="M110.4,87.2c-2.6,4.2-5.1,8.6-7.6,12.9c-0.7,1.1-1.2,2.3-1.9,3.3c-0.2,0-0.4,0-0.6,0
			c-0.8-0.9-1.1-2.2-1.7-3.2c-2-4.1-4-8.2-6-12.2c-0.3-0.6-0.6-1.3-0.1-1.9c1.7-0.1,3.4,0,5.1,0c4.3,0,8.6-0.1,12.9,0
			C110.8,86.6,110.7,86.7,110.4,87.2z"/>
		<path class="st2" d="M104.3,61.7c-7.9,13.7-15.8,27.3-23.7,41c-0.3,0.4-0.6,0.9-1.1,1.2c-0.9,0.2-1.8,0.1-2.7,0.1
			c-3.5,0-6.9,0-10.4,0c-1.4,0-2.7,0.3-4,0c0-1.1,1-2.2,1.5-3.2c4.2-7.2,8.6-14.4,12.7-21.6C83,68.2,89.3,57.3,95.6,46.4
			c0.7-1.2,1.3-2.5,2.2-3.6c0.4-0.5,0.9-0.4,1.5-0.4c5.1,0,10.2,0,15.3,0c0.5,0,1.3-0.1,1.6,0.3c0.8,0.9,1.3,2.2,1.9,3.3
			c2.2,4.1,4.2,8.3,6.5,12.3c0.3,0.5,0.5,1,0.6,1.6c-0.7,0.4-1.8,0.2-2.6,0.2c-5.3,0-10.6,0-15.9,0
			C105.6,60.1,104.9,60.7,104.3,61.7z"/>
		<path class="st2" d="M145.9,61.9c-0.4,1-1.1,2-1.7,3c-7.2,12.4-14.4,24.9-21.6,37.3c-0.4,0.7-0.9,1.7-1.5,2.2
			c-0.7,0.2-1.4,0.1-2.1,0.1c-5.2-0.1-10.4,0-15.6,0c0.1-1,0.6-1.7,1.1-2.5c1.1-1.7,2-3.4,3-5.1c6.4-11,12.8-22,19.2-33.1
			c0.6-0.9,1.1-2.5,2.4-2.4c5.3-0.1,10.7,0.1,16-0.1C145.5,61.3,145.6,61.5,145.9,61.9z"/>
		<path class="st2" d="M181.9,51.8c0.3,1.1,0.2,2.4,0.2,3.5c-0.1,0.5,0,0.9-0.4,1.2c-0.6,0.2-1.2,0.1-1.8,0.1c-2.5-0.1-5,0-7.5,0
			c-1.3,0-2.8,0-4,0.5c-1.8,0.7-3.2,2-4,3.7c-0.6,1.4-1.1,2.9-1.3,4.4c-0.2,2.2-0.4,4.4-0.1,6.6c0.2,1.9,1,3.8,2.4,5.1
			c1.1,1.1,3,1.4,4.5,1.4c3.4,0,6.7,0,10.1,0c0.5,0,1.2,0,1.3,0.6c0.2,1.4,0.1,2.9-0.1,4.3c-0.9,0.2-1.8,0.1-2.7,0.1
			c-3.6-0.1-7.2,0-10.8-0.1c-2.8-0.2-5.9-1.3-7.9-3.4c-2-2.1-3.2-5.1-3.6-7.9c-0.2-2.7-0.1-5.4,0.4-8c0.4-2,0.8-3.9,1.9-5.6
			c1.1-2.1,2.8-3.8,5-4.8c1.8-1,3.7-1.1,5.7-1.3c2.9-0.1,5.8,0,8.7-0.1C179.2,51.9,180.6,51.5,181.9,51.8z"/>
		<path class="st2" d="M212,52.1c0.3,0.8,0.1,1.8,0.1,2.6c-0.1,2.8,0.1,5.6-0.2,8.4c-0.2,2.4,0,4.9-0.2,7.3c-0.3,2.5,0,4.9-0.4,7.4
			c-0.3,1.7,0.2,3.7-0.3,5.3c-1.8,0.1-3.7,0.2-5.5-0.1c-0.6-1.3-0.2-3-0.1-4.4c0.1-2.2,0-4.4,0.1-6.7c0-0.7,0.1-1.7-0.6-2.1
			c-1.3-0.2-2.6,0-3.9-0.1c-2.5,0.1-5.1-0.1-7.7,0.1c-0.5,0.5-0.7,1.5-0.8,2.2c-0.2,2.4,0,4.9-0.2,7.3c-0.1,1-0.1,2-0.2,3
			c0,0.8-1,0.8-1.5,0.8c-1.4,0-2.9,0.1-4.3-0.2c-0.3-1.4-0.2-2.9-0.1-4.3c0.4-3.4,0-7,0.4-10.4c0.2-2,0-4,0.3-6.1
			c0.3-3.1-0.1-6.4,0.4-9.5c0-0.4,0.2-0.7,0.6-0.8c1.4-0.1,2.9-0.1,4.4,0c0.6,0,0.8,0.8,0.8,1.3c0,2.1,0,4.2,0,6.4
			c0,1.4-0.5,3.1,0.1,4.4c0.4,0.8,1.4,0.6,2.1,0.7c3-0.1,6,0,9,0c0.9,0,1.5-0.6,1.5-1.6c0.1-2.4,0.4-4.8,0.3-7.2
			c0-1.3-0.2-3,0.7-4.1c1.3-0.2,2.6-0.1,3.8-0.1C211,51.7,211.7,51.6,212,52.1z"/>
		<path class="st2" d="M224,101.2c0,0.6,0,1.4-0.3,1.9c-0.6,0.1-0.6-0.4-0.6-0.8c-0.1-1.6,0.1-3.3,0-4.9c0-0.5-0.2-0.9-0.4-1.3
			c-0.7,0.5-1.3,1.2-1.7,2c-0.7,1.6-0.8,3.5-1.7,5c-0.2,0.4-0.9,0.4-1.1,0c-1.1-2.2-1.4-5-2.8-7.1c-0.3,0.4-0.6,0.7-0.7,1.1
			c-0.6,1.8,0,4-0.3,5.9c-0.2,0.1-0.4,0.2-0.6,0.2c-0.5-2.4-0.2-5,0-7.5c0-1.1-0.4-2.4,0.3-3.3c0.6-0.1,1-0.2,1.4,0.4
			c1.1,2,1.6,4.4,2.4,6.5c0.3,0.6,0.8,1.8,1.6,1.4c0.5-1,0.9-2.1,1.3-3.2c0.6-1.6,0.8-3.5,1.8-4.9c0.3-0.4,0.8-0.3,1.2-0.3
			c0.4,0.8,0.3,1.7,0.3,2.5C223.9,97,224,99.1,224,101.2z"/>
		<path class="st2" d="M240.8,83.1c-0.6,0.1-1.3,0.1-2,0.1c-3.4-0.1-6.7,0-10.1,0c-2.1,0-4.3-0.5-6.2-1.4c-2.7-1.4-4.6-4-5.5-6.9
			c-1.1-2.9-0.8-5.6-0.7-8.6c0.3-3.3,1.2-7.1,3.3-9.8c1.4-1.9,3.5-3.3,5.8-3.9c4.4-1,8.8-0.5,13.2-0.7c1.1,0,2.6-0.4,3.5,0.2
			c0.4,1.4,0.2,3,0,4.5c-1.6,0.7-3.6,0-5.3,0.2c-1.7,0.2-3.5-0.1-5.2,0c-1.7,0.2-3.2,0.1-4.8,1c-2,1.1-3.2,3.2-3.5,5.4
			c-0.1,0.6,0.1,1.1,0.7,1.4c0.7,0.2,1.4,0.1,2.1,0.1c4.5-0.1,9.1,0,13.6,0c0.8,0.1,1.8-0.2,2,0.8c0.3,0.9,0.2,2.6-0.1,3.5
			c-0.3,0.9-1.1,0.8-1.9,0.9c-4.7-0.1-9.4,0-14.2,0c-0.7,0-1.4,0-2.1,0.2c-0.6,0.4-0.4,1.7-0.4,2.3c0,2,1.3,3.7,2.8,4.9
			c1.1,0.9,2.4,1,3.8,1c3.3,0,6.6,0,9.8,0c0.6,0.1,1.4-0.1,1.7,0.5c0.2,0.9,0.2,1.9,0.1,2.8C241.2,82.1,241.3,82.7,240.8,83.1z"/>
		<path class="st2" d="M248.3,102.7c-0.2,0.3-0.2,0.6-0.6,0.6c-1.3,0.1-2.6,0-4,0c-1,0-2,0.1-2.9-0.1c-0.5-0.3-0.4-1.2-0.4-1.7
			c0-2.4,0-4.8,0-7.3c0.1-0.5-0.1-1.4,0.4-1.7c0.8-0.2,1.8-0.1,2.6-0.1c1.4,0,2.8-0.1,4.3,0c0,0.2,0,0.5,0,0.7
			c-1.6,0.2-3.4-0.3-5,0.1c-1.7,0.3-2,3.4-0.3,3.9c1.5,0.4,3.2,0.1,4.7,0.2c0,0.2,0,0.4,0,0.6c-1.4,0.1-2.9-0.1-4.2,0.1
			c-2.2,0.3-2.2,4.4,0,4.7C244.6,103,246.5,102.5,248.3,102.7z"/>
		<path class="st2" d="M272.3,93.9c-0.8-1-1.9-1.5-3.2-1.5c-1.2-0.1-2.5-0.1-3.7,0.1c-0.8,0.1-0.9,0.9-1,1.5c-0.1,1.3,0,2.7,0,4.1
			c0.1,1.5-0.2,3.1,0.2,4.5c0.2,0.9,1.2,0.8,1.9,0.8c1.7,0,4,0,5.4-1.1C274,100.1,274.1,96.3,272.3,93.9z M269.8,102.5
			c-0.8,0.5-1.8,0.4-2.7,0.3c-0.8-0.1-1.6-0.9-1.6-1.7c-0.1-1.1,0-2.3-0.1-3.4c0-1-0.1-2.1,0-3.1c0-0.8,0.8-1.6,1.6-1.7
			c0.9-0.1,1.9-0.1,2.7,0.3c0.9,0.5,1.7,1.3,2.1,2.2c0.5,1,0.6,2.3,0.4,3.4C272.2,100.4,271.1,101.7,269.8,102.5z"/>
		<path class="st2" d="M273.4,79.5c-1.4-2.4-2.7-4.9-4.2-7.3c-0.3-0.7-1-1.5-0.3-2.2c1-0.9,2.4-1.2,3.4-2.2c1.5-1.5,2.5-3.7,2.5-5.8
			c0-1.5,0.1-3.1-0.3-4.6c-0.7-2.2-2.3-4.5-4.8-5c-1.8-0.3-3.7-0.6-5.5-0.7c-4.6,0-9.2,0-13.9,0c-0.7,0-1.4,0-2.1,0.4
			c-0.3,0.6-0.4,1.2-0.4,1.8c-0.1,2.3,0.1,4.6-0.2,6.9c-0.3,2.8,0,5.6-0.2,8.4c-0.4,4.2,0.1,8.6-0.4,12.8c-0.1,0.6,0.1,1.1,0.7,1.2
			c1.7,0.1,3.5,0.1,5.2-0.1c0.2-1.5,0-3.1,0.2-4.7c0.2-1.9,0.1-3.8,0.2-5.7c0.1-0.9,0.4-1.9,1.3-2.1c1.3-0.3,2.7-0.1,4-0.2
			c0.9,0,2.1-0.1,2.9,0.4c1,0.7,1.6,2,2.1,3.1c1.3,2.5,2.6,4.9,3.9,7.4c0.3,0.6,0.7,1.5,1.4,1.7c1.3,0.2,2.6,0,3.9,0.1
			c0.7,0,1.6,0.1,2.3-0.3C274.9,81.7,274.1,80.6,273.4,79.5z M266.5,65.1c-1,0.6-2,0.5-3.1,0.5c-2.6,0-5.2,0-7.8,0
			c-0.7-0.1-1.4,0.1-1.8-0.7c-0.3-1.2,0-2.6,0.1-3.8c0.1-1.1-0.1-2.4,0.3-3.5c0.4-1,1.4-0.7,2.3-0.8c2.9,0.1,5.7-0.1,8.6,0.1
			c2.2,0.2,3.9,2.2,3.8,4.4C268.6,62.8,267.8,64.3,266.5,65.1z"/>
		<path class="st2" d="M290.5,102.7c-0.5,0.2-0.7,0.1-0.7-0.3c-0.2-1.4,0-2.9-0.1-4.4c0-1.7-0.1-3.4,0.1-5l0.7,0
			c0.2,1.6,0.1,3.3,0.1,5C290.6,99.6,290.7,101.2,290.5,102.7z"/>
		<path class="st2" d="M304.4,52.5c0.2,1.3,0.2,2.8-0.2,4c-0.5,0.2-1,0.3-1.6,0.3c-2.5,0-5-0.1-7.5,0c-0.8,0-1.2,0.6-1.3,1.4
			c-0.1,2,0.1,4-0.2,6c-0.2,2,0,4-0.3,6c-0.3,2.6,0,5.2-0.3,7.8c-0.2,1.7,0.1,3.5-0.3,5.1c-1.9,0.1-3.9,0.1-5.9,0
			c-0.2-0.5-0.2-1-0.2-1.6c0.3-2.6,0-5.1,0.2-7.7c0.4-3.4,0.2-6.8,0.2-10.2c0-1.9,0.4-3.6,0.2-5.5c-0.1-0.7-0.5-1.3-1.3-1.3
			c-2.9-0.2-5.8,0.2-8.7-0.1c-0.2-1.3-0.2-2.7,0-4c0-0.5,0.3-0.8,0.7-0.8c1.3-0.1,2.7,0,4,0c6.9,0,13.9,0,20.8,0
			C303.4,52,304.3,51.8,304.4,52.5z"/>
		<path class="st2" d="M315.4,101.1c-1-2-1.5-4.2-2.6-6.1c-0.4-0.9-0.8-1.9-1.4-2.6c-0.5,0-0.7-0.1-1,0.5c-0.9,2-1.8,4.1-2.5,6.2
			c-0.4,1.3-1.2,2.5-1.5,3.9c0.2,0.2,0.4,0.3,0.7,0.2c0.7-0.9,1-2.1,1.8-2.9c0.5-0.3,1.2-0.3,1.8-0.4c0.9,0,2.1,0,2.9,0.5
			c0.5,0.4,0.8,1.2,1.1,1.8c0.3,0.4,0.3,1,0.9,1C316.1,102.7,315.6,101.7,315.4,101.1z M311,99.3c-0.9,0-1.7-0.7-1.5-1.6
			c0.2-0.9,0.3-2.3,1-2.9c0.4-0.3,1.5-0.3,1.6,0.3c0.4,1.1,0.7,2.3,0.7,3.4C312.6,99.4,311.6,99.4,311,99.3z"/>
		<path class="st2" d="M336.3,68c0-1.9,0.1-4-0.3-5.9c-0.6-2.9-1.6-5.6-3.9-7.7c-1.7-1.6-3.9-2.3-6.1-2.8c-2.4-0.5-5-0.5-7.5-0.4
			c-2.2,0.1-4.3,0.7-6.2,1.7c-2.6,1.4-4.7,3.8-5.8,6.6c-0.8,2.2-1.5,4.4-1.4,6.8c0.1,3.1-0.4,5.7,0.7,8.7c0.8,2.7,2.3,5,4.7,6.6
			c1.8,1.1,3.7,1.8,5.8,2c2.4,0.3,4.7,0.3,7.1,0.1c2.6-0.1,5.1-1,7.3-2.5c2.8-2.1,4.6-5.1,5.4-8.4C336.4,71.1,336.2,69.5,336.3,68z
			 M328.8,73.1c-0.9,2.3-2.5,4.5-4.8,5.6c-1.3,0.4-2.7,0.2-4.1,0.2c-1.9,0-3.7-0.5-5.3-1.5c-1.4-1-2.2-2.8-2.5-4.4
			c-0.5-2.7-0.6-5.6-0.3-8.4c0.3-2.3,1.3-4.4,2.9-6.1c1.2-1.3,3-2.1,4.8-2.4c2.8-0.4,5.9,0.4,7.9,2.5c1.6,1.8,2.2,4.2,2.3,6.5
			C329.7,67.8,329.7,70.5,328.8,73.1z"/>
		<path class="st2" d="M370,81.6c0,0.6,0,1.3-0.8,1.4c-1.2,0.1-2.5,0-3.7,0c-0.5,0-1.2,0.1-1.5-0.4c-0.1-1.1,0-2.2,0-3.3
			c0-4,0-8.1,0.1-12.1c0.2-2.2,0.3-4.4,0.2-6.7c0-0.7-0.2-1.2-0.9-1.4c-1,1.3-1.7,2.8-2.5,4.2c-3.3,5.7-6.5,11.4-9.8,17
			c-0.6,0.9-1.1,2-1.8,2.8c-0.7,0.5-1.9,0.3-2.7,0.2c-1.4-0.1-2.7,0.3-4-0.1c-0.5-1-0.2-2.3-0.2-3.4c0-8.7,0-17.3,0-26
			c0-0.6,0.1-1.2,0.5-1.8c1.3-0.2,2.7-0.1,4-0.1c0.7,0,1.4,0.2,1.5,1c0.3,2.7-0.2,5.4-0.2,8.1c0,3.6,0,7.1-0.1,10.7
			c0,0.6-0.1,1.3,0.2,1.8c0.2,0.2,0.7,0.1,1,0.1c0.7-0.9,1.2-2.1,1.8-3.2c2.7-4.8,5.5-9.5,8.2-14.3c0.7-1.2,1.3-2.5,2.2-3.6
			c0.4-0.5,0.9-0.3,1.5-0.4c1.4,0,2.7-0.7,4.1-0.8c0.9,0,1.9-0.1,2.7,0.3c0.3,0.4,0.3,0.8,0.3,1.3C370.1,62.5,370,72,370,81.6z"/>
		<path class="st2" d="M83.4,60.2c-1,0.2-2.1,0.1-3.1,0.1c-4.8,0-9.6,0-14.5,0c-0.7,0-1.5-0.1-2,0.5c-0.9,1-1.4,2.3-2.1,3.4
			c-3.5,6-7,12-10.5,18.1c-0.5,0.9-1.1,1.8-1.9,2.5c-0.5,0.4-1.1,0.3-1.8,0.4c-3.9-0.1-7.7,0-11.6,0c-1.3,0-2.7,0.2-4-0.1
			c-0.3-0.7,0.2-1.2,0.5-1.8c0.8-1.3,1.6-2.6,2.4-4c4.8-8.4,9.7-16.7,14.5-25.1c2.4-4.3,5.1-8.4,7.3-12.7h18.2
			c0.9,2.1,2,4.1,2.9,6.2c1.4,2.8,2.8,5.7,4.2,8.5c0.5,1.1,1.2,2.2,1.6,3.3C83.7,59.7,83.6,60,83.4,60.2z"/>
		<path class="st2" d="M125.2,59.9c-0.7,0.4-1.8,0.2-2.6,0.2c-5.3,0-10.6,0-15.9,0c-1.2,0-1.9,0.6-2.5,1.6
			c-7.9,13.7-15.8,27.3-23.7,41c-0.3,0.4-0.6,0.9-1.1,1.2c-0.9,0.2-1.8,0.1-2.7,0.1c-3.5,0-6.9,0-10.4,0c-1.4,0-2.7,0.3-4,0
			c0-1.1,1-2.2,1.5-3.2c4.2-7.2,8.6-14.4,12.7-21.6C83,68.2,89.3,57.3,95.6,46.4c0.7-1.2,1.3-2.5,2.2-3.6c0.4-0.5,0.9-0.4,1.5-0.4
			c5.1,0,10.2,0,15.3,0c0.5,0,1.3-0.1,1.6,0.3c0.8,0.9,1.3,2.2,1.9,3.3c2.2,4.1,4.2,8.3,6.5,12.3C124.9,58.8,125.1,59.3,125.2,59.9z
			"/>
		<path class="st2" d="M336.3,68c0-1.9,0.1-4-0.3-5.9c-0.6-2.9-1.6-5.6-3.9-7.7c-1.7-1.6-3.9-2.3-6.1-2.8c-2.4-0.5-5-0.5-7.5-0.4
			c-2.2,0.1-4.3,0.7-6.2,1.7c-2.6,1.4-4.7,3.8-5.8,6.6c-0.8,2.2-1.5,4.4-1.4,6.8c0.1,3.1-0.4,5.7,0.7,8.7c0.8,2.7,2.3,5,4.7,6.6
			c1.8,1.1,3.7,1.8,5.8,2c2.4,0.3,4.7,0.3,7.1,0.1c2.6-0.1,5.1-1,7.3-2.5c2.8-2.1,4.6-5.1,5.4-8.4C336.4,71.1,336.2,69.5,336.3,68z
			 M328.8,73.1c-0.9,2.3-2.5,4.5-4.8,5.6c-1.3,0.4-2.7,0.2-4.1,0.2c-1.9,0-3.7-0.5-5.3-1.5c-1.4-1-2.2-2.8-2.5-4.4
			c-0.5-2.7-0.6-5.6-0.3-8.4c0.3-2.3,1.3-4.4,2.9-6.1c1.2-1.3,3-2.1,4.8-2.4c2.8-0.4,5.9,0.4,7.9,2.5c1.6,1.8,2.2,4.2,2.3,6.5
			C329.7,67.8,329.7,70.5,328.8,73.1z"/>
		<path class="st2" d="M182.1,55.3c-0.1,0.5,0,0.9-0.4,1.2c-0.6,0.2-1.2,0.1-1.8,0.1c-2.5-0.1-5,0-7.5,0c-1.3,0-2.8,0-4,0.5
			c-1.8,0.7-3.2,2-4,3.7c-0.6,1.4-1.1,2.9-1.3,4.4c-0.2,2.2-0.4,4.4-0.1,6.6c0.2,1.9,1,3.8,2.4,5.1c1.1,1.1,3,1.4,4.5,1.4
			c3.4,0,6.7,0,10.1,0c0.5,0,1.2,0,1.3,0.6c0.2,1.4,0.1,2.9-0.1,4.3c-0.9,0.2-1.8,0.1-2.7,0.1c-3.6-0.1-7.2,0-10.8-0.1
			c-2.8-0.2-5.9-1.3-7.9-3.4c-2-2.1-3.2-5.1-3.6-7.9c-0.2-2.7-0.1-5.4,0.4-8c0.4-2,0.8-3.9,1.9-5.6c1.1-2.1,2.8-3.8,5-4.8
			c1.8-1,3.7-1.1,5.7-1.3c2.9-0.1,5.8,0,8.7-0.1c1.3,0,2.8-0.4,4.1-0.1C182.2,52.9,182.1,54.1,182.1,55.3z"/>
		<path class="st2" d="M212.1,54.7c-0.1,2.8,0.1,5.6-0.2,8.4c-0.2,2.4,0,4.9-0.2,7.3c-0.3,2.5,0,4.9-0.4,7.4
			c-0.3,1.7,0.2,3.7-0.3,5.3c-1.8,0.1-3.7,0.2-5.5-0.1c-0.6-1.3-0.2-3-0.1-4.4c0.1-2.2,0-4.4,0.1-6.7c0-0.7,0.1-1.7-0.6-2.1
			c-1.3-0.2-2.6,0-3.9-0.1c-2.5,0.1-5.1-0.1-7.7,0.1c-0.5,0.5-0.7,1.5-0.8,2.2c-0.2,2.4,0,4.9-0.2,7.3c-0.1,1-0.1,2-0.2,3
			c0,0.8-1,0.8-1.5,0.8c-1.4,0-2.9,0.1-4.3-0.2c-0.3-1.4-0.2-2.9-0.1-4.3c0.4-3.4,0-7,0.4-10.4c0.2-2,0-4,0.3-6.1
			c0.3-3.1-0.1-6.4,0.4-9.5c0-0.4,0.2-0.7,0.6-0.8c1.4-0.1,2.9-0.1,4.4,0c0.6,0,0.8,0.8,0.8,1.3c0,2.1,0,4.2,0,6.4
			c0,1.4-0.5,3.1,0.1,4.4c0.4,0.8,1.4,0.6,2.1,0.7c3-0.1,6,0,9,0c0.9,0,1.5-0.6,1.5-1.6c0.1-2.4,0.4-4.8,0.3-7.2
			c0-1.3-0.2-3,0.7-4.1c1.3-0.2,2.6-0.1,3.8-0.1c0.5,0.1,1.2-0.1,1.5,0.4C212.2,52.9,212.1,53.8,212.1,54.7z"/>
		<path class="st2" d="M370,81.6c0,0.6,0,1.3-0.8,1.4c-1.2,0.1-2.5,0-3.7,0c-0.5,0-1.2,0.1-1.5-0.4c-0.1-1.1,0-2.2,0-3.3
			c0-4,0-8.1,0.1-12.1c0.2-2.2,0.3-4.4,0.2-6.7c0-0.7-0.2-1.2-0.9-1.4c-1,1.3-1.7,2.8-2.5,4.2c-3.3,5.7-6.5,11.4-9.8,17
			c-0.6,0.9-1.1,2-1.8,2.8c-0.7,0.5-1.9,0.3-2.7,0.2c-1.4-0.1-2.7,0.3-4-0.1c-0.5-1-0.2-2.3-0.2-3.4c0-8.7,0-17.3,0-26
			c0-0.6,0.1-1.2,0.5-1.8c1.3-0.2,2.7-0.1,4-0.1c0.7,0,1.4,0.2,1.5,1c0.3,2.7-0.2,5.4-0.2,8.1c0,3.6,0,7.1-0.1,10.7
			c0,0.6-0.1,1.3,0.2,1.8c0.2,0.2,0.7,0.1,1,0.1c0.7-0.9,1.2-2.1,1.8-3.2c2.7-4.8,5.5-9.5,8.2-14.3c0.7-1.2,1.3-2.5,2.2-3.6
			c0.4-0.5,0.9-0.3,1.5-0.4c1.4,0,2.7-0.7,4.1-0.8c0.9,0,1.9-0.1,2.7,0.3c0.3,0.4,0.3,0.8,0.3,1.3C370.1,62.5,370,72,370,81.6z"/>
		<path class="st2" d="M223.3,63.2c-0.1,0.6,0.1,1.1,0.7,1.4c0.7,0.2,1.4,0.1,2.1,0.1c4.5-0.1,9.1,0,13.6,0c0.8,0.1,1.8-0.2,2,0.8
			c0.3,0.9,0.2,2.6-0.1,3.5c-0.3,0.9-1.1,0.8-1.9,0.9c-4.7-0.1-9.4,0-14.2,0c-0.7,0-1.4,0-2.1,0.2c-0.6,0.4-0.4,1.7-0.4,2.3
			c0,2,1.3,3.7,2.8,4.9c1.1,0.9,2.4,1,3.8,1c3.3,0,6.6,0,9.8,0c0.6,0.1,1.4-0.1,1.7,0.5c0.2,0.9,0.2,1.9,0.1,2.8
			c-0.1,0.6,0,1.1-0.5,1.5c-0.6,0.1-1.3,0.1-2,0.1c-3.4-0.1-6.7,0-10.1,0c-2.1,0-4.3-0.5-6.2-1.4c-2.7-1.4-4.6-4-5.5-6.9
			c-1.1-2.9-0.8-5.6-0.7-8.6c0.3-3.3,1.2-7.1,3.3-9.8c1.4-1.9,3.5-3.3,5.8-3.9c4.4-1,8.8-0.5,13.2-0.7c1.1,0,2.6-0.4,3.5,0.2
			c0.4,1.4,0.2,3,0,4.5c-1.6,0.7-3.6,0-5.3,0.2c-1.7,0.2-3.5-0.1-5.2,0c-1.7,0.2-3.2,0.1-4.8,1C224.8,58.9,223.6,60.9,223.3,63.2z"
			/>
		<path class="st2" d="M273.4,79.5c-1.4-2.4-2.7-4.9-4.2-7.3c-0.3-0.7-1-1.5-0.3-2.2c1-0.9,2.4-1.2,3.4-2.2c1.5-1.5,2.5-3.7,2.5-5.8
			c0-1.5,0.1-3.1-0.3-4.6c-0.7-2.2-2.3-4.5-4.8-5c-1.8-0.3-3.7-0.6-5.5-0.7c-4.6,0-9.2,0-13.9,0c-0.7,0-1.4,0-2.1,0.4
			c-0.3,0.6-0.4,1.2-0.4,1.8c-0.1,2.3,0.1,4.6-0.2,6.9c-0.3,2.8,0,5.6-0.2,8.4c-0.4,4.2,0.1,8.6-0.4,12.8c-0.1,0.6,0.1,1.1,0.7,1.2
			c1.7,0.1,3.5,0.1,5.2-0.1c0.2-1.5,0-3.1,0.2-4.7c0.2-1.9,0.1-3.8,0.2-5.7c0.1-0.9,0.4-1.9,1.3-2.1c1.3-0.3,2.7-0.1,4-0.2
			c0.9,0,2.1-0.1,2.9,0.4c1,0.7,1.6,2,2.1,3.1c1.3,2.5,2.6,4.9,3.9,7.4c0.3,0.6,0.7,1.5,1.4,1.7c1.3,0.2,2.6,0,3.9,0.1
			c0.7,0,1.6,0.1,2.3-0.3C274.9,81.7,274.1,80.6,273.4,79.5z M266.5,65.1c-1,0.6-2,0.5-3.1,0.5c-2.6,0-5.2,0-7.8,0
			c-0.7-0.1-1.4,0.1-1.8-0.7c-0.3-1.2,0-2.6,0.1-3.8c0.1-1.1-0.1-2.4,0.3-3.5c0.4-1,1.4-0.7,2.3-0.8c2.9,0.1,5.7-0.1,8.6,0.1
			c2.2,0.2,3.9,2.2,3.8,4.4C268.6,62.8,267.8,64.3,266.5,65.1z"/>
		<path class="st2" d="M304.2,56.6c-0.5,0.2-1,0.3-1.6,0.3c-2.5,0-5-0.1-7.5,0c-0.8,0-1.2,0.6-1.3,1.4c-0.1,2,0.1,4-0.2,6
			c-0.2,2,0,4-0.3,6c-0.3,2.6,0,5.2-0.3,7.8c-0.2,1.7,0.1,3.5-0.3,5.1c-1.9,0.1-3.9,0.1-5.9,0c-0.2-0.5-0.2-1-0.2-1.6
			c0.3-2.6,0-5.1,0.2-7.7c0.4-3.4,0.2-6.8,0.2-10.2c0-1.9,0.4-3.6,0.2-5.5c-0.1-0.7-0.5-1.3-1.3-1.3c-2.9-0.2-5.8,0.2-8.7-0.1
			c-0.2-1.3-0.2-2.7,0-4c0-0.5,0.3-0.8,0.7-0.8c1.3-0.1,2.7,0,4,0c6.9,0,13.9,0,20.8,0c0.5,0.1,1.4-0.1,1.5,0.6
			C304.5,53.8,304.6,55.3,304.2,56.6z"/>
		<path class="st2" d="M145.9,61.9c-0.4,1-1.1,2-1.7,3c-7.2,12.4-14.4,24.9-21.6,37.3c-0.4,0.7-0.9,1.7-1.5,2.2
			c-0.7,0.2-1.4,0.1-2.1,0.1c-5.2-0.1-10.4,0-15.6,0c0.1-1,0.6-1.7,1.1-2.5c1.1-1.7,2-3.4,3-5.1c6.4-11,12.8-22,19.2-33.1
			c0.6-0.9,1.1-2.5,2.4-2.4c5.3-0.1,10.7,0.1,16-0.1C145.5,61.3,145.6,61.5,145.9,61.9z"/>
		<path class="st2" d="M110.4,87.2c-2.6,4.2-5.1,8.6-7.6,12.9c-0.7,1.1-1.2,2.3-1.9,3.3c-0.2,0-0.4,0-0.6,0
			c-0.8-0.9-1.1-2.2-1.7-3.2c-2-4.1-4-8.2-6-12.2c-0.3-0.6-0.6-1.3-0.1-1.9c1.7-0.1,3.4,0,5.1,0c4.3,0,8.6-0.1,12.9,0
			C110.8,86.6,110.7,86.7,110.4,87.2z"/>
		<path class="st2" d="M69.5,86.5c-0.5,1.3-1.4,2.6-2.2,3.8c-2.1,3.7-4.4,7.4-6.5,11.1c-0.4,0.7-0.8,1.7-1.6,2.1
			c-0.9-1-1.5-2.4-2.2-3.6c-1.9-3.3-3.8-6.6-5.7-9.9c-0.7-1.2-1.4-2.2-1.9-3.5c1.2-0.3,2.5-0.2,3.7-0.2c4.1,0,8.3,0,12.4,0
			C66.8,86.3,68.2,86.2,69.5,86.5z"/>
		<path class="st2" d="M224,101.2c0,0.6,0,1.4-0.3,1.9c-0.6,0.1-0.6-0.4-0.6-0.8c-0.1-1.6,0.1-3.3,0-4.9c0-0.5-0.2-0.9-0.4-1.3
			c-0.7,0.5-1.3,1.2-1.7,2c-0.7,1.6-0.8,3.5-1.7,5c-0.2,0.4-0.9,0.4-1.1,0c-1.1-2.2-1.4-5-2.8-7.1c-0.3,0.4-0.6,0.7-0.7,1.1
			c-0.6,1.8,0,4-0.3,5.9c-0.2,0.1-0.4,0.2-0.6,0.2c-0.5-2.4-0.2-5,0-7.5c0-1.1-0.4-2.4,0.3-3.3c0.6-0.1,1-0.2,1.4,0.4
			c1.1,2,1.6,4.4,2.4,6.5c0.3,0.6,0.8,1.8,1.6,1.4c0.5-1,0.9-2.1,1.3-3.2c0.6-1.6,0.8-3.5,1.8-4.9c0.3-0.4,0.8-0.3,1.2-0.3
			c0.4,0.8,0.3,1.7,0.3,2.5C223.9,97,224,99.1,224,101.2z"/>
		<path class="st2" d="M248.3,102.7c-0.2,0.3-0.2,0.6-0.6,0.6c-1.3,0.1-2.6,0-4,0c-1,0-2,0.1-2.9-0.1c-0.5-0.3-0.4-1.2-0.4-1.7
			c0-2.4,0-4.8,0-7.3c0.1-0.5-0.1-1.4,0.4-1.7c0.8-0.2,1.8-0.1,2.6-0.1c1.4,0,2.8-0.1,4.3,0c0,0.2,0,0.5,0,0.7
			c-1.6,0.2-3.4-0.3-5,0.1c-1.7,0.3-2,3.4-0.3,3.9c1.5,0.4,3.2,0.1,4.7,0.2c0,0.2,0,0.4,0,0.6c-1.4,0.1-2.9-0.1-4.2,0.1
			c-2.2,0.3-2.2,4.4,0,4.7C244.6,103,246.5,102.5,248.3,102.7z"/>
		<path class="st2" d="M315.4,101.1c-1-2-1.5-4.2-2.6-6.1c-0.4-0.9-0.8-1.9-1.4-2.6c-0.5,0-0.7-0.1-1,0.5c-0.9,2-1.8,4.1-2.5,6.2
			c-0.4,1.3-1.2,2.5-1.5,3.9c0.2,0.2,0.4,0.3,0.7,0.2c0.7-0.9,1-2.1,1.8-2.9c0.5-0.3,1.2-0.3,1.8-0.4c0.9,0,2.1,0,2.9,0.5
			c0.5,0.4,0.8,1.2,1.1,1.8c0.3,0.4,0.3,1,0.9,1C316.1,102.7,315.6,101.7,315.4,101.1z M311,99.3c-0.9,0-1.7-0.7-1.5-1.6
			c0.2-0.9,0.3-2.3,1-2.9c0.4-0.3,1.5-0.3,1.6,0.3c0.4,1.1,0.7,2.3,0.7,3.4C312.6,99.4,311.6,99.4,311,99.3z"/>
		<path class="st2" d="M272.3,93.9c-0.8-1-1.9-1.5-3.2-1.5c-1.2-0.1-2.5-0.1-3.7,0.1c-0.8,0.1-0.9,0.9-1,1.5c-0.1,1.3,0,2.7,0,4.1
			c0.1,1.5-0.2,3.1,0.2,4.5c0.2,0.9,1.2,0.8,1.9,0.8c1.7,0,4,0,5.4-1.1C274,100.1,274.1,96.3,272.3,93.9z M269.8,102.5
			c-0.8,0.5-1.8,0.4-2.7,0.3c-0.8-0.1-1.6-0.9-1.6-1.7c-0.1-1.1,0-2.3-0.1-3.4c0-1-0.1-2.1,0-3.1c0-0.8,0.8-1.6,1.6-1.7
			c0.9-0.1,1.9-0.1,2.7,0.3c0.9,0.5,1.7,1.3,2.1,2.2c0.5,1,0.6,2.3,0.4,3.4C272.2,100.4,271.1,101.7,269.8,102.5z"/>
		<path class="st2" d="M290.5,102.7c-0.5,0.2-0.7,0.1-0.7-0.3c-0.2-1.4,0-2.9-0.1-4.4c0-1.7-0.1-3.4,0.1-5l0.7,0
			c0.2,1.6,0.1,3.3,0.1,5C290.6,99.6,290.7,101.2,290.5,102.7z"/>
	</g>
</g>
</svg>
