<?xml version="1.0" encoding="utf-8"?>
<!-- Generator: Adobe Illustrator 26.0.1, SVG Export Plug-In . SVG Version: 6.00 Build 0)  -->
<svg version="1.1" xmlns="http://www.w3.org/2000/svg" xmlns:xlink="http://www.w3.org/1999/xlink" x="0px" y="0px"
	 viewBox="0 0 402 146" style="enable-background:new 0 0 402 146;" xml:space="preserve">
<style type="text/css">
	.st0{display:none;}
	.st1{display:inline;fill:#190836;}
	.st2{fill:#EBE6FA;}
	.st3{fill:#363435;}
	.st4{fill-rule:evenodd;clip-rule:evenodd;fill:#363435;}
</style>
<g id="Layer_2" class="st0">
</g>
<g id="Layer_1">
	<g id="Layer_1_00000161611284842546978160000015317350469290075327_">
		<g>
			<path class="st3" d="M98.4,124.6c0-1.1-0.5-2.4-1.3-3.2c-0.8-0.7-1.8-1-2.8-1c-1.1,0-2.2,0-3.3,0v9.2c1.1,0,2.2,0,3.3,0
				c1.3,0,2.6-0.6,3.4-1.7C98.3,127,98.4,125.8,98.4,124.6z M97.2,125.6c-0.1,1-0.6,2-1.5,2.5c-1,0.7-2.4,0.6-3.5,0.6
				c0-2.5,0-4.9,0-7.4c0.9,0,1.7,0,2.5,0.1c0.8,0.1,1.6,0.6,1.9,1.3C97.2,123.6,97.3,124.6,97.2,125.6z M103,120.4
				c0,3.1,0,6.1,0,9.2c0.3,0,0.8,0,1.1,0v-9.2H103z M105.4,45.6c-1.4,4.1-2.7,8.3-4.1,12.4c-0.3,0.9-0.6,1.9-1,2.8
				c-0.3-1.4-0.8-2.6-1.3-4c-1.1-3.8-2.4-7.5-3.5-11.3c-1.9,0-4,0-5.9,0c0,6.6,0,13.3,0,20c1.3,0,2.6,0,3.9,0c0-2.8,0-5.7,0-8.5
				c0-2.4-0.2-4.8-0.2-7.3c1.6,5.2,3.2,10.5,4.8,15.7c1.4,0,2.6,0,4,0c1.7-5.2,3.4-10.5,5.2-15.7c-0.1,2-0.1,4.1-0.2,6.1
				c0,3.2,0,6.4,0,9.6h4.1c0-6.7,0-13.3,0-20h-5.7V45.6z M115,79.1c-0.7,0-1.4,0-2,0c-2.6,6.6-5.2,13.4-8,20c0.8,0,1.7,0,2.5,0
				c0.8-2.2,1.6-4.2,2.5-6.4c2.6,0,5.2,0,7.9,0c0.8,2,1.7,4.2,2.5,6.4c0.8,0,1.7,0,2.5,0C120.2,92.5,117.6,85.8,115,79.1z
				 M110.7,90.7c0.8-2,1.6-4.1,2.4-6.1c0.3-0.9,0.6-1.8,0.8-2.7c0.2,0.9,0.6,1.8,0.9,2.7c0.8,2,1.6,4.1,2.3,6.1H110.7z M121.2,120.4
				v9.2h1.1v-9.2H121.2z M126.1,45.5c-1.8,0-3.5,0-5.3,0c-2.4,6.6-4.8,13.4-7.1,20c1.6,0,3.1,0,4.7,0c0.5-1.6,1-3.2,1.5-4.7
				c2.4,0,4.8,0,7.2,0c0.5,1.6,1,3.2,1.5,4.7c1.6,0,3.1,0,4.7,0C130.9,58.9,128.4,52.2,126.1,45.5z M120.9,57.3c0.6-2,1.3-4,1.8-6
				c0.2-0.8,0.5-1.7,0.7-2.5c0.2,0.8,0.5,1.7,0.7,2.5c0.7,2,1.3,4,1.8,6C124.3,57.3,122.6,57.3,120.9,57.3z M126.2,120.4v1h3v8.2
				h1.1c0-2.7,0-5.5,0-8.2h2.8v-1H126.2z M137.8,82.6c-0.5-1.1-1.3-1.9-2.3-2.5c-1.4-0.7-2.7-0.9-4.2-0.9c-1.9,0-3.9,0-5.9,0
				c0,6.7,0,13.3,0,20h2.4v-7.9c1.3,0,2.4,0,3.6,0c1.7-0.1,3.5-0.6,4.8-1.7c1.1-0.9,1.7-2.3,1.8-3.6
				C138.3,84.9,138.3,83.6,137.8,82.6z M135.7,85.8c-0.1,1-0.6,2.2-1.5,2.7c-1.1,0.7-2.5,0.8-3.8,0.8c-0.8,0.1-1.7,0.1-2.5,0.1v-8.1
				c0.9,0,1.9,0,2.8,0.1c1.1,0,2.3,0.1,3.3,0.7c0.6,0.3,1.1,0.8,1.4,1.5C135.8,84.2,135.8,85,135.7,85.8z M140.4,120.4
				c-0.3,0-0.7,0-1,0c-0.7,1.5-1.3,3-1.8,4.6s-1.3,3.1-1.8,4.7c0.3,0,0.8,0,1.1,0c0.3-1,0.8-1.9,1.1-3c1.1,0,2.4,0,3.5,0
				c0.3,1,0.8,1.9,1.1,3c0.5,0,0.8,0,1.3,0C142.8,126.6,141.7,123.5,140.4,120.4z M138.5,125.8c0.5-1.4,1-2.6,1.5-3.9
				c0.3,1.4,0.9,2.6,1.5,3.9C140.4,125.8,139.4,125.8,138.5,125.8z M142.3,79.2v20h2.4v-20H142.3z M143.2,54.4v3.5h3.8
				c0,1.4,0,2.7,0,4.1c-1.1,0.3-2.4,0.2-3.5,0.2c-1.1-0.2-2.3-0.7-3-1.7c-0.9-1.3-1.3-2.7-1.4-4.2c-0.1-1.7,0.2-3.5,1.1-4.9
				c0.8-1.1,1.9-2,3.3-2.4c0.8-0.2,1.6-0.1,2.4-0.1c1.4,0.1,2.6,0.5,3.8,1.1c0.5-1.1,0.9-2.3,1.5-3.5c-1.9-0.8-3.9-1.3-5.9-1.1
				c-1.9-0.1-3.8,0.2-5.6,1c-1.8,0.8-3.3,2.3-4.1,4.1c-0.9,1.9-1,4-0.9,6c0.1,2.2,0.7,4.4,2,6.3c1.3,1.6,3.1,2.5,5,2.8
				c1.1,0.2,2.4,0.1,3.5,0.1c1.9-0.1,4-0.5,5.9-1.1c0-3.4,0-6.9,0-10.4h-8V54.4z M149,128.6v-8.2h-1.1v9.2h5.2v-1
				C151.7,128.6,150.3,128.6,149,128.6z M147.7,79.2v2.2h6.3c0,5.9,0,12,0,17.9h2.4c0-5.9,0-12,0-17.9c2.2,0,4.2,0,6.4,0v-2.2H147.7
				z M166.4,120.4c-0.3,0-0.7,0-1,0c-1.3,3.1-2.4,6.1-3.6,9.2c0.3,0,0.8,0,1.1,0c0.3-1,0.8-1.9,1.1-3c1.1,0,2.4,0,3.5,0
				c0.3,1,0.8,1.9,1.1,3c0.3,0,0.8,0,1.1,0C168.8,126.6,167.5,123.5,166.4,120.4z M164.5,125.8c0.5-1.3,1-2.6,1.5-3.9
				c0.3,1.4,0.9,2.6,1.5,3.9C166.4,125.8,165.4,125.8,164.5,125.8z M169.8,45.6c0,2.8,0,5.7,0,8.5c0,0.6,0,1.1,0,1.6
				c0.1,0.9,0,1.8,0.1,2.7c0,0.7,0,1.4,0.1,2.2c-3-5-5.8-10-8.7-15c-1.8,0-3.6,0-5.5,0c0,6.7,0,13.3,0,20h3.9c0-3.4,0-6.9,0-10.4
				c-0.1-1.6-0.1-3.2-0.2-4.7c2.8,4.9,5.7,9.8,8.5,14.7c0.1,0.1,0.2,0.3,0.3,0.3c1.8,0,3.5,0,5.3,0c0-6.7,0-13.3,0-20L169.8,45.6
				L169.8,45.6z M172.9,79.1c-0.7,0-1.4,0-2,0c-0.7,1.7-1.4,3.5-2,5.2c-1.9,4.9-3.9,9.9-5.8,14.8c0.8,0,1.7,0,2.5,0
				c0.8-2.2,1.6-4.2,2.4-6.4c2.6,0,5.2,0,7.9,0c0.8,2,1.7,4.2,2.5,6.4c0.8,0,1.7,0,2.5,0C178.1,92.5,175.5,85.8,172.9,79.1z
				 M168.7,90.7c0.5-1.1,0.9-2.3,1.4-3.4c0.7-1.8,1.4-3.5,1.8-5.3c0.2,0.7,0.5,1.5,0.7,2.2c0.8,2.2,1.7,4.4,2.5,6.6
				C172.9,90.7,170.7,90.7,168.7,90.7z M185.7,97.1V79.2c-0.8,0-1.6,0-2.4,0c0,6.7,0,13.3,0,20c3.8,0,7.5,0,11.3,0v-2.2H185.7z
				 M195,57.9V45.6h-4.3c0,4.2,0,8.5,0,12.7c0,0.9-0.2,1.8-0.7,2.5c-0.5,0.8-1.4,1.1-2.3,1.3c-1.3,0-2.4,0.1-3.4-0.6
				c-0.7-0.5-1-1.3-1.3-2c-0.2-0.8-0.1-1.6-0.1-2.5c0-3.9,0-7.6,0-11.5c-1.5,0-2.8,0-4.3,0c0,4.3,0,8.7,0,12.9
				c-0.1,1.7,0.5,3.5,1.6,4.8c1,1.1,2.4,1.9,3.9,2.3c1.4,0.3,2.7,0.2,4.1,0.2c1.4-0.1,2.8-0.6,4-1.3c1.5-1,2.6-2.6,2.8-4.4
				C195,59.4,195,58.6,195,57.9z M198.3,121.4v-1c-1.7,0-3.5,0-5.2,0v9.2h5.2v-1h-4.1v-3.3h3.9v-1h-3.9c0-1,0-1.9,0-3h4.1V121.4z
				 M208.6,120.4c-2.3,0-4.7,0-6.9,0c0,0.3,0,0.7,0,1c1,0,1.9,0,3,0v8.2h1.1c0-2.7,0-5.5,0-8.2h2.8V120.4z M210.1,56.1
				c-1.7-1.6-4-2.3-5.9-3.4c-0.6-0.3-1-0.8-1.1-1.5c-0.2-0.9,0.5-1.9,1.3-2.2c0.3-0.1,0.8-0.1,1.1-0.1c1.6-0.1,3.2,0.6,4.7,1.1
				c0.5-1.1,0.9-2.3,1.4-3.4c-1.9-0.8-3.9-1.5-5.9-1.4c-1.6-0.1-3.3,0.2-4.7,1.1c-1,0.7-1.7,1.7-2,2.8c-0.2,1-0.2,2,0,3.1
				c0.3,1.4,1.3,2.5,2.4,3.3c1.7,1.3,3.6,1.7,5.3,3c0.5,0.3,0.8,1,0.7,1.6c0,0.8-0.6,1.5-1.3,1.7c-0.8,0.3-1.6,0.2-2.4,0.2
				c-1.8-0.2-3.6-0.9-5.2-1.6c0,1.4,0,2.7,0,4.1c1.7,0.8,3.6,1.3,5.6,1.1c1.8,0.1,3.9-0.2,5.3-1.4c1.5-1,2.3-2.7,2.2-4.4
				C211.8,58.6,211.2,57.1,210.1,56.1z M233.4,121.4v-1h-5.2c0,3.1,0,6.1,0,9.2h1.1v-3.9h3.9c0-0.3,0-0.7,0-1h-3.9v-3.3
				C229.3,121.4,233.4,121.4,233.4,121.4z M256.7,129.6c0-3.1,0-6.1,0-9.2h-1c0,2,0,4.2,0,6.3c0,0.5,0,0.9,0.1,1.3
				c-0.5-0.6-0.8-1.1-1.1-1.7c-1.3-1.9-2.5-3.9-3.9-5.8c-0.5,0-0.9,0-1.3,0v9.2h1c0-1.8,0-3.6,0-5.5c0-0.6,0-1.1,0-1.7
				c0-0.2,0-0.3,0-0.6c1.6,2.5,3.3,5.1,4.9,7.6h1.3V129.6z M269.2,124.6c0-1.1-0.5-2.4-1.3-3.2c-0.8-0.7-1.8-1-2.8-1
				c-1.1,0-2.2,0-3.3,0v9.2c1.1,0,2.2,0,3.3,0c1.3,0,2.6-0.6,3.4-1.7C269.1,127,269.2,125.8,269.2,124.6z M267.9,125.1
				c0,1.1-0.5,2.5-1.5,3.1c-1,0.7-2.4,0.6-3.5,0.6c0-2.5,0-4.9,0-7.4c1.3,0,2.8-0.1,3.9,0.7C267.7,122.8,267.9,124,267.9,125.1z
				 M296.4,42c-1.9-3.5-4.4-6.7-7.4-9.3c-3.3-3-7.3-5.2-11.5-6.7c-3-1-6.1-1.7-9.3-1.8c-1.3,0-2.4,0-3.6,0c-6.4,0.3-12.7,2.5-18,6.3
				c-5.8,4.1-10.4,10-12.6,16.6c-1.9,5.5-2.4,11.4-1.4,17c1.3,7.1,4.8,13.7,9.9,18.6c6,5.9,14.2,9.4,22.7,9.7c0.9,0.1,1.8,0.1,2.7,0
				c5.9-0.2,11.7-2,16.7-5.2c3.8-2.4,6.9-5.5,9.6-9c4-5.5,6.3-12.1,6.4-18.9C300.6,53,299.1,47.1,296.4,42z M285.2,80.8
				c-1.1,0.8-2.2,1.7-3.3,2.4c-4.3,2.7-9.3,4.2-14.5,4.4c-0.8,0.1-1.6,0.1-2.3,0c-3-0.1-5.9-0.7-8.8-1.6c-1.6-0.6-3.1-1.3-4.6-2
				c-5.3-3-9.7-7.6-12.3-13.1c-1.8-3.5-2.7-7.5-3-11.5c0-1.6-0.1-3.2,0.1-4.7c0.6-5.9,3.2-11.7,7.1-16.2c0.7-0.8,1.5-1.6,2.3-2.4
				c1.8-1.7,3.9-3.2,6.1-4.3c5.5-3,11.7-4.1,17.9-3.3c3.4,0.5,6.8,1.5,9.9,3.1c2.6,1.4,5.1,3.1,7.2,5.2c-0.1,0.1-0.1,0.3-0.2,0.5
				c-3.5,0.8-7.1,1.4-10.7,2.2c-0.3-0.6-0.6-1-1-1.4c-0.5-0.3-1-0.6-1.6-0.8c0-0.8,0-1.6,0-2.3c0.5-0.2,0.9-0.6,1.3-1
				c0.5-0.7,0.5-1.5,0.2-2.2c-0.5-1.1-1.8-1.7-3-1.4c-1.1,0.3-1.8,1.6-1.6,2.7c0.1,0.8,0.8,1.4,1.5,1.7c0,0.8,0,1.6,0,2.3
				c-0.8,0.2-1.4,0.6-1.9,1c-2.8-1.7-5.8-3.4-8.7-5.1c0-0.5,0-0.9-0.3-1.4c-0.6-0.9-1.8-1.3-2.7-0.7c-1.1,0.6-1.4,2-0.7,3.1
				c0.3,0.6,1,0.8,1.6,0.9c0.5-0.1,0.8-0.2,1.3-0.3c0.8,0.5,1.6,0.9,2.4,1.4c2,1.3,4.2,2.5,6.3,3.8c-0.3,1-0.1,1.9,0.3,3
				c-1.1,1.1-2.3,2.2-3.4,3.3c-3.4,3.2-6.9,6.5-10.4,9.7c-0.9-0.6-1.9-0.7-3-0.5c-1.3-2.5-2.5-4.9-3.8-7.4c0.6-0.7,0.9-1.6,0.7-2.5
				c-0.1-0.9-0.8-1.7-1.7-2c-1-0.5-2.3-0.1-3.1,0.7c-1,1-0.9,2.8,0.1,3.9c0.7,0.7,1.5,0.8,2.4,0.8c1.3,2.5,2.5,4.9,3.8,7.4
				c-1,0.9-1.4,2-1.4,3.3c-2.2,0.7-4.2,1.6-6.4,2.3c-0.3-0.2-0.6-0.5-1-0.6c-0.8-0.2-1.7,0.1-2.2,0.7c-0.7,0.8-0.6,2,0.1,2.7
				c0.8,0.8,2.2,0.8,3,0c0.5-0.3,0.5-0.8,0.7-1.4c2.2-0.8,4.3-1.6,6.4-2.4c0.6,0.9,1.4,1.4,2.4,1.6c0,1.8,0,3.5,0,5.3
				c-0.3,0.2-0.8,0.5-1,0.8c-0.7,0.9-0.7,2.3,0.1,3.1c0.8,0.9,2.5,1,3.4,0.1c0.8-0.8,1-2.2,0.3-3.1c-0.2-0.5-0.7-0.7-1.1-0.9
				c0-1.8,0-3.5,0-5.3c0.6-0.2,1.1-0.5,1.7-0.9c0.3-0.3,0.7-0.8,0.9-1.1c4.1,0.9,8.2,1.8,12.3,2.8c0.1,0.7,0.3,1.4,0.9,1.8
				c0.6,0.6,1.4,0.7,2,0.8c0.7,1.6,1.4,3.2,2,4.8c-0.3,0.5-0.7,0.9-0.9,1.5c-0.1,0.7,0,1.4,0.2,2c-1.4,1.4-2.6,2.7-3.9,4.1
				c-0.7-0.1-1.4-0.1-1.9,0.3c-1,0.7-1.1,2.5-0.1,3.3c0.9,0.8,2.5,0.6,3.1-0.6c0.3-0.6,0.2-1.1,0.2-1.8c1.3-1.4,2.6-2.7,3.9-4.1
				c0.5,0.1,0.8,0.3,1.3,0.2c0.6,0,1.1-0.2,1.6-0.6c2.5,1.6,4.9,3.3,7.4,4.9C285.2,80.1,285.2,80.5,285.2,80.8z M292.9,71.2
				c-1.3,2.5-3,4.8-4.8,6.9c-0.8-0.2-1.3-0.1-1.9,0.2c-2.4-1.7-4.9-3.2-7.3-4.9c0.1-0.9,0.1-1.7-0.5-2.4c-0.6-0.8-1.5-1-2.4-1
				c-0.7-1.6-1.4-3.3-2-4.9c0.7-0.7,1.1-1.6,0.9-2.6c-0.2-1.3-1.5-2.3-2.7-2.2c-1,0-1.8,0.5-2.4,1.4c-4.1-0.9-8.2-1.8-12.3-2.8
				c-0.1-0.7-0.2-1.3-0.6-1.8c4.6-4.2,9.2-8.7,13.8-12.9c1.3,0.8,2.8,0.8,4.2,0c0.7,0.6,1.3,1.3,1.9,1.9c0.6,0.6,1.1,1.1,1.7,1.7
				c0.6,0.6,1.1,1.1,1.8,1.7c0.5,0.5,0.9,0.8,1.4,1.3c-0.3,0.8-0.3,1.5,0,2.3c0.5,1.3,1.8,1.9,3.1,1.6c0.8-0.1,1.6-0.8,1.9-1.5
				c0.2-0.6,0.2-1.1,0.2-1.7c-0.2-1-1-1.8-2-2c-0.7-0.1-1.3,0-1.9,0.2c-0.8-0.6-1.4-1.4-2.2-1.9c-0.7-0.6-1.4-1.4-2-1.9
				c-0.7-0.6-1.3-1.3-1.9-1.8c-0.2-0.2-0.5-0.5-0.7-0.7c0.2-0.6,0.5-1.1,0.6-1.8c3.3-0.7,6.6-1.4,9.9-1.9c0.2,0,0.5-0.1,0.7-0.1
				c0.7,0.8,1.5,1,2.5,0.7c3.3,4.1,5.5,9.1,6.1,14.3C296.6,59.9,295.6,66,292.9,71.2z"/>
			<path class="st3" d="M312.8,55.3v4.9c-0.2,2.5-0.5,5-1,7.5c-1.8,8.7-6.3,16.7-12.6,23c-4.8,4.9-10.8,8.7-17.2,10.9
				c-4.1,1.5-8.3,2.4-12.7,2.8c0,1.4,0,2.7,0,4.1h4.2c0,1.5,0,2.8,0,4.3H89.7c0-1.4-0.1-2.6,0.1-3.9c0.3-0.5,0.8-0.3,1.4-0.3
				c1.1,0,2.2,0,3.3-0.1c56.8,0,113.6,0,170.4,0v-4.2c-0.5-0.1-0.8-0.1-1.3-0.1c-5.6-0.3-11.2-1.6-16.3-3.9
				c-0.6-0.2-1.1-0.5-1.6-0.8c0.6-1.3,1.3-2.5,1.9-3.9c6,2.7,12.6,4.3,19.3,4.2c4.4-0.1,8.9-0.9,13-2.4c5.8-1.9,11.2-5.3,15.6-9.6
				c0.8-0.6,1.4-1.4,2-2c6.3-6.8,10.1-15.9,10.8-25.3c0.3-5.1-0.2-10.2-1.7-15.1c-1.7-5.9-4.8-11.3-8.9-15.8
				c-3.5-4.1-8.1-7.4-12.9-9.8c0.6-1.3,1.3-2.5,1.9-3.8h0.1c3.8,1.8,7.3,4.1,10.5,6.9c1,0.9,2,1.8,3,2.8
				c7.4,7.7,11.8,18.1,12.5,28.8C312.8,55.1,312.8,55.2,312.8,55.3z"/>
			<path class="st3" d="M296.4,42c-1.9-3.5-4.4-6.7-7.4-9.3c-3.3-3-7.3-5.2-11.5-6.7c-3-1-6.1-1.7-9.3-1.8c-1.3,0-2.4,0-3.6,0
				c-6.4,0.3-12.7,2.5-18,6.3c-5.8,4.1-10.4,10-12.6,16.6c-1.9,5.5-2.4,11.4-1.4,17c1.3,7.1,4.8,13.7,9.9,18.6
				c6,5.9,14.2,9.4,22.7,9.7c0.9,0.1,1.8,0.1,2.7,0c5.9-0.2,11.7-2,16.7-5.2c3.8-2.4,6.9-5.5,9.6-9c4-5.5,6.3-12.1,6.4-18.9
				C300.6,53,299.1,47.1,296.4,42z M285.2,80.8c-1.1,0.8-2.2,1.7-3.3,2.4c-4.3,2.7-9.3,4.2-14.5,4.4c-0.8,0.1-1.6,0.1-2.3,0
				c-3-0.1-5.9-0.7-8.8-1.6c-1.6-0.6-3.1-1.3-4.6-2c-5.3-3-9.7-7.6-12.3-13.1c-1.8-3.5-2.7-7.5-3-11.5c0-1.6-0.1-3.2,0.1-4.7
				c0.6-5.9,3.2-11.7,7.1-16.2c0.7-0.8,1.5-1.6,2.3-2.4c1.8-1.7,3.9-3.2,6.1-4.3c5.5-3,11.7-4.1,17.9-3.3c3.4,0.5,6.8,1.5,9.9,3.1
				c2.6,1.4,5.1,3.1,7.2,5.2c-0.1,0.1-0.1,0.3-0.2,0.5c-3.5,0.8-7.1,1.4-10.7,2.2c-0.3-0.6-0.6-1-1-1.4c-0.5-0.3-1-0.6-1.6-0.8
				c0-0.8,0-1.6,0-2.3c0.5-0.2,0.9-0.6,1.3-1c0.5-0.7,0.5-1.5,0.2-2.2c-0.5-1.1-1.8-1.7-3-1.4c-1.1,0.3-1.8,1.6-1.6,2.7
				c0.1,0.8,0.8,1.4,1.5,1.7c0,0.8,0,1.6,0,2.3c-0.8,0.2-1.4,0.6-1.9,1c-2.8-1.7-5.8-3.4-8.7-5.1c0-0.5,0-0.9-0.3-1.4
				c-0.6-0.9-1.8-1.3-2.7-0.7c-1.1,0.6-1.4,2-0.7,3.1c0.3,0.6,1,0.8,1.6,0.9c0.5-0.1,0.8-0.2,1.3-0.3c0.8,0.5,1.6,0.9,2.4,1.4
				c2,1.3,4.2,2.5,6.3,3.8c-0.3,1-0.1,1.9,0.3,3c-1.1,1.1-2.3,2.2-3.4,3.3c-3.4,3.2-6.9,6.5-10.4,9.7c-0.9-0.6-1.9-0.7-3-0.5
				c-1.3-2.5-2.5-4.9-3.8-7.4c0.6-0.7,0.9-1.6,0.7-2.5c-0.1-0.9-0.8-1.7-1.7-2c-1-0.5-2.3-0.1-3.1,0.7c-1,1-0.9,2.8,0.1,3.9
				c0.7,0.7,1.5,0.8,2.4,0.8c1.3,2.5,2.5,4.9,3.8,7.4c-1,0.9-1.4,2-1.4,3.3c-2.2,0.7-4.2,1.6-6.4,2.3c-0.3-0.2-0.6-0.5-1-0.6
				c-0.8-0.2-1.7,0.1-2.2,0.7c-0.7,0.8-0.6,2,0.1,2.7c0.8,0.8,2.2,0.8,3,0c0.5-0.3,0.5-0.8,0.7-1.4c2.2-0.8,4.3-1.6,6.4-2.4
				c0.6,0.9,1.4,1.4,2.4,1.6c0,1.8,0,3.5,0,5.3c-0.3,0.2-0.8,0.5-1,0.8c-0.7,0.9-0.7,2.3,0.1,3.1c0.8,0.9,2.5,1,3.4,0.1
				c0.8-0.8,1-2.2,0.3-3.1c-0.2-0.5-0.7-0.7-1.1-0.9c0-1.8,0-3.5,0-5.3c0.6-0.2,1.1-0.5,1.7-0.9c0.3-0.3,0.7-0.8,0.9-1.1
				c4.1,0.9,8.2,1.8,12.3,2.8c0.1,0.7,0.3,1.4,0.9,1.8c0.6,0.6,1.4,0.7,2,0.8c0.7,1.6,1.4,3.2,2,4.8c-0.3,0.5-0.7,0.9-0.9,1.5
				c-0.1,0.7,0,1.4,0.2,2c-1.4,1.4-2.6,2.7-3.9,4.1c-0.7-0.1-1.4-0.1-1.9,0.3c-1,0.7-1.1,2.5-0.1,3.3c0.9,0.8,2.5,0.6,3.1-0.6
				c0.3-0.6,0.2-1.1,0.2-1.8c1.3-1.4,2.6-2.7,3.9-4.1c0.5,0.1,0.8,0.3,1.3,0.2c0.6,0,1.1-0.2,1.6-0.6c2.5,1.6,4.9,3.3,7.4,4.9
				C285.2,80.1,285.2,80.5,285.2,80.8z M292.9,71.2c-1.3,2.5-3,4.8-4.8,6.9c-0.8-0.2-1.3-0.1-1.9,0.2c-2.4-1.7-4.9-3.2-7.3-4.9
				c0.1-0.9,0.1-1.7-0.5-2.4c-0.6-0.8-1.5-1-2.4-1c-0.7-1.6-1.4-3.3-2-4.9c0.7-0.7,1.1-1.6,0.9-2.6c-0.2-1.3-1.5-2.3-2.7-2.2
				c-1,0-1.8,0.5-2.4,1.4c-4.1-0.9-8.2-1.8-12.3-2.8c-0.1-0.7-0.2-1.3-0.6-1.8c4.6-4.2,9.2-8.7,13.8-12.9c1.3,0.8,2.8,0.8,4.2,0
				c0.7,0.6,1.3,1.3,1.9,1.9c0.6,0.6,1.1,1.1,1.7,1.7c0.6,0.6,1.1,1.1,1.8,1.7c0.5,0.5,0.9,0.8,1.4,1.3c-0.3,0.8-0.3,1.5,0,2.3
				c0.5,1.3,1.8,1.9,3.1,1.6c0.8-0.1,1.6-0.8,1.9-1.5c0.2-0.6,0.2-1.1,0.2-1.7c-0.2-1-1-1.8-2-2c-0.7-0.1-1.3,0-1.9,0.2
				c-0.8-0.6-1.4-1.4-2.2-1.9c-0.7-0.6-1.4-1.4-2-1.9c-0.7-0.6-1.3-1.3-1.9-1.8c-0.2-0.2-0.5-0.5-0.7-0.7c0.2-0.6,0.5-1.1,0.6-1.8
				c3.3-0.7,6.6-1.4,9.9-1.9c0.2,0,0.5-0.1,0.7-0.1c0.7,0.8,1.5,1,2.5,0.7c3.3,4.1,5.5,9.1,6.1,14.3C296.6,59.9,295.6,66,292.9,71.2
				z"/>
			<path class="st3" d="M151.1,54.4c0,3.4,0,6.9,0,10.4c-1.9,0.6-3.9,1-5.9,1.1c-1.1,0-2.4,0.1-3.5-0.1c-1.9-0.3-3.9-1.3-5-2.8
				c-1.4-1.7-1.9-4-2-6.3c-0.1-2,0.1-4.2,0.9-6c0.8-1.8,2.3-3.3,4.1-4.1c1.7-0.9,3.6-1.1,5.6-1c2-0.1,4,0.5,5.9,1.1
				c-0.5,1.1-0.9,2.3-1.5,3.5c-1.1-0.6-2.5-1-3.8-1.1c-0.8,0-1.6-0.1-2.4,0.1c-1.4,0.3-2.5,1.1-3.3,2.4c-0.9,1.4-1.3,3.3-1.1,4.9
				c0.1,1.5,0.3,3,1.4,4.2c0.7,0.9,1.8,1.5,3,1.7c1.3,0,2.4,0.1,3.5-0.2c0-1.4,0-2.7,0-4.1h-3.8v-3.5h8V54.4z"/>
			<path class="st3" d="M211.7,60.1c0.1,1.7-0.7,3.5-2.2,4.4c-1.6,1.1-3.5,1.4-5.3,1.4c-1.9,0.1-3.9-0.3-5.6-1.1c0-1.4,0-2.7,0-4.1
				c1.6,0.8,3.4,1.5,5.2,1.6c0.8,0,1.6,0.1,2.4-0.2c0.7-0.2,1.3-0.9,1.3-1.7c0.1-0.6-0.3-1.3-0.7-1.6c-1.6-1.3-3.6-1.7-5.3-3
				c-1.1-0.8-2-1.9-2.4-3.3c-0.2-1-0.2-2,0-3.1c0.2-1.1,1-2.3,2-2.8c1.4-0.9,3.1-1.3,4.7-1.1c2-0.1,4.1,0.6,5.9,1.4
				c-0.5,1.1-0.9,2.3-1.4,3.4c-1.5-0.6-3.1-1.3-4.7-1.1c-0.5,0-0.8,0-1.1,0.1c-0.9,0.2-1.5,1.3-1.3,2.2c0.1,0.7,0.6,1.1,1.1,1.5
				c1.9,1.3,4.2,1.8,5.9,3.4C211.2,57.1,211.8,58.6,211.7,60.1z"/>
			<path class="st3" d="M111.3,45.6c0,6.7,0,13.3,0,20h-4.1c0-3.2,0-6.4,0-9.6c0.1-2,0.1-4.1,0.2-6.1c-1.7,5.2-3.4,10.5-5.2,15.7
				c-1.4,0-2.6,0-4,0C96.6,60.4,95,55.2,93.4,50c0.1,2.4,0.2,4.8,0.2,7.3c0,2.8,0,5.7,0,8.5c-1.3,0-2.6,0-3.9,0c0-6.6,0-13.3,0-20
				c1.9,0,4,0,5.9,0c1.1,3.8,2.3,7.5,3.5,11.3c0.3,1.4,0.9,2.6,1.3,4c0.3-0.9,0.7-1.9,1-2.8c1.4-4.1,2.7-8.3,4.1-12.4h5.7V45.6z"/>
			<path class="st3" d="M126.1,45.5c-1.8,0-3.5,0-5.3,0c-2.4,6.6-4.8,13.4-7.1,20c1.6,0,3.1,0,4.7,0c0.5-1.6,1-3.2,1.5-4.7
				c2.4,0,4.8,0,7.2,0c0.5,1.6,1,3.2,1.5,4.7c1.6,0,3.1,0,4.7,0C130.9,58.9,128.4,52.2,126.1,45.5z M120.9,57.3c0.6-2,1.3-4,1.8-6
				c0.2-0.8,0.5-1.7,0.7-2.5c0.2,0.8,0.5,1.7,0.7,2.5c0.7,2,1.3,4,1.8,6C124.3,57.3,122.6,57.3,120.9,57.3z"/>
			<path class="st3" d="M173.7,45.6c0,6.7,0,13.3,0,20c-1.8,0-3.5,0-5.3,0c-0.2,0-0.2-0.2-0.3-0.3c-2.8-4.9-5.6-9.8-8.5-14.7
				c0.1,1.6,0.1,3.2,0.2,4.7c0,3.4,0,6.9,0,10.4h-3.9c0-6.7,0-13.3,0-20c1.8,0,3.6,0,5.5,0c2.8,5,5.8,10,8.7,15
				c-0.1-0.7-0.1-1.4-0.1-2.2c-0.1-0.9,0-1.8-0.1-2.7c0-0.6,0-1.1,0-1.6c0-2.8,0-5.7,0-8.5L173.7,45.6L173.7,45.6z"/>
			<path class="st3" d="M194.9,60.2c-0.3,1.8-1.4,3.4-2.8,4.4c-1.1,0.8-2.6,1.1-4,1.3c-1.4,0-2.7,0.1-4.1-0.2
				c-1.5-0.3-2.8-1.1-3.9-2.3c-1.1-1.4-1.6-3.2-1.6-4.8c0-4.3,0-8.7,0-12.9c1.5,0,2.8,0,4.3,0c0,3.9,0,7.6,0,11.5
				c0,0.8,0,1.7,0.1,2.5c0.2,0.8,0.6,1.6,1.3,2c1,0.7,2.2,0.6,3.4,0.6c0.8-0.1,1.8-0.6,2.3-1.3c0.5-0.8,0.7-1.7,0.7-2.5
				c0-4.2,0-8.5,0-12.7h4.3v12.3C195,58.6,195,59.4,194.9,60.2z"/>
			<path class="st3" d="M103.5,96.5c0,0.7,0,1.5,0,2.2c-1.7,0.6-3.4,0.8-5.1,0.8c-2.4,0.1-4.8-0.6-6.5-2.3c-1.6-1.5-2.4-3.8-2.7-5.8
				c-0.1-0.7,0-1.4-0.1-2v-0.2c0.1-0.3,0.1-0.7,0.1-1c0.1-3,1.5-5.9,4-7.6c1.7-1.1,3.8-1.6,5.7-1.5c1.9-0.1,3.8,0.3,5.5,1.1
				c-0.3,0.7-0.7,1.4-1,2.2c-1.1-0.5-2.3-0.9-3.5-1c-1.3,0-2.5-0.1-3.6,0.3c-1.9,0.6-3.3,2.3-4,4.1c-0.7,2-0.7,4.3-0.2,6.5
				c0.3,1.3,0.8,2.4,1.7,3.3c1.3,1.4,3.2,1.9,5,1.8C100.3,97.3,101.9,97,103.5,96.5z"/>
			<path class="st3" d="M115,79.1c-0.7,0-1.4,0-2,0c-2.6,6.6-5.2,13.4-8,20c0.8,0,1.7,0,2.5,0c0.8-2.2,1.6-4.2,2.5-6.4
				c2.6,0,5.2,0,7.9,0c0.8,2,1.7,4.2,2.5,6.4c0.8,0,1.7,0,2.5,0C120.2,92.5,117.6,85.8,115,79.1z M110.7,90.7c0.8-2,1.6-4.1,2.4-6.1
				c0.3-0.9,0.6-1.8,0.8-2.7c0.2,0.9,0.6,1.8,0.9,2.7c0.8,2,1.6,4.1,2.3,6.1H110.7z"/>
			<path class="st3" d="M172.9,79.1c-0.7,0-1.4,0-2,0c-0.7,1.7-1.4,3.5-2,5.2c-1.9,4.9-3.9,9.9-5.8,14.8c0.8,0,1.7,0,2.5,0
				c0.8-2.2,1.6-4.2,2.4-6.4c2.6,0,5.2,0,7.9,0c0.8,2,1.7,4.2,2.5,6.4c0.8,0,1.7,0,2.5,0C178.1,92.5,175.5,85.8,172.9,79.1z
				 M168.7,90.7c0.5-1.1,0.9-2.3,1.4-3.4c0.7-1.8,1.4-3.5,1.8-5.3c0.2,0.7,0.5,1.5,0.7,2.2c0.8,2.2,1.7,4.4,2.5,6.6
				C172.9,90.7,170.7,90.7,168.7,90.7z"/>
			<path class="st3" d="M137.8,82.6c-0.5-1.1-1.3-1.9-2.3-2.5c-1.4-0.7-2.7-0.9-4.2-0.9c-1.9,0-3.9,0-5.9,0c0,6.7,0,13.3,0,20h2.4
				v-7.9c1.3,0,2.4,0,3.6,0c1.7-0.1,3.5-0.6,4.8-1.7c1.1-0.9,1.7-2.3,1.8-3.6C138.3,84.9,138.3,83.6,137.8,82.6z M135.7,85.8
				c-0.1,1-0.6,2.2-1.5,2.7c-1.1,0.7-2.5,0.8-3.8,0.8c-0.8,0.1-1.7,0.1-2.5,0.1v-8.1c0.9,0,1.9,0,2.8,0.1c1.1,0,2.3,0.1,3.3,0.7
				c0.6,0.3,1.1,0.8,1.4,1.5C135.8,84.2,135.8,85,135.7,85.8z"/>
			<rect x="142.3" y="79.2" class="st3" width="2.4" height="20"/>
			<path class="st3" d="M162.8,79.2v2.2c-2.2,0-4.2,0-6.4,0c0,5.9,0,12,0,17.9H154c0-5.9,0-12,0-17.9h-6.3v-2.2H162.8z"/>
			<path class="st3" d="M194.5,97.1v2.2c-3.8,0-7.5,0-11.3,0c0-6.7,0-13.3,0-20c0.8,0,1.6,0,2.4,0v17.9H194.5z"/>
			<path class="st3" d="M116.4,129.4c-0.6,0.2-1.3,0.3-1.9,0.5h-2.3c-1.4-0.2-2.6-1-3.2-2.4c-0.6-1.6-0.6-3.4,0.2-4.9
				c0.6-1.1,1.7-1.8,3-2c1.4-0.2,2.7-0.1,4.1,0.5c-0.1,0.3-0.3,0.7-0.5,1c-1.1-0.5-2.3-0.7-3.5-0.5c-1,0.2-1.9,1-2.2,2
				c-0.3,1.1-0.3,2.4,0.1,3.5c0.3,0.9,1.3,1.5,2.2,1.7c0.9,0.1,1.9,0.1,2.8-0.1c0-0.9,0-1.8,0-2.7h-2v-1h3.2
				C116.4,126.3,116.4,127.8,116.4,129.4z"/>
			<path class="st3" d="M178.8,128.3c-0.5,0.9-1.4,1.4-2.3,1.5h-2c-0.5-0.1-0.9-0.2-1.4-0.3c0-0.3,0-0.8,0-1.1
				c0.7,0.2,1.4,0.5,2.2,0.5c0.8,0,1.5,0.1,2-0.5c0.5-0.3,0.5-1,0.3-1.6c-0.2-0.5-0.7-0.8-1.3-0.9c-0.9-0.3-1.8-0.6-2.6-1.3
				c-0.8-0.8-0.9-2.4-0.1-3.3c0.7-0.7,1.6-0.9,2.5-0.9c0.9,0,1.7,0.1,2.5,0.5c-0.1,0.3-0.2,0.7-0.3,1c-1-0.3-1.9-0.6-3.1-0.3
				c-0.6,0.1-0.9,0.6-1,1.1c-0.1,0.7,0.3,1.1,0.9,1.5c0.9,0.5,2.2,0.7,3.1,1.5C179.1,126.1,179.3,127.5,178.8,128.3z"/>
			<path class="st3" d="M217.3,128.9c-0.5,0.6-1.1,0.8-1.8,0.9h-2c-0.5-0.1-0.9-0.2-1.4-0.3c0-0.3,0-0.8,0-1.1
				c1.1,0.5,2.3,0.6,3.4,0.5c0.7-0.1,1.3-0.7,1.3-1.4c0.1-0.7-0.6-1.1-1.1-1.5c-1-0.5-2-0.7-2.8-1.5c-0.7-0.9-0.8-2.4,0-3.2
				c0.7-0.7,1.5-0.9,2.4-0.8c0.9,0,1.7,0.1,2.6,0.5c-0.1,0.3-0.2,0.7-0.3,1c-0.9-0.3-1.9-0.6-3-0.3c-0.7,0.1-1.3,0.9-1,1.6
				c0.1,0.8,1.1,1.1,1.8,1.4c0.9,0.3,1.9,0.7,2.5,1.6C218.1,126.9,218,128.1,217.3,128.9z"/>
			<path class="st3" d="M98.4,124.6c0-1.1-0.5-2.4-1.3-3.2c-0.8-0.7-1.8-1-2.8-1c-1.1,0-2.2,0-3.3,0v9.2c1.1,0,2.2,0,3.3,0
				c1.3,0,2.6-0.6,3.4-1.7C98.3,127,98.4,125.8,98.4,124.6z M97.2,125.6c-0.1,1-0.6,2-1.5,2.5c-1,0.7-2.4,0.6-3.5,0.6
				c0-2.5,0-4.9,0-7.4c0.9,0,1.7,0,2.5,0.1c0.8,0.1,1.6,0.6,1.9,1.3C97.2,123.6,97.3,124.6,97.2,125.6z"/>
			<path class="st3" d="M104.1,120.4v9.2c-0.3,0-0.8,0-1.1,0c0-3.1,0-6.1,0-9.2H104.1z"/>
			<rect x="121.2" y="120.4" class="st3" width="1.1" height="9.2"/>
			<path class="st3" d="M133.2,120.4v1h-2.8c0,2.7,0,5.5,0,8.2h-1.1v-8.2h-3v-1H133.2z"/>
			<path class="st3" d="M140.4,120.4c-0.3,0-0.7,0-1,0c-0.7,1.5-1.3,3-1.8,4.6s-1.3,3.1-1.8,4.7c0.3,0,0.8,0,1.1,0
				c0.3-1,0.8-1.9,1.1-3c1.1,0,2.4,0,3.5,0c0.3,1,0.8,1.9,1.1,3c0.5,0,0.8,0,1.3,0C142.8,126.6,141.7,123.5,140.4,120.4z
				 M138.5,125.8c0.5-1.4,1-2.6,1.5-3.9c0.3,1.4,0.9,2.6,1.5,3.9C140.4,125.8,139.4,125.8,138.5,125.8z"/>
			<path class="st3" d="M153.1,128.6v1h-5.2v-9.2h1.1v8.2C150.3,128.6,151.7,128.6,153.1,128.6z"/>
			<path class="st3" d="M166.4,120.4c-0.3,0-0.7,0-1,0c-1.3,3.1-2.4,6.1-3.6,9.2c0.3,0,0.8,0,1.1,0c0.3-1,0.8-1.9,1.1-3
				c1.1,0,2.4,0,3.5,0c0.3,1,0.8,1.9,1.1,3c0.3,0,0.8,0,1.1,0C168.8,126.6,167.5,123.5,166.4,120.4z M164.5,125.8
				c0.5-1.3,1-2.6,1.5-3.9c0.3,1.4,0.9,2.6,1.5,3.9C166.4,125.8,165.4,125.8,164.5,125.8z"/>
			<path class="st3" d="M188.1,128.9c-0.5,0.6-1.1,0.8-1.8,0.9h-2c-0.5-0.1-0.9-0.2-1.4-0.3c0-0.3,0-0.8,0-1.1
				c1.1,0.5,2.3,0.6,3.5,0.5c0.7-0.1,1.3-0.7,1.1-1.4c0.1-0.7-0.6-1.1-1.1-1.5c-1-0.5-2-0.7-2.8-1.5c-0.8-0.9-0.8-2.4,0-3.2
				c0.7-0.7,1.5-0.9,2.4-0.8c0.9,0,1.7,0.1,2.6,0.5c-0.1,0.3-0.2,0.7-0.3,1c-0.9-0.3-1.9-0.6-3-0.3c-0.7,0.1-1.3,0.9-1,1.6
				c0.1,0.7,1,1.1,1.6,1.4c0.9,0.3,2,0.7,2.6,1.6C188.9,126.9,188.8,128.1,188.1,128.9z"/>
			<path class="st3" d="M194.3,121.4c0,1,0,1.9,0,3h3.9v1h-3.9v3.3h4.1v1h-5.2v-9.2c1.7,0,3.5,0,5.2,0v1h-4.1V121.4z"/>
			<path class="st3" d="M208.6,121.4h-2.8c0,2.7,0,5.5,0,8.2h-1.1v-8.2c-1,0-1.9,0-3,0c0-0.3,0-0.7,0-1c2.3,0,4.7,0,6.9,0V121.4z"/>
			<path class="st3" d="M229.3,121.4v3.3h3.9c0,0.3,0,0.7,0,1h-3.9v3.9h-1.1c0-3.1,0-6.1,0-9.2h5.2v1
				C233.4,121.4,229.3,121.4,229.3,121.4z"/>
			<path class="st3" d="M244.5,126.6c0,0.6-0.1,1.3-0.5,1.7c-0.6,0.8-1.4,1.4-2.3,1.5H240c-0.7-0.1-1.4-0.5-1.9-1s-0.8-1.5-0.8-2.3
				c0-2,0-4.1,0-6.1h1.1c0,1.9,0,4,0,5.9c0,0.6,0.1,1,0.5,1.5c0.3,0.7,1.1,0.9,1.8,0.9c0.7,0,1.4,0,1.9-0.6c0.5-0.5,0.7-1.1,0.7-1.8
				c0-1.9,0-4,0-5.9h1.1C244.5,122.5,244.5,124.5,244.5,126.6z"/>
			<path class="st3" d="M255.4,129.6c-1.6-2.5-3.3-5.1-4.9-7.6c0,0.2,0,0.3,0,0.6c0.1,0.6,0,1.1,0,1.7c0,1.8,0,3.6,0,5.5h-1v-9.2
				c0.5,0,0.9,0,1.3,0c1.3,1.9,2.5,3.9,3.9,5.8c0.3,0.6,0.7,1.1,1.1,1.7c0-0.5-0.1-0.8-0.1-1.3c0-2,0-4.2,0-6.3h1c0,3.1,0,6.1,0,9.2
				h-1.3V129.6z"/>
			<path class="st3" d="M269.2,124.6c0-1.1-0.5-2.4-1.3-3.2c-0.8-0.7-1.8-1-2.8-1c-1.1,0-2.2,0-3.3,0v9.2c1.1,0,2.2,0,3.3,0
				c1.3,0,2.6-0.6,3.4-1.7C269.1,127,269.2,125.8,269.2,124.6z M267.9,125.1c0,1.1-0.5,2.5-1.5,3.1c-1,0.7-2.4,0.6-3.5,0.6
				c0-2.5,0-4.9,0-7.4c1.3,0,2.8-0.1,3.9,0.7C267.7,122.8,267.9,124,267.9,125.1z"/>
		</g>
	</g>
</g>
</svg>
