<?xml version="1.0" encoding="utf-8"?>
<!-- Generator: Adobe Illustrator 26.0.1, SVG Export Plug-In . SVG Version: 6.00 Build 0)  -->
<svg version="1.1" xmlns="http://www.w3.org/2000/svg" xmlns:xlink="http://www.w3.org/1999/xlink" x="0px" y="0px"
	 viewBox="0 0 402 146" style="enable-background:new 0 0 402 146;" xml:space="preserve">
<style type="text/css">
	.st0{display:none;}
	.st1{display:inline;fill:#190836;}
	.st2{fill:#EBE6FA;}
	.st3{fill:#363435;}
	.st4{fill-rule:evenodd;clip-rule:evenodd;fill:#363435;}
</style>
<g id="Layer_2" class="st0">
</g>
<g id="Layer_1">
	<g>
		<path class="st4" d="M191.7,47.1c2.4,0,4.4,0.6,6,1.8c1.6,1.2,2.4,2.8,2.5,4.8h-6.3c-0.1-0.7-0.3-1.2-0.7-1.4
			c-0.4-0.3-1-0.4-1.8-0.4c-0.8,0-1.4,0.1-1.8,0.4c-0.4,0.2-0.6,0.6-0.6,1.1c0,0.6,0.3,1,0.9,1.2c0.6,0.2,1.6,0.5,3,0.8
			c1.5,0.3,2.8,0.6,3.7,1c1,0.3,1.9,0.9,2.6,1.7c0.7,0.8,1.1,1.8,1.1,3.2c0,1.3-0.4,2.4-1.1,3.3c-0.7,1-1.7,1.7-3,2.3
			c-1.3,0.5-2.7,0.8-4.3,0.8c-2.5,0-4.6-0.6-6.2-1.7c-1.6-1.1-2.5-2.8-2.7-5h6.3c0.1,0.6,0.4,1.1,0.8,1.4c0.4,0.3,1,0.4,1.8,0.4
			c0.7,0,1.3-0.2,1.8-0.5c0.5-0.3,0.7-0.7,0.7-1.2c0-0.6-0.3-1-1-1.3c-0.6-0.3-1.7-0.6-3.1-0.9c-1.5-0.3-2.8-0.6-3.7-1
			c-1-0.3-1.8-0.9-2.5-1.6c-0.7-0.8-1-1.8-1-3.1c0-1.2,0.3-2.2,1-3.1c0.7-1,1.7-1.7,3-2.3C188.3,47.4,189.9,47.1,191.7,47.1z
			 M208.8,47.3l4.5,13.2l4.9-13.2h6.5L211.8,77h-6.5l4.3-10l-7.8-19.7H208.8z M243.7,48.1c-1.2-0.7-2.5-1-4-1
			c-1.4,0-2.6,0.3-3.6,0.9c-1,0.6-1.9,1.3-2.5,2.3v-3h-6.2v20.1h6.2V56.5c0-1.3,0.3-2.3,1-3c0.7-0.7,1.6-1.1,2.8-1.1
			c1.2,0,2.1,0.4,2.8,1.1c0.7,0.7,1,1.7,1,3v10.9h6.1V55.7c0-1.8-0.3-3.3-1-4.6C245.8,49.8,244.9,48.8,243.7,48.1z M260.4,47.1
			c2.6,0,4.5,0.9,5.9,2.8v-2.6h6.2v20.1h-6.2v-2.9c-1.5,2.1-3.5,3.2-5.9,3.2c-1.7,0-3.2-0.4-4.6-1.3c-1.4-0.9-2.5-2.1-3.3-3.6
			c-0.8-1.6-1.2-3.3-1.2-5.3s0.4-3.8,1.2-5.3c0.8-1.6,1.9-2.8,3.3-3.6C257.2,47.5,258.7,47.1,260.4,47.1z M261.9,52.4
			c-0.7,0-1.4,0.2-2.1,0.6c-0.7,0.4-1.2,0.9-1.7,1.7c-0.4,0.7-0.6,1.7-0.6,2.7s0.2,2,0.6,2.7c0.4,0.7,1,1.3,1.7,1.7
			c0.7,0.4,1.4,0.5,2.1,0.5c0.7,0,1.4-0.2,2.1-0.5c0.7-0.4,1.2-0.9,1.7-1.7c0.4-0.7,0.6-1.7,0.6-2.7s-0.2-2-0.6-2.7
			c-0.4-0.7-0.9-1.3-1.6-1.7C263.4,52.6,262.7,52.4,261.9,52.4z M294.5,48.4c-1.4-0.9-2.9-1.3-4.6-1.3c-2.6,0-4.5,0.9-5.9,2.8v-2.6
			h-6.2V77h6.2V64.5c1.4,2.1,3.4,3.2,5.9,3.2c1.7,0,3.2-0.4,4.6-1.3c1.4-0.9,2.5-2.1,3.4-3.6c0.8-1.6,1.2-3.3,1.2-5.3
			s-0.4-3.8-1.2-5.3C297.1,50.5,296,49.3,294.5,48.4z M286.3,53c0.7-0.4,1.4-0.6,2.1-0.6c0.7,0,1.4,0.2,2.1,0.6
			c0.7,0.4,1.2,0.9,1.7,1.7c0.4,0.7,0.6,1.7,0.6,2.7s-0.2,2-0.6,2.7c-0.4,0.7-0.9,1.3-1.6,1.7c-0.7,0.4-1.4,0.5-2.1,0.5
			c-0.7,0-1.4-0.2-2.1-0.5c-0.7-0.4-1.2-0.9-1.7-1.7c-0.4-0.7-0.6-1.7-0.6-2.7s0.2-2,0.6-2.7C285.1,53.9,285.7,53.4,286.3,53z
			 M310.4,47.1c2.4,0,4.4,0.6,6,1.8c1.6,1.2,2.4,2.8,2.5,4.8h-6.3c-0.1-0.7-0.3-1.2-0.7-1.4c-0.4-0.3-1-0.4-1.8-0.4
			c-0.8,0-1.4,0.1-1.8,0.4c-0.4,0.2-0.6,0.6-0.6,1.1c0,0.6,0.3,1,0.9,1.2c0.6,0.2,1.6,0.5,3,0.8c1.5,0.3,2.8,0.6,3.7,1
			c1,0.3,1.9,0.9,2.6,1.7c0.7,0.8,1.1,1.8,1.1,3.2c0,1.3-0.4,2.4-1.1,3.3c-0.7,1-1.7,1.7-3,2.3c-1.3,0.5-2.7,0.8-4.3,0.8
			c-2.5,0-4.6-0.6-6.2-1.7c-1.6-1.1-2.5-2.8-2.7-5h6.3c0.1,0.6,0.4,1.1,0.8,1.4c0.4,0.3,1,0.4,1.8,0.4c0.7,0,1.3-0.2,1.8-0.5
			c0.5-0.3,0.7-0.7,0.7-1.2c0-0.6-0.3-1-1-1.3c-0.6-0.3-1.7-0.6-3.1-0.9c-1.5-0.3-2.8-0.6-3.7-1c-1-0.3-1.8-0.9-2.5-1.6
			c-0.7-0.8-1-1.8-1-3.1c0-1.2,0.3-2.2,1-3.1c0.7-1,1.7-1.7,3-2.3C306.9,47.4,308.5,47.1,310.4,47.1z M341.7,59.4
			c0.1-0.6,0.1-1.3,0.1-1.9c0-2.2-0.5-4-1.4-5.6c-0.9-1.6-2.1-2.7-3.7-3.5c-1.6-0.8-3.3-1.2-5.3-1.2c-1.9,0-3.6,0.4-5.2,1.3
			c-1.5,0.8-2.7,2-3.6,3.6c-0.8,1.5-1.3,3.3-1.3,5.4c0,2.1,0.4,3.9,1.3,5.5c0.9,1.6,2.1,2.8,3.6,3.6c1.5,0.8,3.3,1.3,5.2,1.3
			c2.4,0,4.4-0.6,6.2-1.8c1.7-1.3,2.9-2.9,3.5-4.9h-6.7c-0.4,0.5-0.8,0.9-1.2,1.2c-0.4,0.2-1,0.3-1.7,0.3c-1,0-1.9-0.3-2.5-0.8
			c-0.7-0.6-1.1-1.3-1.2-2.2H341.7z M334.2,53.2c0.7,0.6,1.1,1.3,1.2,2.3h-7.5c0.2-0.9,0.6-1.7,1.3-2.3c0.7-0.6,1.5-0.9,2.4-0.9
			C332.6,52.3,333.5,52.6,334.2,53.2z M327,103.5l-9.2-9.9l9.2-10h-5.7l-7.2,8.7V76.8H310v26.7h4.1v-8.5l7.4,8.5H327z M234.9,98V87
			h4.8v-3.4h-4.8v-4.9h-4.1v4.9h-2.3V87h2.3v11c0,1.9,0.5,3.4,1.5,4.2c1,0.9,2.4,1.3,4.3,1.3h3.2v-3.4h-2.5c-0.8,0-1.4-0.2-1.8-0.5
			C235,99.3,234.9,98.7,234.9,98z M194.9,83.3c1.4,0,2.7,0.3,3.9,1c1.2,0.6,2.1,1.6,2.8,2.9c0.7,1.3,1,2.8,1,4.6v11.7h-4.1V92.4
			c0-1.8-0.4-3.1-1.3-4.1c-0.9-1-2.1-1.4-3.6-1.4c-1.5,0-2.8,0.5-3.7,1.4c-0.9,0.9-1.3,2.3-1.3,4.1v11.1h-4.1V83.6h4.1v3.1
			c0.6-1.1,1.5-2,2.6-2.6C192.2,83.6,193.5,83.3,194.9,83.3z M226,93c0,0.7,0,1.3-0.1,1.9h-15.2c0.1,1.7,0.6,3,1.7,4
			c1,1,2.3,1.4,3.9,1.4c2.2,0,3.8-0.9,4.7-2.8h4.4c-0.6,1.8-1.7,3.3-3.3,4.5c-1.6,1.2-3.5,1.7-5.9,1.7c-1.9,0-3.6-0.4-5-1.3
			c-1.5-0.9-2.6-2.1-3.5-3.6c-0.8-1.6-1.2-3.4-1.2-5.4c0-2,0.4-3.8,1.2-5.4c0.8-1.6,2-2.8,3.5-3.6c1.5-0.8,3.2-1.3,5.2-1.3
			c1.9,0,3.5,0.4,5,1.2c1.5,0.8,2.6,2,3.4,3.4C225.6,89.4,226,91.1,226,93z M221.7,92.1c0-1.6-0.6-2.9-1.6-3.9
			c-1.1-1-2.4-1.5-3.9-1.5c-1.5,0-2.7,0.5-3.7,1.5c-1,1-1.6,2.3-1.7,3.9H221.7z M270.1,83.6l-6.2,19.9h-4.3l-4-14.7l-4,14.7h-4.3
			l-6.2-19.9h4.2l4.1,16l4.2-16h4.3l4,15.9l4.1-15.9H270.1z M287.2,84.6c-1.5-0.8-3.3-1.3-5.2-1.3c-1.9,0-3.6,0.4-5.2,1.3
			c-1.5,0.8-2.8,2-3.6,3.6c-0.9,1.6-1.3,3.4-1.3,5.4c0,2,0.4,3.8,1.3,5.4c0.9,1.5,2.1,2.7,3.6,3.6c1.5,0.8,3.2,1.3,5.1,1.3
			c1.9,0,3.6-0.4,5.2-1.3c1.6-0.9,2.8-2.1,3.7-3.6c0.9-1.6,1.4-3.4,1.4-5.4c0-2-0.4-3.8-1.3-5.4S288.7,85.4,287.2,84.6z M279,87.5
			c0.9-0.5,1.9-0.8,2.9-0.8s2,0.3,3,0.8c0.9,0.5,1.6,1.3,2.2,2.3c0.6,1,0.8,2.2,0.8,3.7s-0.3,2.7-0.9,3.7c-0.6,1-1.3,1.8-2.3,2.3
			c-0.9,0.5-1.9,0.8-3,0.8c-1.1,0-2-0.3-2.9-0.8c-0.9-0.5-1.6-1.3-2.1-2.3c-0.5-1-0.8-2.3-0.8-3.7s0.3-2.7,0.8-3.7
			C277.4,88.8,278.1,88,279,87.5z M300.3,87.1c0.6-1.2,1.4-2.1,2.4-2.8c1-0.7,2.2-1,3.6-1v4.3h-1c-1.6,0-2.8,0.4-3.7,1.2
			c-0.8,0.8-1.2,2.2-1.2,4.3v10.5h-4.1V83.6h4.1V87.1z"/>
		<path class="st4" d="M122.5,118.3c0.2,0.6,0.3,1.2,0.5,1.5c4.7-2.1,8.8-4.9,12.4-8.3l0,0l0,0c4-3.7,7.1-8.2,9.3-13.2
			c2.1-4.6,3.2-9.7,3.4-15c-0.4-0.1-0.9-0.1-1.6-0.2c-2.2-0.2-5.4-0.1-9.5,0.2c-5.4,0.4-12.1,1.1-19.1,2.1c0.7,8.2,1.6,16,2.5,22.2
			C121.1,112.2,121.8,115.9,122.5,118.3z M123.4,120.8C123.4,120.8,123.4,120.8,123.4,120.8C123.4,120.8,123.4,120.8,123.4,120.8z
			 M136.7,78.8c-5.5,0.4-12.2,1.2-19.2,2.1c-0.2-2.4-0.4-4.9-0.6-7.3c0-0.3,0-0.6-0.1-0.9c10.6,0.1,20.9,0,29-0.4
			c4.8-0.3,8.8-0.6,11.7-1.2c1.4-0.3,2.7-0.6,3.7-1c0.5-0.2,1-0.5,1.5-0.9c0.5-0.4,1-1.2,1-2.2c0-6.3-1.3-12.4-3.8-17.9
			c-2.5-5.5-6-10.4-10.3-14.6c-4.3-4.2-9.5-7.5-15.3-9.9c-5.8-2.3-12.1-3.6-18.7-3.6c-1,0-1.8,0.5-2.2,1c-0.4,0.5-0.7,1-0.9,1.5
			c-0.4,1-0.7,2.3-0.9,3.7c-0.4,2.9-0.6,7-0.7,11.7c-0.1,8.1,0.3,18.4,0.9,29c-0.3,0-0.6,0-0.9,0c-1.7,0-3.4-0.1-5.1-0.1
			c0.9-6,1.6-11.7,1.9-16.4c0.3-3.9,0.4-7.3,0.2-9.7c-0.1-1.2-0.3-2.3-0.6-3.3c-0.3-0.8-1.1-2.4-3-2.4c-6.6,0-12.9,1.2-18.7,3.6
			c-5.7,2.3-10.9,5.7-15.3,9.9c-4.3,4.2-7.8,9.1-10.3,14.6c-0.5,1.1-0.2,2.1,0.4,2.8c0.4,0.6,1,0.9,1.4,1.1c0.9,0.4,2.1,0.8,3.4,1.1
			c2.7,0.6,6.6,1.1,11.2,1.6c6.7,0.7,15.2,1.2,24.1,1.5c-0.4,2.3-0.8,4.6-1.2,6.9c-0.3,1.6-0.6,3.2-0.9,4.8
			c-7.8,1.4-15.3,3-21.1,4.5c-3.9,1-7.2,2-9.5,2.9c-1.1,0.5-2.2,1-2.9,1.6c-0.4,0.3-0.8,0.7-1.1,1.3c-0.4,0.7-0.5,1.6-0.1,2.5
			c2.5,5.5,6,10.4,10.3,14.6c4.3,4.2,9.5,7.5,15.3,9.9c0.9,0.4,1.7,0.2,2.4-0.1c0.6-0.3,1-0.7,1.3-1.1c0.6-0.7,1.2-1.7,1.6-2.8
			c1-2.2,2-5.4,3.1-9.1c1.6-5.6,3.2-12.7,4.7-20.2c1.7-0.3,3.4-0.6,5.1-0.9c1.9-0.3,3.8-0.6,5.7-0.9c0.7,8.2,1.6,16,2.5,22.2
			c0.7,4.6,1.4,8.5,2.2,11.2c0.4,1.3,0.8,2.5,1.3,3.4c0.2,0.4,0.6,1,1.2,1.4c0.7,0.5,1.6,0.8,2.7,0.4c5.7-2.3,10.9-5.7,15.2-9.8
			c4.4-4.1,7.9-9.1,10.3-14.6c2.5-5.5,3.8-11.6,3.8-17.9c0-1-0.5-1.7-1-2.2c-0.5-0.4-1-0.7-1.5-0.9c-0.9-0.3-2.1-0.5-3.3-0.6
			C144.3,78.5,140.8,78.6,136.7,78.8z M112.5,74c0-0.4-0.1-0.9-0.1-1.3c-0.4,0-0.9,0-1.3,0c-1.9,0-3.8-0.1-5.7-0.2
			c-0.4,2.5-0.8,5-1.3,7.5c-0.2,1-0.4,2.1-0.6,3.1c1.1-0.2,2.3-0.4,3.4-0.6c2-0.3,4.1-0.6,6.1-1C112.8,79.1,112.6,76.5,112.5,74z
			 M145.6,67.9c-8,0.4-18.4,0.6-29,0.4c-0.7-10.6-1-21-0.9-29c0.1-4.7,0.3-8.5,0.6-11.2c0.2-1.1,0.3-1.9,0.5-2.4
			c5.7,0.1,11.1,1.2,16,3.2c5.2,2.1,9.9,5.1,13.8,8.9c3.9,3.8,7.1,8.2,9.3,13.2c2.1,4.7,3.2,9.8,3.4,15.2c-0.5,0.2-1.4,0.4-2.5,0.6
			C154.2,67.2,150.4,67.6,145.6,67.9z M103.5,51.2c-0.4,4.8-1.1,10.5-2,16.6c-9.1-0.3-17.6-0.9-24.4-1.5c-4.6-0.4-8.2-0.9-10.7-1.5
			c-0.5-0.1-0.9-0.2-1.3-0.3c2.1-4.3,5-8.3,8.5-11.6c3.9-3.8,8.6-6.8,13.8-8.9c4.9-2,10.3-3.1,16-3.2c0.1,0.3,0.1,0.8,0.2,1.5
			C103.9,44.3,103.8,47.4,103.5,51.2z M64.1,64.1C64.1,64.1,64.1,64.1,64.1,64.1C64.1,64.1,64.1,64.1,64.1,64.1z M103.3,40.1
			C103.3,40.1,103.4,40.1,103.3,40.1C103.4,40.1,103.3,40.1,103.3,40.1z M78.8,92.8c5.3-1.4,12-2.8,19.1-4.1
			c-1.4,6.7-2.8,13-4.2,18.1c-1,3.7-2,6.6-2.9,8.5c-0.2,0.5-0.4,0.9-0.6,1.2c-4.8-2.1-9.1-5-12.7-8.5c-3.6-3.5-6.6-7.5-8.8-12
			c0.3-0.2,0.7-0.3,1.2-0.5C71.8,94.7,74.9,93.8,78.8,92.8z M89.7,117.1C89.7,117.2,89.7,117.2,89.7,117.1
			C89.7,117.2,89.7,117.1,89.7,117.1C89.7,117.1,89.7,117.1,89.7,117.1z M67.9,96.6C67.9,96.6,67.9,96.6,67.9,96.6
			C67.9,96.6,67.9,96.6,67.9,96.6z M66.9,32.4c2.5,0,4.5-2,4.5-4.5c0-2.5-2-4.5-4.5-4.5c-2.5,0-4.5,2-4.5,4.5
			C62.4,30.4,64.4,32.4,66.9,32.4z"/>
	</g>
</g>
</svg>
