<?xml version="1.0" encoding="utf-8"?>
<!-- Generator: Adobe Illustrator 26.0.2, SVG Export Plug-In . SVG Version: 6.00 Build 0)  -->
<svg version="1.1" xmlns="http://www.w3.org/2000/svg" xmlns:xlink="http://www.w3.org/1999/xlink" x="0px" y="0px"
	 viewBox="0 0 402 146" style="enable-background:new 0 0 402 146;" xml:space="preserve">
<style type="text/css">
	.st0{display:none;}
	.st1{display:inline;fill:#190836;}
	.st2{fill:#EBE6FA;}
	.st3{fill:#181818;}
	.st4{fill-rule:evenodd;clip-rule:evenodd;fill:#181818;}
	.st5{fill:none;stroke:#181818;stroke-miterlimit:10;}
</style>
<g id="Layer_2" class="st0">
</g>
<g id="Layer_1">
	<g>
		<path class="st3" d="M71.2,56.4c-1.3-2.1-3.6-3.2-6-3.3c-3.9-0.2-7.8-0.1-11.6-0.1c0,13.3,0,26.5,0,39.8c2.7,0,5.4,0,8.1,0
			c0-5.2,0-10.4,0-15.5c2.8-0.1,6.2,0.2,8.5-1.8c2.4-2.2,2.7-6,2.9-9.1C73.2,63.2,73,59.3,71.2,56.4z M64.4,68.6
			c-0.7,1-1.6,1-2.7,1.3c-0.1-3.1,0-6.2,0-9.3c1.2,0.3,2.2,0.1,2.8,1.4C65,64,65,66.6,64.4,68.6z"/>
		<path class="st3" d="M94.7,67.1c-0.1-3.6,0.4-7.5-1.7-10.7c-1.6-2.5-4.4-3.5-7.2-3.7C83,52.6,80,53,77.8,55
			c-2.2,2-2.9,5.2-2.9,8.1c0,6.3,0,12.6,0,18.9c0,2.9,0.5,5.8,2.2,8.1c1.7,2.2,4.3,3.1,6.9,3.2c2.8,0.1,5.6-0.4,7.7-2.4
			c2.4-2.4,2.9-5.6,2.9-8.8C94.8,77,94.7,72,94.7,67.1z M86.4,82c0,1.3-0.2,2.2-0.7,3.3c-0.5,0.1-1.1,0.1-1.6,0.2
			c-1.1-1.4-0.9-3-1-4.7c0-5.7,0-11.5,0-17.2c0.1-1.2,0.1-2.8,1.5-3.2c1.5,0,1.8,1.4,1.8,2.6C86.5,69.4,86.4,75.7,86.4,82z"/>
		<path class="st3" d="M113.9,85.8c0,2.4,0,4.7,0,7.1c-5.5,0-10.9,0-16.4,0c0-11.8,0-23.7,0-35.5c0-1.4,0-2.8,0.1-4.3
			c2.7,0,5.5,0,8.2,0.1c0,10.9,0,21.8,0,32.7C108.6,85.8,111.3,85.8,113.9,85.8z"/>
		<path class="st3" d="M133.3,53.1c-1.6,7.3-3.4,14.6-5.1,21.9c-0.5,2.2-1.2,4.2-1.2,6.4c0,3.8,0,7.6,0,11.5c-2.6,0-5.2,0-7.8,0
			c-0.1-4.5,0.2-9.1-0.2-13.6c-2.1-8.4-3.8-16.9-6.1-25.2c0.1-0.4,0.3-0.8,0.6-1.1c2.5,0.1,5.1,0.1,7.6,0.1
			c0.6,3.8,1.3,7.6,1.8,11.4c1.3-3.6,1.4-7.6,2.2-11.4C127.8,53,130.5,53,133.3,53.1z"/>
		<path class="st3" d="M146.4,66.8c0-2,0.1-3.9-0.5-5.8c-0.8-0.7-1.7-0.6-2.5,0c-0.6,1.2-0.7,2.5-0.7,3.8c0,5.4,0,10.7,0,16.1
			c0,1.3,0,2.7,0.5,3.9c0.7,1.2,2.6,0.9,2.9-0.5c0.6-2.4,0.2-5,0.3-7.4c-0.7-0.1-1.4-0.1-2.1-0.2c0-2.4,0-4.8,0-7.1
			c3.3,0,6.6,0,10,0c0.1,7.8,0,15.5,0,23.3c-1.2,0-2.4,0-3.6,0c-0.4-1-0.8-1.9-1.1-2.9c-2.9,4.3-10.5,4.4-13.2-0.2
			c-1.6-2.6-1.9-6-1.9-9c0-5.9,0-11.9,0-17.8c0-2.9,0.8-6.3,3.2-8.3c2.2-1.9,5.5-2.2,8.3-2c2.4,0.2,4.6,1,6.1,3
			c2.2,3,2.2,7.4,2.4,10.9C151.8,66.9,149,67,146.4,66.8z"/>
		<path class="st3" d="M176.6,64.8c0-3,0-5.7-1.6-8.3c-1.6-2.5-4.3-3.6-7.1-3.7c-3-0.2-6.2,0.2-8.5,2.4c-2.1,2.2-2.6,4.9-2.6,7.9
			c0,5,0,9.9,0,14.9c0,3.5-0.3,7.6,1.4,10.8c1.2,2.4,3.6,3.9,6.2,4.3c3.1,0.4,6.7,0.2,9.1-2c2.4-2.2,3-5.3,3.1-8.5
			C176.7,76.6,176.6,70.7,176.6,64.8z M167.6,85.2c-0.6,0.4-1.7,0.5-2.1-0.3c-0.6-1-0.5-2.3-0.5-3.4c0-4.8,0-9.6,0-14.3
			c0-1.7-0.1-3.4,0.2-5c0.3-1,0.6-1.3,1.5-1.7c1.6,0.4,1.6,1.9,1.6,3.2c0,5.7,0,11.5,0,17.2C168.4,82.3,168.5,83.9,167.6,85.2z"/>
		<path class="st3" d="M199.2,53.4c0.1,13.1,0,26.4,0,39.5c-2.7,0-5.4,0-8.1,0c-1.2-5.7-2.1-11.5-3.5-17.1c0,5.7,0.1,11.4,0,17.2
			c-2.7,0-5.4,0-8.1,0c0-13.3,0-26.5,0-39.8c2.8-0.1,5.7,0,8.5,0c1.2,5.4,1.9,10.9,3.3,16.2c0-5.4,0-10.8,0-16.2
			c2.6,0,5.1-0.1,7.7,0L199.2,53.4z"/>
		<path class="st3" d="M230,73.8c2.1,3,2.2,6.8,1.8,10.4c-0.3,2.5-1.1,5.4-3,7.2c-2.1,1.9-5.5,2.1-8.2,1.8c-2.8-0.3-5.4-1.2-6.8-3.8
			c-1.9-3.3-1.6-7.9-1.6-11.6c2.7-0.1,5.4,0,8.1-0.1c0.4,2.2-0.2,4.8,0.5,7c0.6,1.3,2.7,1.1,2.9-0.4c0.3-1.9,0.1-4.2-1.1-5.9
			c-2.4-3.3-6.4-5.8-8.6-9.2c-1.9-3-2-6.7-1.2-10.1c0.5-2.2,1.9-4.2,3.9-5.3c2.1-1.1,4.6-1.2,7-1c2.3,0.3,4.6,1.1,6,3
			c1.9,2.7,2.1,5.8,2.1,8.9c-2.8,0-5.6,0-8.3,0c0-1.4,0-2.7-0.4-4c-0.6-0.1-1.2-0.2-1.8-0.3c-1.6,0.9-0.8,3.1,0.1,4.2
			C224,67.7,227.6,70.3,230,73.8z"/>
		<path class="st3" d="M250.6,53.1c0,2.7,0.1,5.3-0.1,8c-1.5,0-3.1,0-4.6,0c0,10.6,0,21.2,0,31.8c-2.7,0-5.5,0-8.2,0
			c-0.1-10.6,0.1-21.2-0.1-31.8c-1.5,0-3.1,0-4.6,0c0-2.7-0.1-5.3,0.1-8C238.9,53.1,244.7,53,250.6,53.1z"/>
		<path class="st3" d="M271.5,80.8c0,3.4-0.1,6.8-2.3,9.5c-2,2.4-4.9,2.9-7.8,2.9c-2.7,0-5.4-0.7-7.2-2.9c-1.9-2.4-2.2-5.4-2.3-8.4
			c0-9,0-18,0-27c0-0.7,0.1-1.3,0.2-2c2.6,0.1,5.3,0,7.9,0.1c0.1,9.4,0,18.9,0,28.3c0.1,1.3,0,3,1,4c0.9,0.2,1.7,0.2,2-0.7
			c0.7-2.1,0.4-4.5,0.4-6.7c0.1-8.3-0.1-16.6,0.1-24.9c2.6,0,5.3,0,7.9,0C271.6,62.3,271.4,71.6,271.5,80.8z"/>
		<path class="st3" d="M294,62.5c-0.1-2.9-0.6-5.9-3-7.7c-2.2-1.7-4.6-1.6-7.2-1.7c-3.2,0-6.4-0.1-9.7,0.1c0,13.2,0,26.5,0,39.8
			c3.8,0,7.6,0,11.4,0c2.6,0,5.1-0.9,6.5-3.2c1.7-2.7,1.9-6.3,1.9-9.4C294,74.3,294,68.4,294,62.5z M285.4,84.7
			c-0.7,1-1.8,0.7-2.8,0.9c0-7.1,0-14.2,0-21.4c0-1.3-0.1-2.6,0.1-3.9c0.9,0.1,2.4,0.1,2.7,1.1c0.2,0.9,0.2,1.8,0.2,2.7
			c0,5.9,0,11.9,0,17.8C285.6,82.9,285.6,83.8,285.4,84.7z"/>
		<path class="st3" d="M304.3,53.1c0,13.2,0,26.5,0,39.8c-2.7,0-5.3,0-8,0c0-13.3,0-26.5,0-39.8C299,53.1,301.7,53,304.3,53.1z"/>
		<path class="st3" d="M324.9,56.3c-1.7-2.5-4.4-3.5-7.3-3.6c-3-0.1-6.1,0.3-8.3,2.6c-2.1,2.2-2.5,5.3-2.6,8.3c0,5.9,0,11.9,0,17.8
			c0,2.8,0.3,5.9,2,8.3c1.4,2,3.6,3.2,6.1,3.5c3.1,0.3,6.4,0,8.8-2.3c2.4-2.3,2.9-5.7,3-8.9c0-5,0-10,0-14.9
			C326.7,63.5,327,59.4,324.9,56.3z M317.5,85.5c-0.9-0.1-1.5,0.2-2.1-0.8c-0.5-1.4-0.4-3-0.4-4.4c0-5.7-0.1-11.5,0-17.2
			c0.1-1.3,0.4-2.6,2-2.6c1.4,0.6,1.2,1.9,1.3,3.2c0,5.5,0,11.1,0,16.6C318.4,82.1,318.6,83.8,317.5,85.5z"/>
		<path class="st3" d="M348.3,84.2c-0.3,2.5-1.1,5.4-3,7.2c-2.1,1.9-5.5,2.1-8.2,1.8c-2.8-0.3-5.4-1.2-6.8-3.8
			c-1.9-3.3-1.6-7.9-1.6-11.6c2.7-0.1,5.4,0,8.1-0.1c0.4,2.2-0.2,4.8,0.5,7c0.6,1.3,2.7,1.1,2.9-0.4c0.3-1.9,0.1-4.2-1.1-5.9
			c-2.4-3.3-6.4-5.8-8.6-9.2c-1.9-3-2-6.7-1.2-10.1c0.5-1.9,1.5-3.7,3.2-4.8c2.1-1.4,4.6-1.6,7.1-1.5c2.4,0.2,4.8,0.9,6.4,2.8
			c2.1,2.6,2.3,6,2.3,9.2c-2.8,0-5.6,0-8.3,0c0-1.4,0-2.7-0.4-4c-0.6-0.1-1.2-0.2-1.8-0.3c-1.6,0.9-0.8,3.1,0.1,4.2
			c2.7,3.1,6.2,5.7,8.7,9.1C348.5,76.8,348.7,80.6,348.3,84.2z"/>
		<path class="st3" d="M94.7,67.1c-0.1-3.6,0.4-7.5-1.7-10.7c-1.6-2.5-4.4-3.5-7.2-3.7C83,52.6,80,53,77.8,55
			c-2.2,2-2.9,5.2-2.9,8.1c0,6.3,0,12.6,0,18.9c0,2.9,0.5,5.8,2.2,8.1c1.7,2.2,4.3,3.1,6.9,3.2c2.8,0.1,5.6-0.4,7.7-2.4
			c2.4-2.4,2.9-5.6,2.9-8.8C94.8,77,94.7,72,94.7,67.1z M86.4,82c0,1.3-0.2,2.2-0.7,3.3c-0.5,0.1-1.1,0.1-1.6,0.2
			c-1.1-1.4-0.9-3-1-4.7c0-5.7,0-11.5,0-17.2c0.1-1.2,0.1-2.8,1.5-3.2c1.5,0,1.8,1.4,1.8,2.6C86.5,69.4,86.4,75.7,86.4,82z"/>
		<path class="st3" d="M154.4,69.6c0.1,7.8,0,15.5,0,23.3c-1.2,0-2.4,0-3.6,0c-0.4-1-0.8-1.9-1.1-2.9c-2.9,4.3-10.5,4.4-13.2-0.2
			c-1.6-2.6-1.9-6-1.9-9c0-5.9,0-11.9,0-17.8c0-2.9,0.8-6.3,3.2-8.3c2.2-1.9,5.5-2.2,8.3-2c2.4,0.2,4.6,1,6.1,3
			c2.2,3,2.2,7.4,2.4,10.9c-2.7,0.2-5.5,0.2-8.2,0c0-2,0.1-3.9-0.5-5.8c-0.8-0.7-1.7-0.6-2.5,0c-0.6,1.2-0.7,2.5-0.7,3.8
			c0,5.4,0,10.7,0,16.1c0,1.3,0,2.7,0.5,3.9c0.7,1.2,2.6,0.9,2.9-0.5c0.6-2.4,0.2-5,0.3-7.4c-0.7-0.1-1.4-0.1-2.1-0.2
			c0-2.4,0-4.8,0-7.1C147.7,69.5,151,69.5,154.4,69.6z"/>
		<path class="st3" d="M176.6,64.8c0-3,0-5.7-1.6-8.3c-1.6-2.5-4.3-3.6-7.1-3.7c-3-0.2-6.2,0.2-8.5,2.4c-2.1,2.2-2.6,4.9-2.6,7.9
			c0,5,0,9.9,0,14.9c0,3.5-0.3,7.6,1.4,10.8c1.2,2.4,3.6,3.9,6.2,4.3c3.1,0.4,6.7,0.2,9.1-2c2.4-2.2,3-5.3,3.1-8.5
			C176.7,76.6,176.6,70.7,176.6,64.8z M167.6,85.2c-0.6,0.4-1.7,0.5-2.1-0.3c-0.6-1-0.5-2.3-0.5-3.4c0-4.8,0-9.6,0-14.3
			c0-1.7-0.1-3.4,0.2-5c0.3-1,0.6-1.3,1.5-1.7c1.6,0.4,1.6,1.9,1.6,3.2c0,5.7,0,11.5,0,17.2C168.4,82.3,168.5,83.9,167.6,85.2z"/>
		<path class="st3" d="M231.8,84.2c-0.3,2.5-1.1,5.4-3,7.2c-2.1,1.9-5.5,2.1-8.2,1.8c-2.8-0.3-5.4-1.2-6.8-3.8
			c-1.9-3.3-1.6-7.9-1.6-11.6c2.7-0.1,5.4,0,8.1-0.1c0.4,2.2-0.2,4.8,0.5,7c0.6,1.3,2.7,1.1,2.9-0.4c0.3-1.9,0.1-4.2-1.1-5.9
			c-2.4-3.3-6.4-5.8-8.6-9.2c-1.9-3-2-6.7-1.2-10.1c0.5-2.2,1.9-4.2,3.9-5.3c2.1-1.1,4.6-1.2,7-1c2.3,0.3,4.6,1.1,6,3
			c1.9,2.7,2.1,5.8,2.1,8.9c-2.8,0-5.6,0-8.3,0c0-1.4,0-2.7-0.4-4c-0.6-0.1-1.2-0.2-1.8-0.3c-1.6,0.9-0.8,3.1,0.1,4.2
			c2.7,3.1,6.2,5.7,8.7,9.1C232.1,76.8,232.2,80.6,231.8,84.2z"/>
		<path class="st3" d="M324.9,56.3c-1.7-2.5-4.4-3.5-7.3-3.6c-3-0.1-6.1,0.3-8.3,2.6c-2.1,2.2-2.5,5.3-2.6,8.3c0,5.9,0,11.9,0,17.8
			c0,2.8,0.3,5.9,2,8.3c1.4,2,3.6,3.2,6.1,3.5c3.1,0.3,6.4,0,8.8-2.3c2.4-2.3,2.9-5.7,3-8.9c0-5,0-10,0-14.9
			C326.7,63.5,327,59.4,324.9,56.3z M317.5,85.5c-0.9-0.1-1.5,0.2-2.1-0.8c-0.5-1.4-0.4-3-0.4-4.4c0-5.7-0.1-11.5,0-17.2
			c0.1-1.3,0.4-2.6,2-2.6c1.4,0.6,1.2,1.9,1.3,3.2c0,5.5,0,11.1,0,16.6C318.4,82.1,318.6,83.8,317.5,85.5z"/>
		<path class="st3" d="M348.3,84.2c-0.3,2.5-1.1,5.4-3,7.2c-2.1,1.9-5.5,2.1-8.2,1.8c-2.8-0.3-5.4-1.2-6.8-3.8
			c-1.9-3.3-1.6-7.9-1.6-11.6c2.7-0.1,5.4,0,8.1-0.1c0.4,2.2-0.2,4.8,0.5,7c0.6,1.3,2.7,1.1,2.9-0.4c0.3-1.9,0.1-4.2-1.1-5.9
			c-2.4-3.3-6.4-5.8-8.6-9.2c-1.9-3-2-6.7-1.2-10.1c0.5-1.9,1.5-3.7,3.2-4.8c2.1-1.4,4.6-1.6,7.1-1.5c2.4,0.2,4.8,0.9,6.4,2.8
			c2.1,2.6,2.3,6,2.3,9.2c-2.8,0-5.6,0-8.3,0c0-1.4,0-2.7-0.4-4c-0.6-0.1-1.2-0.2-1.8-0.3c-1.6,0.9-0.8,3.1,0.1,4.2
			c2.7,3.1,6.2,5.7,8.7,9.1C348.5,76.8,348.7,80.6,348.3,84.2z"/>
		<path class="st3" d="M71.2,56.4c-1.3-2.1-3.6-3.2-6-3.3c-3.9-0.2-7.8-0.1-11.6-0.1c0,13.3,0,26.5,0,39.8c2.7,0,5.4,0,8.1,0
			c0-5.2,0-10.4,0-15.5c2.8-0.1,6.2,0.2,8.5-1.8c2.4-2.2,2.7-6,2.9-9.1C73.2,63.2,73,59.3,71.2,56.4z M64.4,68.6
			c-0.7,1-1.6,1-2.7,1.3c-0.1-3.1,0-6.2,0-9.3c1.2,0.3,2.2,0.1,2.8,1.4C65,64,65,66.6,64.4,68.6z"/>
		<path class="st3" d="M113.9,92.9c-5.5,0-10.9,0-16.4,0c0-11.8,0-23.7,0-35.5c0-1.4,0-2.8,0.1-4.3c2.7,0,5.5,0,8.2,0.1
			c0,10.9,0,21.8,0,32.7c2.7,0,5.4,0,8,0C114,88.2,114,90.5,113.9,92.9z"/>
		<path class="st3" d="M128.1,75c-0.5,2.2-1.2,4.2-1.2,6.4c0,3.8,0,7.6,0,11.5c-2.6,0-5.2,0-7.8,0c-0.1-4.5,0.2-9.1-0.2-13.6
			c-2.1-8.4-3.8-16.9-6.1-25.2c0.1-0.4,0.3-0.8,0.6-1.1c2.5,0.1,5.1,0.1,7.6,0.1c0.6,3.8,1.3,7.6,1.8,11.4c1.3-3.6,1.4-7.6,2.2-11.4
			c2.8-0.1,5.5-0.1,8.3,0C131.6,60.4,129.8,67.7,128.1,75z"/>
		<path class="st3" d="M199.2,92.9c-2.7,0-5.4,0-8.1,0c-1.2-5.7-2.1-11.5-3.5-17.1c0,5.7,0.1,11.4,0,17.2c-2.7,0-5.4,0-8.1,0
			c0-13.3,0-26.5,0-39.8c2.8-0.1,5.7,0,8.5,0c1.2,5.4,1.9,10.9,3.3,16.2c0-5.4,0-10.8,0-16.2c2.6,0,5.1-0.1,7.7,0l0.2,0.3
			C199.3,66.5,199.2,79.7,199.2,92.9z"/>
		<path class="st3" d="M250.5,61.1c-1.5,0-3.1,0-4.6,0c0,10.6,0,21.2,0,31.8c-2.7,0-5.5,0-8.2,0c-0.1-10.6,0.1-21.2-0.1-31.8
			c-1.5,0-3.1,0-4.6,0c0-2.7-0.1-5.3,0.1-8c5.8,0,11.7,0,17.5,0C250.6,55.7,250.7,58.4,250.5,61.1z"/>
		<path class="st3" d="M271.5,80.8c0,3.4-0.1,6.8-2.3,9.5c-2,2.4-4.9,2.9-7.8,2.9c-2.7,0-5.4-0.7-7.2-2.9c-1.9-2.4-2.2-5.4-2.3-8.4
			c0-9,0-18,0-27c0-0.7,0.1-1.3,0.2-2c2.6,0.1,5.3,0,7.9,0.1c0.1,9.4,0,18.9,0,28.3c0.1,1.3,0,3,1,4c0.9,0.2,1.7,0.2,2-0.7
			c0.7-2.1,0.4-4.5,0.4-6.7c0.1-8.3-0.1-16.6,0.1-24.9c2.6,0,5.3,0,7.9,0C271.6,62.3,271.4,71.6,271.5,80.8z"/>
		<path class="st3" d="M294,62.5c-0.1-2.9-0.6-5.9-3-7.7c-2.2-1.7-4.6-1.6-7.2-1.7c-3.2,0-6.4-0.1-9.7,0.1c0,13.2,0,26.5,0,39.8
			c3.8,0,7.6,0,11.4,0c2.6,0,5.1-0.9,6.5-3.2c1.7-2.7,1.9-6.3,1.9-9.4C294,74.3,294,68.4,294,62.5z M285.4,84.7
			c-0.7,1-1.8,0.7-2.8,0.9c0-7.1,0-14.2,0-21.4c0-1.3-0.1-2.6,0.1-3.9c0.9,0.1,2.4,0.1,2.7,1.1c0.2,0.9,0.2,1.8,0.2,2.7
			c0,5.9,0,11.9,0,17.8C285.6,82.9,285.6,83.8,285.4,84.7z"/>
		<path class="st3" d="M304.3,92.9c-2.7,0-5.3,0-8,0c0-13.3,0-26.5,0-39.8c2.7,0,5.3-0.1,8,0C304.3,66.4,304.4,79.6,304.3,92.9z"/>
	</g>
</g>
</svg>
