<?xml version="1.0" encoding="utf-8"?>
<!-- Generator: Adobe Illustrator 26.0.2, SVG Export Plug-In . SVG Version: 6.00 Build 0)  -->
<svg version="1.1" xmlns="http://www.w3.org/2000/svg" xmlns:xlink="http://www.w3.org/1999/xlink" x="0px" y="0px"
	 viewBox="0 0 402 146" style="enable-background:new 0 0 402 146;" xml:space="preserve">
<style type="text/css">
	.st0{display:none;}
	.st1{display:inline;fill:#190836;}
	.st2{fill:#EBE6FA;}
	.st3{fill:#181818;}
	.st4{fill-rule:evenodd;clip-rule:evenodd;fill:#181818;}
	.st5{fill:none;stroke:#181818;stroke-miterlimit:10;}
</style>
<g id="Layer_2" class="st0">
</g>
<g id="Layer_1">
	<g>
		<path class="st3" d="M129.9,110.7c1.5,6.5,1,12.9,0.6,19.5c-0.8-0.1-1.6-0.2-2.5-0.3c0-2.7,0-5.4,0-8h-3c0,2.7,0,5.4,0,8.2
			c-1,0-2,0-3,0c0-6,0-12,0-18h3c0,2.4,0,4.8,0,7.2c0.9,0,1.9,0,2.9,0C128.1,116,127.5,113.3,129.9,110.7z"/>
		<path class="st3" d="M140.4,112c0.7,6.3,2,12.4,2.8,18.7c-2.8-1.1-3.1-2.2-4.2-4.8c-1.7,1.8-3.4,3.5-5.4,4.9
			c0.6-6.3,1.9-12.6,2.8-18.9C137.7,111.9,139,112,140.4,112z"/>
		<path class="st3" d="M148.4,127.4c1.6,0,3.2,0,4.8,0v2.6h-7.4c0-5.9-0.1-11.8,0.1-17.7c0.8-0.2,1.6-0.4,2.5-0.6
			C148.5,116.9,148.4,122.1,148.4,127.4z"/>
		<path class="st3" d="M160.5,112.3c0.8-0.3,1.7-0.5,2.5-0.7c-0.6,6.2-1.7,12.3-2.6,18.4c-1.3,0-2.5-0.1-3.8-0.1
			c-0.9-6.2-2-12.4-2.6-18.6l2.6,1.2c1,4,1.2,8.3,1.9,12.4C159.3,120.8,159.8,116.5,160.5,112.3z"/>
		<path class="st3" d="M168.6,130c-0.9,0-1.9,0-2.8,0c0.1-5.8-0.3-11.7,0.2-17.5c0.8-0.4,1.7-0.8,2.5-1.1
			C168.7,117.6,168.6,123.8,168.6,130z"/>
		<path class="st3" d="M180.8,111.9c0,6,0,12,0,18c-1,0-1.9,0-2.9,0.1c-1.2-4.3-2.3-8.7-3.2-13.1c-0.1,4.3-0.2,8.7-0.2,13.1H172
			c0-6.2-0.1-12.3,0.1-18.5l3.3,1c1.3,3.3,1.9,6.9,2.6,10.3c0.2-3.6,0.3-7.2,0.3-10.8C179.2,112,180,111.9,180.8,111.9z"/>
		<path class="st3" d="M188,113.6c-2,4.1-1.1,9.5-0.9,13.9c0.9-0.1,1.7-0.2,2.6-0.3c0.2-1.2,0.3-2.4,0.1-3.7
			c-0.6-1.2-1.3-2.3-2.2-3.3l5-0.4c0,2.4,0,4.8-0.3,7.1c-0.2,4.1-7.4,4.4-8.2,0.5c-0.5-3.4-0.5-9.6,0-13c0.8-2.8,3.9-3.2,6.4-2.3
			c1.6,1.3,1.8,3.5,2.5,5.4l-2.4,0.2C189.9,116.3,189.1,114.9,188,113.6z"/>
		<path class="st3" d="M190.7,95.5c-11.2-0.1-22.4,0.1-33.5-0.1c-3.7-0.1-5.7-2.2-5.8-5.9c-0.2-21.5,0-43.2-0.1-64.7
			c0.1-2.4-0.3-6,1.6-7.8c1.4-2,4.4-1.6,6.6-1.7c11.2,0.1,22.5-0.1,33.7,0.1c3-0.2,5.3,1.8,5.5,4.8c0.3,8.7,0,17.4,0.1,26.1
			c-5,0-10,0-15,0c-0.1-5,0-9.9-0.1-14.9c-5.6-0.1-11.3-0.2-16.9,0c-0.5,9.8-0.2,19.7-0.3,29.6c0.1,6.3-0.4,12.6,0.3,18.8
			c5.6,0.5,11.3,0.2,16.9,0.1c0-5.4,0-10.8,0-16.2c5-0.1,10-0.1,15,0c0,7.9,0,15.8,0.1,23.7c-0.1,2.3,0.3,4.9-1.5,6.7
			C195.9,95.8,192.8,95.3,190.7,95.5z"/>
		<path class="st3" d="M198.1,113.5c-0.9,6.8,6.8,7.4,5.1,13.9c-0.8,3.1-4.1,3.2-6.6,2.1c-2.2-2.1-1.2-3.4-0.5-5.9
			c1.2,1,1.9,4.4,3.9,4c0.4-1.2,1-2,0.2-3.1c-2.4-3.5-5.4-5.5-5.3-10.2c1.7-1.5,2.9-3.1,5.4-2.5c2-0.1,2.9,3.3,3.8,4.7
			c-0.8,0.2-1.7,0.3-2.5,0.5C200.5,115.8,199.3,114.6,198.1,113.5z"/>
		<path class="st3" d="M217.7,122.7c0.8,0.4,1.6,0.7,2.5,1.1c-0.4,2.1-0.9,4.1-1.4,6.1c-2.3-0.2-5.5,0.9-6.9-1.7
			c-0.6-3.6-0.3-7.4-0.3-11.1c0.2-1.3-0.2-3.6,1.1-4.3c1.3-1.5,4.1-0.9,6-0.9c1,3,1.8,4.3-0.2,7.2c-0.9-2-1.8-3.9-2.7-5.9
			c-0.9,2.1-1.6,4.1-1.5,6.4c0.1,3.3-0.5,6.2,1.8,8.9C216.6,126.6,217.2,124.7,217.7,122.7z"/>
		<path class="st3" d="M228.9,112.3c-1.3-0.3-2.6-0.5-3.9-0.7l-0.2,1.4c-1,5.6-1.8,11.2-2.7,16.9c0.9,0,1.8,0,2.6,0
			c0.2-1.4,0.5-2.7,0.8-4.1c2.3,1.4,4.1,3.4,6.4,4.8C230.8,124.6,229.8,118.4,228.9,112.3z M225.5,124.1c0.4-2.9,0.8-5.8,1.2-8.6
			c0.4,2.9,0.8,5.8,1.2,8.7L225.5,124.1z"/>
		<path class="st3" d="M241,112.4c-2.1-0.5-4.4-0.5-6.6-0.7c-0.1,6.1,0,12.2,0,18.3h2.6v-6.8c2.2-0.8,5-0.6,5.6-3.4
			C242.9,117.5,243.4,113.9,241,112.4z M236.9,120.2c0.5-3-1-5.1,2.6-6.2c0.1,2,0.2,4,0.3,6C238.8,120,237.8,120.1,236.9,120.2z"/>
		<path class="st3" d="M248.5,129.8c-1,0.1-2,0.1-3,0.2c0-6-0.1-12,0.1-18c0.9-0.1,1.7-0.2,2.6-0.2
			C248.4,117.8,248,123.8,248.5,129.8z"/>
		<path class="st3" d="M250.9,86c-0.2,3.3,0,7.2-3.4,8.9c-2.4,0.7-5.1,0.5-7.6,0.6c-10.8-0.2-21.6,0.2-32.3-0.2
			c-3-0.2-4.4-3-4.5-5.7c-0.2-8.7,0-17.4,0-26.1c5.1-0.1,10.3-0.1,15.4,0.1c0,5.4,0,10.8,0,16.1c5.6,0.3,11.3,0,16.9,0
			c0.1-16.2,0.1-32.4,0-48.5c-5.6-0.1-11.3-0.1-16.9,0c0,4.9-0.1,9.9-0.1,14.8c-5.1,0.2-10.3,0.1-15.4,0.1c-0.1-7.1,0-14.2-0.1-21.4
			c0.1-2.6-0.3-5.6,1.5-7.8c1.3-2,4.4-1.6,6.5-1.8c10.4,0,20.8,0,31.2,0c1.8,0.1,4.5-0.1,6,1c2.5,2.1,2.5,5.6,2.6,8.5
			C250.9,45.2,250.9,65.6,250.9,86z"/>
		<path class="st3" d="M259.8,111.9c0,0.9,0,1.7,0.1,2.6c-1,0-2,0-3,0.1c0,5.1,0,10.2,0,15.3l-3,0.2c0-5.1,0-10.3,0-15.4
			c-1.2-0.2-2.5-0.4-3.7-0.5C251.8,110.4,256.5,112.3,259.8,111.9z"/>
		<path class="st3" d="M266.9,111.5c-1.2,0.2-2.3,0.5-3.5,0.8c-1.6,5.7-2.1,11.8-3,17.6c0.7-0.1,1.4-0.1,2.1-0.1c1.1-2.1,1.7-3,4-4
			c0.3,1.4,0.5,2.7,0.8,4.1c0.9,0,1.8,0,2.7,0C269.1,123.8,268.2,117.6,266.9,111.5z M263.9,124.1c0.4-2.9,0.8-5.7,1.2-8.6
			c0.4,2.9,0.8,5.7,1.1,8.6L263.9,124.1z"/>
		<path class="st3" d="M280,127.4v2.6h-7.4c0.1-5.8-0.3-11.7,0.2-17.5c0.8-0.4,1.7-0.8,2.5-1.1c0.2,5.3,0.1,10.7,0.1,16
			C277,127.4,278.5,127.4,280,127.4z"/>
		<path class="st3" d="M198.9,87.3c-0.1,2.3,0.3,4.9-1.5,6.7c-1.5,1.8-4.5,1.4-6.6,1.6c-11.2-0.1-22.4,0.1-33.5-0.1
			c-3.7-0.1-5.7-2.2-5.8-5.9c-0.2-21.5,0-43.2-0.1-64.7c0.1-2.4-0.3-6,1.6-7.8c1.4-2,4.4-1.6,6.6-1.7c11.2,0.1,22.5-0.1,33.7,0.1
			c3-0.2,5.3,1.8,5.5,4.8c0.3,8.7,0,17.4,0.1,26.1c-5,0-10,0-15,0c-0.1-5,0-9.9-0.1-14.9c-5.6-0.1-11.3-0.2-16.9,0
			c-0.5,9.8-0.2,19.7-0.3,29.6c0.1,6.3-0.4,12.6,0.3,18.8c5.6,0.5,11.3,0.2,16.9,0.1c0-5.4,0-10.8,0-16.2c5-0.1,10-0.1,15,0
			C198.8,71.4,198.8,79.3,198.9,87.3z"/>
		<path class="st3" d="M250.9,24.8c0,20.4,0,40.8,0,61.3c-0.2,3.3,0,7.2-3.4,8.9c-2.4,0.7-5.1,0.5-7.6,0.6
			c-10.8-0.2-21.6,0.2-32.3-0.2c-3-0.2-4.4-3-4.5-5.7c-0.2-8.7,0-17.4,0-26.1c5.1-0.1,10.3-0.1,15.4,0.1c0,5.4,0,10.8,0,16.1
			c5.6,0.3,11.3,0,16.9,0c0.1-16.2,0.1-32.4,0-48.5c-5.6-0.1-11.3-0.1-16.9,0c0,4.9-0.1,9.9-0.1,14.8c-5.1,0.2-10.3,0.1-15.4,0.1
			c-0.1-7.1,0-14.2-0.1-21.4c0.1-2.6-0.3-5.6,1.5-7.8c1.3-2,4.4-1.6,6.5-1.8c10.4,0,20.8,0,31.2,0c1.8,0.1,4.5-0.1,6,1
			C250.9,18.3,250.8,21.8,250.9,24.8z"/>
		<path class="st3" d="M153.2,127.4v2.6h-7.4c0-5.9-0.1-11.8,0.1-17.7c0.8-0.2,1.6-0.4,2.5-0.6c0.1,5.2,0,10.5,0,15.7
			C150,127.4,151.6,127.4,153.2,127.4z"/>
		<path class="st3" d="M163,111.6c-0.6,6.2-1.7,12.3-2.6,18.4c-1.3,0-2.5-0.1-3.8-0.1c-0.9-6.2-2-12.4-2.6-18.6l2.6,1.2
			c1,4,1.2,8.3,1.9,12.4c0.8-4.2,1.3-8.5,2-12.7C161.3,112.1,162.2,111.8,163,111.6z"/>
		<path class="st3" d="M168.6,130c-0.9,0-1.9,0-2.8,0c0.1-5.8-0.3-11.7,0.2-17.5c0.8-0.4,1.7-0.8,2.5-1.1
			C168.7,117.6,168.6,123.8,168.6,130z"/>
		<path class="st3" d="M180.8,129.9c-1,0-1.9,0-2.9,0.1c-1.2-4.3-2.3-8.7-3.2-13.1c-0.1,4.3-0.2,8.7-0.2,13.1H172
			c0-6.2-0.1-12.3,0.1-18.5l3.3,1c1.3,3.3,1.9,6.9,2.6,10.3c0.2-3.6,0.3-7.2,0.3-10.8c0.8,0,1.6,0,2.4-0.1
			C180.8,117.9,180.8,123.9,180.8,129.9z"/>
		<path class="st3" d="M248.5,129.8c-1,0.1-2,0.1-3,0.2c0-6-0.1-12,0.1-18c0.9-0.1,1.7-0.2,2.6-0.2
			C248.4,117.8,248,123.8,248.5,129.8z"/>
		<path class="st3" d="M259.9,114.5c-1,0-2,0-3,0.1c0,5.1,0,10.2,0,15.3l-3,0.2c0-5.1,0-10.3,0-15.4c-1.2-0.2-2.5-0.4-3.7-0.5
			c1.7-3.6,6.4-1.8,9.7-2.2C259.8,112.7,259.8,113.6,259.9,114.5z"/>
		<path class="st3" d="M266.9,111.5c-1.2,0.2-2.3,0.5-3.5,0.8c-1.6,5.7-2.1,11.8-3,17.6c0.7-0.1,1.4-0.1,2.1-0.1c1.1-2.1,1.7-3,4-4
			c0.3,1.4,0.5,2.7,0.8,4.1c0.9,0,1.8,0,2.7,0C269.1,123.8,268.2,117.6,266.9,111.5z M263.9,124.1c0.4-2.9,0.8-5.7,1.2-8.6
			c0.4,2.9,0.8,5.7,1.1,8.6L263.9,124.1z"/>
		<path class="st3" d="M280,127.4v2.6h-7.4c0.1-5.8-0.3-11.7,0.2-17.5c0.8-0.4,1.7-0.8,2.5-1.1c0.2,5.3,0.1,10.7,0.1,16
			C277,127.4,278.5,127.4,280,127.4z"/>
		<path class="st3" d="M130.5,130.1c-0.8-0.1-1.6-0.2-2.5-0.3c0-2.7,0-5.4,0-8h-3c0,2.7,0,5.4,0,8.2c-1,0-2,0-3,0c0-6,0-12,0-18h3
			c0,2.4,0,4.8,0,7.2c0.9,0,1.9,0,2.9,0c0.2-3.2-0.4-5.9,2-8.5C131.4,117.2,130.9,123.6,130.5,130.1z"/>
		<path class="st3" d="M143.1,130.7c-2.8-1.1-3.1-2.2-4.2-4.8c-1.7,1.8-3.4,3.5-5.4,4.9c0.6-6.3,1.9-12.6,2.8-18.9
			c1.4,0,2.7,0,4.1,0.1C141.1,118.3,142.3,124.5,143.1,130.7z"/>
		<path class="st3" d="M187.7,120.2l5-0.4c0,2.4,0,4.8-0.3,7.1c-0.2,4.1-7.4,4.4-8.2,0.5c-0.5-3.4-0.5-9.6,0-13
			c0.8-2.8,3.9-3.2,6.4-2.3c1.6,1.3,1.8,3.5,2.5,5.4l-2.4,0.2c-0.9-1.4-1.7-2.8-2.7-4.1c-2,4.1-1.1,9.5-0.9,13.9
			c0.9-0.1,1.7-0.2,2.6-0.3c0.2-1.2,0.3-2.4,0.1-3.7C189.3,122.4,188.5,121.2,187.7,120.2z"/>
		<path class="st3" d="M203.2,127.4c-0.8,3.1-4.1,3.2-6.6,2.1c-2.2-2.1-1.2-3.4-0.5-5.9c1.2,1,1.9,4.4,3.9,4c0.4-1.2,1-2,0.2-3.1
			c-2.4-3.5-5.4-5.5-5.3-10.2c1.7-1.5,2.9-3.1,5.4-2.5c2-0.1,2.9,3.3,3.8,4.7c-0.8,0.2-1.7,0.3-2.5,0.5c-1.1-1.2-2.3-2.4-3.5-3.5
			C197.2,120.3,204.9,120.9,203.2,127.4z"/>
		<path class="st3" d="M220.2,123.8c-0.4,2.1-0.9,4.1-1.4,6.1c-2.3-0.2-5.5,0.9-6.9-1.7c-0.6-3.6-0.3-7.4-0.3-11.1
			c0.2-1.3-0.2-3.6,1.1-4.3c1.3-1.5,4.1-0.9,6-0.9c1,3,1.8,4.3-0.2,7.2c-0.9-2-1.8-3.9-2.7-5.9c-0.9,2.1-1.6,4.1-1.5,6.4
			c0.1,3.3-0.5,6.2,1.8,8.9c0.6-1.9,1.2-3.9,1.7-5.8C218.5,123.1,219.4,123.4,220.2,123.8z"/>
		<path class="st3" d="M228.9,112.3c-1.3-0.3-2.6-0.5-3.9-0.7l-0.2,1.4c-1,5.6-1.8,11.2-2.7,16.9c0.9,0,1.8,0,2.6,0
			c0.2-1.4,0.5-2.7,0.8-4.1c2.3,1.4,4.1,3.4,6.4,4.8C230.8,124.6,229.8,118.4,228.9,112.3z M225.5,124.1c0.4-2.9,0.8-5.8,1.2-8.6
			c0.4,2.9,0.8,5.8,1.2,8.7L225.5,124.1z"/>
		<path class="st3" d="M241,112.4c-2.1-0.5-4.4-0.5-6.6-0.7c-0.1,6.1,0,12.2,0,18.3h2.6v-6.8c2.2-0.8,5-0.6,5.6-3.4
			C242.9,117.5,243.4,113.9,241,112.4z M236.9,120.2c0.5-3-1-5.1,2.6-6.2c0.1,2,0.2,4,0.3,6C238.8,120,237.8,120.1,236.9,120.2z"/>
	</g>
</g>
</svg>
