<?xml version="1.0" encoding="utf-8"?>
<!-- Generator: Adobe Illustrator 26.0.2, SVG Export Plug-In . SVG Version: 6.00 Build 0)  -->
<svg version="1.1" xmlns="http://www.w3.org/2000/svg" xmlns:xlink="http://www.w3.org/1999/xlink" x="0px" y="0px"
	 viewBox="0 0 402 146" style="enable-background:new 0 0 402 146;" xml:space="preserve">
<style type="text/css">
	.st0{display:none;}
	.st1{display:inline;fill:#190836;}
	.st2{fill:#EBE6FA;}
	.st3{fill:#181818;}
	.st4{fill-rule:evenodd;clip-rule:evenodd;fill:#181818;}
	.st5{fill:none;stroke:#181818;stroke-miterlimit:10;}
</style>
<g id="Layer_2" class="st0">
</g>
<g id="Layer_1">
	<g>
		<path class="st3" d="M96,36.3c-0.1-1.1,0.9-2.2,2-2.3c1-0.2,2.2,0.2,2.9-0.6c0.6-0.6,0.6-1.3,0.7-2.1c0.1-0.6,0.6-1,1-1.4l0.1,0
			c6.8,1.3,13.3,4.2,18.7,8.5c-0.8,0.2-1.7,0.1-2.5,0.1c-6.8,0-13.6,0-20.4,0c-0.5,0-1,0-1.4-0.3C96.4,37.8,96,37.1,96,36.3z"/>
		<path class="st3" d="M52.7,58.9c1.1-3.2,2.5-6.3,4.3-9.1c2.6-4.2,6-8,9.8-11.1c0,0.4,0,0.8-0.1,1.2c-0.7,3.2-0.8,6.6-0.7,9.9
			c1.1,0,2.2,0,3.3,0c1,0,1.8-1,1.8-2c0-0.9-0.6-2-1.6-2.1c-0.8-0.2-1.6-0.1-2.1-0.8c-0.8-0.9-0.8-2.1-0.1-3
			c0.5-0.7,1.3-0.9,2.2-0.9c3,0,5.9,0,8.9,0c0.8,0,1.6,0,2.3,0.2c0.6,0.3,1.2,0.9,1.2,1.5c0.1,0.7,0,1.3,0.5,2
			c0.4,0.6,1.1,0.8,1.8,0.8c3.4,0,6.9,0,10.3,0c1-0.1,2,0.7,2.3,1.6c0.1,0.7,0.1,1.6-0.3,2.1c-0.3,0.4-0.8,0.8-1.3,0.9
			c-0.9,0.1-2.1-0.1-3,0.2c-0.8,0.2-1.3,1-1.2,1.8c0,1.4-1.1,2.6-2.5,2.6c-3.1,0-6.2,0-9.2,0c-0.7,0-1.4-0.1-2.1,0.1
			c-0.5,0.1-1,0.5-1.1,1c-0.2,0.9-0.1,1.7-0.7,2.5c-0.5,0.8-1.6,0.9-2.5,0.9c-1.8,0-3.7,0-5.6,0c-0.3,0.1-0.6,0.1-0.8,0.4
			c-0.4,0.5,0,1.1,0,1.6c0.1,1.3-1.1,2.4-2.4,2.4c-2.7,0-5.5,0-8.2,0c-1.2,0.1-2.5-1.1-2.3-2.4c0-0.5,0.3-1.2,0-1.6
			C53.4,59.1,53,59,52.7,58.9z"/>
		<path class="st3" d="M154.3,110c-0.9,0-1.7,0-2.6,0c0-24,0-48.1,0-72.1c0-0.5,0-0.9,0-1.4c0.9,0,1.7,0,2.6,0c0,0.5,0,1,0,1.4
			C154.3,61.9,154.3,85.9,154.3,110z"/>
		<path class="st3" d="M187.1,83.4c0.1,1,0.2,1.9,0.1,2.9c-0.2,0.7-0.8,0.8-1.4,0.9c-0.7,0.1-1.5,0.1-2.3,0
			c-0.9-0.1-1.6-0.9-1.7-1.8c-0.1-0.9-0.2-1.9-0.5-2.8c-0.3-0.7-0.8-1.3-1.3-1.8c-0.5-0.4-1.1-0.6-1.7-0.7c-1-0.1-2.1,0-2.8,0.7
			c-1,1.1-1.2,2.4-1.4,3.9c-0.2,2.2-0.4,4.4-0.3,6.6c0.1,1-0.2,2-0.2,3c0.1,2-0.2,4.3,0.2,6.3c0.2,0.7,0.2,1.5,0.5,2.1
			c0.4,0.9,1.3,1.5,2.2,1.9c1.1,0.2,2.4,0.1,3.5-0.2c0.8-0.5,1.4-1.5,1.3-2.5c-0.2-1.4,0-2.8,0-4.2c0.2-0.6,1.1-1.1,1.8-1
			c0.8,0,1.5-0.2,2.4,0.1c0.7,0.2,1.1,0.7,1.4,1.3c0.3,1.1,0.2,2.1,0.2,3.2c0,0.7-0.4,1.4-0.4,2.1c0,0.6-0.1,1.2-0.3,1.7
			c-0.4,0.9-0.8,1.8-1.6,2.4c-1.2,0.8-2.6,1.4-3.9,1.8c-0.9,0.3-1.7,0.3-2.6,0.4c-0.7,0.1-1.4-0.1-2.1,0c-1.4,0.2-2.9-0.6-4.2-1.1
			c-1.2-0.8-2.2-2.2-3-3.4c-0.4-0.5-0.5-1.1-0.7-1.8c-0.4-1-0.3-2.1-0.6-3.2c-0.2-1.6-0.1-3.3,0-4.9c-0.1-1.3,0.1-2.6,0-3.8
			c0-0.6-0.2-1.2-0.1-1.7c0.1-1.2,0-2.3,0.1-3.5c0.2-0.6,0.3-1.3,0.4-1.9c0.1-1.5,0.5-3,0.8-4.4c0.2-0.9,0.7-1.4,1.2-2.1
			c0.2-0.3,0.5-0.7,0.8-1c0.5-0.4,1-0.6,1.6-0.9c1.3-0.6,2.9-0.6,4.3-0.8c0.7-0.1,1.5-0.1,2.2-0.1c0.8,0,1.5,0.3,2.3,0.4
			c0.7,0.1,1.3,0.2,1.9,0.4c1.1,0.4,1.9,1.2,2.5,2.2c0.3,1,0.6,2,0.9,3C186.9,81.8,187,82.6,187.1,83.4z"/>
		<path class="st3" d="M167.8,68.4c0-0.5-0.2-1-0.1-1.6c0.2-1.8,0-3.6,0.2-5.4c0.2-1,0.1-2.1,0.2-3.1c0.2-1.3,0.1-2.7,0-4
			c0-2,0.1-4.1-0.1-6.1c-0.1-1,0-2.1,0-3.1c0-1,0.3-1.8,0-2.8c-0.1-1,0-2,0.1-3c0-0.7,0-1.4,0.2-2.1c0.8-0.1,1.7-0.1,2.5,0
			c1.2-0.1,2.4-0.1,3.6,0c0,1.5,0.1,3.1,0,4.6c0,0.9,0.1,1.8,0,2.8c0,0.7,0.1,1.3,0.2,2c0.1,0.8-0.1,1.5-0.1,2.2c0,0.8,0,1.5,0,2.3
			c0,0.7-0.1,1.4,0.2,2.1c0.4-0.7,1-1.2,1.3-1.9c0.5-1.4,1.5-2.5,2-3.9c0.7-1.3,1-2.8,1.8-4c0.3-0.6,0.4-1.2,0.8-1.8
			c0.8-1.2,1.1-3,2.2-3.9c0.2-0.2,0.4-0.4,0.6-0.4c1.6,0.2,3.2,0,4.8,0.1c0.5,1.3-0.1,2.4-0.7,3.5c-0.5,1.1-1.2,2.2-1.7,3.4
			c-0.8,1.9-1.8,3.7-2.9,5.5c-0.5,1.5-1.4,2.9-2.2,4.3c-0.4,0.6-0.3,1.6,0.1,2.2c0.6,1,1.1,2.1,1.7,3c0.4,0.7,0.7,1.5,1.2,2.2
			c0.7,1.1,1.1,2.2,2,3.2c0.7,0.8,1.1,1.8,1.6,2.8c0.3,0.6,0.8,1,1,1.6c0.2,0.7,0.7,1.4,0.8,2.1c-1.2,0.2-2.4,0.1-3.5,0.4
			c-1.1,0-2.6,0.1-3.4-0.7c-0.5-0.4-0.5-1-0.8-1.6c-0.5-1.2-1.1-2.3-2-3.3c-0.4-0.4-0.5-1-0.7-1.5c-0.3-0.5-0.6-0.8-0.8-1.4
			c-0.3-0.9-0.8-1.6-1.3-2.5c-0.3,0.1-0.5,0-0.7,0.3c-0.6,0.8-1.2,1.6-1.5,2.5c-0.1,0.8,0.1,1.5-0.1,2.3c-0.1,0.6-0.1,1.3,0,1.9
			c0.1,1.2,0.2,2.5-0.2,3.7c-0.9,0.2-1.7,0-2.7,0.1c-1.1,0.1-2.3,0.1-3.4-0.2c-0.1-0.4-0.2-0.7-0.4-1.1
			C167.7,69.4,167.8,68.9,167.8,68.4z"/>
		<path class="st3" d="M210.5,105.7c-0.2-1.4-0.6-2.8-0.8-4.2c0-1.4-0.7-2.5-0.9-3.8c-0.2-1.1-0.4-2.1-0.7-3.2
			c-0.2-0.9-0.3-1.8-0.6-2.7c-0.3-0.9-0.4-1.8-0.6-2.7c-0.2-0.8-0.5-1.6-0.6-2.5c-0.1-1-0.4-2-0.6-3.1c-0.2-1.3-0.8-2.5-0.9-3.8
			c0-0.9-0.3-1.8-0.6-2.7c-0.2-0.5-0.4-1.1-1-1.2c-0.8-0.1-1.6-0.2-2.4-0.3c-0.9-0.1-1.9,0-2.8,0c-0.7,0.1-1.5,0.1-2.2,0.3
			c-0.7,0.9-1.2,1.9-1.5,3.1c-0.4,1.1-0.3,2.2-0.6,3.3c-0.2,0.8,0,1.5-0.2,2.2c-0.2,0.9-0.4,1.7-0.5,2.6c-0.2,0.8-0.1,1.7-0.4,2.6
			c-0.6,2.1-0.6,4.6-1.5,6.6c-0.4,1.1-0.2,2.4-0.6,3.5c-0.2,0.5-0.4,0.9-0.5,1.4c-0.1,1.4-0.8,2.5-1.1,3.8c-0.1,1.6-0.7,3.2-0.6,4.8
			c1.8,0.2,3.7,0.3,5.4-0.1c0.2-0.1,0.4-0.3,0.6-0.4c0.1-1,0.3-2,0.4-2.9c0.1-0.7,0.1-1.4,0.3-2c0.1-0.3,0.3-0.5,0.6-0.6
			c1.1-0.1,2.3-0.1,3.4-0.1c1,0,2,0.1,3,0c0.3,0,0.6,0,0.9,0.1c0.4,1.1,0.5,2.1,0.6,3.2c0.2,0.9,0.4,1.8,0.7,2.7
			c0.9,0.1,1.8,0.2,2.7,0.1c1.2-0.1,2.5,0,3.7-0.1C211.3,108.5,210.7,106.9,210.5,105.7z M202.3,98.8c-1.5,0.1-3.1-0.2-4.6-0.3
			c-0.5,0-0.9,0-1.4-0.2c0.1-0.5,0.2-0.9,0.4-1.4c0.4-1.1,0.1-2.2,0.4-3.4c0.5-1.9,0.4-3.9,0.9-5.8c0.4-1.1,0.4-2.3,0.8-3.4
			c0.2-0.7,0.3-1.5,0.6-2.2c0.1,0,0.2,0,0.2-0.1c0.3,1.2,0.3,2.5,0.6,3.7c0.2,0.8,0.4,1.7,0.6,2.5c0.1,0.5,0.3,1,0.4,1.5
			c0.1,1.5,0.3,2.9,0.5,4.4C201.9,95.8,202.4,97.2,202.3,98.8z"/>
		<path class="st3" d="M213.2,70.1c0-1.1-0.4-2-0.5-3c-0.2-1.5-0.7-3-0.9-4.5c-0.1-1-0.6-2-0.8-3c-0.2-1-0.4-2-0.7-3.1
			c-0.3-0.9-0.3-1.9-0.6-2.9c-0.3-1-0.4-2.2-0.7-3.2c-0.2-0.7-0.4-1.4-0.5-2.1c-0.2-1.1-0.5-2.2-0.7-3.3c-0.1-0.9-0.5-1.7-0.7-2.6
			c-0.2-0.8-0.1-1.5-0.3-2.3c-0.2-0.7-0.4-1.6-0.8-2.3c-0.3-0.4-0.8-0.4-1.2-0.4c-0.8,0-1.5-0.3-2.3-0.3c-1.2,0-2.5,0-3.7,0.1
			c-0.3,0.1-0.7,0.1-0.9,0.3c-0.6,0.8-1,1.6-1.3,2.6c-0.2,0.6-0.4,1.2-0.5,1.8c0,1.2-0.3,2.3-0.3,3.5c-0.2,1.4-0.7,2.9-0.8,4.4
			c-0.1,0.8-0.3,1.6-0.5,2.3c-0.4,1.9-0.5,4-1.3,5.7c-0.4,1.3-0.1,2.7-0.8,3.9c-0.4,0.7-0.3,1.5-0.6,2.2c-0.3,1-0.8,1.9-0.9,2.9
			c-0.2,1.5-0.6,2.9-0.5,4.4c1.2,0.1,2.4,0.3,3.6,0.2c0.8-0.1,1.6-0.1,2.3-0.5c0.2-1.4,0.5-2.8,0.6-4.3c0.2-0.6,0.1-1.4,0.9-1.4
			c1.9-0.1,3.7-0.1,5.6,0c0.5,0,1.1-0.1,1.6,0c0.8,0.9,0.5,2.7,0.9,3.9c0.2,0.7,0.3,1.3,0.4,2c1,0.4,2.2,0.2,3.2,0.2
			c1.1-0.1,2.1,0.1,3.2,0C213.3,71.1,213.2,70.5,213.2,70.1z M198.9,60.1c-0.2,0-0.3-0.1-0.4-0.3c0.2-0.7,0.5-1.2,0.5-1.9
			c0-0.6,0.1-1.3,0.1-1.9c0.1-0.8,0.3-1.5,0.4-2.3c0.1-1.2,0.3-2.4,0.5-3.7c0.1-0.8,0.5-1.5,0.6-2.3c0.1-1.1,0.6-2.2,0.8-3.3
			c0.1-0.2,0.1-0.7,0.4-0.7c0.3,0.8,0.3,1.6,0.4,2.4c0.1,1,0.5,1.9,0.6,2.9c0.1,0.7,0.3,1.4,0.5,2.1c0.3,2.2,0.5,4.4,0.9,6.5
			c0.2,0.9,0.3,1.9,0.3,2.8C202.7,60.6,200.7,60.1,198.9,60.1z"/>
		<path class="st3" d="M232.9,81.1c-0.1-0.5-0.1-1.1-0.3-1.6c-0.3-0.5-0.6-1-1-1.5c-0.7-0.6-1.7-0.8-2.4-1.4c-1-0.9-2.2-0.9-3.4-1.2
			c-1.5-0.3-2.9-0.5-4.4-0.3c-1.7,0.1-3.4,0-5.1,0.1c-0.7,0-1.3,0.2-2,0.5c-0.1,0.4-0.3,0.8-0.4,1.3c0.3,2.2-0.2,4.3-0.2,6.6
			c0.1,1.6-0.2,3.2,0,4.7c0.1,0.8-0.1,1.5,0,2.3c0,0.8,0,1.6,0,2.4c0.2,2.4,0,4.8,0.1,7.2c0.1,2-0.1,4,0.1,6.1
			c-0.1,0.9-0.2,1.7-0.1,2.5c0.4,0.3,0.8,0.5,1.3,0.5c1.4-0.1,3.3,0.3,4.7-0.1c0.4-0.4,0.7-1.1,0.7-1.7c0-1.3-0.2-2.7-0.1-4
			c0.1-0.9-0.1-1.8-0.1-2.6c0.1-0.7,0.6-0.9,1.1-1.2c1-0.5,2-0.9,3-1.5c1.3-0.6,2.6-1.2,3.9-1.8c0.5-0.3,1-0.6,1.5-1
			c0.5-0.5,0.9-0.9,1.2-1.5c0.4-0.9,1-1.6,1.2-2.6c0.3-1.4,0.6-2.8,0.7-4.2C233.3,85.2,233.2,83.1,232.9,81.1z M227.1,84.9
			c-0.1,1.2,0.1,2.3-0.1,3.5c-0.2,1.1-0.2,2.4-0.9,3.2c-0.4,0.5-0.9,1.2-1.5,1.5c-0.9,0.5-1.9,0.9-2.9,1.3c-0.4,0.2-0.8,0-1.2-0.1
			c0.1-1.2,0-2.3,0-3.4c-0.1-1.2,0.2-2.3-0.1-3.5c-0.1-2.2,0-4.4,0-6.6c-0.1-0.4,0.3-0.6,0.6-0.7c1.6-0.1,3-0.2,4.5,0.2
			c0.6,0.2,1,0.7,1.2,1.2C227,82.6,227.2,83.8,227.1,84.9z"/>
		<path class="st3" d="M236.2,69.8c0,0.6-0.3,1.1-0.9,1.2c-1,0.2-2.1,0.2-3.1,0.2c-0.9,0.1-1.8,0-2.7-0.1c-0.2-0.8-0.3-1.8-0.7-2.5
			c-0.8-1.4-1.2-3.1-1.5-4.6c-0.7-1.9-1.5-3.7-1.9-5.6c-0.4-1-0.8-1.9-1-3c-0.1-0.7-0.7-1.2-0.8-1.8c-0.2-0.8-0.3-1.5-0.6-2.3
			c-0.3-1-0.8-1.8-0.9-2.8c-0.1-0.7-0.3-1.2-0.5-1.9c-0.1,1.1,0,2.2-0.1,3.4c-0.2,1.3,0,2.6-0.1,4c0,0.8-0.2,1.6-0.1,2.4
			c0,1.4,0,2.8,0.1,4.2c0.3,1.5,0.4,3,0.6,4.5c0.1,1.2,0,2.3-0.1,3.5c-0.1,0.7,0,1.5-0.3,2.2c-0.3,0.5-0.8,0.5-1.3,0.5
			c-0.8,0-1.5,0.2-2.3,0.1c-0.5-0.1-1.1-0.2-1.6-0.3c-0.7-1-0.5-2-0.5-3.2c0.1-0.8,0-1.6,0-2.4c0-0.6,0.1-1.1,0.1-1.7
			c0-0.9-0.2-1.7-0.2-2.6c0.1-1.6,0-3.1,0.1-4.7c0-0.7-0.2-1.4-0.1-2.1c0.1-0.8,0.1-1.6,0.2-2.4c0.2-1.9,0.1-3.7,0.1-5.6
			c0.1-1.8-0.2-3.5-0.2-5.2c-0.1-1,0.3-1.9,0.4-3c0.1-0.1,0.2-0.3,0.2-0.4c1-0.3,2.1-0.3,3.1-0.3c1-0.1,2,0.2,3,0.2
			c0.6,0,1.1,0.1,1.6,0.3c0.7,1.3,0.8,2.6,1.3,3.9c0.4,0.9,0.6,1.9,0.9,2.9c0.1,0.8,0.2,1.5,0.5,2.2c0.3,0.9,0.4,1.8,0.8,2.5
			c0.3,0.4,0.5,0.8,0.6,1.3c0.4,1.4,0.8,2.7,1.3,4.1c0.5,1.2,0.4,2.6,1,3.7c0.2-1.4,0-2.8,0.1-4.3c-0.1-1.7,0.1-3.4,0-5.1
			c0-2.8-0.2-5.7,0.2-8.6c0.1-1.1-0.1-2.1,0.4-3.2c1-0.3,2-0.1,3-0.2c0.8-0.1,1.4,0.2,2.1,0.4c0.4,2.3,0,4.8-0.1,7.2
			c-0.1,1.3,0.1,2.6,0,3.8c-0.1,0.9,0,1.9,0,2.8c0,0.7-0.2,1.3-0.1,1.9c0.2,1.5,0.1,3,0,4.5c0.2,2.2-0.1,4.3,0.1,6.5
			C236.2,66,236.2,67.9,236.2,69.8z"/>
		<path class="st3" d="M242.8,105c0,1.3,0.3,2.7,0,3.9c-0.1,0.3-0.3,0.4-0.6,0.5c-0.7,0.2-1.5,0-2.3,0.1c-1.2,0.1-2.3-0.1-3.5-0.1
			c-0.2-0.7-0.3-1.4-0.2-2.2c0-0.9-0.2-1.6,0-2.5c0.2-0.7,0.1-1.4,0.2-2c0.1-0.9,0-1.9,0.2-2.8c0-0.9-0.3-1.7-0.3-2.6
			c0-2.5-0.1-5-0.1-7.5c-0.1-1.2,0-2.4-0.2-3.7c-0.1-0.4-0.1-0.8,0-1.2c0.1-1,0-2,0.1-3c0.1-0.6,0.1-1.3,0.1-1.9
			c0.1-1.2-0.2-2.6,0-3.8c0.1-0.5,0.6-0.7,1-0.9c0.6-0.2,1.4,0.1,1.9,0c1-0.1,2-0.2,2.9-0.1c0.5,0.2,0.8,0.8,0.8,1.3
			c0,0.8,0.1,1.7-0.1,2.4c-0.3,1.1,0,2.2-0.2,3.3c-0.1,0.8-0.2,1.7,0,2.4c0.2,0.8,0,1.6,0,2.5c0,1,0.1,2,0,3
			c-0.1,1.1-0.1,2.2,0.1,3.3c0.2,0.8-0.1,1.5,0,2.3c0.1,1.6-0.1,3.3,0.1,4.9C242.7,102.1,242.7,103.6,242.8,105z"/>
		<path class="st3" d="M246.2,71.3c-0.5,0-1-0.1-1.4-0.3c-0.5-0.2-1-0.4-1.4-0.9c-0.5-0.6-1-1.2-1.4-1.8c-0.4-0.6-0.8-1-1-1.6
			c-0.4-0.9-0.4-1.9-0.6-2.8c0-1.3,0-2.6,0-3.8c0-0.6-0.1-1.3,0.1-1.9c0.2-0.8-0.3-1.8-0.3-2.6c0-0.8,0.1-1.6,0-2.5
			c-0.2-1,0-2.1-0.1-3.1c-0.1-0.9,0-1.9,0.1-2.8c0.1-1.1,0.4-2.1,0.4-3.1c0-0.5,0-1,0.2-1.4c0.2-0.5,0.4-1,0.6-1.5
			c0.4-1,1.1-1.9,1.8-2.6c0.3-0.3,0.7-0.7,1.1-0.9c1.2-0.6,2.5-1,3.9-1c1.5-0.2,2.9,0.1,4.4,0.3c1,0.2,2,0.6,3,1
			c1.2,0.4,2.3,1.2,3.1,2.3c0.4,0.5,0.9,1,1.1,1.6c0,1.6,0.2,3.3,0.3,4.9c0.1,0.7,0.1,1.3-0.1,2c-0.4,0.1-0.8,0.3-1.3,0.3
			c-1.2,0-2.4-0.1-3.7-0.1c-0.3,0-0.6-0.1-0.9-0.2c-0.2-0.6-0.4-1.1-0.1-1.7c0.2-0.5,0.1-1,0.2-1.6c0-0.6,0.2-1.3,0-1.9
			c-0.4-0.8-1.5-1.1-2.3-1.4c-0.5-0.1-0.9-0.5-1.3-0.4c-0.7,0.1-1.6,0.1-2.2,0.6c-0.8,0.6-1.7,1.5-1.7,2.5c-0.1,2.4,0.1,4.9,0,7.3
			c0.1,0.8,0.4,1.6,0.4,2.4c0.1,2-0.5,3.9-0.4,5.9c-0.1,1.6,0.1,3.1,0.7,4.6c0.2,0.6,0.6,1.2,1.1,1.5c0.7,0.1,1.4,0.3,2.1,0.4
			c1.1,0,2.3-0.5,2.9-1.5c0.4-0.6,0.5-1.3,0.7-2.1c0.3-1.2,0-2.4,0.1-3.7c-0.2-0.1-0.5-0.4-0.8-0.4c-0.7,0-1.5,0.1-2.2,0
			c-0.3-0.1-0.8-0.4-0.9-0.7c0-1.2,0-2.5,0-3.7c-0.1-0.4,0.4-0.6,0.8-0.6c1.3-0.1,2.7-0.2,4-0.2c1.1,0,2.1,0.2,3.1,0.2
			c0.5,0,1,0,1.5,0.2c0,1.4,0.3,2.9,0.1,4.3c0,0.6,0,1.1,0,1.6c0.1,1-0.3,1.8-0.1,2.8c0.2,1.1,0,2.2-0.4,3.2c-0.3,0.6-0.7,1-1,1.6
			c-0.4,0.7-1,1.1-1.5,1.7c-0.4,0.5-0.8,1-1.4,1.3c-0.7,0.2-1.5,0.4-2.3,0.4c-0.7,0-1.4,0.1-2.1,0.1c-0.7,0-1.4,0.2-2.1,0.2
			C248.1,71.7,247.1,71.3,246.2,71.3z"/>
		<path class="st3" d="M258.7,80.7c-0.1,0.5,0,0.9,0,1.4c-0.1,2.6,0,5.2,0,7.9c-0.2,1.6,0.1,3.2,0,4.9c0,0.8,0,1.6,0.1,2.4
			c0.1,0.6-0.1,1.2,0,1.7c0.2,1.5,0.1,3,0.2,4.5c0.1,0.9,0.2,1.7,0.1,2.6c-0.1,1,0.1,2-0.2,2.9c-0.1,0.2-0.3,0.5-0.6,0.5
			c-1.7,0-3.4,0-5.1,0c-0.4,0-0.5-0.3-0.7-0.5c0-0.9,0-1.8,0-2.7c-0.1-1.3,0.2-2.5,0.2-3.8c0-1.8,0.1-3.5-0.1-5.2
			c-0.1-0.9,0.1-1.7,0-2.6c-0.2-1.4-0.1-2.8-0.1-4.2c-0.1-2-0.2-4,0-5.9c0-0.8-0.1-1.5-0.1-2.3c0.1-0.7,0.1-1.4,0-2.1
			c-1.3,0-2.5,0-3.8,0.1c-0.9,0-1.7,0.1-2.5-0.2c-0.1-0.7-0.3-1.5-0.4-2.2c0-0.8,0.1-1.6,0.2-2.4c0.3-0.1,0.6-0.2,1-0.2
			c2.3-0.1,4.7,0.2,7,0c1.3,0.1,2.6,0,3.8,0c0.9,0,1.9,0,2.8,0c1.6,0.1,3.2-0.1,4.9,0.1c0.5,0.4,0.4,0.9,0.4,1.4
			c-0.1,1.2,0.2,2.1-0.2,3.2c-1.6,0-3.2,0-4.8,0C260,80.2,259.2,80.2,258.7,80.7z"/>
		<path class="st3" d="M283.3,67.3c-0.3-1.7-0.8-3.3-0.9-5c-0.1-0.5-0.2-0.9-0.4-1.3c-0.5-1.3-0.5-2.8-0.9-4.1
			c-0.4-1.1-0.4-2.3-0.8-3.5c-0.3-1-0.3-2.1-0.7-3.1c-0.5-1.5-0.6-3.1-1-4.6c-0.1-1.1-0.5-2.1-0.8-3.1c-0.2-0.8-0.1-1.6-0.4-2.4
			c-0.2-0.8-0.4-1.8-0.9-2.4c-0.4-0.5-1.4-0.3-2-0.5c-1.1-0.3-2.2-0.1-3.3-0.1c-0.8,0-1.6,0.1-2.4,0.2c-0.4,0.1-0.6,0.5-0.8,0.8
			c-0.6,1-0.9,2.1-1.3,3.2c-0.1,0.9-0.2,1.8-0.3,2.7c-0.1,0.7,0,1.3-0.2,1.9c-0.2,0.9-0.4,1.8-0.6,2.7c-0.2,0.9-0.2,1.7-0.4,2.6
			c-0.6,2.1-0.6,4.6-1.5,6.6c-0.4,1.1-0.2,2.2-0.6,3.3c-0.2,0.6-0.5,1-0.6,1.6c-0.1,1.2-0.8,2.4-1.1,3.5c-0.2,1.4-0.5,2.8-0.7,4.2
			c0,0.3,0,0.6,0.1,1c1.9,0.2,3.6,0.4,5.5-0.1c0.2-0.1,0.5-0.2,0.5-0.5c0.2-1.3,0.4-2.7,0.6-4c0.1-0.4,0.1-0.9,0.4-1.2
			c0.4-0.3,1-0.2,1.4-0.2c2.1-0.1,4.2,0,6.3,0c0.2,0.5,0.4,1.1,0.5,1.7c0,0.6,0,1.1,0.1,1.7c0.1,0.6,0.4,1.2,0.4,1.8
			c0,0.3,0.2,0.6,0.3,0.9c2.1,0.2,4.1-0.1,6.1,0.1c0.1-0.1,0.2-0.3,0.4-0.4C283.9,69.8,283.6,68.6,283.3,67.3z M269.1,60
			c0.1-0.6,0.3-1.2,0.5-1.8c0.1-0.8,0-1.6,0.2-2.4c0.1-0.8,0.3-1.5,0.4-2.3c0.1-0.9,0.2-1.9,0.4-2.8c0.1-1.1,0.6-2.2,0.7-3.3
			c0.2-1.2,0.6-2.3,0.9-3.5c0.1-0.1,0.2-0.1,0.3-0.1c0.3,1.2,0.3,2.5,0.6,3.7c0.3,1.2,0.5,2.5,0.9,3.8c0.1,1.4,0.3,2.8,0.5,4.3
			c0.2,1.7,0.7,3.3,0.7,5C273.1,60.6,271.2,60.1,269.1,60z"/>
		<path class="st3" d="M285.9,105.9c-0.2-1.4-0.6-2.8-0.9-4.2c0-0.9-0.3-1.8-0.6-2.6c-0.3-0.9-0.4-1.8-0.6-2.7
			c-0.2-0.9-0.5-1.8-0.6-2.7c-0.1-0.6-0.2-1.2-0.4-1.8c-0.3-1-0.3-2-0.6-3c-0.2-0.7-0.4-1.3-0.5-1.9c-0.2-1.2-0.5-2.4-0.7-3.7
			c-0.1-0.8-0.4-1.5-0.6-2.3c-0.2-0.9-0.1-1.8-0.4-2.7c-0.2-0.7-0.4-1.4-0.7-2c-0.2-0.4-0.6-0.5-1-0.5c-0.9,0-1.9-0.4-2.8-0.3
			c-0.9,0-1.9,0-2.8,0.1c-0.5,0.1-1.1,0-1.5,0.3c-1,1.2-1.3,2.5-1.8,3.9c-0.1,0.9-0.2,1.9-0.3,2.8c0,1.9-0.7,3.5-0.8,5.4
			c-0.1,1.3-0.6,2.5-0.7,3.9c-0.2,1.3-0.4,2.8-0.9,4c-0.5,1.2-0.3,2.6-0.7,3.8c-0.2,0.5-0.5,0.9-0.5,1.4c-0.1,1.1-0.6,2.2-1,3.3
			c-0.2,0.7-0.2,1.3-0.3,2c-0.2,1.1-0.4,2.2-0.4,3.3c1.7,0.2,3.6,0.3,5.3,0c0.3-0.1,0.7-0.2,0.8-0.6c0.1-0.7,0.2-1.5,0.3-2.2
			c0.1-0.9,0.1-1.9,0.5-2.7c0.2-0.5,0.6-0.4,1.1-0.5c1.6,0,3.3-0.1,4.9,0c0.7,0,1.3-0.1,2,0.1c0.4,1.1,0.5,2.2,0.6,3.4
			c0.3,0.8,0.4,1.7,0.6,2.5c0.9,0.1,1.8,0.2,2.7,0.1c1.2-0.2,2.5,0,3.7-0.1C286.6,108.5,286.2,107.1,285.9,105.9z M275.7,98.7
			c-0.5-0.1-1.1-0.1-1.6-0.1c-0.8-0.2-1.6-0.1-2.4-0.3c0.1-0.4,0.2-0.8,0.3-1.2c0.4-1,0.2-2,0.3-3c0.1-0.5,0.2-1,0.3-1.6
			c0.3-1.8,0.3-3.8,0.9-5.5c0.2-0.8,0.3-1.7,0.6-2.6c0.3-0.8,0.4-1.7,0.7-2.5c0.5,0.9,0.4,1.7,0.6,2.7c0.1,0.8,0.3,1.5,0.5,2.3
			c0.2,0.8,0.3,1.6,0.5,2.3c0.4,2.4,0.5,4.8,1,7.1c0.2,0.8,0.2,1.6,0.2,2.4C277,98.9,276.4,98.8,275.7,98.7z"/>
		<path class="st3" d="M306.1,69.4c-0.3-1.2-0.3-2.4-0.8-3.6c-0.3-0.7-0.4-1.5-0.6-2.3c-0.4-1.1-0.6-2.2-1.1-3.2
			c-0.3-0.7-0.5-1.4-0.9-2c-0.2-0.3-0.3-0.7-0.1-1c0.4-0.5,0.8-0.9,1.2-1.4c0.5-0.6,0.8-1.3,1.2-1.9c0.3-0.6,0.4-1.3,0.5-1.9
			c0.2-1.3,0.7-2.7,0.6-4c-0.1-0.8,0.1-1.4,0-2.2c-0.2-0.9,0-1.8-0.2-2.7c-0.2-0.8-0.2-1.7-0.7-2.4c-0.5-0.7-1.1-1.3-1.9-1.6
			c-1-0.4-1.8-1.2-2.8-1.5c-0.8-0.3-1.7-0.6-2.6-0.6c-1.2-0.1-2.3-0.1-3.5-0.1c-1.4,0.1-2.7-0.1-4,0.2c-1,0.1-2,0.1-2.9,0.2
			c-0.2,0.4-0.5,0.8-0.5,1.3c0.1,1.4,0,2.9,0,4.4c-0.3,2.5-0.2,4.9-0.1,7.3c-0.1,2.4,0,4.9,0.1,7.3c0,2,0.2,3.9,0,5.9
			c0,2,0.2,4.1,0.1,6.1c0,0.3,0,0.7,0.1,1.1c0.3,0.4,0.8,0.4,1.3,0.4c1.1,0,2.2,0,3.4,0.1c0.6,0,1.5,0,1.8-0.7
			c0.3-0.5,0.6-1.2,0.5-1.7c-0.2-1.2,0-2.4-0.1-3.6c-0.1-1.1-0.1-2.2-0.3-3.3c-0.1-0.5,0.1-1,0.4-1.4c0.6-0.2,1.3-0.7,2-0.6
			c0.2,0,0.5,0,0.7,0c0.6,0.7,0.7,1.4,0.9,2.3c0.6,1.6,1.1,3.3,1.7,5c0.4,1.3,0.2,2.9,1.1,3.9c1.2,0,2.3,0.3,3.5,0.1
			c0.8-0.1,1.9,0.2,2.4-0.5C306.5,70.3,306.2,69.9,306.1,69.4z M299.8,49.9c-0.2,1.1,0.1,2-0.6,3c-0.4,0.7-1,1-1.6,1.3
			c-1.3,0.6-2.7,0.7-4.2,1.1c-0.1-2.2-0.3-4.5-0.2-6.7c0-0.7-0.1-1.3-0.1-1.9c0.1-1.5,0.2-3.1,0-4.6c0.6-0.3,1.3-0.4,2-0.3
			c1.1,0.2,2.1,0,3.2,0.4c0.4,0.2,0.7,0.5,1.1,0.7c0.5,1,0.4,2.1,0.6,3.2C299.9,47.2,299.9,48.6,299.8,49.9z"/>
		<path class="st3" d="M306.6,105.9c0,1.1,0.1,2.3,0.1,3.4c-0.7,0.3-1.4,0.1-2.2,0.2c-1.7,0.3-3.2,0-4.9,0.1c-1.3,0-2.5,0.3-3.8,0.1
			c-1.4-0.1-2.7,0.2-4.1,0c-0.7-0.1-1.4-0.1-2.1,0c-0.3-2.4-0.3-5-0.2-7.4c0-0.6-0.1-1.2-0.1-1.7c0-0.7,0.2-1.3,0.1-1.9
			c-0.1-1.1-0.2-2.2,0-3.3c0.1-0.6,0-1.2,0-1.8c0-1.3,0.1-2.7,0.1-4c0.1-1.3,0.2-2.5,0.1-3.9c-0.2-1.3-0.1-2.6-0.1-3.8
			c0.1-0.9,0.1-1.8,0-2.8c-0.1-1.1,0-2.3,0.1-3.4c0.4-0.3,1-0.3,1.4-0.3c1.6,0,3.2-0.3,4.8,0.2c0.1,1.4,0.3,2.9,0.1,4.4
			c-0.1,0.8,0,1.5-0.1,2.3c-0.2,1.7-0.1,3.4,0,5.1c0,2.1,0,4.2,0,6.3c-0.1,2,0,4-0.1,5.9c-0.1,1.7-0.3,3.7,0.3,5.3
			c1.2,0.1,2.5-0.2,3.7-0.2c1.2-0.2,2.4,0.2,3.7,0.1c1-0.1,2,0,3.1,0.1C306.6,105.1,306.6,105.5,306.6,105.9z"/>
		<path class="st3" d="M328.7,57c-0.2-1.2,0-2.4-0.2-3.7c-0.2-1.8-0.1-3.5,0-5.2c-0.1-1.1,0.2-2.2,0.1-3.3c-0.1-1,0.1-1.9-0.3-2.9
			c-0.4-1.1-0.8-2.3-1.6-3.2c-0.8-0.7-2.1-1-3.1-1.4c-1.7-0.4-3.3-0.4-5-0.4c-1.2-0.1-2.4,0.1-3.5,0.5c-1.1,0.3-2.2,0.7-3.3,1.2
			c-1,0.5-1.9,1.3-2.1,2.5c-0.1,0.8-0.5,1.4-0.4,2.2c0,0.9,0,1.7,0.1,2.6c0.1,0.5-0.1,1-0.1,1.6c-0.1,1.7,0.1,3.2-0.1,4.9
			c0,1.3,0,2.7,0,4c0.1,1.3-0.1,2.6,0.1,3.8c0.1,0.8-0.1,1.5-0.1,2.3c0.1,1.2,0.3,2.3,0.3,3.5c0,0.4,0.3,0.7,0.4,1.1
			c0.5,1,0.8,2,1.6,2.7c0.7,0.7,1.8,0.9,2.8,1.1c2.8,0.4,5.4,1,8.2,0.8c1,0,2.1-0.8,2.9-1.4c0.6-0.6,1.5-1.1,1.8-1.9
			c0.9-1.7,1.2-3.5,1.5-5.4c0.1-1.3,0.1-2.5,0.1-3.8C328.7,58.4,328.8,57.7,328.7,57z M322.7,63.7c-0.1,1-0.4,1.9-0.6,2.8
			c-0.2,0.2-0.4,0.4-0.7,0.5c-0.9,0.1-1.9,0-2.8-0.2c-0.8-0.2-1.6-0.2-2.3-0.5c-0.3-0.1-0.4-0.3-0.5-0.6c-0.4-1-0.7-2.1-0.7-3.1
			c0-1.2-0.2-2.3-0.1-3.5c0.3-2.2,0.1-4.5,0.2-6.6c0.1-0.9,0.1-1.6,0-2.5c-0.1-1.1,0.4-2.1,0.2-3.1c0-0.5-0.1-0.9-0.2-1.4
			c-0.2-1.5,0.6-3,1.9-3.7c1.7-0.1,3.6-0.1,5.2,0.7c0.1,1,0.1,2,0.3,3.1c0.1,1.3,0,2.6,0.2,3.8c0.1,0.6-0.1,1.2-0.1,1.8
			c0.1,2.3-0.2,4.5,0.1,6.8c0.1,0.8,0,1.6-0.1,2.4C322.8,61.5,322.8,62.6,322.7,63.7z"/>
		<path class="st3" d="M351.6,57.7c0-1.1-0.1-2.1-0.1-3.1c-0.1-1.2-0.2-2.4-0.3-3.7c0-0.7,0.1-1.4,0.1-2.1c0.1-0.9,0-1.8,0.1-2.6
			c0.1-0.6-0.1-1.1-0.1-1.7c-0.1-0.8,0.1-1.6-0.2-2.4c-0.4-1.2-0.9-2.4-1.6-3.4c-1-0.7-2.1-1-3.3-1.4c-1.5-0.3-3-0.4-4.5-0.4
			c-2.3-0.1-4.7,0.5-6.8,1.5c-1.1,0.5-2.2,1.4-2.4,2.6c-0.1,0.6-0.4,1.2-0.4,1.8c0,1.3,0.1,2.6,0.1,3.8c-0.2,1.5,0,3-0.1,4.5
			c-0.2,1.6,0,3.1-0.1,4.7c0,1.5,0,2.9,0.1,4.4c0,1.1-0.1,2.1,0.1,3.2c0.1,1,0.2,2,0.3,2.9c0.5,1,0.9,2.1,1.6,3.1
			c1.1,1.3,3.2,1.5,4.7,1.8c2.2,0.4,4.3,0.7,6.5,0.5c1.2,0,2.2-0.8,3.1-1.5c0.6-0.5,1.3-1,1.7-1.7c0.7-1.3,1.1-2.7,1.3-4.1
			C351.7,62.2,351.5,59.9,351.6,57.7z M345.6,60.9c0.1,2,0.1,3.8-0.7,5.7c-0.1,0.2-0.4,0.4-0.6,0.4c-1,0.1-2,0-2.9-0.3
			c-0.8-0.2-1.7-0.2-2.5-0.5c-0.8-1.2-1-2.8-1-4.3c-0.1-1.2-0.2-2.5,0.1-3.7c0.1-1.8,0.1-3.6,0.1-5.4c0.1-1,0.1-2,0-3
			c-0.1-0.8,0.2-1.5,0.2-2.3c0-0.8-0.2-1.6-0.3-2.4c-0.1-1.3,0.8-2.8,2-3.4c1.7-0.1,3.6-0.1,5.2,0.7c0.5,4.4,0.4,8.9,0.3,13.3
			c0,1,0.1,2,0.1,3C345.7,59.5,345.5,60.1,345.6,60.9z"/>
		<path class="st3" d="M121.5,38.4c-0.8,0.2-1.7,0.1-2.5,0.1c-6.8,0-13.6,0-20.4,0c-0.5,0-1,0-1.4-0.3c-0.7-0.4-1.1-1.2-1.1-2
			c-0.1-1.1,0.9-2.2,2-2.3c1-0.2,2.2,0.2,2.9-0.6c0.6-0.6,0.6-1.3,0.7-2.1c0.1-0.6,0.6-1,1-1.4l0.1,0
			C109.6,31.1,116,34.1,121.5,38.4z"/>
		<path class="st3" d="M154.3,110c-0.9,0-1.7,0-2.6,0c0-24,0-48.1,0-72.1c0-0.5,0-0.9,0-1.4c0.9,0,1.7,0,2.6,0c0,0.5,0,1,0,1.4
			C154.3,61.9,154.3,85.9,154.3,110z"/>
		<path class="st3" d="M254,45.3c0-0.6,0.2-1.3,0-1.9c-0.4-0.8-1.5-1.1-2.3-1.4c-0.5-0.1-0.9-0.5-1.3-0.4c-0.7,0.1-1.6,0.1-2.2,0.6
			c-0.8,0.6-1.7,1.5-1.7,2.5c-0.1,2.4,0.1,4.9,0,7.3c0.1,0.8,0.4,1.6,0.4,2.4c0.1,2-0.5,3.9-0.4,5.9c-0.1,1.6,0.1,3.1,0.7,4.6
			c0.2,0.6,0.6,1.2,1.1,1.5c0.7,0.1,1.4,0.3,2.1,0.4c1.1,0,2.3-0.5,2.9-1.5c0.4-0.6,0.5-1.3,0.7-2.1c0.3-1.2,0-2.4,0.1-3.7
			c-0.2-0.1-0.5-0.4-0.8-0.4c-0.7,0-1.5,0.1-2.2,0c-0.3-0.1-0.8-0.4-0.9-0.7c0-1.2,0-2.5,0-3.7c-0.1-0.4,0.4-0.6,0.8-0.6
			c1.3-0.1,2.7-0.2,4-0.2c1.1,0,2.1,0.2,3.1,0.2c0.5,0,1,0,1.5,0.2c0,1.4,0.3,2.9,0.1,4.3c0,0.6,0,1.1,0,1.6c0.1,1-0.3,1.8-0.1,2.8
			c0.2,1.1,0,2.2-0.4,3.2c-0.3,0.6-0.7,1-1,1.6c-0.4,0.7-1,1.1-1.5,1.7c-0.4,0.5-0.8,1-1.4,1.3c-0.7,0.2-1.5,0.4-2.3,0.4
			c-0.7,0-1.4,0.1-2.1,0.1c-0.7,0-1.4,0.2-2.1,0.2c-0.9,0.1-1.8-0.3-2.8-0.4c-0.5,0-1-0.1-1.4-0.3c-0.5-0.2-1-0.4-1.4-0.9
			c-0.5-0.6-1-1.2-1.4-1.8c-0.4-0.6-0.8-1-1-1.6c-0.4-0.9-0.4-1.9-0.6-2.8c0-1.3,0-2.6,0-3.8c0-0.6-0.1-1.3,0.1-1.9
			c0.2-0.8-0.3-1.8-0.3-2.6c0-0.8,0.1-1.6,0-2.5c-0.2-1,0-2.1-0.1-3.1c-0.1-0.9,0-1.9,0.1-2.8c0.1-1.1,0.4-2.1,0.4-3.1
			c0-0.5,0-1,0.2-1.4c0.2-0.5,0.4-1,0.6-1.5c0.4-1,1.1-1.9,1.8-2.6c0.3-0.3,0.7-0.7,1.1-0.9c1.2-0.6,2.5-1,3.9-1
			c1.5-0.2,2.9,0.1,4.4,0.3c1,0.2,2,0.6,3,1c1.2,0.4,2.3,1.2,3.1,2.3c0.4,0.5,0.9,1,1.1,1.6c0,1.6,0.2,3.3,0.3,4.9
			c0.1,0.7,0.1,1.3-0.1,2c-0.4,0.1-0.8,0.3-1.3,0.3c-1.2,0-2.4-0.1-3.7-0.1c-0.3,0-0.6-0.1-0.9-0.2c-0.2-0.6-0.4-1.1-0.1-1.7
			C254.1,46.4,254,45.9,254,45.3z"/>
		<path class="st3" d="M306.1,69.4c-0.3-1.2-0.3-2.4-0.8-3.6c-0.3-0.7-0.4-1.5-0.6-2.3c-0.4-1.1-0.6-2.2-1.1-3.2
			c-0.3-0.7-0.5-1.4-0.9-2c-0.2-0.3-0.3-0.7-0.1-1c0.4-0.5,0.8-0.9,1.2-1.4c0.5-0.6,0.8-1.3,1.2-1.9c0.3-0.6,0.4-1.3,0.5-1.9
			c0.2-1.3,0.7-2.7,0.6-4c-0.1-0.8,0.1-1.4,0-2.2c-0.2-0.9,0-1.8-0.2-2.7c-0.2-0.8-0.2-1.7-0.7-2.4c-0.5-0.7-1.1-1.3-1.9-1.6
			c-1-0.4-1.8-1.2-2.8-1.5c-0.8-0.3-1.7-0.6-2.6-0.6c-1.2-0.1-2.3-0.1-3.5-0.1c-1.4,0.1-2.7-0.1-4,0.2c-1,0.1-2,0.1-2.9,0.2
			c-0.2,0.4-0.5,0.8-0.5,1.3c0.1,1.4,0,2.9,0,4.4c-0.3,2.5-0.2,4.9-0.1,7.3c-0.1,2.4,0,4.9,0.1,7.3c0,2,0.2,3.9,0,5.9
			c0,2,0.2,4.1,0.1,6.1c0,0.3,0,0.7,0.1,1.1c0.3,0.4,0.8,0.4,1.3,0.4c1.1,0,2.2,0,3.4,0.1c0.6,0,1.5,0,1.8-0.7
			c0.3-0.5,0.6-1.2,0.5-1.7c-0.2-1.2,0-2.4-0.1-3.6c-0.1-1.1-0.1-2.2-0.3-3.3c-0.1-0.5,0.1-1,0.4-1.4c0.6-0.2,1.3-0.7,2-0.6
			c0.2,0,0.5,0,0.7,0c0.6,0.7,0.7,1.4,0.9,2.3c0.6,1.6,1.1,3.3,1.7,5c0.4,1.3,0.2,2.9,1.1,3.9c1.2,0,2.3,0.3,3.5,0.1
			c0.8-0.1,1.9,0.2,2.4-0.5C306.5,70.3,306.2,69.9,306.1,69.4z M299.8,49.9c-0.2,1.1,0.1,2-0.6,3c-0.4,0.7-1,1-1.6,1.3
			c-1.3,0.6-2.7,0.7-4.2,1.1c-0.1-2.2-0.3-4.5-0.2-6.7c0-0.7-0.1-1.3-0.1-1.9c0.1-1.5,0.2-3.1,0-4.6c0.6-0.3,1.3-0.4,2-0.3
			c1.1,0.2,2.1,0,3.2,0.4c0.4,0.2,0.7,0.5,1.1,0.7c0.5,1,0.4,2.1,0.6,3.2C299.9,47.2,299.9,48.6,299.8,49.9z"/>
		<path class="st3" d="M189.1,71c-1.2,0.2-2.4,0.1-3.5,0.4c-1.1,0-2.6,0.1-3.4-0.7c-0.5-0.4-0.5-1-0.8-1.6c-0.5-1.2-1.1-2.3-2-3.3
			c-0.4-0.4-0.5-1-0.7-1.5c-0.3-0.5-0.6-0.8-0.8-1.4c-0.3-0.9-0.8-1.6-1.3-2.5c-0.3,0.1-0.5,0-0.7,0.3c-0.6,0.8-1.2,1.6-1.5,2.5
			c-0.1,0.8,0.1,1.5-0.1,2.3c-0.1,0.6-0.1,1.3,0,1.9c0.1,1.2,0.2,2.5-0.2,3.7c-0.9,0.2-1.7,0-2.7,0.1c-1.1,0.1-2.3,0.1-3.4-0.2
			c-0.1-0.4-0.2-0.7-0.4-1.1c0-0.5,0-1.1,0-1.6c0-0.5-0.2-1-0.1-1.6c0.2-1.8,0-3.6,0.2-5.4c0.2-1,0.1-2.1,0.2-3.1
			c0.2-1.3,0.1-2.7,0-4c0-2,0.1-4.1-0.1-6.1c-0.1-1,0-2.1,0-3.1c0-1,0.3-1.8,0-2.8c-0.1-1,0-2,0.1-3c0-0.7,0-1.4,0.2-2.1
			c0.8-0.1,1.7-0.1,2.5,0c1.2-0.1,2.4-0.1,3.6,0c0,1.5,0.1,3.1,0,4.6c0,0.9,0.1,1.8,0,2.8c0,0.3-0.1,0.6-0.1,0.9
			c0.3,1.2,0,2.4,0.1,3.7c0.1,1.7-0.1,3.4-0.1,5.1c0.1-0.3,0.3-0.7,0.4-1.1c0.4-0.7,1-1.2,1.3-1.9c0.5-1.4,1.5-2.5,2-3.9
			c0.7-1.3,1-2.8,1.8-4c0.3-0.6,0.4-1.2,0.8-1.8c0.8-1.2,1.1-3,2.2-3.9c0.2-0.2,0.4-0.4,0.6-0.4c1.6,0.2,3.2,0,4.8,0.1
			c0.5,1.3-0.1,2.4-0.7,3.5c-0.5,1.1-1.2,2.2-1.7,3.4c-0.8,1.9-1.8,3.7-2.9,5.5c-0.5,1.5-1.4,2.9-2.2,4.3c-0.4,0.6-0.3,1.6,0.1,2.2
			c0.6,1,1.1,2.1,1.7,3c0.4,0.7,0.7,1.5,1.2,2.2c0.7,1.1,1.1,2.2,2,3.2c0.7,0.8,1.1,1.8,1.6,2.8c0.3,0.6,0.8,1,1,1.6
			C188.5,69.6,189,70.3,189.1,71z"/>
		<path class="st3" d="M328.7,57c-0.2-1.2,0-2.4-0.2-3.7c-0.2-1.8-0.1-3.5,0-5.2c-0.1-1.1,0.2-2.2,0.1-3.3c-0.1-1,0.1-1.9-0.3-2.9
			c-0.4-1.1-0.8-2.3-1.6-3.2c-0.8-0.7-2.1-1-3.1-1.4c-1.7-0.4-3.3-0.4-5-0.4c-1.2-0.1-2.4,0.1-3.5,0.5c-1.1,0.3-2.2,0.7-3.3,1.2
			c-1,0.5-1.9,1.3-2.1,2.5c-0.1,0.8-0.5,1.4-0.4,2.2c0,0.9,0,1.7,0.1,2.6c0.1,0.5-0.1,1-0.1,1.6c-0.1,1.7,0.1,3.2-0.1,4.9
			c0,1.3,0,2.7,0,4c0.1,1.3-0.1,2.6,0.1,3.8c0.1,0.8-0.1,1.5-0.1,2.3c0.1,1.2,0.3,2.3,0.3,3.5c0,0.4,0.3,0.7,0.4,1.1
			c0.5,1,0.8,2,1.6,2.7c0.7,0.7,1.8,0.9,2.8,1.1c2.8,0.4,5.4,1,8.2,0.8c1,0,2.1-0.8,2.9-1.4c0.6-0.6,1.5-1.1,1.8-1.9
			c0.9-1.7,1.2-3.5,1.5-5.4c0.1-1.3,0.1-2.5,0.1-3.8C328.7,58.4,328.8,57.7,328.7,57z M322.7,63.7c-0.1,1-0.4,1.9-0.6,2.8
			c-0.2,0.2-0.4,0.4-0.7,0.5c-0.9,0.1-1.9,0-2.8-0.2c-0.8-0.2-1.6-0.2-2.3-0.5c-0.3-0.1-0.4-0.3-0.5-0.6c-0.4-1-0.7-2.1-0.7-3.1
			c0-1.2-0.2-2.3-0.1-3.5c0.3-2.2,0.1-4.5,0.2-6.6c0.1-0.9,0.1-1.6,0-2.5c-0.1-1.1,0.4-2.1,0.2-3.1c0-0.5-0.1-0.9-0.2-1.4
			c-0.2-1.5,0.6-3,1.9-3.7c1.7-0.1,3.6-0.1,5.2,0.7c0.1,1,0.1,2,0.3,3.1c0.1,1.3,0,2.6,0.2,3.8c0.1,0.6-0.1,1.2-0.1,1.8
			c0.1,2.3-0.2,4.5,0.1,6.8c0.1,0.8,0,1.6-0.1,2.4C322.8,61.5,322.8,62.6,322.7,63.7z"/>
		<path class="st3" d="M351.6,57.7c0-1.1-0.1-2.1-0.1-3.1c-0.1-1.2-0.2-2.4-0.3-3.7c0-0.7,0.1-1.4,0.1-2.1c0.1-0.9,0-1.8,0.1-2.6
			c0.1-0.6-0.1-1.1-0.1-1.7c-0.1-0.8,0.1-1.6-0.2-2.4c-0.4-1.2-0.9-2.4-1.6-3.4c-1-0.7-2.1-1-3.3-1.4c-1.5-0.3-3-0.4-4.5-0.4
			c-2.3-0.1-4.7,0.5-6.8,1.5c-1.1,0.5-2.2,1.4-2.4,2.6c-0.1,0.6-0.4,1.2-0.4,1.8c0,1.3,0.1,2.6,0.1,3.8c-0.2,1.5,0,3-0.1,4.5
			c-0.2,1.6,0,3.1-0.1,4.7c0,1.5,0,2.9,0.1,4.4c0,1.1-0.1,2.1,0.1,3.2c0.1,1,0.2,2,0.3,2.9c0.5,1,0.9,2.1,1.6,3.1
			c1.1,1.3,3.2,1.5,4.7,1.8c2.2,0.4,4.3,0.7,6.5,0.5c1.2,0,2.2-0.8,3.1-1.5c0.6-0.5,1.3-1,1.7-1.7c0.7-1.3,1.1-2.7,1.3-4.1
			C351.7,62.2,351.5,59.9,351.6,57.7z M345.6,60.9c0.1,2,0.1,3.8-0.7,5.7c-0.1,0.2-0.4,0.4-0.6,0.4c-1,0.1-2,0-2.9-0.3
			c-0.8-0.2-1.7-0.2-2.5-0.5c-0.8-1.2-1-2.8-1-4.3c-0.1-1.2-0.2-2.5,0.1-3.7c0.1-1.8,0.1-3.6,0.1-5.4c0.1-1,0.1-2,0-3
			c-0.1-0.8,0.2-1.5,0.2-2.3c0-0.8-0.2-1.6-0.3-2.4c-0.1-1.3,0.8-2.8,2-3.4c1.7-0.1,3.6-0.1,5.2,0.7c0.5,4.4,0.4,8.9,0.3,13.3
			c0,1,0.1,2,0.1,3C345.7,59.5,345.5,60.1,345.6,60.9z"/>
		<path class="st3" d="M236.2,48.5c-0.1,0.9,0,1.9,0,2.8c0,0.7-0.2,1.3-0.1,1.9c0.2,1.5,0.1,3,0,4.5c0.2,2.2-0.1,4.3,0.1,6.5
			c0.1,1.9,0,3.7,0,5.6c0,0.6-0.3,1.1-0.9,1.2c-1,0.2-2.1,0.2-3.1,0.2c-0.9,0.1-1.8,0-2.7-0.1c-0.2-0.8-0.3-1.8-0.7-2.5
			c-0.8-1.4-1.2-3.1-1.5-4.6c-0.7-1.9-1.5-3.7-1.9-5.6c-0.4-1-0.8-1.9-1-3c-0.1-0.7-0.7-1.2-0.8-1.8c-0.2-0.8-0.3-1.5-0.6-2.3
			c-0.3-1-0.8-1.8-0.9-2.8c-0.1-0.7-0.3-1.2-0.5-1.9c-0.1,1.1,0,2.2-0.1,3.4c-0.2,1.3,0,2.6-0.1,4c0,0.8-0.2,1.6-0.1,2.4
			c0,1.4,0,2.8,0.1,4.2c0.3,1.5,0.4,3,0.6,4.5c0.1,1.2,0,2.3-0.1,3.5c-0.1,0.7,0,1.5-0.3,2.2c-0.3,0.5-0.8,0.5-1.3,0.5
			c-0.8,0-1.5,0.2-2.3,0.1c-0.5-0.1-1.1-0.2-1.6-0.3c-0.7-1-0.5-2-0.5-3.2c0.1-0.8,0-1.6,0-2.4c0-0.6,0.1-1.1,0.1-1.7
			c0-0.9-0.2-1.7-0.2-2.6c0.1-1.6,0-3.1,0.1-4.7c0-0.7-0.2-1.4-0.1-2.1c0.1-0.8,0.1-1.6,0.2-2.4c0.2-1.9,0.1-3.7,0.1-5.6
			c0.1-1.8-0.2-3.5-0.2-5.2c-0.1-1,0.3-1.9,0.4-3c0.1-0.1,0.2-0.3,0.2-0.4c1-0.3,2.1-0.3,3.1-0.3c1-0.1,2,0.2,3,0.2
			c0.6,0,1.1,0.1,1.6,0.3c0.7,1.3,0.8,2.6,1.3,3.9c0.4,0.9,0.6,1.9,0.9,2.9c0.1,0.8,0.2,1.5,0.5,2.2c0.3,0.9,0.4,1.8,0.8,2.5
			c0.3,0.4,0.5,0.8,0.6,1.3c0.4,1.4,0.8,2.7,1.3,4.1c0.5,1.2,0.4,2.6,1,3.7c0.2-1.4,0-2.8,0.1-4.3c-0.1-1.7,0.1-3.4,0-5.1
			c0-2.8-0.2-5.7,0.2-8.6c0.1-1.1-0.1-2.1,0.4-3.2c1-0.3,2-0.1,3-0.2c0.8-0.1,1.4,0.2,2.1,0.4c0.4,2.3,0,4.8-0.1,7.2
			C236.1,45.9,236.3,47.2,236.2,48.5z"/>
		<path class="st3" d="M213.2,70.1c0-1.1-0.4-2-0.5-3c-0.2-1.5-0.7-3-0.9-4.5c-0.1-1-0.6-2-0.8-3c-0.2-1-0.4-2-0.7-3.1
			c-0.3-0.9-0.3-1.9-0.6-2.9c-0.3-1-0.4-2.2-0.7-3.2c-0.2-0.7-0.4-1.4-0.5-2.1c-0.2-1.1-0.5-2.2-0.7-3.3c-0.1-0.9-0.5-1.7-0.7-2.6
			c-0.2-0.8-0.1-1.5-0.3-2.3c-0.2-0.7-0.4-1.6-0.8-2.3c-0.3-0.4-0.8-0.4-1.2-0.4c-0.8,0-1.5-0.3-2.3-0.3c-1.2,0-2.5,0-3.7,0.1
			c-0.3,0.1-0.7,0.1-0.9,0.3c-0.6,0.8-1,1.6-1.3,2.6c-0.2,0.6-0.4,1.2-0.5,1.8c0,1.2-0.3,2.3-0.3,3.5c-0.2,1.4-0.7,2.9-0.8,4.4
			c-0.1,0.8-0.3,1.6-0.5,2.3c-0.4,1.9-0.5,4-1.3,5.7c-0.4,1.3-0.1,2.7-0.8,3.9c-0.4,0.7-0.3,1.5-0.6,2.2c-0.3,1-0.8,1.9-0.9,2.9
			c-0.2,1.5-0.6,2.9-0.5,4.4c1.2,0.1,2.4,0.3,3.6,0.2c0.8-0.1,1.6-0.1,2.3-0.5c0.2-1.4,0.5-2.8,0.6-4.3c0.2-0.6,0.1-1.4,0.9-1.4
			c1.9-0.1,3.7-0.1,5.6,0c0.5,0,1.1-0.1,1.6,0c0.8,0.9,0.5,2.7,0.9,3.9c0.2,0.7,0.3,1.3,0.4,2c1,0.4,2.2,0.2,3.2,0.2
			c1.1-0.1,2.1,0.1,3.2,0C213.3,71.1,213.2,70.5,213.2,70.1z M198.9,60.1c-0.2,0-0.3-0.1-0.4-0.3c0.2-0.7,0.5-1.2,0.5-1.9
			c0-0.6,0.1-1.3,0.1-1.9c0.1-0.8,0.3-1.5,0.4-2.3c0.1-1.2,0.3-2.4,0.5-3.7c0.1-0.8,0.5-1.5,0.6-2.3c0.1-1.1,0.6-2.2,0.8-3.3
			c0.1-0.2,0.1-0.7,0.4-0.7c0.3,0.8,0.3,1.6,0.4,2.4c0.1,1,0.5,1.9,0.6,2.9c0.1,0.7,0.3,1.4,0.5,2.1c0.3,2.2,0.5,4.4,0.9,6.5
			c0.2,0.9,0.3,1.9,0.3,2.8C202.7,60.6,200.7,60.1,198.9,60.1z"/>
		<path class="st3" d="M283.3,67.3c-0.3-1.7-0.8-3.3-0.9-5c-0.1-0.5-0.2-0.9-0.4-1.3c-0.5-1.3-0.5-2.8-0.9-4.1
			c-0.4-1.1-0.4-2.3-0.8-3.5c-0.3-1-0.3-2.1-0.7-3.1c-0.5-1.5-0.6-3.1-1-4.6c-0.1-1.1-0.5-2.1-0.8-3.1c-0.2-0.8-0.1-1.6-0.4-2.4
			c-0.2-0.8-0.4-1.8-0.9-2.4c-0.4-0.5-1.4-0.3-2-0.5c-1.1-0.3-2.2-0.1-3.3-0.1c-0.8,0-1.6,0.1-2.4,0.2c-0.4,0.1-0.6,0.5-0.8,0.8
			c-0.6,1-0.9,2.1-1.3,3.2c-0.1,0.9-0.2,1.8-0.3,2.7c-0.1,0.7,0,1.3-0.2,1.9c-0.2,0.9-0.4,1.8-0.6,2.7c-0.2,0.9-0.2,1.7-0.4,2.6
			c-0.6,2.1-0.6,4.6-1.5,6.6c-0.4,1.1-0.2,2.2-0.6,3.3c-0.2,0.6-0.5,1-0.6,1.6c-0.1,1.2-0.8,2.4-1.1,3.5c-0.2,1.4-0.5,2.8-0.7,4.2
			c0,0.3,0,0.6,0.1,1c1.9,0.2,3.6,0.4,5.5-0.1c0.2-0.1,0.5-0.2,0.5-0.5c0.2-1.3,0.4-2.7,0.6-4c0.1-0.4,0.1-0.9,0.4-1.2
			c0.4-0.3,1-0.2,1.4-0.2c2.1-0.1,4.2,0,6.3,0c0.2,0.5,0.4,1.1,0.5,1.7c0,0.6,0,1.1,0.1,1.7c0.1,0.6,0.4,1.2,0.4,1.8
			c0,0.3,0.2,0.6,0.3,0.9c2.1,0.2,4.1-0.1,6.1,0.1c0.1-0.1,0.2-0.3,0.4-0.4C283.9,69.8,283.6,68.6,283.3,67.3z M269.1,60
			c0.1-0.6,0.3-1.2,0.5-1.8c0.1-0.8,0-1.6,0.2-2.4c0.1-0.8,0.3-1.5,0.4-2.3c0.1-0.9,0.2-1.9,0.4-2.8c0.1-1.1,0.6-2.2,0.7-3.3
			c0.2-1.2,0.6-2.3,0.9-3.5c0.1-0.1,0.2-0.1,0.3-0.1c0.3,1.2,0.3,2.5,0.6,3.7c0.3,1.2,0.5,2.5,0.9,3.8c0.1,1.4,0.3,2.8,0.5,4.3
			c0.2,1.7,0.7,3.3,0.7,5C273.1,60.6,271.2,60.1,269.1,60z"/>
		<path class="st3" d="M318.1,38.2c0,0.1-0.1,0.3-0.1,0.4c-0.2,0-0.3,0-0.5,0c0-0.1,0-0.2,0-0.3C317.7,38.3,317.9,38.2,318.1,38.2z"
			/>
		<path class="st3" d="M340.9,38.2c0,0.1-0.1,0.2-0.1,0.4c-0.2,0-0.3,0-0.5,0c0-0.1,0.1-0.2,0.1-0.3
			C340.6,38.3,340.7,38.2,340.9,38.2z"/>
		<path class="st3" d="M172.1,38.6c0,0.3,0,0.5,0,0.8c-0.2-0.1-0.4-0.2-0.6-0.2C171.7,38.9,171.9,38.7,172.1,38.6z"/>
		<path class="st3" d="M185,38.6c-0.1,0.2-0.3,0.3-0.4,0.5c-0.3,0.1-0.6,0.1-0.9,0.2c0-0.2,0-0.4,0-0.6
			C184.1,38.7,184.5,38.6,185,38.6z"/>
		<path class="st3" d="M186.4,38.7c0.1,0.1,0.2,0.2,0.3,0.3c-0.4,0.1-0.7,0.2-1.1,0.3c0-0.1,0-0.3,0-0.4
			C185.8,38.8,186.1,38.8,186.4,38.7z"/>
		<path class="st3" d="M245.9,38.8c0.1,0.1,0.1,0.2,0.2,0.2c-0.1,0.2-0.2,0.3-0.2,0.5c-0.2-0.2-0.4-0.4-0.5-0.6
			C245.5,38.8,245.7,38.8,245.9,38.8z"/>
		<path class="st3" d="M66.8,39.9c-0.7,3.2-0.8,6.6-0.7,9.9c-3,0-6,0-9,0c2.6-4.2,6-8,9.8-11.1C66.9,39.1,66.9,39.5,66.8,39.9z"/>
		<path class="st3" d="M315.2,38.9c0,0.2,0,0.3,0,0.5c-0.1,0-0.2-0.1-0.4-0.1C314.7,39,315,39.1,315.2,38.9z"/>
		<path class="st3" d="M338,39c0,0.1,0,0.2,0,0.4c-0.1,0-0.2,0-0.3,0c-0.1-0.1-0.1-0.1-0.2-0.2C337.7,39.1,337.9,39,338,39z"/>
		<path class="st3" d="M289.4,39.1c0,0.2,0,0.3,0,0.5c-0.2,0-0.4-0.1-0.6-0.1l-0.1-0.2C288.9,39.2,289.1,39.1,289.4,39.1z"/>
		<path class="st3" d="M202.9,39.3c0,0.2,0.1,0.3,0.1,0.5c-0.1,0-0.3,0-0.4,0C202.7,39.6,202.6,39.2,202.9,39.3z"/>
		<path class="st3" d="M273.4,39.2c0,0.2,0.1,0.4,0.1,0.7c-0.1,0-0.3,0-0.4,0C273.2,39.6,273.3,39.4,273.4,39.2z"/>
		<path class="st3" d="M184.9,39.5c0.3,0.1,0.5,0.3,0.8,0.5c-0.1,0.2-0.1,0.3-0.2,0.5c-0.3-0.1-0.5-0.1-0.8-0.2
			c-0.2,0-0.4,0-0.6,0.1C184.3,40,184.6,39.7,184.9,39.5z"/>
		<path class="st3" d="M298.1,39.5c0.2,0,0.4,0,0.6,0c0,0.2,0,0.4,0,0.6c-0.1,0-0.3,0-0.4,0C298.2,40,298.1,39.8,298.1,39.5z"/>
		<path class="st3" d="M255.5,39.6c0.2,0,0.3,0.1,0.5,0.1c0.1,0.1,0.2,0.1,0.2,0.2c-0.1,0.2-0.2,0.3-0.2,0.5c-0.1,0-0.3-0.1-0.4-0.2
			C255.5,40,255.5,39.8,255.5,39.6z"/>
		<path class="st3" d="M299.2,39.7c0.2,0,0.4,0,0.5,0c0.1,0.1,0.3,0.3,0.4,0.4c-0.1,0.1-0.2,0.3-0.4,0.4
			C299.5,40.2,299.3,40,299.2,39.7z"/>
		<path class="st3" d="M183.2,40l0.1-0.1c0,0.3,0,0.6,0,0.9c-0.1-0.2-0.2-0.3-0.3-0.5C183,40.2,183.1,40.1,183.2,40z"/>
		<path class="st3" d="M244.6,40.1c0.1,0.1,0.2,0.2,0.2,0.3c-0.1,0.2-0.1,0.3-0.2,0.5c-0.1,0-0.3,0-0.4,0
			C244.4,40.6,244.5,40.3,244.6,40.1z"/>
		<path class="st3" d="M312.7,40.2c0.1,0,0.3,0,0.4,0.1c0,0.1,0,0.2,0,0.3c-0.3,0.1-0.6,0.2-0.9,0.3
			C312.4,40.7,312.5,40.4,312.7,40.2z"/>
		<path class="st3" d="M335.5,40.2c0.2,0,0.3,0.1,0.5,0.1c0,0.1,0,0.2,0,0.3c-0.3,0.1-0.6,0.2-0.9,0.3
			C335.2,40.6,335.4,40.4,335.5,40.2z"/>
		<path class="st3" d="M203.8,40.2c0.1,0.3,0.2,0.6,0.3,0.8c-0.2-0.1-0.4-0.1-0.7-0.2C203.6,40.6,203.7,40.4,203.8,40.2z"/>
		<path class="st3" d="M274.4,40.3c0.2,0.2,0.3,0.3,0.4,0.5c-0.1,0.1-0.2,0.2-0.3,0.2c-0.2-0.1-0.3-0.2-0.5-0.2
			C274.1,40.6,274.2,40.5,274.4,40.3z"/>
		<path class="st3" d="M301.4,40.1c0.7,0.1,0.7,0.8,0.8,1.3c-0.2,0-0.4,0-0.6,0C301.6,40.9,301.5,40.5,301.4,40.1z"/>
		<path class="st3" d="M204.8,40.6c0.3,0.1,0.5,0.1,0.8,0.2c-0.3,0.1-0.6,0.1-0.9,0.1C204.7,40.8,204.7,40.7,204.8,40.6z"/>
		<path class="st3" d="M275.2,40.6c0.4,0,0.6,0,0.8,0.3c-0.2,0-0.4,0.1-0.6,0.1C275.4,40.8,275.3,40.7,275.2,40.6z"/>
		<path class="st3" d="M171.6,40.7c0.1-0.1,0.2-0.1,0.4,0c0.1,0.1,0.1,0.3-0.1,0.4C171.6,41,171.5,40.9,171.6,40.7z"/>
		<path class="st3" d="M218.6,40.7L218.6,40.7l0.2,0.2c0.1,0.1,0.3,0.3,0.5,0.4c-0.1,0.2-0.3,0.3-0.4,0.5L219,42l-0.4,0.2l-0.1,0.1
			c-0.2-0.1-0.3-0.2-0.5-0.3C218.1,41.4,218.3,41.1,218.6,40.7z"/>
		<path class="st3" d="M183.9,40.9c0.2,0.1,0.4,0.1,0.7,0.2c-0.1,0.2-0.2,0.3-0.3,0.5c-0.5-0.2-1-0.3-1.5-0.5
			C183.2,41.1,183.5,41,183.9,40.9z"/>
		<path class="st3" d="M96.6,49.1c-0.3,0.4-0.8,0.8-1.3,0.9c-0.9,0.1-2.1-0.1-3,0.2c-0.8,0.2-1.3,1-1.2,1.8c0,1.4-1.1,2.6-2.5,2.6
			c-3.1,0-6.2,0-9.2,0c-0.7,0-1.4-0.1-2.1,0.1c-0.5,0.1-1,0.5-1.1,1c-0.2,0.9-0.1,1.7-0.7,2.5c-0.5,0.8-1.6,0.9-2.5,0.9
			c-1.8,0-3.7,0-5.6,0c-0.3,0.1-0.6,0.1-0.8,0.4c-0.4,0.5,0,1.1,0,1.6c0.1,1.3-1.1,2.4-2.4,2.4c-2.7,0-5.5,0-8.2,0
			c-1.2,0.1-2.5-1.1-2.3-2.4c0-0.5,0.3-1.2,0-1.6c-0.2-0.3-0.6-0.4-0.9-0.5c1.1-3.2,2.5-6.3,4.3-9.1c3,0,6,0,9,0c1.1,0,2.2,0,3.3,0
			c1,0,1.8-1,1.8-2c0-0.9-0.6-2-1.6-2.1c-0.8-0.2-1.6-0.1-2.1-0.8c-0.8-0.9-0.8-2.1-0.1-3c0.5-0.7,1.3-0.9,2.2-0.9c3,0,5.9,0,8.9,0
			c0.8,0,1.6,0,2.3,0.2c0.6,0.3,1.2,0.9,1.2,1.5c0.1,0.7,0,1.3,0.5,2c0.4,0.6,1.1,0.8,1.8,0.8c3.4,0,6.9,0,10.3,0
			c1-0.1,2,0.7,2.3,1.6C97,47.6,97,48.5,96.6,49.1z"/>
		<path class="st3" d="M137.2,49.1c-1-0.5-2.1-1-3-1.5c-0.9-0.5-1.4-1.4-2.3-1.9c-0.6-0.3-1.3-0.6-1.9-0.6c-0.5,0-1.1,0-1.6-0.1
			c-0.5-0.5-0.8-1.2-1.2-1.8c-0.5-0.8-1.5-1.2-2.2-1.8c-1,0-1.9-0.4-2.9-0.4c-0.2,1.3,0.3,2.7,1,3.9c0.4,0.7,1,1.1,1.5,1.6
			c0.5,0.5,0.5,1.3,0.4,2c-0.1,0.6-0.5,1-1,1.4c-3.4,2.9-7.5,5-11.9,6c-0.7,0.1-1.4,0.3-2.1,0.4c-1.2,0.2-2.4,0.1-3.7,0.2
			c-2.5,0.1-5.1,0.5-7.4,1.5c-1.8,0.7-3.4,1.7-4.9,2.9c-1.4,1.2-2.7,2.5-3.8,4c-2.3,3.3-3.7,7.3-3.6,11.3c0,1.9,0,3.7,0,5.6
			c0,1.4-0.1,2.7-0.5,4c-0.1,0.2-0.1,0.3-0.2,0.5c-0.1,0.2-0.1,0.3-0.2,0.5c-0.1,0.2-0.1,0.3-0.2,0.5c-0.1,0.2-0.2,0.5-0.3,0.7
			c-0.1,0.2-0.2,0.4-0.4,0.7c-0.2,0.3-0.4,0.6-0.6,0.9c-0.2,0.3-0.4,0.5-0.6,0.8c-0.1,0.1-0.2,0.3-0.3,0.4c-0.1,0.1-0.2,0.2-0.4,0.4
			c-0.2,0.2-0.5,0.5-0.8,0.7c-0.3,0.2-0.5,0.4-0.8,0.6c-2,1.4-4.5,2.1-7,2c-1.1,0-2.3,0-3.4,0c-0.5,0-1,0.1-1.5,0.1
			c-2.3,0-4.6,0-7,0c-1,0-1.9,0.2-2.8,0.4c-1.1,0.2-2.1,0.7-3.1,0.9c0.5,0.9,1,1.6,1.6,2.4c3.2,4.5,7.2,8.4,11.8,11.5
			c4.5,3,9.5,5.1,14.7,6.3c1.7,0.4,3.5,0.7,5.2,0.9c2.4,0.2,4.7,0.3,7.1,0.1c8.7-0.4,17.1-3.6,24-8.8c3.8-2.9,7.2-6.4,9.9-10.4
			c-2.1-0.1-4.2,0-6.2-0.1c-0.2-0.7-0.3-1.4-0.8-2c-0.6-0.7-1.4-1.1-2.4-1.1c-3.4,0-6.9,0-10.3,0c-0.4,0-1.1,0-1.2-0.6
			c0-0.7,0.3-1.5,0.4-2.2c0.5-2.2,0.8-4.4,1.2-6.6c0.3-3,0.4-6,0.1-9c4.5-1.5,8.7-3.4,12.2-6.7c0.6,0.8,1.1,1.6,1.6,2.3
			c0.1,0.2,0.3,0.4,0.4,0.7c-0.2,0.6-0.5,1-0.5,1.6c0,0.6,0.3,1.1,0.7,1.6c0.9-0.9,1.7-1.7,2-2.9c0.3-1.4-0.4-2.5-0.9-3.7
			c-0.3-0.8-0.7-1.5-0.9-2.3c0.2-0.5,0.5-0.9,0.8-1.3c1.7-2.7,2.5-5.9,2.5-9c0-0.9-0.1-1.8,0.1-2.7c0.2-0.7,0.7-1.2,1.4-1.5
			c0.8-0.3,2.1-0.2,2.5,0.7l-0.1-0.4c0.9,0.2,1.6,0.6,2.5,0.7c1,0.1,2-0.6,2.3-1.6C138.6,50.7,138.1,49.5,137.2,49.1z M104.5,97.6
			c-2.7,0-5.4,0-8.1,0c-5.7,0-11.4,0-17.1,0c1-0.2,1.9-0.3,2.9-0.6c3.8-1.2,6.9-4,8.4-7.7c0.8-2,1.6-3.9,2.3-5.9
			c0.2-0.5,0.4-0.9,0.9-1.1c1.2-0.3,2.7,0.2,3.9-0.3c1.3-0.5,1.4-2.1,2.2-3.1c0.4-0.5,1.4-0.5,2-0.6c0.7,0.7,1.4,1.4,1.9,2.3
			c2.4,3.3,3.2,7.2,3,11.2c0,1.3-0.1,2.6,0.1,3.9c0.2,0.8,0.8,1.3,1.3,1.8C107,97.7,105.8,97.6,104.5,97.6z"/>
		<path class="st3" d="M218.8,40.9c0.2,0.2,0.5,0.3,0.8,0.5c-0.3,0.5-0.5,0.7-1,0.9L219,42l-0.1-0.2c0.1-0.2,0.3-0.3,0.4-0.5
			C219.1,41.2,219,41,218.8,40.9z"/>
		<path class="st3" d="M300.3,41c0.3-0.2,0.5,0.3,0.1,0.3C300.2,41.3,300.2,41.2,300.3,41z"/>
		<path class="st3" d="M197.8,41.2c0.2,0.2,0.5,0.4,0.7,0.7c-0.1,0.1-0.2,0.2-0.2,0.2c-0.2-0.1-0.4,0-0.6-0.2
			C197.7,41.7,197.7,41.4,197.8,41.2z"/>
		<path class="st3" d="M234,41.2c0,0.3,0,0.5,0,0.8c-0.3-0.2-0.5-0.4-0.7-0.5C233.5,41.3,233.8,41.2,234,41.2z"/>
		<path class="st3" d="M268.5,41.2c0.2,0.3,0.4,0.5,0.5,0.9c-0.3,0-0.5,0-0.8,0c0-0.2,0-0.4,0.1-0.6
			C268.4,41.3,268.5,41.2,268.5,41.2z"/>
		<path class="st3" d="M312.8,41.2c0.4,0.1,0.4,0.4,0.6,0.7c-0.2,0-0.3-0.1-0.5-0.1C312.7,41.6,312.8,41.5,312.8,41.2z"/>
		<path class="st3" d="M335.5,41.4c0.2,0,0.3-0.1,0.5-0.1c0.1,0.2,0.2,0.4,0.2,0.6c-0.2,0-0.3,0-0.5-0.1
			C335.6,41.7,335.5,41.6,335.5,41.4z"/>
		<path class="st3" d="M183.2,41.7c0.1,0.2,0.1,0.4,0.2,0.5c0.3,0,0.5-0.3,0.8-0.4c-0.2,0.2-0.3,0.4-0.5,0.5c-0.4,0.1-0.8,0-1.2,0
			c0.1-0.2,0.2-0.4,0.4-0.6C183,41.8,183.1,41.8,183.2,41.7z"/>
		<path class="st3" d="M204,41.8c0.2,0.1,0.5,0.1,0.7,0.2c-0.4,0.1-0.5,0-0.7,0.5c-0.2,0-0.4-0.1-0.5-0.1
			C203.6,42.2,203.8,42,204,41.8z"/>
		<path class="st3" d="M274.6,41.7c0.2,0.1,0.4,0.2,0.6,0.3l-0.5,0l0,0.4c-0.2,0-0.4,0-0.6-0.1C274.3,42.2,274.4,41.9,274.6,41.7z"
			/>
		<path class="st3" d="M289.6,41.7c0,0.2,0,0.3,0,0.4c-0.1,0-0.3,0.1-0.4,0c0-0.2,0-0.3,0.1-0.4C289.3,41.7,289.4,41.6,289.6,41.7z"
			/>
		<path class="st3" d="M205.4,42.1c0.1,0.2,0.3,0.3,0.4,0.5c-0.1,0.3-0.3,0.7-0.3,1c-0.2,0.1-0.3,0.2-0.5,0.3
			c0.6,0.3,0.4,0.7,0.4,1.3c0.2,0.3,0.3,0.6,0.4,1c-0.2,0-0.4-0.1-0.6-0.2c-0.2-0.2-0.3-0.5-0.5-0.7c0.1-0.3,0.1-0.6,0.2-0.8
			c-0.1-0.2-0.3-0.3-0.4-0.5c-0.3,0.3-0.5,0.4-0.9,0.5c0-0.3-0.1-0.5-0.1-0.8c0.5-0.1,1-0.1,1.5,0c0.4-0.2-0.1-0.5-0.2-0.6
			C205,42.7,205.2,42.4,205.4,42.1z"/>
		<path class="st3" d="M276.1,42c0.2,0.2,0.3,0.4,0.5,0.7c-0.1,0.1-0.2,0.2-0.3,0.4c0,0.2-0.1,0.5-0.1,0.7c-0.3-0.2-0.5-0.4-0.7-0.7
			C275.6,42.7,275.8,42.4,276.1,42z"/>
		<path class="st3" d="M301.8,42c-0.2,0.3-0.4,0.6-0.7,0.8c0-0.1,0-0.3,0-0.4C301.3,42.3,301.6,42.2,301.8,42z"/>
		<path class="st3" d="M312.3,42c0.1,0.2,0.2,0.3,0.3,0.5c-0.3,0.2-0.5,0.4-0.8,0.7c-0.1-0.1-0.2-0.2-0.3-0.3
			C311.8,42.6,312,42.3,312.3,42z"/>
		<path class="st3" d="M335.2,42c0.1,0.1,0.1,0.3,0.2,0.4c-0.3,0.2-0.5,0.5-0.8,0.7c-0.1-0.1-0.2-0.2-0.3-0.3
			C334.6,42.6,334.9,42.3,335.2,42z"/>
		<path class="st3" d="M219.5,42.3L219.5,42.3c0.3,0.2,0.5,0.4,0.8,0.6c-0.2,0.2-0.4,0.4-0.5,0.7c-0.2,0-0.5,0-0.7,0
			c0-0.1-0.1-0.2-0.1-0.3c0.2-0.2,0.3-0.3,0.4-0.5C219.4,42.6,219.5,42.4,219.5,42.3z"/>
		<path class="st3" d="M233.3,42.3c0.1,0,0.3,0,0.4,0c0.1,0.1,0.2,0.2,0.2,0.4C233.7,42.6,233.6,42.5,233.3,42.3L233.3,42.3z"/>
		<path class="st3" d="M325.7,42.8c0,0.1,0,0.3,0,0.4c-0.1,0.1-0.3,0.1-0.4,0c0-0.2,0-0.3,0-0.4C325.5,42.8,325.6,42.7,325.7,42.8z"
			/>
		<path class="st3" d="M348.6,42.8c0,0.1,0,0.3,0,0.4c-0.1,0-0.3,0.1-0.5,0c-0.1-0.1-0.1-0.3,0.1-0.4
			C348.3,42.8,348.4,42.7,348.6,42.8z"/>
		<path class="st3" d="M198.5,42.9c-0.2,0.4-0.3,0.6-0.8,0.6c0-0.1,0.1-0.2,0.1-0.4C198.1,43.1,198.3,43,198.5,42.9z"/>
		<path class="st3" d="M269,43c-0.1,0.2-0.2,0.3-0.3,0.5c-0.1,0-0.2,0-0.4,0c0-0.1,0-0.2,0-0.4C268.6,43.1,268.8,43,269,43z"/>
		<path class="st3" d="M233.3,43.1c0.1,0.1,0.3,0.2,0.4,0.3c-0.2,0-0.3,0-0.5,0.1C233.2,43.4,233.2,43.3,233.3,43.1z"/>
		<path class="st3" d="M218.1,43.2c0.2,0.4,0.3,0.8,0.4,1.2c-0.3-0.1-0.6-0.1-0.9-0.2c-0.1-0.1-0.1-0.2-0.2-0.3
			C217.7,43.7,217.9,43.4,218.1,43.2z"/>
		<path class="st3" d="M335.3,43.3c-0.4,0.3-0.3,0.9-1,0.6c0,0.4,0,0.8-0.1,1.1c-0.1-0.1-0.2-0.2-0.4-0.2c0-0.3,0-0.6,0-0.9
			c0.4,0,0.5,0,0.7-0.5C334.8,43.5,335.1,43.4,335.3,43.3z"/>
		<path class="st3" d="M312.5,43.3c-0.2,0.2-0.4,0.5-0.5,0.8c-0.2,0-0.5-0.1-0.7-0.1c0.3,0.6,0.3,0.6,0.1,1.2
			c-0.1-0.1-0.2-0.2-0.3-0.2c0-0.3,0-0.5,0-0.8c0.2-0.1,0.4-0.2,0.6-0.3C311.8,43.4,312.1,43.4,312.5,43.3z"/>
		<path class="st3" d="M182.5,43.6c0.2-0.2,0.5,0.2,0.2,0.3C182.5,43.8,182.5,43.7,182.5,43.6z"/>
		<path class="st3" d="M275.5,43.7c0.2,0.2,0.4,0.4,0.6,0.6c-0.1,0.7,0.1,1.3,0.3,1.9c-0.2-0.1-0.4-0.1-0.6-0.2
			c-0.6-0.6-0.2-1.2-0.4-2c-0.1,0-0.2,0-0.3,0c-0.2,0.2-0.5,0.3-0.7,0.5c-0.1-0.3-0.2-0.5-0.2-0.8C274.6,43.6,275,43.6,275.5,43.7z"
			/>
		<path class="st3" d="M302.3,43.6c0.2,0.2,0.4,0.4,0.5,0.6c0,0.3-0.5,0.3-0.7,0.4C302.1,44.4,302.2,44,302.3,43.6z"/>
		<path class="st3" d="M324.9,43.8c0.2,0.1,0.3,0.2,0.5,0.4c-0.2,0-0.4,0-0.6,0C324.9,44.1,324.9,43.9,324.9,43.8z"/>
		<path class="st3" d="M347.7,43.8c0.2,0.1,0.3,0.3,0.5,0.4c-0.2,0-0.4,0-0.5,0C347.7,44.1,347.7,43.9,347.7,43.8z"/>
		<path class="st3" d="M222.7,44c0.1,0.1,0.3,0.2,0.4,0.2c-0.1,0.1-0.2,0.3-0.3,0.4C222.8,44.4,222.7,44.2,222.7,44z"/>
		<path class="st3" d="M219.8,44.3c-0.1,0.3-0.1,0.5-0.2,0.8c-0.2-0.1-0.4-0.2-0.6-0.3C219.3,44.5,219.4,44.4,219.8,44.3z"/>
		<path class="st3" d="M174.2,54.1c0-1.7,0.2-3.4,0.1-5.1c-0.1-1.2,0.2-2.4-0.1-3.7c0-0.3,0.1-0.6,0.1-0.9c0,0.7,0.1,1.3,0.2,2
			c0.1,0.8-0.1,1.5-0.1,2.2c0,0.8,0,1.5,0,2.3c0,0.7-0.1,1.4,0.2,2.1C174.5,53.4,174.4,53.8,174.2,54.1z"/>
		<path class="st3" d="M206.4,44.7L206.4,44.7c0.1,0.3,0.2,0.8,0.3,1.2l0.4,0.1c0,0.5-0.3,0.7-0.6,1.1c0,0.2,0,0.4,0,0.7
			c-0.3,0-0.6,0-0.9,0c0-0.2-0.1-0.5,0-0.7c0.3-0.2,0.7-0.3,0.9-0.6c0.1-0.3,0.1-0.6,0-0.9C206,45.3,206,45,206.4,44.7z"/>
		<path class="st3" d="M277,44.6c0.2,0.4,0.2,0.8,0.2,1.2l0.5,0.1c0,0.4-0.4,0.8-0.6,1.1c0,0.2,0,0.4,0,0.6c-0.1,0-0.1,0.1-0.2,0.1
			c-0.2,0-0.4-0.1-0.6-0.1c-0.1-0.3-0.1-0.5-0.2-0.8c0.3-0.1,0.6-0.2,0.9-0.3c0-0.3,0.1-0.7,0.1-1c-0.1-0.2-0.3-0.4-0.4-0.5
			C276.8,44.9,276.9,44.8,277,44.6z"/>
		<path class="st3" d="M312.1,44.9c0.2,0,0.4,0,0.6,0c0.1,0.2,0.1,0.4,0.2,0.7c-0.2,0.1-0.4,0.2-0.5,0.2c0,0.3,0,0.7,0,1
			c-0.3,0-0.5,0-0.8,0C311.5,46.1,311.7,45.4,312.1,44.9z"/>
		<path class="st3" d="M334.9,44.9c0.2,0,0.4,0,0.5,0c0.1,0.2,0.2,0.5,0.2,0.7c-0.2,0.1-0.4,0.1-0.6,0.2c0,0.3,0,0.7,0,1
			c-0.3,0-0.5,0-0.8,0c0-0.3,0-0.6,0.1-0.9C334.6,45.5,334.6,45.2,334.9,44.9z"/>
		<path class="st3" d="M181.8,45c0.3,0.4,0.1,0.4-0.2,0.7C181.7,45.4,181.7,45.2,181.8,45z"/>
		<path class="st3" d="M180.8,45.4L180.8,45.4L180.8,45.4c0.2,0.2,0.4,0.4,0.5,0.5c0,0.2,0,0.3,0,0.5
			C181.1,46.1,181,45.8,180.8,45.4z"/>
		<path class="st3" d="M203.9,45.3c0.2,0.2,0.4,0.4,0.5,0.5c-0.1,0.2-0.2,0.4-0.3,0.5C203.8,46,203.8,45.8,203.9,45.3z"/>
		<path class="st3" d="M274.6,45.3c0.2,0.2,0.3,0.3,0.5,0.5c-0.1,0.2-0.1,0.3-0.2,0.5c-0.1-0.1-0.3-0.2-0.4-0.4
			C274.4,45.8,274.5,45.5,274.6,45.3z"/>
		<path class="st3" d="M219.3,45.5c-0.1,0.3-0.2,0.5-0.3,0.8c-0.4-0.1-0.7-0.2-1-0.3C218.3,45.6,218.7,45.6,219.3,45.5z"/>
		<path class="st3" d="M303.5,45.5c0,0.1,0,0.2,0,0.4c-0.2,0.3-0.5,0.6-0.7,0.8c-0.1-0.2-0.2-0.5-0.2-0.7
			C302.9,45.8,303.2,45.6,303.5,45.5z"/>
		<path class="st3" d="M258.2,45.9c0.3-0.2,0.5,0.3,0.1,0.3C258.2,46.2,258.1,46,258.2,45.9z"/>
		<path class="st3" d="M256.2,46.1c0,0.2,0,0.4,0,0.5c-0.1,0-0.2,0-0.3,0c-0.1-0.1-0.3-0.2-0.4-0.3
			C255.7,46.3,255.9,46.2,256.2,46.1z"/>
		<path class="st3" d="M304,46.4c0.2,0.7,0.3,1.3,0.3,2c-0.1,0.1-0.2,0.2-0.3,0.3c-0.1-0.2-0.1-0.3-0.2-0.5c-0.4-0.1-0.6,0-0.9,0.1
			c-0.1-0.1-0.2-0.2-0.3-0.3c-0.1,0.1-0.2,0.2-0.4,0.3c-0.1-0.1-0.3-0.2-0.4-0.3c0.2-0.2,0.4-0.4,0.6-0.7c0.4,0.2,0.7,0.5,1.1,0.6
			C303.7,47.5,303.9,47,304,46.4z"/>
		<path class="st3" d="M204.6,46.7c0.1,0,0.2-0.1,0.4-0.1c0.1,0.2,0.2,0.5,0.3,0.7c-0.1,0-0.3,0-0.4,0
			C204.7,47.1,204.6,46.9,204.6,46.7z"/>
		<path class="st3" d="M275.2,46.7c0.1,0,0.2-0.1,0.3-0.1c0.1,0.3,0.2,0.5,0.2,0.8c-0.2,0-0.3-0.1-0.5-0.1
			C275.3,47.1,275.2,46.9,275.2,46.7z"/>
		<path class="st3" d="M243.2,46.7L243.2,46.7c0.5,0.5,0.7,1,1.1,1.4c0,0.1,0,0.3,0,0.4c-0.2,0-0.4,0-0.6,0
			C243.4,47.9,243.2,47.4,243.2,46.7z"/>
		<path class="st3" d="M180.6,47c0.3,0.1,0.6,0.2,0.9,0.3c-0.3,0.1-0.5,0.2-0.8,0.2C180.7,47.3,180.7,47.2,180.6,47z"/>
		<path class="st3" d="M219.1,47.1c0.2,0,0.4,0,0.6,0.1c-0.2,0-0.4,0.1-0.5,0.2c-0.2,0.3-0.3,0.7-0.4,1l0.4,0l-0.2,0.1
			c-0.1,0-0.2,0.1-0.4,0.1C218.7,48,218.9,47.5,219.1,47.1z"/>
		<path class="st3" d="M219.2,47.3c0.2-0.1,0.4-0.1,0.5-0.2c0,0.6-0.1,0.8-0.6,1.2l-0.4,0C218.9,48,219,47.6,219.2,47.3z"/>
		<path class="st3" d="M312.2,47.3c0,0.2,0,0.3,0,0.5c-0.1,0-0.3,0.1-0.4,0.1c0,0.2-0.1,0.4-0.1,0.6c-0.2-0.3-0.4-0.4-0.3-0.8
			C311.6,47.5,311.9,47.4,312.2,47.3z"/>
		<path class="st3" d="M335.2,47.5c-0.2,0.2-0.4,0.3-0.6,0.5c0,0.2-0.1,0.3-0.1,0.5c-0.1,0-0.2-0.1-0.2-0.1
			c-0.1-0.1-0.2-0.3-0.3-0.4C334.4,47.5,334.6,47.5,335.2,47.5z"/>
		<path class="st3" d="M171.9,47.5c0.2,0.2,0.2,0.4,0,0.6c-0.2,0-0.3-0.1-0.4-0.3C171.6,47.6,171.7,47.5,171.9,47.5z"/>
		<path class="st3" d="M313.1,48.2l0.1,0.1c-0.2,0.1-0.3,0.3-0.5,0.4c0,0.2,0,0.3,0,0.5l-0.1-0.1c-0.1-0.1-0.1-0.3-0.2-0.4
			C312.7,48.5,312.9,48.3,313.1,48.2z"/>
		<path class="st3" d="M336,48.2c0.1,0.2,0.2,0.3,0.3,0.5c-0.1,0.2-0.3,0.5-0.4,0.7c-0.1,0-0.2-0.1-0.4-0.1
			c-0.1-0.2-0.1-0.4-0.2-0.6C335.5,48.5,335.7,48.3,336,48.2z"/>
		<path class="st3" d="M205,48.3L205,48.3c0.2,0.4,0.4,0.7,0.8,0.9c0,0.2,0,0.3,0,0.5c-0.4-0.2-0.7-0.5-1.1-0.7
			C204.8,48.8,204.9,48.6,205,48.3z"/>
		<path class="st3" d="M275.6,48.3l0.1,0.1c0.2,0.3,0.5,0.6,0.8,0.8c0,0.1,0,0.3,0,0.4c-0.4-0.2-0.8-0.5-1.2-0.7
			C275.4,48.8,275.5,48.5,275.6,48.3z"/>
		<path class="st3" d="M313.2,48.3c0.1,0.1,0.2,0.3,0.3,0.4c-0.1,0.1-0.2,0.2-0.3,0.3c0,0.2-0.1,0.3-0.1,0.5c-0.1,0-0.2-0.1-0.2-0.1
			l-0.1-0.1c0-0.2,0-0.3,0-0.5C312.9,48.6,313,48.4,313.2,48.3z"/>
		<path class="st3" d="M242.7,48.7L242.7,48.7c0.2,0.2,0.2,0.4,0.3,0.7c0.1,0.1,0.2,0.2,0.4,0.2c-0.1,0.3-0.2,0.7-0.3,1
			c-0.2-0.1-0.4-0.2-0.6-0.2c0.4-0.5,0-0.9,0-1.5C242.5,48.9,242.6,48.8,242.7,48.7z"/>
		<path class="st3" d="M207.1,49c0.1,0.1,0.1,0.3,0.2,0.4c-0.2,0-0.4-0.1-0.5-0.1C206.9,49.2,207,49.1,207.1,49z"/>
		<path class="st3" d="M277.6,49c0.1,0.1,0.3,0.2,0.4,0.4c-0.2,0-0.4,0-0.6,0C277.5,49.3,277.5,49.2,277.6,49z"/>
		<path class="st3" d="M302.4,49.3c0.3,0.1,0.6,0.1,0.9,0.2c-0.1,0.2-0.1,0.3-0.2,0.4C302.8,50,302.6,49.5,302.4,49.3z"/>
		<path class="st3" d="M171.2,49.3c0,0.2,0,0.4,0,0.6c0.1,0.1,0.3,0.2,0.4,0.3c-0.3,0.1-0.5,0.1-0.8,0.2
			C170.9,50,170.7,49.5,171.2,49.3z"/>
		<path class="st3" d="M311.5,49.5c0.2,0.2,0.4,0.5,0.6,0.7c-0.2,0.3-0.4,0.6-0.6,0.8c-0.1-0.1-0.1-0.2-0.2-0.2
			C311.3,50.4,311.4,50,311.5,49.5z"/>
		<path class="st3" d="M334.3,49.5c0.2,0.2,0.4,0.5,0.6,0.7c-0.2,0.3-0.4,0.5-0.6,0.8c-0.1-0.1-0.2-0.1-0.3-0.2
			C334.2,50.4,334.2,49.9,334.3,49.5z"/>
		<path class="st3" d="M218.4,50c0.2-0.1,0.4-0.2,0.5-0.3c0.1,0.3,0.1,0.7,0.1,1c0,0.3-0.3,0.6-0.4,0.9
			C218.6,51,218.4,50.6,218.4,50z"/>
		<path class="st3" d="M233.6,50.3c0.2,0.2,0.3,0.4,0.5,0.6c-0.2,0-0.4,0-0.6,0C233.5,50.7,233.6,50.5,233.6,50.3z"/>
		<path class="st3" d="M302.2,50.4c0.1,0,0.3,0,0.4,0.1c0.1,0.2,0.2,0.3,0.3,0.5c-0.3,0-0.5,0-0.8,0
			C302.1,50.8,302.1,50.6,302.2,50.4z"/>
		<path class="st3" d="M289.9,50.6c0,0.3,0,0.7,0,1C289.3,51.6,289.5,50.8,289.9,50.6z"/>
		<path class="st3" d="M171.1,51.1c0.4,0.1,0.5,0.2,0.6,0.6c-0.2-0.1-0.5-0.1-0.7-0.2C171,51.4,171.1,51.3,171.1,51.1z"/>
		<path class="st3" d="M206.4,51.1c0.2,0.3,0.4,0.6,0.6,0.9c-0.3,0-0.5,0-0.8,0C206.2,51.7,206.3,51.4,206.4,51.1z"/>
		<path class="st3" d="M276.9,51.1L276.9,51.1c0.2,0.3,0.5,0.6,0.7,0.9c-0.3,0-0.5,0-0.8,0C276.8,51.7,276.8,51.4,276.9,51.1z"/>
		<path class="st3" d="M241.5,51.6c0.1,0.2,0.1,0.4,0.2,0.5c0,0.4-0.1,0.7-0.2,1.1c-0.1-0.2-0.2-0.4-0.3-0.5
			C241.4,52.3,241.4,52,241.5,51.6z"/>
		<path class="st3" d="M242.5,51.6c0.6,0,1.2,0.3,1.8,0.6c-0.2,0.1-0.3,0.3-0.5,0.4c-0.2-0.1-0.5-0.3-0.7-0.4
			c-0.2,0.1-0.5,0.2-0.7,0.3C242.4,52.2,242.4,51.9,242.5,51.6z"/>
		<path class="st3" d="M312.5,51.7c-0.1,0.2-0.2,0.4-0.4,0.6c0-0.2,0-0.4,0-0.6C312.2,51.7,312.4,51.7,312.5,51.7z"/>
		<path class="st3" d="M335,51.7c0.2,0.1,0.3,0.1,0.3,0.3c-0.1,0.1-0.3,0.2-0.4,0.4C334.9,52.1,334.9,51.9,335,51.7z"/>
		<path class="st3" d="M325.5,51.8c-0.1,0.3-0.2,0.5-0.3,0.8C325.2,52.2,325.3,52.1,325.5,51.8z"/>
		<path class="st3" d="M348.4,51.8c-0.1,0.2-0.2,0.5-0.3,0.7c0-0.1-0.1-0.3-0.1-0.4C348.1,52,348.2,51.9,348.4,51.8z"/>
		<path class="st3" d="M172,52c0,0.4-0.1,0.7-0.1,1.1c-0.4-0.2-0.7-0.4-1.2-0.5C171.1,52.4,171.5,52.2,172,52z"/>
		<path class="st3" d="M226.4,52.7l0.1,0.1c0,0.3,0,0.4-0.1,0.6C226.4,53.1,226.4,52.9,226.4,52.7z"/>
		<path class="st3" d="M207.8,53c0.2,0,0.4,0,0.6,0c0,0.1,0,0.3,0,0.4C208.2,53.2,208,53.1,207.8,53z"/>
		<path class="st3" d="M243,52.9L243,52.9c0.3,0.7,0.6,1.1,1.3,1.6c-0.4-0.1-0.8-0.2-1.3-0.3c-0.1-0.4-0.1-0.7-0.2-1.1
			C242.9,53.1,243,53,243,52.9z"/>
		<path class="st3" d="M244.5,52.8c0.1,0.2,0.2,0.4,0.2,0.6c-0.1,0.1-0.2,0.3-0.2,0.4c-0.2,0-0.3-0.1-0.5-0.1
			C244,53.3,244.2,53.1,244.5,52.8z"/>
		<path class="st3" d="M278.4,53c0.2,0,0.4,0,0.6,0c0,0.1,0,0.3,0,0.4C278.9,53.2,278.7,53.1,278.4,53z"/>
		<path class="st3" d="M290.3,53c0,0.1,0,0.2,0,0.3c-0.1,0.1-0.3,0.2-0.4,0.3c-0.2-0.1-0.3-0.2-0.5-0.3
			C289.7,53.2,290,53.1,290.3,53z"/>
		<path class="st3" d="M171.3,53.3c0.1,0.2,0.2,0.4,0.3,0.6c-0.2,0.1-0.4,0.2-0.6,0.3C171.1,53.9,170.9,53.5,171.3,53.3z"/>
		<path class="st3" d="M196.8,53.5L196.8,53.5c0.2,0.3,0.3,0.6,0.3,0.9c-0.3-0.1-0.5-0.2-0.8-0.3c0-0.1,0.1-0.2,0.1-0.3
			C196.6,53.7,196.7,53.6,196.8,53.5z"/>
		<path class="st3" d="M267.5,53.5L267.5,53.5c0.2,0.3,0.3,0.6,0.3,0.9c-0.3-0.1-0.5-0.2-0.8-0.3c0-0.1,0.1-0.3,0.1-0.4
			C267.2,53.6,267.4,53.5,267.5,53.5z"/>
		<path class="st3" d="M326,53.3c0,0.2,0,0.4,0,0.6c-0.1,0.1-0.2,0.2-0.2,0.3c-0.1,0-0.2,0-0.3,0C325.5,53.8,325.7,53.6,326,53.3z"
			/>
		<path class="st3" d="M348.8,53.3c0,0.2,0,0.4,0,0.6c-0.1,0.1-0.3,0.3-0.4,0.4c-0.1-0.1-0.2-0.2-0.3-0.3
			C348.4,53.8,348.6,53.6,348.8,53.3z"/>
		<path class="st3" d="M207.1,53.8c0.1,0.1,0.2,0.1,0.4,0.2c-0.2,0.2-0.4,0.3-0.7,0.3c0-0.1-0.1-0.2-0.1-0.3
			C206.8,53.9,206.9,53.9,207.1,53.8z"/>
		<path class="st3" d="M277.9,53.8c0,0.2,0,0.4,0,0.6c-0.3,0-0.5-0.1-0.8-0.3C277.3,54,277.6,53.9,277.9,53.8z"/>
		<path class="st3" d="M242.2,53.9l0.1,0.1c0,0.2,0.1,0.5,0.1,0.7c0.2,0.3,0.3,0.5,0.3,0.8c-0.2,0-0.4,0-0.6,0.1
			c-0.1-0.3-0.3-0.6-0.4-0.8C241.7,54.4,241.9,54.1,242.2,53.9z"/>
		<path class="st3" d="M226.9,54c0,0.2,0,0.3,0,0.5c-0.1,0-0.3,0-0.4,0C226.6,54.3,226.8,54.2,226.9,54z"/>
		<path class="st3" d="M242.2,54c0.2,0.4,0.7,1.1,0.5,1.6c0,0.2-0.4,0.2-0.5,0.2l-0.1-0.2c0.2,0,0.4,0,0.6-0.1
			c0-0.3-0.1-0.5-0.3-0.8C242.3,54.5,242.3,54.2,242.2,54z"/>
		<path class="st3" d="M171.8,54.6c0,0.3-0.1,0.6-0.1,0.8c0.1,0.4,0.4,0.7,0.5,1.1c0.1,0.3,0.1,0.6,0.5,0.6c0.2,0.1,0.5-0.3,0.6-0.5
			c0,0.1,0,0.3-0.1,0.4c0.2,0,0.4,0,0.6,0c-0.3,0.3-0.5,0.6-0.8,0.9c-0.4,0.4-0.5,1-0.7,1.6c-0.2-0.5-0.2-0.9-0.1-1.4
			c0.2-0.1,0.4-0.2,0.6-0.3c-0.3-0.3-0.7-0.5-1.1-0.7c-0.1-0.8,0.1-1.6-0.4-2.2C171.6,54.9,171.7,54.7,171.8,54.6z"/>
		<path class="st3" d="M197.2,54.6c0,0.2,0.1,0.3,0.1,0.5c-0.1,0.1-0.3,0.1-0.4,0.2c0-0.1,0-0.3,0.1-0.4
			C197,54.8,197.1,54.7,197.2,54.6z"/>
		<path class="st3" d="M300.6,54.7c0.2,0,0.4-0.1,0.6-0.1c-0.2,0.2-0.4,0.3-0.7,0.5C300.6,55,300.6,54.9,300.6,54.7z"/>
		<path class="st3" d="M267.7,54.7c0.1,0.1,0.2,0.3,0.2,0.4c-0.2,0.1-0.4,0.1-0.6,0.2C267.5,55.1,267.6,54.9,267.7,54.7z"/>
		<path class="st3" d="M289.8,54.8L289.8,54.8c0.1,0.3,0.1,0.7,0.1,1.1c-0.2,0.2-0.3,0.4-0.5,0.6C289.3,55.7,289.4,55.4,289.8,54.8z
			"/>
		<path class="st3" d="M347.6,54.8c0.4,0.6,0.5,1,0.4,1.8l-0.2,0.3c-0.1,0.1-0.1,0.2-0.2,0.3l-0.1,0c-0.2-0.4,0.2-1,0.3-1.4
			C347.7,55.5,347.6,55.1,347.6,54.8z"/>
		<path class="st3" d="M244,55c0.2-0.2,0.5,0.1,0.4,0.3C244.2,55.5,243.9,55.2,244,55z"/>
		<path class="st3" d="M245,54.9c0.2-0.1,0.3,0,0.4,0.2C245.3,55.4,244.8,55.2,245,54.9z"/>
		<path class="st3" d="M324.8,54.9c0.2,0.3,0.4,0.6,0.4,1.1c0,0.5-0.2,0.9-0.3,1.3c-0.1,0-0.1,0-0.2,0c-0.1-0.1-0.1-0.2-0.2-0.3
			c0.1-0.4,0.2-0.8,0.4-1.2C324.8,55.5,324.8,55.2,324.8,54.9z"/>
		<path class="st3" d="M170.8,55.2L170.8,55.2c0.1,0.1,0.1,0.3,0.2,0.5c0.2,0.1,0.3,0.1,0.5,0.2c-0.4,0-0.7,0-1.1,0
			C170.5,55.6,170.7,55.4,170.8,55.2z"/>
		<path class="st3" d="M243.2,55.2c0.4,0.1,0.8,0.3,1.3,0.4c0.1,0.1,0.1,0.2,0.2,0.4c-0.2,0-0.3,0.1-0.5,0.1c0,0.2,0,0.4,0,0.6
			c-0.3,0-0.7,0-1,0C243.3,56.2,243.4,55.8,243.2,55.2z"/>
		<path class="st3" d="M291.7,55.1c0,0.3,0.1,0.6,0.1,0.9c0.2,0,0.3,0.1,0.5,0.1c0,0.2,0,0.4,0,0.6c-0.1,0-0.3,0-0.4,0.1
			c-0.2-0.3-0.9-0.7-0.6-1.2C291.4,55.4,291.6,55.3,291.7,55.1z"/>
		<path class="st3" d="M177.1,55.8c-0.2,0.1-0.4,0.2-0.5,0.3c0.2,0.1,0.3,0.2,0.5,0.4c-0.2,0.1-0.5,0.2-0.7,0.3
			c-0.1-0.2-0.2-0.5-0.3-0.7C176.4,56,176.8,55.9,177.1,55.8z"/>
		<path class="st3" d="M311.7,56.1c0.2-0.2,0.4,0.3,0.1,0.3C311.7,56.4,311.6,56.3,311.7,56.1z"/>
		<path class="st3" d="M334.5,56.1c0.3-0.2,0.5,0.3,0.2,0.4C334.5,56.4,334.4,56.3,334.5,56.1z"/>
		<path class="st3" d="M297.7,56.4c-0.1,0.3-0.3,0.5-0.5,0.7c-0.2,0-0.4,0-0.6,0c0-0.1,0-0.2,0-0.3
			C296.9,56.7,297.3,56.5,297.7,56.4z"/>
		<path class="st3" d="M171.4,56.6c0,0.1,0,0.2,0,0.3c-0.3,0-0.5,0-0.8,0C170.8,56.8,171.1,56.7,171.4,56.6z"/>
		<path class="st3" d="M290.4,56.7c0.4,0,0.8,0.1,1.2,0.2c-0.1,0.2-0.2,0.4-0.3,0.6C290.9,57.3,290.6,57,290.4,56.7z"/>
		<path class="st3" d="M294.4,56.8c0.1,0.3,0.1,0.6,0.1,0.9c-0.2,0-0.5,0-0.7,0c-0.1,0.3-0.2,0.5-0.3,0.8c-0.1,0-0.1,0.1-0.2,0.1
			c-0.2-0.4-0.4-0.8-0.6-1.2c0.1-0.2,0.1-0.3,0.2-0.5c0.2,0.1,0.4,0.3,0.6,0.3C293.8,57,294.1,56.9,294.4,56.8z"/>
		<path class="st3" d="M348,56.6c0,0.3,0,0.5-0.1,0.8c-0.1,0-0.3,0-0.4,0l0-0.1l0.1,0c0.1-0.1,0.2-0.2,0.2-0.3L348,56.6z"/>
		<path class="st3" d="M295.2,56.9c0.2,0,0.4,0,0.7,0c0,0.2,0,0.3-0.1,0.5C295.6,57.2,295.4,57.1,295.2,56.9z"/>
		<path class="st3" d="M196.4,57.1c0,0.2,0,0.3,0,0.5c-0.1,0.1-0.2,0.1-0.3,0.2c-0.1-0.2-0.2-0.3-0.3-0.5
			C196,57.2,196.2,57.2,196.4,57.1z"/>
		<path class="st3" d="M267,57.1c0,0.1,0,0.2,0,0.4c-0.1,0.1-0.2,0.2-0.3,0.4c-0.1-0.2-0.2-0.3-0.3-0.5
			C266.6,57.2,266.8,57.2,267,57.1z"/>
		<path class="st3" d="M242.2,57.2c0.3,0,0.6,0.3,0.9,0.4c0.1,0.6,0.3,1.1,0.3,1.8c-0.3-0.1-0.5-0.2-0.8-0.3c0-0.3,0-0.6,0-0.9
			c-0.2-0.2-0.5-0.4-0.7-0.7C242,57.5,242,57.2,242.2,57.2z"/>
		<path class="st3" d="M290.2,57.4c0.1,0.1,0.2,0.2,0.3,0.4c0.1,0,0.3,0.1,0.4,0.1c0,0.1,0,0.2,0,0.3c-0.2,0.1-0.4,0.1-0.6,0.2
			c-0.1-0.1-0.3-0.2-0.4-0.3c-0.3,0.2-0.3,0.6-0.4,0.9c-0.1,0-0.3,0-0.4,0c0-0.4,0.1-0.7,0.3-1C289.9,57.9,289.9,57.7,290.2,57.4z"
			/>
		<path class="st3" d="M171.5,57.7c0.1,0.3,0.2,0.5,0.2,0.8c-0.2,0-0.3,0.1-0.5,0.1c-0.1,0.1-0.1,0.3-0.2,0.4c0-0.2,0-0.4,0-0.6
			C171.2,58.1,171.4,57.9,171.5,57.7z"/>
		<path class="st3" d="M176.4,57.7c0,0.2,0.1,0.4,0.1,0.7c-0.3-0.1-0.7-0.2-1-0.3C175.8,57.9,176.1,57.8,176.4,57.7z"/>
		<path class="st3" d="M256.1,57.8c0.2,0,0.5,0.1,0.7,0.2c-0.3,0.3-0.6,0.5-1,0.6C255.9,58.3,256,58.1,256.1,57.8z"/>
		<path class="st3" d="M292,58.1c0.4,0.4,0.1,0.7-0.2,1c0,0.1-0.1,0.2-0.1,0.3c0.2,0.1,0.4,0.2,0.6,0.3c0.1,0.2,0.2,0.5,0.3,0.7
			c-0.4,0-0.7,0.2-1-0.1c-0.3-0.4-0.5-0.9-0.8-1.3C291.2,58.8,291.6,58.1,292,58.1z"/>
		<path class="st3" d="M295.3,58.1c-0.1,0.2-0.1,0.4-0.2,0.6c-0.2-0.1-0.3-0.1-0.5-0.2C294.8,58.3,295.1,58.2,295.3,58.1z"/>
		<path class="st3" d="M206.5,59.1c0,0.3,0,0.6,0,0.9c-0.2-0.1-0.5-0.2-0.7-0.3C206,59.5,206.2,59.3,206.5,59.1z"/>
		<path class="st3" d="M277.1,59.1c0,0.3,0,0.6,0,0.8c-0.2-0.1-0.5-0.2-0.7-0.3C276.6,59.5,276.9,59.3,277.1,59.1z"/>
		<path class="st3" d="M257.4,59.4c0.2,0.1,0.3,0.3,0.4,0.4c-0.1,0.1-0.3,0.2-0.4,0.3c-0.1,0-0.2,0-0.4,0
			C256.9,59.6,257.1,59.6,257.4,59.4z"/>
		<path class="st3" d="M290.6,59.6c0,0.3,0,0.6,0,0.9l-0.1,0c0-0.2-0.1-0.4-0.1-0.7c-0.3-0.1-0.5-0.2-0.8-0.3
			C290,59.6,290.3,59.6,290.6,59.6z"/>
		<path class="st3" d="M171.7,59.7c0.2,0.1,0.3,0.2,0.5,0.4c-0.1,0.2-0.2,0.5-0.4,0.7c-0.5-0.2-0.7-0.2-0.8-0.8
			C171.3,59.9,171.5,59.8,171.7,59.7z"/>
		<path class="st3" d="M256,59.7c0.2,0,0.3,0.1,0.5,0.1c0,0.2,0,0.4,0,0.6c-0.2,0.2-0.3,0.3-0.5,0.5c0,0.2,0,0.4-0.1,0.6
			c-0.2-0.2-0.6-0.6-0.5-0.9C255.5,60.2,255.7,59.9,256,59.7z"/>
		<path class="st3" d="M289.7,59.6c0.3,0.1,0.5,0.2,0.8,0.3c0,0.2,0.1,0.4,0.1,0.7c-0.3-0.1-0.7-0.2-1-0.3
			C289.5,60,289.6,59.8,289.7,59.6z"/>
		<path class="st3" d="M232.9,59.8L232.9,59.8L232.9,59.8c0.1,0.5,0.2,0.9,0.3,1.3c-0.2-0.1-0.4-0.1-0.5-0.2
			C232.9,60.6,232.9,60.2,232.9,59.8z"/>
		<path class="st3" d="M229.1,60.1c0.2,0,0.4-0.1,0.6-0.1c0,0.2,0,0.4,0,0.6c0.3,0.1,0.6,0.1,0.8,0.2c0,0.1,0,0.3,0.1,0.4
			c-0.3,0-0.5,0.1-0.8,0.1C229.6,61,229.3,60.6,229.1,60.1z"/>
		<path class="st3" d="M257.5,60.8c-0.2,0.4-0.3,0.6-0.8,0.7c-0.1-0.2-0.2-0.4-0.3-0.5C256.8,60.8,257,60.6,257.5,60.8z"/>
		<path class="st3" d="M289.1,61c0.4,0,0.7,0,1.1,0c0.2,0.1,0.3,0.3,0.5,0.4c0,0.3-0.1,0.5-0.1,0.8c-0.2,0-0.3,0-0.5,0
			C289.8,61.7,289.5,61.4,289.1,61z"/>
		<path class="st3" d="M194.5,61.3L194.5,61.3c0.2,0.5,0.1,0.6-0.3,1c0-0.3,0-0.5,0.1-0.8C194.4,61.4,194.5,61.4,194.5,61.3z"/>
		<path class="st3" d="M229.2,61.5c-0.1,0.2-0.6,0.1-0.5-0.2C228.8,61.1,229.3,61.2,229.2,61.5z"/>
		<path class="st3" d="M265.1,61.2c0.1,0.1,0.1,0.2,0.2,0.3c0.2,0.3-0.2,0.5-0.4,0.8C264.9,61.9,265,61.5,265.1,61.2z"/>
		<path class="st3" d="M170.9,61.7c0.1,0,0.2-0.1,0.3-0.1c0.1,0.2,0.2,0.4,0.3,0.5c0.2,0,0.3,0.1,0.5,0.1c0,0.3-0.3,0.5-0.4,0.7
			C171.3,62.6,171,62.2,170.9,61.7z"/>
		<path class="st3" d="M198.5,61.9c0.2,0.3,0.4,0.6,0.5,0.9c-0.2-0.1-0.6-0.1-0.6-0.4C198.4,62.2,198.5,62,198.5,61.9z"/>
		<path class="st3" d="M269.2,62L269.2,62c0.2,0.2,0.3,0.5,0.5,0.7c-0.1,0-0.3,0-0.4,0c-0.1-0.1-0.2-0.3-0.4-0.4
			C269,62.2,269.1,62.1,269.2,62z"/>
		<path class="st3" d="M232.3,62.1c0.2,0,0.3,0,0.5,0.1c0,0.2,0,0.5,0,0.7c-0.3,0-0.5,0-0.8,0C232.2,62.6,232.2,62.4,232.3,62.1z"/>
		<path class="st3" d="M229.7,62.3c0.3,0.1,0.6,0.3,0.9,0.3c0.3-0.2,0.6-0.3,0.9-0.5c-0.1,0.6-0.6,0.9-0.7,1.5
			c-0.3,0.1-0.5,0.1-0.8,0.2c0.1-0.1,0.2-0.2,0.3-0.3c-0.1-0.2-0.3-0.4-0.4-0.5C229.8,62.9,229.7,62.6,229.7,62.3z"/>
		<path class="st3" d="M244,62.3l0.1,0.1c0.3,0.4,0.5,0.8,0.7,1.2c-0.2,0-0.3,0-0.5,0c0-0.2,0-0.4,0-0.6
			C244.3,62.7,244.1,62.5,244,62.3z"/>
		<path class="st3" d="M325.1,62.4c0.1-0.1,0.3-0.1,0.4-0.2c0,0.2-0.1,0.4-0.1,0.5C325.4,62.6,325.2,62.5,325.1,62.4z"/>
		<path class="st3" d="M348.4,62.2c0,0.1,0,0.3,0,0.4c-0.1,0-0.3,0-0.4,0C348.1,62.4,348.1,62.3,348.4,62.2z"/>
		<path class="st3" d="M257,62.4c0.2,0.7-0.3,1-0.7,1.4c-0.2,0-0.3-0.1-0.5-0.1c0-0.1,0-0.2,0.1-0.3c0.3-0.3,0.4-0.6,0.5-1
			C256.6,62.5,256.8,62.5,257,62.4z"/>
		<path class="st3" d="M195,63.2L195,63.2c0.2,0.6,0.5,1.2,0.4,1.9c-0.2,0.3-0.8,0.2-1.1,0.3c0-0.2,0.1-0.3,0.1-0.5
			c0.2-0.2,0.4-0.4,0.5-0.6C194.8,63.8,194.9,63.6,195,63.2z"/>
		<path class="st3" d="M198.3,63.2c0.2,0,0.4-0.1,0.6-0.1c-0.1,0.1-0.2,0.3-0.3,0.4C198.5,63.5,198.4,63.4,198.3,63.2z"/>
		<path class="st3" d="M265.7,63.1c0.2,0.7,0.4,1.4,0.3,2.1c-0.3,0-0.6,0-0.9,0c-0.1,0.1-0.1,0.2-0.2,0.3c0-0.2,0-0.4,0-0.6
			c0.2-0.2,0.6-0.4,0.5-0.8C265.5,63.8,265.5,63.5,265.7,63.1z"/>
		<path class="st3" d="M269.5,63.1c-0.1,0.2-0.2,0.3-0.3,0.5c-0.1-0.1-0.2-0.2-0.3-0.3C269.1,63.2,269.3,63.2,269.5,63.1z"/>
		<path class="st3" d="M233,63.2c0.3,0.3,0.8,0.5,0.9,0.9c-0.1,0.2-0.1,0.5-0.2,0.7c-0.1-0.2-0.2-0.4-0.4-0.6c-0.2,0-0.4,0-0.7,0
			c0-0.3-0.1-0.5-0.1-0.8C232.7,63.3,232.8,63.3,233,63.2z"/>
		<path class="st3" d="M193.7,63.6c0.1,0,0.3,0,0.4,0c0,0.4-0.1,0.6-0.3,0.9C193.8,64.2,193.7,63.9,193.7,63.6z"/>
		<path class="st3" d="M264.3,63.5c0.2,0.1,0.3,0.1,0.5,0.2c-0.1,0.3-0.2,0.5-0.3,0.8C264.4,64.2,264.3,63.9,264.3,63.5z"/>
		<path class="st3" d="M290.3,63.5c0.2,0.3,0.4,0.4,0.3,0.8c-0.1,0.3-0.4,0.3-0.6,0.4C290.1,64.3,290.2,63.9,290.3,63.5z"/>
		<path class="st3" d="M301.3,63.6c0,0.3-0.4,0.5-0.5,0.2C300.7,63.5,301.1,63.5,301.3,63.6z"/>
		<path class="st3" d="M302.2,63.8c0.4,0.3,0.6,0.5,0.7,1c-0.2,0-0.4,0-0.5,0c-0.2-0.3-0.3-0.6-0.5-0.9
			C302,63.8,302.1,63.8,302.2,63.8z"/>
		<path class="st3" d="M325.6,63.7c0.1,0.1,0.2,0.2,0.3,0.3c-0.1,0.2-0.3,0.4-0.4,0.6c-0.1-0.1-0.2-0.1-0.3-0.2
			C325.3,64.2,325.5,63.9,325.6,63.7z"/>
		<path class="st3" d="M348.5,63.7c0.1,0.1,0.2,0.2,0.3,0.3c-0.1,0.2-0.2,0.4-0.4,0.6c-0.1,0-0.2,0-0.4,0
			C348.1,64.3,348.3,64,348.5,63.7z"/>
		<path class="st3" d="M231.9,63.9c0.1,0.2,0.2,0.5,0.4,0.7c0,0.1,0,0.2,0.1,0.3c-0.2,0-0.5-0.1-0.7-0.1c-0.1-0.3-0.1-0.5-0.2-0.8
			C231.6,63.9,231.7,63.9,231.9,63.9z"/>
		<path class="st5" d="M90.3,64.9c-2.3,3.3-3.7,7.3-3.6,11.3c0,1.9,0,3.7,0,5.6c0,1.4-0.1,2.7-0.5,4c-0.1,0.2-0.1,0.3-0.2,0.5
			c-0.1,0.2-0.1,0.3-0.2,0.5c-0.1,0.2-0.1,0.3-0.2,0.5c-0.1,0.2-0.2,0.5-0.3,0.7c-0.1,0.2-0.2,0.4-0.4,0.7c-0.2,0.3-0.4,0.6-0.6,0.9
			c-0.2,0.3-0.4,0.5-0.6,0.8c-0.1,0.1-0.2,0.3-0.3,0.4c-0.1,0.1-0.2,0.2-0.4,0.4c-0.2,0.2-0.5,0.5-0.8,0.7c-0.3,0.2-0.5,0.4-0.8,0.6
			c-2,1.4-4.5,2.1-7,2c-1.1,0-2.3,0-3.4,0c-0.4-0.6-0.8-1.2-1.3-1.8c0.2-0.4,0.5-0.7,0.7-1.1c0.2-0.5,0.2-1.2,0.4-1.7
			c0.2-0.4,0.5-0.7,0.8-0.9c0,0,0.1-0.1,0.2-0.1c0.2-0.1,0.3-0.1,0.5-0.1c1.7-0.1,3.4,0,5.1,0c0.6,0,1.2-0.1,1.7-0.4
			c0.7-0.4,1-1.1,1.1-1.9c0.1-0.8-0.5-1.6-1.1-2.1c-0.7-0.3-1.5-0.2-2.2-0.5c-0.5-0.2-0.9-0.8-0.9-1.4c-0.1-0.8-0.1-1.5-0.6-2.1
			c-0.6-0.8-1.5-0.9-2.5-0.9c-1.9,0-3.7,0-5.6,0c0-0.2,0-0.3,0-0.5c0.3-1.1,0.6-2.1,1-3.2c0.4-0.3,0.8-0.2,1.3-0.2
			c2.3,0,4.5,0.1,6.8-0.1c0.9-0.1,2,0.2,2.8-0.4c1.2-0.8,1.3-2.7,0.2-3.6c-0.9-0.8-1.9-0.5-3-0.6c-0.3,0-0.7,0-1,0
			c-0.9,0-1.7,0-2.6,0c-0.4,0-0.8,0-1.2-0.1c0.3-0.6,0.8-1.1,1.3-1.5c0.8-0.7,1.6-1.3,2.5-1.9C79.7,64.3,85.3,63.5,90.3,64.9z"/>
		<path class="st3" d="M255.9,64.5L255.9,64.5c0.1,0.1,0.1,0.3,0.1,0.5c-0.2,0-0.4,0-0.6,0C255.6,64.8,255.8,64.6,255.9,64.5z"/>
		<path class="st3" d="M324.5,64.4L324.5,64.4c0.2,0.3,0.3,0.5,0.4,0.8c-0.2,0.2-0.3,0.4-0.4,0.7c-0.2,0-0.3,0-0.5-0.1
			c0.1-0.1,0.1-0.1,0.1-0.2c0-0.3,0.1-0.5,0.1-0.8C324.4,64.7,324.5,64.5,324.5,64.4z"/>
		<path class="st3" d="M347.4,64.4L347.4,64.4c0.2,0.3,0.3,0.6,0.5,0.8c-0.3,0.2-0.3,0.4-0.5,0.7l-0.3-0.2
			C347.1,65.2,347.2,64.8,347.4,64.4z"/>
		<path class="st3" d="M231.2,65c0,0.1,0.1,0.3,0.1,0.4c0.5,0.2,0.5,0.4,0.6,0.9c-0.2,0-0.4-0.1-0.5-0.1c-0.2-0.3-0.4-0.6-0.6-0.9
			C230.8,65,231,65.1,231.2,65z"/>
		<path class="st3" d="M243.8,65.2c0,0.2,0,0.4,0,0.6c-0.1,0-0.2,0-0.4,0c-0.1-0.1-0.3-0.2-0.4-0.3
			C243.4,65.4,243.6,65.3,243.8,65.2z"/>
		<path class="st3" d="M171.4,65.4c0.1,0.3,0.2,0.6,0.3,0.9c-0.1,0-0.3,0-0.4,0c-0.1-0.3-0.2-0.5-0.2-0.9
			C171.2,65.5,171.3,65.5,171.4,65.4z"/>
		<path class="st3" d="M233.3,65.6c0.1,0.2,0.2,0.4,0.3,0.6c-0.4,0-0.8,0-1.2,0C232.7,65.9,232.9,65.6,233.3,65.6z"/>
		<path class="st3" d="M301.4,65.6c0.6,0.4,1.1,0.3,1.8,0.4c-0.1,0.2-0.2,0.4-0.3,0.6c-0.4-0.1-0.6-0.4-0.8-0.7l-0.4,0.5
			C301.6,66.1,301.5,65.9,301.4,65.6z"/>
		<path class="st3" d="M195.5,65.8c0,0.2,0,0.3,0,0.5c-0.3,0-0.6,0-0.9,0c0.1-0.1,0.1-0.2,0.2-0.2C195,66,195.2,65.9,195.5,65.8z"/>
		<path class="st3" d="M266,65.8c0,0.2,0,0.4,0,0.5c-0.3,0-0.7,0-1-0.1C265.4,66.1,265.7,66,266,65.8z"/>
		<path class="st3" d="M289.5,65.6c0.2,0.1,0.2,0.3,0.1,0.6c-0.3,0-0.4-0.1-0.4-0.4L289.5,65.6z"/>
		<path class="st3" d="M193.5,65.9c-0.2,0.5-0.5,0.9-0.8,1.4c0-0.4-0.1-0.9,0.1-1.2C192.9,65.9,193.3,66,193.5,65.9z"/>
		<path class="st3" d="M264.1,65.9c-0.3,0.5-0.5,0.9-0.9,1.4c0-0.4,0.1-0.9,0.2-1.3C263.7,66,263.9,66,264.1,65.9z"/>
		<path class="st3" d="M210.6,67.1c0.1,0.3,0.2,0.5,0.3,0.8c-0.3-0.1-0.6-0.1-0.9-0.2C210.2,67.5,210.4,67.3,210.6,67.1z"/>
		<path class="st3" d="M281.1,67.1c0.2,0.3,0.3,0.5,0.5,0.8c-0.3,0-0.6,0-0.9,0C280.9,67.6,281,67.3,281.1,67.1z"/>
		<path class="st3" d="M303.7,67.1c-0.3,0.4-0.2,0.5-0.8,0.5C303.1,67.3,303.3,67.2,303.7,67.1z"/>
		<path class="st3" d="M254.6,67.5c-0.2,0-0.5,0-0.7,0C254.1,67.3,254.3,67.4,254.6,67.5z"/>
		<path class="st3" d="M193.5,67.8c0.1,0.2,0.1,0.4,0.2,0.6l-0.3,0C193.4,68.2,193.4,68,193.5,67.8z"/>
		<path class="st3" d="M219.1,67.9c0,0.3-0.1,0.5-0.1,0.8c-0.2-0.2-0.4-0.5-0.5-0.7C218.7,68,218.9,67.9,219.1,67.9z"/>
		<path class="st3" d="M264.2,68c0,0.2,0.1,0.3,0.1,0.5c-0.1,0-0.2,0-0.4,0C264,68.3,263.9,67.7,264.2,68z"/>
		<path class="st3" d="M185.9,68.2c0.2,0,0.3-0.1,0.5-0.1c0,0.2-0.1,0.4-0.1,0.6C186.1,68.5,185.9,68.5,185.9,68.2z"/>
		<path class="st3" d="M316.3,68.3c-0.1,0.2-0.1,0.4-0.2,0.6c-0.3,0-0.5,0-0.8,0C315.6,68.7,316,68.5,316.3,68.3z"/>
		<path class="st3" d="M339.4,68.4c-0.1,0.1-0.3,0.2-0.4,0.2c0,0.1,0,0.2,0,0.3c-0.3,0-0.6,0-0.9,0
			C338.5,68.7,338.8,68.4,339.4,68.4z"/>
		<path class="st3" d="M187,68.6L187,68.6l0.1,0c0.1,0.4,0.2,0.7,0.3,1.1c-0.2-0.1-0.4-0.2-0.7-0.2C186.8,69.1,186.9,68.9,187,68.6z
			"/>
		<path class="st3" d="M339.7,68.8c0.3,0.1,0.5,0.1,0.8,0.2c-0.3,0.1-0.5,0.2-0.8,0.3C339.7,69.2,339.7,69,339.7,68.8z"/>
		<path class="st3" d="M171.1,69c0.2,0.1,0.5,0.2,0.7,0.2c0,0.1-0.1,0.2-0.1,0.3c-0.3-0.1-0.6-0.2-0.8-0.3
			C170.9,69.2,171,69.1,171.1,69z"/>
		<path class="st3" d="M185.7,68.9c0.3-0.2,0.5,0.3,0.2,0.3C185.6,69.2,185.6,69.1,185.7,68.9z"/>
		<path class="st3" d="M316.7,68.9c0.3,0,0.6,0.1,0.8,0.1c-0.2,0.1-0.4,0.2-0.6,0.3C316.9,69.2,316.8,69,316.7,68.9z"/>
		<path class="st3" d="M217.3,69.1c0.1,0.3,0.2,0.5,0.3,0.8c-0.2,0-0.4,0-0.6-0.1c0.1-0.1,0.2-0.1,0.2-0.2
			C217.3,69.4,217.3,69.3,217.3,69.1z"/>
		<path class="st3" d="M232.9,81.1c-0.1-0.5-0.1-1.1-0.3-1.6c-0.3-0.5-0.6-1-1-1.5c-0.7-0.6-1.7-0.8-2.4-1.4c-1-0.9-2.2-0.9-3.4-1.2
			c-1.5-0.3-2.9-0.5-4.4-0.3c-1.7,0.1-3.4,0-5.1,0.1c-0.7,0-1.3,0.2-2,0.5c-0.1,0.4-0.3,0.8-0.4,1.3c0.3,2.2-0.2,4.3-0.2,6.6
			c0.1,1.6-0.2,3.2,0,4.7c0.1,0.8-0.1,1.5,0,2.3c0,0.8,0,1.6,0,2.4c0.2,2.4,0,4.8,0.1,7.2c0.1,2-0.1,4,0.1,6.1
			c-0.1,0.9-0.2,1.7-0.1,2.5c0.4,0.3,0.8,0.5,1.3,0.5c1.4-0.1,3.3,0.3,4.7-0.1c0.4-0.4,0.7-1.1,0.7-1.7c0-1.3-0.2-2.7-0.1-4
			c0.1-0.9-0.1-1.8-0.1-2.6c0.1-0.7,0.6-0.9,1.1-1.2c1-0.5,2-0.9,3-1.5c1.3-0.6,2.6-1.2,3.9-1.8c0.5-0.3,1-0.6,1.5-1
			c0.5-0.5,0.9-0.9,1.2-1.5c0.4-0.9,1-1.6,1.2-2.6c0.3-1.4,0.6-2.8,0.7-4.2C233.3,85.2,233.2,83.1,232.9,81.1z M227.1,84.9
			c-0.1,1.2,0.1,2.3-0.1,3.5c-0.2,1.1-0.2,2.4-0.9,3.2c-0.4,0.5-0.9,1.2-1.5,1.5c-0.9,0.5-1.9,0.9-2.9,1.3c-0.4,0.2-0.8,0-1.2-0.1
			c0.1-1.2,0-2.3,0-3.4c-0.1-1.2,0.2-2.3-0.1-3.5c-0.1-2.2,0-4.4,0-6.6c-0.1-0.4,0.3-0.6,0.6-0.7c1.6-0.1,3-0.2,4.5,0.2
			c0.6,0.2,1,0.7,1.2,1.2C227,82.6,227.2,83.8,227.1,84.9z"/>
		<path class="st3" d="M174.1,84.8c-0.2,2.2-0.4,4.4-0.3,6.6c0.1,1-0.2,2-0.2,3c0.1,2-0.2,4.3,0.2,6.3c0.2,0.7,0.2,1.5,0.5,2.1
			c0.4,0.9,1.3,1.5,2.2,1.9c1.1,0.2,2.4,0.1,3.5-0.2c0.8-0.5,1.4-1.5,1.3-2.5c-0.2-1.4,0-2.8,0-4.2c0.2-0.6,1.1-1.1,1.8-1
			c0.8,0,1.5-0.2,2.4,0.1c0.7,0.2,1.1,0.7,1.4,1.3c0.3,1.1,0.2,2.1,0.2,3.2c0,0.7-0.4,1.4-0.4,2.1c0,0.6-0.1,1.2-0.3,1.7
			c-0.4,0.9-0.8,1.8-1.6,2.4c-1.2,0.8-2.6,1.4-3.9,1.8c-0.9,0.3-1.7,0.3-2.6,0.4c-0.7,0.1-1.4-0.1-2.1,0c-1.4,0.2-2.9-0.6-4.2-1.1
			c-1.2-0.8-2.2-2.2-3-3.4c-0.4-0.5-0.5-1.1-0.7-1.8c-0.4-1-0.3-2.1-0.6-3.2c-0.2-1.6-0.1-3.3,0-4.9c-0.1-1.3,0.1-2.6,0-3.8
			c0-0.6-0.2-1.2-0.1-1.7c0.1-1.2,0-2.3,0.1-3.5c0.2-0.6,0.3-1.3,0.4-1.9c0.1-1.5,0.5-3,0.8-4.4c0.2-0.9,0.7-1.4,1.2-2.1
			c0.2-0.3,0.5-0.7,0.8-1c0.5-0.4,1-0.6,1.6-0.9c1.3-0.6,2.9-0.6,4.3-0.8c0.7-0.1,1.5-0.1,2.2-0.1c0.8,0,1.5,0.3,2.3,0.4
			c0.7,0.1,1.3,0.2,1.9,0.4c1.1,0.4,1.9,1.2,2.5,2.2c0.3,1,0.6,2,0.9,3c0.3,0.8,0.4,1.6,0.5,2.4c0.1,1,0.2,1.9,0.1,2.9
			c-0.2,0.7-0.8,0.8-1.4,0.9c-0.7,0.1-1.5,0.1-2.3,0c-0.9-0.1-1.6-0.9-1.7-1.8c-0.1-0.9-0.2-1.9-0.5-2.8c-0.3-0.7-0.8-1.3-1.3-1.8
			c-0.5-0.4-1.1-0.6-1.7-0.7c-1-0.1-2.1,0-2.8,0.7C174.5,82,174.3,83.3,174.1,84.8z"/>
		<path class="st3" d="M242.8,108.9c-0.1,0.3-0.3,0.4-0.6,0.5c-0.7,0.2-1.5,0-2.3,0.1c-1.2,0.1-2.3-0.1-3.5-0.1
			c-0.2-0.7-0.3-1.4-0.2-2.2c0-0.9-0.2-1.6,0-2.5c0.2-0.7,0.1-1.4,0.2-2c0.1-0.9,0-1.9,0.2-2.8c0-0.9-0.3-1.7-0.3-2.6
			c0-2.5-0.1-5-0.1-7.5c-0.1-1.2,0-2.4-0.2-3.7c-0.1-0.4-0.1-0.8,0-1.2c0.1-1,0-2,0.1-3c0.1-0.6,0.1-1.3,0.1-1.9
			c0.1-1.2-0.2-2.6,0-3.8c0.1-0.5,0.6-0.7,1-0.9c0.6-0.2,1.4,0.1,1.9,0c1-0.1,2-0.2,2.9-0.1c0.5,0.2,0.8,0.8,0.8,1.3
			c0,0.8,0.1,1.7-0.1,2.4c-0.3,1.1,0,2.2-0.2,3.3c-0.1,0.8-0.2,1.7,0,2.4c0.2,0.8,0,1.6,0,2.5c0,1,0.1,2,0,3
			c-0.1,1.1-0.1,2.2,0.1,3.3c0.2,0.8-0.1,1.5,0,2.3c0.1,1.6-0.1,3.3,0.1,4.9c0,1.5,0,2.9,0.1,4.4
			C242.9,106.3,243.1,107.7,242.8,108.9z"/>
		<path class="st3" d="M306.7,109.3c-0.7,0.3-1.4,0.1-2.2,0.2c-1.7,0.3-3.2,0-4.9,0.1c-1.3,0-2.5,0.3-3.8,0.1
			c-1.4-0.1-2.7,0.2-4.1,0c-0.7-0.1-1.4-0.1-2.1,0c-0.3-2.4-0.3-5-0.2-7.4c0-0.6-0.1-1.2-0.1-1.7c0-0.7,0.2-1.3,0.1-1.9
			c-0.1-1.1-0.2-2.2,0-3.3c0.1-0.6,0-1.2,0-1.8c0-1.3,0.1-2.7,0.1-4c0.1-1.3,0.2-2.5,0.1-3.9c-0.2-1.3-0.1-2.6-0.1-3.8
			c0.1-0.9,0.1-1.8,0-2.8c-0.1-1.1,0-2.3,0.1-3.4c0.4-0.3,1-0.3,1.4-0.3c1.6,0,3.2-0.3,4.8,0.2c0.1,1.4,0.3,2.9,0.1,4.4
			c-0.1,0.8,0,1.5-0.1,2.3c-0.2,1.7-0.1,3.4,0,5.1c0,2.1,0,4.2,0,6.3c-0.1,2,0,4-0.1,5.9c-0.1,1.7-0.3,3.7,0.3,5.3
			c1.2,0.1,2.5-0.2,3.7-0.2c1.2-0.2,2.4,0.2,3.7,0.1c1-0.1,2,0,3.1,0.1c0.1,0.4,0.1,0.7,0.1,1.1C306.6,107,306.8,108.1,306.7,109.3z
			"/>
		<path class="st3" d="M265.4,80.2c-1.6,0-3.2,0-4.8,0c-0.7,0.1-1.5,0-2,0.6c-0.1,0.5,0,0.9,0,1.4c-0.1,2.6,0,5.2,0,7.9
			c-0.2,1.6,0.1,3.2,0,4.9c0,0.8,0,1.6,0.1,2.4c0.1,0.6-0.1,1.2,0,1.7c0.2,1.5,0.1,3,0.2,4.5c0.1,0.9,0.2,1.7,0.1,2.6
			c-0.1,1,0.1,2-0.2,2.9c-0.1,0.2-0.3,0.5-0.6,0.5c-1.7,0-3.4,0-5.1,0c-0.4,0-0.5-0.3-0.7-0.5c0-0.9,0-1.8,0-2.7
			c-0.1-1.3,0.2-2.5,0.2-3.8c0-1.8,0.1-3.5-0.1-5.2c-0.1-0.9,0.1-1.7,0-2.6c-0.2-1.4-0.1-2.8-0.1-4.2c-0.1-2-0.2-4,0-5.9
			c0-0.8-0.1-1.5-0.1-2.3c0.1-0.7,0.1-1.4,0-2.1c-1.3,0-2.5,0-3.8,0.1c-0.9,0-1.7,0.1-2.5-0.2c-0.1-0.7-0.3-1.5-0.4-2.2
			c0-0.8,0.1-1.6,0.2-2.4c0.3-0.1,0.6-0.2,1-0.2c2.3-0.1,4.7,0.2,7,0c1.3,0.1,2.6,0,3.8,0c0.9,0,1.9,0,2.8,0
			c1.6,0.1,3.2-0.1,4.9,0.1c0.5,0.4,0.4,0.9,0.4,1.4C265.6,78.1,265.8,79.1,265.4,80.2z"/>
		<path class="st3" d="M285.9,105.9c-0.2-1.4-0.6-2.8-0.9-4.2c0-0.9-0.3-1.8-0.6-2.6c-0.3-0.9-0.4-1.8-0.6-2.7
			c-0.2-0.9-0.5-1.8-0.6-2.7c-0.1-0.6-0.2-1.2-0.4-1.8c-0.3-1-0.3-2-0.6-3c-0.2-0.7-0.4-1.3-0.5-1.9c-0.2-1.2-0.5-2.4-0.7-3.7
			c-0.1-0.8-0.4-1.5-0.6-2.3c-0.2-0.9-0.1-1.8-0.4-2.7c-0.2-0.7-0.4-1.4-0.7-2c-0.2-0.4-0.6-0.5-1-0.5c-0.9,0-1.9-0.4-2.8-0.3
			c-0.9,0-1.9,0-2.8,0.1c-0.5,0.1-1.1,0-1.5,0.3c-1,1.2-1.3,2.5-1.8,3.9c-0.1,0.9-0.2,1.9-0.3,2.8c0,1.9-0.7,3.5-0.8,5.4
			c-0.1,1.3-0.6,2.5-0.7,3.9c-0.2,1.3-0.4,2.8-0.9,4c-0.5,1.2-0.3,2.6-0.7,3.8c-0.2,0.5-0.5,0.9-0.5,1.4c-0.1,1.1-0.6,2.2-1,3.3
			c-0.2,0.7-0.2,1.3-0.3,2c-0.2,1.1-0.4,2.2-0.4,3.3c1.7,0.2,3.6,0.3,5.3,0c0.3-0.1,0.7-0.2,0.8-0.6c0.1-0.7,0.2-1.5,0.3-2.2
			c0.1-0.9,0.1-1.9,0.5-2.7c0.2-0.5,0.6-0.4,1.1-0.5c1.6,0,3.3-0.1,4.9,0c0.7,0,1.3-0.1,2,0.1c0.4,1.1,0.5,2.2,0.6,3.4
			c0.3,0.8,0.4,1.7,0.6,2.5c0.9,0.1,1.8,0.2,2.7,0.1c1.2-0.2,2.5,0,3.7-0.1C286.6,108.5,286.2,107.1,285.9,105.9z M275.7,98.7
			c-0.5-0.1-1.1-0.1-1.6-0.1c-0.8-0.2-1.6-0.1-2.4-0.3c0.1-0.4,0.2-0.8,0.3-1.2c0.4-1,0.2-2,0.3-3c0.1-0.5,0.2-1,0.3-1.6
			c0.3-1.8,0.3-3.8,0.9-5.5c0.2-0.8,0.3-1.7,0.6-2.6c0.3-0.8,0.4-1.7,0.7-2.5c0.5,0.9,0.4,1.7,0.6,2.7c0.1,0.8,0.3,1.5,0.5,2.3
			c0.2,0.8,0.3,1.6,0.5,2.3c0.4,2.4,0.5,4.8,1,7.1c0.2,0.8,0.2,1.6,0.2,2.4C277,98.9,276.4,98.8,275.7,98.7z"/>
		<path class="st3" d="M210.5,105.7c-0.2-1.4-0.6-2.8-0.8-4.2c0-1.4-0.7-2.5-0.9-3.8c-0.2-1.1-0.4-2.1-0.7-3.2
			c-0.2-0.9-0.3-1.8-0.6-2.7c-0.3-0.9-0.4-1.8-0.6-2.7c-0.2-0.8-0.5-1.6-0.6-2.5c-0.1-1-0.4-2-0.6-3.1c-0.2-1.3-0.8-2.5-0.9-3.8
			c0-0.9-0.3-1.8-0.6-2.7c-0.2-0.5-0.4-1.1-1-1.2c-0.8-0.1-1.6-0.2-2.4-0.3c-0.9-0.1-1.9,0-2.8,0c-0.7,0.1-1.5,0.1-2.2,0.3
			c-0.7,0.9-1.2,1.9-1.5,3.1c-0.4,1.1-0.3,2.2-0.6,3.3c-0.2,0.8,0,1.5-0.2,2.2c-0.2,0.9-0.4,1.7-0.5,2.6c-0.2,0.8-0.1,1.7-0.4,2.6
			c-0.6,2.1-0.6,4.6-1.5,6.6c-0.4,1.1-0.2,2.4-0.6,3.5c-0.2,0.5-0.4,0.9-0.5,1.4c-0.1,1.4-0.8,2.5-1.1,3.8c-0.1,1.6-0.7,3.2-0.6,4.8
			c1.8,0.2,3.7,0.3,5.4-0.1c0.2-0.1,0.4-0.3,0.6-0.4c0.1-1,0.3-2,0.4-2.9c0.1-0.7,0.1-1.4,0.3-2c0.1-0.3,0.3-0.5,0.6-0.6
			c1.1-0.1,2.3-0.1,3.4-0.1c1,0,2,0.1,3,0c0.3,0,0.6,0,0.9,0.1c0.4,1.1,0.5,2.1,0.6,3.2c0.2,0.9,0.4,1.8,0.7,2.7
			c0.9,0.1,1.8,0.2,2.7,0.1c1.2-0.1,2.5,0,3.7-0.1C211.3,108.5,210.7,106.9,210.5,105.7z M202.3,98.8c-1.5,0.1-3.1-0.2-4.6-0.3
			c-0.5,0-0.9,0-1.4-0.2c0.1-0.5,0.2-0.9,0.4-1.4c0.4-1.1,0.1-2.2,0.4-3.4c0.5-1.9,0.4-3.9,0.9-5.8c0.4-1.1,0.4-2.3,0.8-3.4
			c0.2-0.7,0.3-1.5,0.6-2.2c0.1,0,0.2,0,0.2-0.1c0.3,1.2,0.3,2.5,0.6,3.7c0.2,0.8,0.4,1.7,0.6,2.5c0.1,0.5,0.3,1,0.4,1.5
			c0.1,1.5,0.3,2.9,0.5,4.4C201.9,95.8,202.4,97.2,202.3,98.8z"/>
		<path class="st3" d="M224.6,76.1c0.3,0.1,0.3,0.3,0.3,0.6c-0.1,0-0.3,0-0.4-0.1C224.3,76.5,224.4,76.3,224.6,76.1z"/>
		<path class="st3" d="M256.7,76.9c0.2,0,0.4-0.1,0.6-0.1c0,0.2-0.1,0.4-0.1,0.6c-0.2,0.1-0.3,0.1-0.5,0.2
			C256.7,77.3,256.7,77.1,256.7,76.9z"/>
		<path class="st3" d="M174.1,77.1c0.3-0.2,0.6,0.3,0.2,0.3C174.1,77.3,174,77.2,174.1,77.1z"/>
		<path class="st3" d="M216.1,77.3c0.3,0,0.6,0,0.9,0c0.1,0.2,0.2,0.4,0.3,0.5c-0.3,0.1-0.6,0.1-0.9,0.2
			C216.3,77.8,216.2,77.6,216.1,77.3z"/>
		<path class="st3" d="M239.4,77.4c0.3,0,0.6,0,0.9,0c0,0.1,0,0.2,0,0.3c-0.3,0.1-0.6,0.1-0.9,0.2c-0.1-0.1-0.2-0.2-0.3-0.3
			C239.2,77.5,239.3,77.5,239.4,77.4z"/>
		<path class="st3" d="M200.6,77.4c0,0.2,0.1,0.4,0.1,0.7c-0.1,0-0.3,0-0.4,0C200.4,77.9,200.5,77.6,200.6,77.4z"/>
		<path class="st3" d="M253.7,77.6c0.2,0,0.4-0.1,0.5-0.1c0.1,0.4,0.2,0.8,0.2,1.2c-0.1,0-0.2,0-0.3,0C254,78.3,253.8,78,253.7,77.6
			z"/>
		<path class="st3" d="M255.8,77.5c0.3-0.1,0.4,0.2,0.3,0.4C255.9,78,255.6,77.7,255.8,77.5z"/>
		<path class="st3" d="M275.8,77.5L275.8,77.5c0.1,0.2,0.2,0.4,0.3,0.6c-0.1,0-0.3,0-0.4,0C275.8,77.9,275.8,77.7,275.8,77.5z"/>
		<path class="st3" d="M174,77.9c0,0.1,0.1,0.2,0.1,0.4c-0.2,0-0.3,0-0.5,0C173.7,78,173.7,77.9,174,77.9z"/>
		<path class="st3" d="M254.8,77.9c0.2,0,0.4-0.1,0.6-0.1c-0.1,0.2-0.1,0.3-0.2,0.5C255,78.2,254.9,78.1,254.8,77.9z"/>
		<path class="st3" d="M201.6,78.5c0.1,0.2,0.3,0.4,0.4,0.7c-0.1,0-0.3,0-0.4,0.1c-0.1-0.1-0.2-0.2-0.3-0.3
			C201.3,78.9,201.5,78.7,201.6,78.5z"/>
		<path class="st3" d="M238.3,78.3c0.4,0.1,0.8,0.3,1.3,0.5c-0.2,0.2-0.4,0.4-0.6,0.6c0.2,0.1,0.4,0.2,0.5,0.3
			c-0.1,0.3-0.2,0.7-0.3,1c-0.3-0.1-0.6-0.2-1-0.3c0.1,0.3,0.1,0.7,0.2,1c-0.1,0-0.2,0-0.4,0c0-0.3-0.1-0.5-0.1-0.8
			c0.1-0.1,0.1-0.1,0.2-0.2c0.2,0,0.4,0,0.6,0c0-0.6-0.1-0.7-0.5-1.1C238.1,78.9,238.2,78.6,238.3,78.3z"/>
		<path class="st3" d="M240,78.5c0.3-0.2,0.5,0.3,0.1,0.4C239.9,78.8,239.9,78.7,240,78.5z"/>
		<path class="st3" d="M276.9,78.6L276.9,78.6l0.1,0c0.1,0.3,0.2,0.5,0.3,0.8c-0.2,0-0.4-0.1-0.6-0.1
			C276.7,79,276.8,78.8,276.9,78.6z"/>
		<path class="st3" d="M292.2,78.5c0,0.3,0,0.7,0,1c0-0.3,0-0.5,0-0.8c-0.2,0-0.3,0.1-0.5,0.1C291.8,78.7,292,78.6,292.2,78.5z"/>
		<path class="st3" d="M172.9,78.7c0,0.2,0,0.3,0,0.5c-0.2,0.1-0.5,0.2-0.7,0.3c0-0.2,0.1-0.5,0.1-0.7
			C172.5,78.8,172.7,78.7,172.9,78.7z"/>
		<path class="st3" d="M217.9,78.7c0.2,0.1,0.4,0.2,0.6,0.3c-0.2,0-0.5,0-0.7,0.1C217.8,79,217.9,78.9,217.9,78.7z"/>
		<path class="st3" d="M255.1,78.8c0.2,0,0.5,0,0.7,0c0,0.1-0.1,0.2-0.1,0.4C255.5,79,255.3,78.9,255.1,78.8z"/>
		<path class="st3" d="M80.2,86.3c0,0.8-0.4,1.5-1.1,1.9c-0.5,0.3-1.1,0.4-1.7,0.4c-1.7,0-3.4,0-5.1,0c-0.2,0-0.4,0-0.5,0.1
			c-0.1,0-0.1,0-0.2,0.1c-0.4,0.2-0.6,0.5-0.8,0.9c-0.2,0.5-0.1,1.2-0.4,1.7c-0.2,0.4-0.5,0.8-0.7,1.1c-0.6,0.2-1.3,0.3-1.9,0.3
			c-3.1,0-6.2,0-9.2,0c-0.8,0-1.6-0.1-2.1-0.8c-0.5-0.6-0.6-1.3-0.7-2.1c-0.1-0.6-0.5-1.2-1.1-1.3c-0.4-0.1-0.9-0.1-1.4-0.1
			c-1.1-2.8-1.9-5.8-2.3-8.7c0-0.2,0.1-0.3,0.1-0.5c4.1,0,8.3,0,12.4,0c1.2,0,2.4,0,3.6-0.1c0.1-0.2,0.1-0.3,0.2-0.5
			c0,0.2,0,0.3,0,0.5c1.9,0,3.7,0,5.6,0c0.9,0,1.8,0.1,2.5,0.9c0.5,0.6,0.5,1.3,0.6,2.1c0,0.6,0.4,1.2,0.9,1.4
			c0.7,0.3,1.5,0.2,2.2,0.5C79.7,84.7,80.3,85.5,80.2,86.3z"/>
		<path class="st3" d="M202.4,78.9c0.3,0,0.5,0,0.8,0c0,0.1-0.1,0.2-0.1,0.3c-0.1,0-0.3,0-0.4,0C202.6,79.1,202.5,79,202.4,78.9z"/>
		<path class="st3" d="M216.6,78.8c0,0.2,0,0.5,0,0.7c-0.2-0.1-0.4-0.2-0.6-0.4C216.2,79.1,216.4,78.9,216.6,78.8z"/>
		<path class="st3" d="M277.8,78.9c0.3,0,0.6,0.1,0.9,0.1c-0.2,0.1-0.4,0.3-0.6,0.2C278,79.1,277.9,79,277.8,78.9z"/>
		<path class="st3" d="M291.7,78.8c0.2,0,0.3-0.1,0.5-0.1c0,0.3,0,0.5,0,0.8c-0.1,0.2-0.2,0.4-0.2,0.5c-0.2,0-0.4-0.1-0.6-0.1
			c0-0.3,0-0.5,0-0.8C291.4,79,291.5,78.9,291.7,78.8z"/>
		<path class="st3" d="M171.4,79.2c0.2,0.1,0.2,0.3,0.3,0.5c-0.3,0-0.7,0.1-1,0.1C170.9,79.6,171.1,79.4,171.4,79.2z"/>
		<path class="st3" d="M291.3,79.1c0,0.3,0,0.5,0,0.8c-0.2,0-0.3-0.1-0.4-0.2C290.8,79.4,291.1,79.3,291.3,79.1z"/>
		<path class="st3" d="M137.9,80.1c-0.5,2.9-1.2,5.7-2.3,8.5c-2.5,0-5,0-7.5,0c-0.6,0-1.2,0.1-1.8,0.2c-2.3-0.1-4.5,0-6.8,0
			c-0.6-0.6-1.3-1.1-1.4-2c-0.3-1.4,1-2.8,2.4-2.7c1.2,0,2.3,0.1,3.5,0c0.7-0.1,1.3-0.3,1.7-0.9c0.6-0.7,0.4-1.9,1-2.7
			c0.6-0.6,1.3-1,2.1-1c3,0,6,0,9,0C137.8,79.6,137.8,79.9,137.9,80.1z"/>
		<path class="st3" d="M195.5,79.5c0.4,0.1,0.5,0.4,0.7,0.8c-0.3,0-0.5,0-0.8,0C195.5,80.1,195.5,79.8,195.5,79.5z"/>
		<path class="st3" d="M239.9,79.5c0.5,0.1,0.5,0.5,0.7,0.9c-0.2,0-0.3,0.1-0.5,0.1C240.1,80.2,240,79.9,239.9,79.5z"/>
		<path class="st3" d="M270.9,79.5c0.4,0.1,0.5,0.5,0.7,0.8c-0.3,0-0.5,0-0.8,0C270.9,80.1,270.9,79.8,270.9,79.5z"/>
		<path class="st3" d="M172.9,79.8c0.1,0.2,0.2,0.3,0.2,0.5c-0.6,0.2-1.3,0.2-1.9,0.6c0-0.2-0.1-0.4-0.1-0.5
			C171.8,80.3,172.4,80.2,172.9,79.8z"/>
		<path class="st3" d="M293.3,79.9c0,0.3,0,0.6-0.1,0.9c-0.1,0-0.2,0-0.3,0c-0.1-0.1-0.1-0.1-0.2-0.2
			C292.9,80.4,293.1,80.1,293.3,79.9z"/>
		<path class="st3" d="M201.7,80.1c0.2,0,0.4,0.1,0.7,0.1c-0.4,0.1-0.5,0.3-0.7,0.6c-0.2-0.1-0.3-0.1-0.5-0.2
			C201.4,80.4,201.6,80.3,201.7,80.1z"/>
		<path class="st3" d="M277.1,80.1c0.2,0,0.5,0.1,0.7,0.1c-0.4,0.1-0.5,0.2-0.7,0.6c-0.2-0.1-0.3-0.2-0.5-0.2
			C276.8,80.4,276.9,80.3,277.1,80.1z"/>
		<path class="st3" d="M184.4,80.3L184.4,80.3c0.1,0.1,0.1,0.3,0.1,0.5c-0.1,0-0.3,0-0.4,0C184.2,80.7,184.3,80.5,184.4,80.3z"/>
		<path class="st3" d="M203.4,80.5c0.1,0.2,0.3,0.4,0.4,0.6c-0.1,0.1-0.3,0.1-0.4,0.2c0,0.2,0,0.5,0,0.7c-0.2-0.2-0.5-0.3-0.7-0.6
			c0-0.3,0.1-0.5,0.3-0.7C203.1,80.6,203.1,80.4,203.4,80.5z"/>
		<path class="st3" d="M278.5,80.4c0.3,0,0.4,0.4,0.6,0.6c-0.4,0.3-0.3,0.5-0.4,1c-0.2-0.2-0.5-0.3-0.7-0.5
			C278.1,81.1,278.2,80.7,278.5,80.4z"/>
		<path class="st3" d="M170.9,80.6c-0.1,0.2-0.2,0.5-0.2,0.7c0.5,0,0.9,0.1,1.3,0.4c0,0.2,0,0.4,0,0.5c-0.5-0.2-0.9-0.3-1.4-0.4
			c-0.1-0.3-0.2-0.5-0.3-0.8C170.4,80.8,170.5,80.6,170.9,80.6z"/>
		<path class="st3" d="M255.1,80.6c0.3-0.1,0.4,0.2,0.5,0.4c-0.2,0-0.4,0-0.7,0C255,80.9,255,80.7,255.1,80.6z"/>
		<path class="st3" d="M172.3,81c0.2,0,0.4,0.1,0.7,0.1c-0.2,0.2-0.4,0.4-0.7,0.6C172.3,81.5,172.2,81.2,172.3,81z"/>
		<path class="st3" d="M239.6,81.2c0.3,0.1,0.6,0.2,0.8,0.4c-0.4,0-0.8,0-1.2,0C239.4,81.4,239.5,81.3,239.6,81.2z"/>
		<path class="st3" d="M196.3,81.3c-0.3,0.4-0.4,0.5-0.9,0.6C195.7,81.5,195.8,81.4,196.3,81.3z"/>
		<path class="st3" d="M271.6,81.3c-0.1,0.2-0.2,0.3-0.3,0.5c-0.2,0-0.4,0.1-0.5,0.1C271.1,81.4,271.1,81.4,271.6,81.3z"/>
		<path class="st3" d="M183.4,81.8c0,0.2,0.1,0.3,0.1,0.5c-0.2,0-0.3,0-0.5,0c0.1-0.1,0.1-0.3,0.2-0.4
			C183.3,81.9,183.3,81.9,183.4,81.8z"/>
		<path class="st3" d="M202.5,81.9c0.2,0.1,0.5,0.3,0.7,0.5c0,0.2,0.1,0.3,0.1,0.5c-0.2,0.6,0.2,1,0.3,1.5c-0.2,0-0.5,0-0.7-0.1
			c-0.1-0.3-0.3-0.6-0.3-0.9c0-0.2,0.1-0.5,0.1-0.7c-0.1-0.2-0.2-0.3-0.3-0.5c-0.2,0.1-0.3,0.3-0.5,0.4c-0.2,0-0.3,0-0.5,0
			c-0.1-0.2-0.1-0.5-0.2-0.7C201.6,81.9,202.1,81.8,202.5,81.9z"/>
		<path class="st3" d="M239.7,81.9c-0.1,0.1-0.2,0.2-0.3,0.3c-0.1,0-0.3,0-0.4,0C239.2,81.8,239.4,82,239.7,81.9z"/>
		<path class="st3" d="M278.3,82.2c0.5,0.3,0.3,0.8,0.3,1.3c0.1,0.1,0.2,0.3,0.3,0.4c0,0.2,0,0.4,0,0.5c-0.2,0-0.4-0.1-0.6-0.2
			c-0.2-0.3-0.3-0.5-0.4-0.8c0.1-0.3,0.1-0.5,0.2-0.8c-0.1-0.2-0.3-0.3-0.4-0.5c-0.1,0.2-0.2,0.3-0.3,0.5c-0.2,0-0.4,0-0.5,0
			c0-0.2-0.1-0.5-0.1-0.7C277.2,81.9,277.8,81.7,278.3,82.2z"/>
		<path class="st3" d="M172.6,82c0.1,0.3,0.1,0.5,0.2,0.8c-0.6,0.2-0.9,0.5-1.4,0.9c-0.3-0.1-0.5-0.1-0.5-0.5c0.3-0.2,0.7-0.4,1-0.5
			c0.1-0.2,0.2-0.4,0.3-0.6C172.4,82.1,172.5,82,172.6,82z"/>
		<path class="st3" d="M230,82c0.3,0.1,0.5,0.2,0.7,0.3c0,0.2,0,0.3,0,0.5c-0.3,0-0.5,0-0.8-0.1c-0.1,0.1-0.3,0.3-0.4,0.4
			c-0.1,0-0.3,0-0.4-0.1C229.3,82.6,229.6,82.3,230,82z"/>
		<path class="st3" d="M238.5,82.2c0.3,0.1,0.6,0.3,0.8,0.4c0,0.4,0.1,0.8,0.2,1.2c-0.2,0-0.4,0.1-0.6,0.1c-0.1-0.3-0.1-0.6-0.2-0.9
			c-0.2-0.1-0.4-0.2-0.5-0.3C238.3,82.5,238.4,82.4,238.5,82.2z"/>
		<path class="st3" d="M240.5,82.3c0,0.1,0,0.3,0,0.4c-0.1,0-0.3,0-0.4,0C240.2,82.4,240.1,82.4,240.5,82.3z"/>
		<path class="st3" d="M170.2,82.9c0.2,0,0.3-0.1,0.5-0.1c-0.1,0.4-0.2,0.7-0.4,1.1c0.2,0.3,0.5,0.6,0.6,1c-0.7-0.2-0.7-0.8-0.9-1.4
			C170.1,83.3,170.2,83.1,170.2,82.9z"/>
		<path class="st3" d="M204.2,82.9c0.1,0.4,0.2,0.7,0.3,1.1c-0.2-0.2-0.4-0.3-0.5-0.5C203.9,83.2,204.1,83,204.2,82.9z"/>
		<path class="st3" d="M279.5,82.9L279.5,82.9c0.1,0.3,0.2,0.6,0.3,0.9c-0.1,0-0.2,0-0.3,0c-0.1-0.1-0.2-0.3-0.3-0.4
			C279.3,83.2,279.4,83.1,279.5,82.9z"/>
		<path class="st3" d="M292.7,82.8c0,0.3,0,0.5,0,0.8C292.5,83.2,292.5,83.1,292.7,82.8z"/>
		<path class="st3" d="M201.7,83.6c0.2,0.2,0.3,0.3,0.5,0.5c0,0.1,0,0.3,0,0.4c-0.2,0-0.3,0-0.5,0C201.6,84.2,201.6,83.9,201.7,83.6
			z"/>
		<path class="st3" d="M277,83.6L277,83.6c0.2,0.2,0.3,0.4,0.5,0.5c0,0.1,0,0.3,0,0.4c-0.2,0-0.3,0-0.5,0
			C277,84.2,277,83.9,277,83.6z"/>
		<path class="st3" d="M172.7,83.8c-0.1,0.2-0.2,0.4-0.3,0.6c-0.1,0.3-0.6,0.1-0.9,0.2c0-0.2,0.1-0.3,0.1-0.5
			C172,83.9,172.3,83.8,172.7,83.8z"/>
		<path class="st3" d="M230.4,83.8l0,0.3c0.1,0.1,0.2,0.2,0.3,0.2c0.1-0.1,0.3-0.2,0.4-0.4c0,0.2,0,0.3,0,0.5
			c-0.1,0.1-0.2,0.1-0.3,0.2c-0.2-0.1-0.4-0.2-0.5-0.3c-0.4,0.3-0.7,0.2-1.2,0.3c0-0.2,0-0.3,0-0.5C229.5,84,230,83.9,230.4,83.8z"
			/>
		<path class="st3" d="M237.7,83.7c0.2,0.3,0.4,0.7,0.4,1.1C237.6,84.6,237.8,84.2,237.7,83.7z"/>
		<path class="st3" d="M240,84c0.2,0.1,0.5,0.1,0.7,0.2c-0.3,0.5-0.4,0.7-0.2,1.4c-0.2-0.1-0.5-0.4-0.7-0.2c0.1,0.4,0.2,0.8,0.4,1.1
			c-0.2,0-0.4,0-0.5,0c-0.1-0.1-0.2-0.1-0.3-0.2c0.1-0.2,0.1-0.5,0.2-0.7c-0.2-0.1-0.3-0.2-0.5-0.3c0-0.2-0.1-0.3-0.1-0.5
			c0.3,0.1,0.7,0.3,1.1,0.3C240,84.8,240,84.4,240,84z"/>
		<path class="st3" d="M255.8,84.2L255.8,84.2c0.1,0.1,0.2,0.3,0.3,0.4c-0.1,0.2-0.1,0.4-0.2,0.6c-0.2-0.1-0.4-0.1-0.6-0.2
			C255.3,84.6,255.5,84.4,255.8,84.2z"/>
		<path class="st3" d="M292.2,84.1L292.2,84.1l-0.1,0.4c0.2,0.1,0.4,0.1,0.5,0.2c0,0.1,0,0.2,0,0.3c-0.3,0.1-0.7,0.1-1,0.2
			C291.8,84.8,292,84.5,292.2,84.1z"/>
		<path class="st3" d="M204.4,84.1c0.2,0.1,0.4,0.2,0.5,0.3c-0.4,0.6-0.8,0.9-0.7,1.7c-0.2,0-0.5,0-0.7,0c-0.1-0.3-0.2-0.5-0.3-0.8
			c0.3-0.1,0.6-0.2,0.8-0.4C204.3,84.7,204.3,84.3,204.4,84.1z"/>
		<path class="st3" d="M279.7,84.1c0.2,0.1,0.4,0.2,0.6,0.3c-0.2,0.3-0.4,0.7-0.7,1c0,0.2,0,0.5,0,0.7c-0.2,0-0.5,0-0.7,0
			c-0.1-0.3-0.2-0.5-0.3-0.8c0.3-0.1,0.5-0.2,0.8-0.2C279.6,84.7,279.7,84.4,279.7,84.1z"/>
		<path class="st3" d="M169.3,84.8c0.3,0,0.5,0,0.8,0c-0.1,0.2-0.1,0.3-0.2,0.5c-0.2,0.1-0.4,0.1-0.6,0.1
			C169.3,85.2,169.3,85,169.3,84.8z"/>
		<path class="st3" d="M278,84.9c0.2,0.2,0.2,0.4,0.3,0.7c-0.1,0-0.3,0-0.4,0c-0.1-0.2-0.2-0.4-0.2-0.5C277.8,85,277.9,85,278,84.9z
			"/>
		<path class="st3" d="M202.3,85c0.1,0,0.3,0,0.4,0c0.1,0.2,0.2,0.3,0.3,0.5c-0.1,0.1-0.2,0.2-0.3,0.3c-0.1-0.1-0.1-0.2-0.2-0.3
			C202.5,85.3,202.4,85.2,202.3,85z"/>
		<path class="st3" d="M171.5,85.1c0.2,0,0.4,0.1,0.6,0.1c-0.2,0.2-0.5,0.4-0.7,0.6c0.1,0.2,0.1,0.5,0.2,0.7
			c-0.4,0.1-0.8,0.2-1.2,0.5c-0.3-0.2-0.5-0.5-0.8-0.8c0.4-0.1,0.7-0.2,1.1-0.2C170.9,85.7,171.2,85.4,171.5,85.1z"/>
		<path class="st3" d="M229.5,85.5c0.2,0.1,0.4,0.2,0.6,0.3c-0.1,0.1-0.2,0.2-0.3,0.3c-0.1-0.1-0.2-0.2-0.2-0.2
			C229.5,85.7,229.5,85.6,229.5,85.5z"/>
		<path class="st3" d="M238.8,86.1c0.1,0.1,0.1,0.3,0,0.4c-0.1,0-0.2,0-0.4,0C238.4,86.3,238.4,85.9,238.8,86.1z"/>
		<path class="st3" d="M292.1,86.3c0.2,0.2,0.3,0.5,0.5,0.7c-0.2,0.1-0.3,0.2-0.5,0.3C292.1,87,292.1,86.6,292.1,86.3z"/>
		<path class="st3" d="M202.8,86.6c0.1,0.2,0.2,0.4,0.3,0.6c0.2,0.1,0.4,0.2,0.6,0.3c-0.1,0.1-0.1,0.3-0.2,0.4
			c-0.3-0.3-0.7-0.5-1-0.8C202.6,87,202.7,86.8,202.8,86.6z"/>
		<path class="st3" d="M278.1,86.6L278.1,86.6c0.1,0.2,0.2,0.5,0.3,0.7c0.2,0.1,0.3,0.2,0.5,0.2c0,0.2,0,0.4,0,0.6
			c-0.4-0.3-0.7-0.5-1.1-0.8C277.9,87,278,86.8,278.1,86.6z"/>
		<path class="st3" d="M230.9,86.9c-0.3,0.4-0.6,0.7-1.1,1c0-0.3-0.1-0.6,0.1-0.8C230.1,86.9,230.6,87,230.9,86.9z"/>
		<path class="st3" d="M254.4,87c0.2,0,0.4-0.1,0.5-0.1c0.1,0.3,0.3,0.6,0.4,0.9c-0.1,0-0.2,0-0.3,0C254.8,87.6,254.6,87.3,254.4,87
			z"/>
		<path class="st3" d="M204.8,87.3L204.8,87.3c0.1,0.1,0.2,0.3,0.3,0.5c-0.2-0.1-0.4-0.1-0.6-0.2C204.6,87.5,204.7,87.4,204.8,87.3z
			"/>
		<path class="st3" d="M216.9,87.2c0.1,0.2,0.1,0.3,0.2,0.5c-0.1,0.1-0.2,0.3-0.2,0.4c-0.1,0-0.2,0-0.3,0
			C216.7,87.9,216.4,87.3,216.9,87.2z"/>
		<path class="st3" d="M280.2,87.3c0.1,0.2,0.2,0.3,0.3,0.5c-0.2-0.1-0.4-0.1-0.6-0.2C280,87.5,280.1,87.4,280.2,87.3z"/>
		<path class="st3" d="M171.7,87.9c-0.2,0.3-0.4,0.6-0.6,0.8c-0.3,0-0.5,0-0.8,0l0-0.4C170.8,87.9,171.1,87.7,171.7,87.9z"/>
		<path class="st3" d="M171.7,87.9c0.1,0,0.1,0.1,0.2,0.2c-0.3,0.4-0.8,1.1-1.4,0.8c-0.3-0.1-0.2-0.4-0.2-0.6l0,0.4
			c0.3,0,0.5,0,0.8,0C171.3,88.4,171.5,88.2,171.7,87.9z"/>
		<path class="st3" d="M169.2,88.3c0.4,0.5,0.6,1,0.9,1.6c-0.2,0-0.5,0-0.8,0c-0.1-0.4-0.2-0.8-0.3-1.1
			C169.1,88.6,169.1,88.5,169.2,88.3z"/>
		<path class="st3" d="M293,88.4c0.2,0.1,0.4,0.2,0.6,0.3c0.1,0.2,0.1,0.4,0.2,0.5c-0.2-0.1-0.4-0.2-0.6-0.3
			c-0.5,0.4-0.9,0.7-1.5,0.9c0-0.4,0-0.9,0-1.3C292.2,88.6,292.5,88.5,293,88.4z"/>
		<path class="st3" d="M229.7,89c0.3,0,0.3,0.2,0.4,0.5c-0.3,0.1-0.5,0.2-0.8,0.3C229.4,89.5,229.5,89.3,229.7,89z"/>
		<path class="st3" d="M255.6,89.2c0,0.2,0,0.3-0.1,0.5c-0.2,0-0.4,0-0.7,0c0-0.2,0-0.3,0.1-0.5C255.1,89.2,255.3,89.2,255.6,89.2z"
			/>
		<path class="st3" d="M256.8,89.2c-0.1,0.2-0.2,0.4-0.2,0.5c-0.2-0.1-0.4-0.2-0.6-0.3C256.1,89,256.4,89.2,256.8,89.2z"/>
		<path class="st3" d="M204.1,89.5c0.2,0.3,0.4,0.5,0.6,0.8c-0.3,0-0.5,0-0.8,0C204,90,204,89.8,204.1,89.5z"/>
		<path class="st3" d="M279.5,89.5c0.2,0.3,0.4,0.5,0.6,0.8c-0.3,0-0.5,0-0.8,0C279.3,90,279.4,89.7,279.5,89.5z"/>
		<path class="st3" d="M216.6,89.7c0.1,0.2,0.2,0.4,0.3,0.6c-0.1,0.1-0.1,0.2-0.2,0.2c-0.1,0-0.1,0.1-0.2,0.1
			C216.6,90.3,216.6,90,216.6,89.7z"/>
		<path class="st3" d="M292.8,89.9c0.3,0,0.5,0.2,0.8,0.3c0,0.1,0,0.3,0,0.4c-0.5,0-0.9,0-1.4,0c0-0.1,0-0.2,0-0.3
			C292.4,90.1,292.6,90,292.8,89.9z"/>
		<path class="st3" d="M238.6,90.3c0.2,0,0.5,0,0.7-0.1c-0.1,0.2-0.3,0.5-0.4,0.7c-0.1,0-0.2,0-0.3-0.1
			C238.6,90.7,238.6,90.5,238.6,90.3z"/>
		<path class="st3" d="M256.4,90.5c-0.5,0.1-1,0.2-1.5,0.2C255.3,90.4,255.8,90.4,256.4,90.5z"/>
		<path class="st3" d="M256.4,90.5l0.2,0.1c-0.5,0.3-0.9,0.4-1.5,0.4c0,0.2-0.1,0.3-0.1,0.5c-0.2-0.1-0.4-0.2-0.6-0.3
			c0-0.1,0-0.1-0.1-0.2c0.2-0.1,0.4-0.2,0.6-0.3C255.4,90.7,255.9,90.6,256.4,90.5z"/>
		<path class="st3" d="M291.4,90.6c0.1,0.2,0.1,0.4,0.2,0.7c-0.2-0.1-0.5-0.2-0.7-0.3C291,90.8,291.2,90.7,291.4,90.6z"/>
		<path class="st3" d="M205.5,91.2c0.3,0,0.5,0,0.8,0.1c0,0.1,0,0.3,0,0.4C206,91.5,205.8,91.4,205.5,91.2z"/>
		<path class="st3" d="M281.8,91.5c-0.4,0-0.6,0-0.9-0.3C281.4,91.2,281.5,91.2,281.8,91.5z"/>
		<path class="st3" d="M292.2,91.2c0.7-0.2,0.8,0.3,1.3,0.7c-0.4,0-0.9,0-1.3,0C292.2,91.6,292.2,91.4,292.2,91.2z"/>
		<path class="st3" d="M170.5,91.5c0,0.2,0.1,0.5,0.1,0.7c0,0.4-0.5,0.7-0.8,0.3C169.7,92,170.1,91.8,170.5,91.5z"/>
		<path class="st3" d="M216.9,91.6c-0.1,0.3-0.3,0.5-0.5,0.7c-0.2-0.1-0.4-0.2-0.6-0.3C216.2,91.9,216.5,91.7,216.9,91.6z"/>
		<path class="st3" d="M255.8,91.7c0.4,0,0.8,0,1.1,0.1c0.1,0.1,0.2,0.3,0.3,0.4c-0.2,0.1-0.5,0.2-0.7,0.3c0.1,0.3,0.1,0.6,0.2,0.9
			c-0.1,0-0.2,0.1-0.3,0.1c-0.3-0.3-0.5-0.7-0.8-1C255.5,92.1,255.6,91.9,255.8,91.7z"/>
		<path class="st3" d="M194.8,91.7c0.2,0.6,0.2,1.2,0.3,1.8c-0.1,0-0.3,0.1-0.4,0.1l0.2-0.5c-0.3-0.2-0.6-0.4-0.9-0.7
			C194,92.1,194.5,91.9,194.8,91.7z"/>
		<path class="st3" d="M269.9,91.8c0.3,0.1,0.3,0.4,0.4,0.7c-0.1,0.1-0.2,0.2-0.3,0.3c-0.2-0.2-0.4-0.3-0.6-0.5
			C269.6,92.1,269.8,91.9,269.9,91.8z"/>
		<path class="st3" d="M254,92c0.3,0,0.5,0,0.8,0c-0.1,0.3-0.2,0.5-0.3,0.8c-0.1-0.1-0.2-0.2-0.3-0.3C254.1,92.3,254.1,92.2,254,92z
			"/>
		<path class="st3" d="M205.2,92.2c-0.1,0.2-0.2,0.3-0.4,0.5c-0.2-0.1-0.4-0.1-0.6-0.2C204.5,92.1,204.8,92.2,205.2,92.2z"/>
		<path class="st3" d="M217.6,92.1c0.2,0.2,0.4,0.4,0.6,0.6c0,0.1,0,0.2,0,0.3c-0.2,0.1-0.5,0.2-0.7,0.2
			C217.5,92.9,217.5,92.5,217.6,92.1z"/>
		<path class="st3" d="M280.6,92.2c-0.1,0.2-0.2,0.3-0.4,0.5c-0.2,0-0.3-0.1-0.5-0.2C279.7,92,280.3,92.2,280.6,92.2z"/>
		<path class="st3" d="M291.5,92.1c0.4,0.5,0.4,0.7,0.4,1.4c-0.2-0.2-0.5-0.4-0.7-0.6C291.3,92.6,291.4,92.3,291.5,92.1z"/>
		<path class="st3" d="M239.8,92.3c0.2,0.2,0.4,0.4,0.6,0.7c-0.2,0-0.3-0.1-0.5-0.1C239.9,92.7,239.8,92.5,239.8,92.3z"/>
		<path class="st3" d="M292.6,92.6c0.1,0.2,0.2,0.4,0.3,0.6c-0.2,0-0.3,0-0.5-0.1C292.5,93,292.5,92.8,292.6,92.6z"/>
		<path class="st3" d="M255,92.9c0.1,0.1,0.2,0.2,0.3,0.3c0,0.2-0.1,0.5-0.1,0.7c-0.2,0.2-0.3,0.4-0.5,0.6l-0.2,0.1
			c-0.2-0.1-0.4-0.2-0.6-0.3C254.4,93.9,254.7,93.4,255,92.9z"/>
		<path class="st3" d="M270.3,93c0,0.2,0,0.4,0.1,0.6c-0.1,0-0.3,0-0.4,0c0-0.1,0.1-0.3,0.1-0.4C270.2,93.1,270.3,93,270.3,93z"/>
		<path class="st3" d="M255.3,93.2l0.1,0.2c0,0.2,0,0.3-0.1,0.5c0.3,0.1,0.6,0.3,0.9,0.4c-0.4,0-0.8,0-1.2,0l0,0.5
			c-0.2-0.1-0.3-0.1-0.5-0.2l0.2-0.1c0.2-0.2,0.3-0.4,0.5-0.6C255.2,93.6,255.3,93.4,255.3,93.2z"/>
		<path class="st3" d="M293.7,93.8c0.1,0.3-0.3,0.5-0.4,0.2C293.3,93.7,293.6,93.6,293.7,93.8z"/>
		<path class="st3" d="M216.6,93.7c0.1,0.1,0.2,0.2,0.4,0.3c0.2,0.1,0.3,0.3,0.5,0.4c-0.1,0.3-0.2,0.5-0.3,0.8
			c0.2,0.1,0.4,0.2,0.7,0.3c-0.1,0.2-0.2,0.3-0.3,0.5c0,0.3,0,0.5,0.1,0.8c-0.2,0-0.5,0-0.7,0c0-0.3,0-0.5,0-0.8
			c-0.2-0.1-0.5-0.2-0.7-0.3c0.2-0.1,0.4-0.2,0.6-0.4c-0.2-0.1-0.3-0.2-0.5-0.4c0-0.2,0-0.3,0.1-0.5
			C216.3,94.2,216.4,93.9,216.6,93.7z"/>
		<path class="st3" d="M291.4,94.1L291.4,94.1c0.2,0.3,0.3,0.5,0.5,0.8c0.3-0.2,0.5-0.4,0.8-0.6c0,0.2,0.1,0.4,0.1,0.7
			c-0.1,0.1-0.3,0.2-0.4,0.3c0,0.2,0,0.3,0,0.5c-0.2,0-0.4,0.1-0.6,0.1c-0.2-0.4-0.5-0.7-0.7-1.1C291.2,94.5,291.3,94.3,291.4,94.1z
			"/>
		<path class="st3" d="M170.6,94.8l0.2,0.1c0,0.2,0,0.4,0.1,0.6c-0.2,0-0.4,0-0.6-0.1C170.4,95.2,170.5,95,170.6,94.8z"/>
		<path class="st3" d="M255.7,94.8c0.2,0.2,0.4,0.3,0.7,0.5c-0.2,0-0.3,0-0.5,0C255.8,95.1,255.8,95,255.7,94.8z"/>
		<path class="st3" d="M254.6,95.3L254.6,95.3c0.1,0.2,0.1,0.4,0.1,0.6c-0.2,0.1-0.3,0.2-0.5,0.3c-0.1-0.1-0.2-0.3-0.2-0.4
			C254.2,95.7,254.4,95.5,254.6,95.3z"/>
		<path class="st3" d="M193.7,95.5c0.2,0,0.4,0,0.6-0.1c-0.1,0.2-0.1,0.4-0.2,0.5c-0.1,0-0.2,0-0.3,0
			C193.7,95.9,193.7,95.7,193.7,95.5z"/>
		<path class="st3" d="M269,95.5c0.2,0,0.5,0,0.7,0c-0.2,0.2-0.3,0.4-0.5,0.6C269.2,95.9,269.1,95.7,269,95.5z"/>
		<path class="st3" d="M221,95.9c0.1,0,0.2,0.1,0.3,0.1c0,0.1,0,0.2,0,0.4c-0.1,0.1-0.1,0.1-0.2,0.2c-0.2-0.1-0.3-0.2-0.5-0.3
			C220.7,96.1,220.9,96,221,95.9z"/>
		<path class="st3" d="M224,95.8L224,95.8c0.2,0.2,0.3,0.4,0.4,0.7c-0.2,0-0.4,0-0.6,0C223.8,96.3,223.9,96.1,224,95.8z"/>
		<path class="st3" d="M219.3,96.2c-0.2,0.1-0.3,0.2-0.5,0.2c0,0.2,0,0.4,0.1,0.6c-0.2,0-0.4-0.1-0.5-0.1c-0.1-0.3-0.2-0.5-0.3-0.8
			C218.6,96,218.9,96.1,219.3,96.2z"/>
		<path class="st3" d="M170.9,96.3c0,0.2,0,0.4,0,0.6c-0.2-0.1-0.4-0.1-0.6-0.2C170.5,96.6,170.7,96.4,170.9,96.3z"/>
		<path class="st3" d="M222,96.4c0.3-0.1,0.6-0.1,1-0.1c0,0.1-0.1,0.2-0.1,0.3c0,0.1,0.1,0.2,0.1,0.3c-0.2,0.1-0.3,0.2-0.5,0.4
			C222.1,97,221.9,96.8,222,96.4z"/>
		<path class="st3" d="M220,96.4c0.2,0.2,0.3,0.4,0.5,0.6c-0.1,0.5-0.2,0.9-0.4,1.3c-0.1-0.1-0.3-0.2-0.4-0.3c0-0.4,0.1-0.7,0.1-1.1
			C219.9,96.7,220,96.6,220,96.4z"/>
		<path class="st3" d="M293.2,96.5c-0.2,0.5-0.3,0.6-0.7,0.9c-0.1-0.1-0.3-0.2-0.4-0.3C292.5,96.9,292.8,96.7,293.2,96.5z"/>
		<path class="st3" d="M220.8,96.9c0.3,0.1,0.5,0.1,0.8,0.2c-0.2,0.1-0.5,0.3-0.7,0.4C220.9,97.3,220.8,97.1,220.8,96.9z"/>
		<path class="st3" d="M204.2,97.4c0,0.3,0,0.6,0,1c-0.2-0.2-0.4-0.3-0.6-0.5C203.8,97.7,204,97.5,204.2,97.4z"/>
		<path class="st3" d="M279.6,97.4c0,0.3,0,0.6,0,1c-0.2-0.2-0.4-0.3-0.6-0.5C279.2,97.7,279.4,97.6,279.6,97.4z"/>
		<path class="st3" d="M216.5,97.6c0.3,0,0.6,0.1,1,0.2c0.1,0.2,0.2,0.5,0.3,0.7c-0.4-0.1-0.9-0.1-1.3-0.2
			C216.4,98.1,216.5,97.8,216.5,97.6z"/>
		<path class="st3" d="M218.2,97.8c0.2,0.1,0.3,0.2,0.4,0.2c0,0.1,0.1,0.3,0.1,0.4c-0.2,0-0.4,0-0.6,0
			C218.2,98.2,218.2,98,218.2,97.8z"/>
		<path class="st3" d="M292.1,98.6c0.2,0.3,0.3,0.6,0.5,0.9c-0.1,0.2-0.5,0.3-0.7,0.5C291.9,99.5,292,99.1,292.1,98.6z"/>
		<path class="st3" d="M183,98.9c0,0.2,0.1,0.4,0.1,0.6c-0.1,0.1-0.3,0.1-0.4,0.2C182.8,99.4,182.9,99.2,183,98.9z"/>
		<path class="st3" d="M183.7,99.3c0.2,0.2,0.6,0.5,0.5,0.8c-0.1,0.4-0.5,0.9-0.8,1.2c-0.1-0.2-0.3-0.3-0.3-0.5
			c0.2-0.2,0.4-0.5,0.6-0.7C183.7,99.9,183.7,99.6,183.7,99.3z"/>
		<path class="st3" d="M216.8,99.4c0.2-0.1,0.4-0.1,0.6-0.2c0.3,0.1,0.7,0.2,1,0.2c0,0.1,0,0.2,0,0.3c-0.2,0.2-0.3,0.4-0.5,0.6
			c0-0.2,0-0.4,0-0.6C217.5,99.6,217.1,99.5,216.8,99.4L216.8,99.4L216.8,99.4z"/>
		<path class="st3" d="M192.4,99.6c0,0.5-0.1,0.7-0.4,1c0-0.3,0-0.6,0.1-0.9C192.2,99.7,192.3,99.6,192.4,99.6z"/>
		<path class="st3" d="M267.7,99.5c0,0.2,0,0.4,0.1,0.6c-0.1,0.2-0.3,0.3-0.4,0.5C267.5,100.2,267.3,99.8,267.7,99.5z"/>
		<path class="st3" d="M217.4,100c0,0.3-0.1,0.5-0.1,0.8c-0.2-0.1-0.3-0.2-0.5-0.3C216.9,100.1,216.9,100,217.4,100z"/>
		<path class="st3" d="M196.4,100.1c0.1,0.3,0.3,0.6,0.4,1c-0.2-0.1-0.4-0.3-0.6-0.4C196.2,100.5,196.3,100.3,196.4,100.1z"/>
		<path class="st3" d="M271.9,100.2c0.1,0.3,0.2,0.6,0.3,1c-0.3-0.2-0.5-0.3-0.6-0.6C271.6,100.4,271.7,100.3,271.9,100.2z"/>
		<path class="st3" d="M184.7,100.3c0.1,0.2,0.2,0.4,0.3,0.6l-0.2,0.2c-0.1,0.3,0.2,0.7,0.3,1l-0.4-0.1c-0.3-0.1-0.5-0.1-0.8-0.2
			C184.1,101.4,184.3,100.9,184.7,100.3z"/>
		<path class="st3" d="M292.8,100.3c0,0.3-0.1,0.6-0.1,1c-0.2,0-0.3,0-0.5,0c0-0.1,0-0.2,0-0.4C292.4,100.7,292.6,100.5,292.8,100.3
			z"/>
		<path class="st3" d="M240.3,100.5c0.1,0,0.2,0.1,0.2,0.1c0.2,0.1,0.4,0.2,0.5,0.3c0,0.1,0,0.1,0,0.2c-0.3,0.2-0.4,0.4-0.6,0.6
			c-0.1-0.1-0.3-0.1-0.4-0.2C240.1,101.2,240.2,100.8,240.3,100.5z"/>
		<path class="st3" d="M184.7,101.2c0.2,0.3,0.4,0.5,0.4,0.8c-0.1,0.2-0.2,0.3-0.3,0.4c-0.1-0.1-0.2-0.2-0.3-0.4l0.4,0.1
			C184.9,101.9,184.6,101.5,184.7,101.2z"/>
		<path class="st3" d="M196.7,101.5c-0.1,0.2-0.3,0.5-0.6,0.3c-0.1-0.1-0.1-0.2,0-0.3C196.4,101.3,196.6,101.4,196.7,101.5z"/>
		<path class="st3" d="M272,101.3c0,0.1,0,0.3,0,0.4c-0.1,0-0.3,0-0.4,0C271.6,101.5,271.8,101.5,272,101.3z"/>
		<path class="st3" d="M192.8,101.6L192.8,101.6c0.3,0.6,0.5,1.2,0.5,1.9c-0.4,0-0.7,0.1-1.1,0.2c0-0.2,0-0.3,0.1-0.5
			c0.2-0.2,0.5-0.4,0.5-0.6c0-0.2-0.1-0.4-0.1-0.5C192.7,101.9,192.7,101.7,192.8,101.6z"/>
		<path class="st3" d="M218,101.6c0.1,0.6-0.4,0.6-0.8,0.7c-0.1-0.2-0.1-0.4-0.2-0.6C217.4,101.6,217.6,101.6,218,101.6z"/>
		<path class="st3" d="M268.2,101.5c0.3,0.7,0.5,1.3,0.4,2c-0.4,0-0.7,0.1-1.1,0.2c0-0.2,0-0.3,0.1-0.5c0.2-0.2,0.4-0.4,0.5-0.6
			c0-0.2,0-0.4-0.1-0.5C268.1,101.9,268.1,101.7,268.2,101.5z"/>
		<path class="st3" d="M182.8,101.7c0.2,0.3,0.5,0.6,0.7,0.9c0.3,0.3,0.7,0.5,1.1,0.7c-0.2,0.2-0.4,0.4-0.6,0.6
			c-0.2-0.2-0.4-0.4-0.5-0.6c-0.1-0.1-0.3-0.2-0.4-0.2C182.9,102.6,182.9,102.1,182.8,101.7z"/>
		<path class="st3" d="M191.5,101.8c0.1,0.1,0.2,0.2,0.4,0.3c0,0.2,0,0.4-0.1,0.6c-0.1,0-0.2,0-0.3,0
			C191.5,102.3,191.5,102.1,191.5,101.8z"/>
		<path class="st3" d="M266.9,101.8c0.1,0.1,0.2,0.1,0.4,0.2c0,0.2,0,0.4-0.1,0.6c-0.1,0-0.2,0-0.3,0
			C266.9,102.4,266.9,102.1,266.9,101.8z"/>
		<path class="st3" d="M172.8,102c0,0.3,0,0.5,0,0.8c-0.1,0-0.3,0-0.4,0C172.5,102.4,172.4,102.2,172.8,102z"/>
		<path class="st3" d="M255,102.6c0.2,0.1,0.3,0.2,0.5,0.2c-0.2,0.2-0.4,0.5-0.6,0.7c-0.2-0.1-0.3-0.1-0.5-0.2
			C254.6,103.1,254.8,102.9,255,102.6z"/>
		<path class="st3" d="M218.1,103c0,0.1,0.1,0.2,0.1,0.3c-0.1,0.1-0.3,0.2-0.4,0.3c0-0.1,0.1-0.2,0.1-0.4
			C217.9,103.1,218,103.1,218.1,103z"/>
		<path class="st3" d="M182.3,103.9c0.1,0.1,0.2,0.1,0.3,0.2c-0.2,0.3-0.3,0.6-0.4,0.9c0.2,0.3,0.3,0.6,0.5,0.8c-0.2,0-0.5,0-0.7,0
			c-0.5-0.3-0.1-1,0-1.5C182.1,104.2,182.2,104.1,182.3,103.9z"/>
		<path class="st3" d="M238.4,103.9c0.2,0,0.4,0,0.6,0.1c-0.1,0.1-0.2,0.3-0.3,0.4c0,0.2,0,0.3,0,0.5c-0.2-0.2-0.4-0.4-0.5-0.6
			C238.3,104.1,238.3,104,238.4,103.9z"/>
		<path class="st3" d="M291.9,103.8c0.3,0.1,0.3,0.6,0,0.6C291.7,104.4,291.7,103.8,291.9,103.8z"/>
		<path class="st3" d="M191.2,104.2c-0.2,0.5-0.5,0.9-0.8,1.3c0-0.5,0-0.9,0.2-1.3C190.9,104.3,191.1,104.2,191.2,104.2z"/>
		<path class="st3" d="M193.2,104.1c0,0.2,0,0.3,0,0.5c-0.3,0-0.7-0.1-1-0.1C192.6,104.4,192.9,104.2,193.2,104.1z"/>
		<path class="st3" d="M266.6,104.2c-0.2,0.5-0.5,0.9-0.8,1.3c0-0.5,0-0.9,0.2-1.3C266.3,104.2,266.4,104.2,266.6,104.2z"/>
		<path class="st3" d="M268.6,104.1c0,0.2,0,0.3,0,0.5c-0.3,0-0.7-0.1-1-0.1C268,104.4,268.3,104.2,268.6,104.1z"/>
		<path class="st3" d="M183.6,104.4c0,0.2,0,0.4,0,0.7c-0.1,0-0.3,0-0.4,0.1c-0.1-0.1-0.2-0.2-0.3-0.3
			C183.1,104.6,183.3,104.4,183.6,104.4z"/>
		<path class="st3" d="M240.4,105.1c0.2,0.1,0.3,0.4,0.4,0.6c-0.2,0.1-0.3,0.3-0.4,0.5c-0.1-0.1-0.2-0.2-0.3-0.3
			c0.1-0.1,0.2-0.2,0.3-0.3c-0.2-0.1-0.3-0.2-0.5-0.4l0,0C240.1,105.1,240.3,105.1,240.4,105.1z"/>
		<path class="st3" d="M208.3,105.4c0.2,0.2,0.3,0.5,0.5,0.8c-0.3,0-0.6,0-1,0C208,105.9,208.2,105.6,208.3,105.4z"/>
		<path class="st3" d="M283.7,105.4c0.2,0.2,0.3,0.5,0.5,0.7c-0.3,0-0.6,0-1,0C283.4,105.9,283.5,105.6,283.7,105.4z"/>
		<path class="st3" d="M181.3,105.8c0.1,0.4,0.2,0.7-0.2,1.1c-0.3,0.4-0.7,0.2-0.7-0.2c0.2-0.2,0.4-0.3,0.6-0.5
			C181.2,106,181.2,105.9,181.3,105.8z"/>
		<path class="st3" d="M238.8,105.7c0.2,0.1,0.4,0.2,0.6,0.3c-0.1,0.1-0.2,0.2-0.4,0.4c-0.1,0-0.3-0.1-0.4-0.1
			C238.6,106.1,238.7,105.9,238.8,105.7z"/>
		<path class="st3" d="M258,105.7c0,0.2,0,0.3,0,0.5c-0.1-0.1-0.2-0.1-0.3-0.2C257.6,105.8,257.8,105.8,258,105.7z"/>
		<path class="st3" d="M302.9,105.8c-0.1,0.2-0.1,0.4-0.2,0.6c-0.1,0.1-0.2,0.1-0.3,0.2c-0.1-0.1-0.2-0.2-0.3-0.3
			c0.1-0.1,0.1-0.2,0.2-0.3C302.4,106,302.6,105.9,302.9,105.8z"/>
		<path class="st3" d="M237.7,106c0.1,0.1,0.3,0.3,0.4,0.4c-0.1,0.1-0.2,0.2-0.2,0.3c-0.2-0.2-0.3-0.3-0.5-0.5
			C237.4,106.2,237.5,106.1,237.7,106z"/>
		<path class="st3" d="M256.5,106c0.2,0.2,0.4,0.5,0.7,0.7c-0.3-0.2-0.5-0.3-0.8-0.5C256.4,106.1,256.4,106.1,256.5,106z"/>
		<path class="st3" d="M191.2,106c0.1,0.2,0.2,0.5,0.3,0.7c-0.1,0-0.2,0-0.3,0C191.2,106.5,191.2,106.3,191.2,106z"/>
		<path class="st3" d="M266.6,106L266.6,106c0.1,0.2,0.2,0.4,0.3,0.6c-0.1,0.1-0.2,0.2-0.3,0.3C266.5,106.6,266.6,106.3,266.6,106z"
			/>
		<path class="st3" d="M179.6,106.4c0,0.1,0,0.3,0,0.4c-0.1,0.1-0.2,0.1-0.3,0.2c-0.1-0.1-0.3-0.2-0.4-0.2
			C178.9,106.3,179.3,106.5,179.6,106.4z"/>
		<path class="st3" d="M301.2,106.5c0,0.1,0,0.2,0.1,0.4c-0.2,0-0.4,0-0.6,0c0.1-0.1,0.1-0.2,0.2-0.2
			C301,106.5,301.1,106.5,301.2,106.5z"/>
		<path class="st3" d="M218.2,106.8c0.2,0.1,0.4,0.2,0.5,0.3c0,0.1,0,0.3,0,0.4c-0.2-0.1-0.5-0.1-0.7-0.2
			C218.1,107.2,218.2,107,218.2,106.8z"/>
		<path class="st3" d="M238.8,107c0.2,0,0.4,0,0.6,0c0.1,0.2,0.2,0.4,0.3,0.6c0.5,0,0.9-0.1,1.4-0.1c0,0.1,0,0.2,0,0.3
			c-0.7,0.3-1.4,0.2-2.2,0.2C238.8,107.7,238.8,107.4,238.8,107z"/>
		<path class="st3" d="M177.1,107.2c0.2,0.1,0.3,0.2,0.5,0.3c-0.2,0-0.5,0-0.7,0C177,107.4,177,107.3,177.1,107.2z"/>
		<path class="st3" d="M302.3,107.5c0,0.1-0.1,0.2-0.1,0.3c-0.2,0-0.4,0-0.6,0C301.8,107.6,302.1,107.6,302.3,107.5z"/>
		<path class="st3" d="M217.4,108.3c-0.2,0-0.3,0-0.5,0C216.8,107.7,217.5,107.8,217.4,108.3z"/>
	</g>
	<path class="st5" d="M105.3,80.6c0.9,1,1,21.8-17.7,18.2"/>
</g>
</svg>
