<?xml version="1.0" encoding="utf-8"?>
<!-- Generator: Adobe Illustrator 26.0.2, SVG Export Plug-In . SVG Version: 6.00 Build 0)  -->
<svg version="1.1" xmlns="http://www.w3.org/2000/svg" xmlns:xlink="http://www.w3.org/1999/xlink" x="0px" y="0px"
	 viewBox="0 0 402 146" style="enable-background:new 0 0 402 146;" xml:space="preserve">
<style type="text/css">
	.st0{display:none;}
	.st1{display:inline;fill:#190836;}
	.st2{fill:#EBE6FA;}
	.st3{fill:#181818;}
	.st4{fill-rule:evenodd;clip-rule:evenodd;fill:#181818;}
	.st5{fill:none;stroke:#181818;stroke-miterlimit:10;}
</style>
<g id="Layer_2" class="st0">
</g>
<g id="Layer_1">
	<g>
		<g>
			<path class="st3" d="M45,69.7c-1.1,2.3-1.2,5.2-0.4,7.6c0.7,2,2.2,3.6,4.1,4.4c1.5,0.7,3.1,0.8,4.7,0.7c1.7-0.2,3.3-0.8,4.5-2
				c1-1,1.5-2.2,1.9-3.4h4.5c-0.3,1.3-0.6,2.6-1.3,3.8c-1.9,3.2-5.4,5.2-9,5.6c-2.7,0.3-5.6-0.1-8-1.3c-2.8-1.4-5-3.9-5.8-6.9
				c-0.7-2.3-0.7-4.9-0.2-7.3c0.6-3.1,2.6-5.8,5.3-7.5c2.5-1.5,5.5-1.9,8.4-1.7c3.2,0.2,6.2,1.7,8.3,4.1c1.3,1.5,2,3.3,2.4,5.3h-4.5
				c-0.4-1-0.7-2-1.4-2.9c-1.2-1.5-2.9-2.4-4.8-2.6c-1.6-0.2-3.3-0.1-4.7,0.5C47.3,66.7,45.8,68,45,69.7z"/>
			<path class="st3" d="M73.7,83.3V64c0-1.1,0.1-2.2-0.1-3.3c-0.4-2.6-2-5.1-4.2-6.6c-1.7-1.2-3.8-1.9-5.9-1.9c-7.5,0-15,0-22.5,0
				c-1.3,0-2.7,0.1-3.9,0.6c-2.8,1-5.2,3.2-6.2,6c-0.3,0.9-0.2,1.9-0.2,2.9c0,8.1,0,16.2,0,24.3c0,1-0.1,2.1,0.2,3.1
				c1.1,3.1,3.9,5.6,7.1,6.4c1.5,0.4,3,0.3,4.6,0.3c6.6,0,13.1,0,19.7,0c1.5,0,3,0,4.4-0.5c3.2-1,5.8-3.7,6.7-7
				C73.8,86.6,73.7,85,73.7,83.3z M69.9,87.9c-0.9,2.5-3.4,4.4-6.2,4.4c-7.2,0-14.5,0-21.7,0c-1.2,0-2.3,0.1-3.5-0.3
				c-2.1-0.6-3.9-2.3-4.5-4.4c-0.4-1.3-0.3-2.6-0.3-4c0-6.9,0-13.9,0-20.8c0-1.2,0.2-2.3,0.7-3.4c0.9-1.8,2.6-3.1,4.5-3.5
				c1-0.2,2.2-0.2,3.3-0.2c6.5,0,13,0,19.5,0c1.1,0,2.4-0.1,3.4,0.2c2.2,0.5,4,2.2,4.8,4.3c0.5,1.4,0.4,2.9,0.4,4.4v19
				C70.3,85,70.5,86.4,69.9,87.9z"/>
			<path class="st3" d="M85,72.7c-0.2,1.6-0.1,3.3,0.4,4.8c0.6,1.7,1.8,3.1,3.4,3.9c1.4,0.7,3.1,0.8,4.6,0.6c1.4-0.2,2.7-0.9,3.7-2
				c0.6-0.7,0.9-1.5,1.2-2.3c2.1,0,4.2,0,6.2,0c-0.2,1.1-0.5,2.1-1,3.1c-1.2,2.5-3.5,4.4-6,5.5c-2.6,1.1-5.7,1.2-8.5,0.7
				c-2.6-0.5-5-1.7-6.8-3.6c-1.9-1.9-3-4.5-3.3-7.1c-0.3-2.8,0-5.8,1.3-8.4c1.5-3,4.4-5.3,7.6-6.1c2.7-0.7,5.7-0.8,8.4,0
				c3.1,0.9,6,3,7.4,6c0.5,1,0.7,2.1,1,3.1c-2.1,0-4.2,0-6.2,0c-0.4-1.1-0.9-2.2-1.8-3c-1.5-1.3-3.5-1.6-5.5-1.4
				c-1.5,0.2-2.8,0.8-3.8,1.9C85.9,69.6,85.3,71.1,85,72.7z"/>
			<path class="st3" d="M135.2,70.9c-0.6-3-2.4-5.6-4.9-7.3c-3-2.1-7.1-2.6-10.7-2.1c-2.9,0.4-5.6,1.7-7.6,3.9
				c-2.1,2.2-3.1,5.1-3.2,8.1c-0.1,2.7,0.3,5.3,1.6,7.7c1.6,2.9,4.4,5,7.6,5.8c2.8,0.7,5.9,0.7,8.7-0.1c3.4-0.9,6.3-3.4,7.8-6.7
				C135.7,77.3,135.9,74,135.2,70.9z M129.2,76.9c-0.4,1.5-1.2,2.8-2.4,3.8c-1.9,1.6-4.8,1.8-7,1.1c-2.1-0.7-3.7-2.4-4.3-4.5
				c-0.5-1.6-0.5-3.4-0.2-5c0.5-2.7,2.5-4.9,5.2-5.5c1.5-0.3,3.2-0.3,4.6,0.3c2,0.8,3.5,2.5,4.1,4.5
				C129.6,73.3,129.6,75.2,129.2,76.9z"/>
			<path class="st3" d="M141.4,62.1c2,0,4.1,0,6.1,0v24.5h-6.1C141.4,78.5,141.4,70.3,141.4,62.1z"/>
			<path class="st3" d="M148.2,53.9c0,2-1.9,3.5-3.8,3.4c-1.8,0.1-3.6-1.3-3.8-3.2c-0.2-1.6,0.9-3,2.4-3.5c1-0.3,2.1-0.3,3,0.1
				C147.3,51.2,148.3,52.5,148.2,53.9z"/>
			<path class="st3" d="M181.1,68.2c0.5,1.5,0.7,3,0.7,4.5c0,4.6,0,9.3,0,13.9h-6.1c0-4.4,0-8.8,0-13.2c0-1.2-0.1-2.4-0.6-3.4
				c-0.7-1.6-2.2-2.8-3.9-3.2c-1.3-0.3-2.8-0.2-4.1,0.2c-1.8,0.6-3.2,2-3.7,3.8c-0.3,1.1-0.2,2.2-0.2,3.4c0,4.2,0,8.3,0,12.5h-6.1
				c0-5.4,0-10.7,0-16.1c0-0.8,0.1-1.7-0.1-2.5c-0.1-0.6-0.7-1.1-1.3-1.2c-1-0.2-2,0-3,0.2c0-1.7,0-3.3,0-5c1-0.3,2-0.6,3-0.7
				c1.6-0.1,3.4,0.2,4.7,1.2c0.7,0.5,1.2,1.3,1.6,2c0.7-0.6,1.4-1.1,2.1-1.6c1.8-1.1,3.8-1.5,5.9-1.6c1.8-0.1,3.7,0.2,5.4,0.9
				C178,63.3,180.1,65.6,181.1,68.2z"/>
			<path class="st3" d="M195.1,69.3c-1.5,2.1-1.8,5-1.2,7.5c0.4,1.8,1.6,3.5,3.2,4.5c1.5,0.9,3.4,1.1,5,0.8c1.4-0.2,2.7-0.9,3.6-2
				c0.6-0.7,0.8-1.4,1.1-2.2c2.1,0,4.2,0,6.3,0c-0.2,1.1-0.5,2.1-0.9,3.1c-1.1,2.4-3.2,4.3-5.6,5.4c-2.8,1.3-6.1,1.5-9.1,0.9
				c-2.7-0.5-5.3-1.9-7.1-4c-1.7-1.9-2.6-4.4-2.9-6.9c-0.3-3,0.1-6.2,1.7-8.9c1.6-2.7,4.2-4.6,7.2-5.4c2.5-0.7,5.2-0.8,7.8-0.2
				c3.3,0.7,6.3,2.8,7.9,5.8c0.6,1.1,0.8,2.2,1.1,3.4h-6.3c-0.4-1.1-0.9-2.1-1.8-2.9c-1.6-1.4-3.7-1.7-5.7-1.4
				C197.6,67,196.1,67.9,195.1,69.3z"/>
			<path class="st3" d="M248.4,81.5c0,1.7,0,3.4,0,5.2c-1,0.3-2,0.6-3,0.7c-1.7,0.1-3.6-0.1-5.1-0.9c-0.8-0.4-1.4-1.1-2-1.8
				c-1.8,1.5-3.8,2.3-6.1,2.7c-2.4,0.3-4.9,0.2-7.1-0.8c-2.7-1.2-4.8-3.6-5.7-6.4c-0.5-1.4-0.6-2.9-0.6-4.4c0-4.5,0-9,0-13.6
				c2,0,4.1,0,6.1,0c0,4.2,0,8.3,0,12.5c0,1.3,0,2.5,0.4,3.8c0.6,1.7,2,3.1,3.8,3.6c1.4,0.4,2.9,0.3,4.3-0.1c1.6-0.5,3-1.7,3.7-3.3
				c0.5-1.2,0.5-2.5,0.5-3.8c0-4.2,0-8.4,0-12.6h6.1c0,5.9,0,11.7,0,17.6c0,0.9,0.1,1.7,1,2.1C245.8,82.3,247.3,81.8,248.4,81.5z"/>
			<path class="st3" d="M279.4,74c1,0,2,0,3,0c-1.8,3.7-3.5,7.5-5.3,11.2c-0.8,0-1.7,0-2.5,0c-1.7-3.7-3.5-7.5-5.3-11.2h3
				c1.2,2.6,2.3,5.2,3.5,7.8C277.1,79.2,278.3,76.6,279.4,74z"/>
			<path class="st3" d="M294.7,80.8c0.1-1.4,0.1-2.6-0.5-3.9c-0.7-1.6-2.2-2.8-4-3.1c-1.6-0.3-3.4-0.1-4.8,0.9
				c-1.3,0.8-2.1,2.2-2.3,3.7c-0.2,1.4-0.1,2.9,0.5,4.1c0.8,1.5,2.3,2.6,3.9,2.9c1.9,0.4,4.1,0.1,5.6-1.2c0.7-0.6,1-1.3,1.4-2
				c-1,0-2,0-3,0c-0.4,0.3-0.8,0.8-1.3,0.9c-1.1,0.3-2.3,0.2-3.2-0.6c-0.6-0.5-0.9-1.1-1.2-1.8C288.8,80.7,291.7,80.8,294.7,80.8z
				 M285.7,78.7c0.2-0.4,0.3-0.9,0.5-1.3c0.9-1.6,3.5-2.1,4.8-0.7c0.6,0.6,0.7,1.3,0.9,2C289.9,78.8,287.8,78.8,285.7,78.7z"/>
			<path class="st3" d="M309.2,76.8c0.3,0.8,0.3,1.7,0.3,2.5c0,2,0,3.9,0,5.9h-2.8c0-2,0-4,0-6.1c0-0.8-0.2-1.6-0.7-2.2
				c-1.2-1.4-3.7-1.1-4.6,0.5c-0.4,0.6-0.4,1.4-0.4,2.1c0,1.9,0,3.8,0,5.7h-2.8c0-2.6,0-5.1,0-7.7c0-0.4,0-1-0.4-1.2
				c-0.5-0.2-1.1-0.1-1.6,0c0-0.8,0-1.5,0-2.3c1-0.3,2-0.4,3,0c0.6,0.2,0.9,0.7,1.3,1.1c0.6-0.4,1.2-0.8,1.9-1.1
				c1.1-0.3,2.3-0.4,3.4-0.1C307.4,74.1,308.7,75.3,309.2,76.8z"/>
			<path class="st3" d="M316.4,74h4.2v2.3c-1.4,0-2.8,0-4.2,0c0,1.6,0,3.1,0,4.7c0,0.8,0.2,1.5,1,1.9c0.9,0.5,2.3,0.1,3.3,0v2.4
				c-1.1,0.3-2.2,0.5-3.4,0.3c-1.3-0.2-2.5-0.8-3.1-2c-0.5-0.9-0.6-1.8-0.6-2.8c0-1.5,0-3,0-4.5c-0.9,0-1.7,0-2.6,0V74
				c0.7-0.1,1.8,0.2,2.3-0.6c0.5-0.8,0.3-2,0.3-2.8c0.9,0,1.9,0,2.8,0C316.4,71.8,316.4,72.9,316.4,74z"/>
			<path class="st3" d="M336.4,82.9c0,0.8,0,1.6,0,2.4c-1,0.2-2,0.4-3,0.1c-0.7-0.2-1.1-0.6-1.6-1.1c-1.6,1.2-3.6,1.5-5.5,0.9
				c-1.3-0.4-2.4-1.4-3-2.7c-0.4-0.8-0.4-1.7-0.4-2.6c0-2,0-4,0-6h2.8c0,2,0,4,0,6c0,0.8,0.1,1.5,0.6,2.1c1.1,1.5,3.9,1.3,4.8-0.3
				c0.3-0.6,0.3-1.3,0.3-1.9c0-1.9,0-3.9,0-5.8h2.8c0,2.6,0,5.1,0,7.7c0,0.5-0.1,1.1,0.5,1.3C335.3,83.2,335.9,83,336.4,82.9z"/>
			<path class="st3" d="M346.6,73.6c0,0.9,0,1.8,0,2.7c-1,0-1.9-0.1-2.7,0.5c-0.9,0.6-1.4,1.6-1.4,2.7c0,1.9,0,3.8,0,5.7h-2.8v-7.7
				c0-0.4,0-1-0.4-1.2c-0.5-0.2-1.1,0-1.6,0c0-0.8,0-1.5,0-2.3c1.1-0.3,2.2-0.4,3.2,0.1c0.6,0.3,0.8,0.7,1.1,1.2
				c0.4-0.4,0.8-0.8,1.4-1C344.4,73.6,345.4,73.6,346.6,73.6z"/>
			<path class="st3" d="M359.3,80.8c0.1-1.4,0.1-2.8-0.5-4.1c-0.7-1.5-2.1-2.6-3.8-2.9c-1.7-0.3-3.6-0.1-5,0.9
				c-1.2,0.9-2,2.2-2.2,3.7c-0.3,1.7,0,3.5,1,4.9c0.9,1.3,2.4,2,4,2.2c1.8,0.2,3.7-0.1,5.1-1.3c0.7-0.6,1-1.3,1.4-2c-1,0-2,0-3,0
				c-0.4,0.3-0.8,0.8-1.3,0.9c-1.1,0.3-2.3,0.1-3.2-0.6c-0.6-0.5-0.9-1.1-1.2-1.8C353.4,80.8,356.4,80.8,359.3,80.8z M350.4,78.7
				c0.3-0.7,0.4-1.4,1-1.9c1.1-1.2,3.3-1.3,4.4,0c0.5,0.6,0.6,1.2,0.8,1.9C354.5,78.8,352.4,78.8,350.4,78.7z"/>
			<path class="st3" d="M371.2,82.7c-0.2,0.9-0.8,1.6-1.6,2.1c-1.3,0.8-2.9,0.9-4.4,0.7c-1.4-0.2-2.8-0.8-3.6-2
				c-0.4-0.6-0.5-1.3-0.6-2c0.9,0,1.7,0,2.6,0c0.2,0.5,0.4,1.1,0.9,1.4c0.9,0.6,2.2,0.7,3.2,0.3c0.5-0.2,1-0.6,0.9-1.3
				c-0.1-0.6-0.7-0.8-1.2-1c-1.2-0.3-2.5-0.3-3.7-0.7c-0.8-0.3-1.5-0.8-1.9-1.5c-0.6-1.2-0.5-2.8,0.5-3.7c1.1-1.1,2.7-1.4,4.2-1.3
				c1.5,0,3,0.6,3.9,1.8c0.5,0.6,0.6,1.3,0.7,2.1c-0.9,0-1.7,0-2.6,0c-0.2-0.5-0.4-1.1-0.8-1.3c-0.8-0.6-2.2-0.6-3,0.1
				c-0.5,0.5-0.5,1.3,0.2,1.7c0.9,0.5,2.1,0.5,3.1,0.7c1,0.1,2,0.4,2.7,1.2C371.2,80.5,371.4,81.7,371.2,82.7z"/>
			<path class="st3" d="M148.2,53.9c0,2-1.9,3.5-3.8,3.4c-1.8,0.1-3.6-1.3-3.8-3.2c-0.2-1.6,0.9-3,2.4-3.5c1-0.3,2.1-0.3,3,0.1
				C147.3,51.2,148.3,52.5,148.2,53.9z"/>
			<path class="st3" d="M45,69.7c-1.1,2.3-1.2,5.2-0.4,7.6c0.7,2,2.2,3.6,4.1,4.4c1.5,0.7,3.1,0.8,4.7,0.7c1.7-0.2,3.3-0.8,4.5-2
				c1-1,1.5-2.2,1.9-3.4h4.5c-0.3,1.3-0.6,2.6-1.3,3.8c-1.9,3.2-5.4,5.2-9,5.6c-2.7,0.3-5.6-0.1-8-1.3c-2.8-1.4-5-3.9-5.8-6.9
				c-0.7-2.3-0.7-4.9-0.2-7.3c0.6-3.1,2.6-5.8,5.3-7.5c2.5-1.5,5.5-1.9,8.4-1.7c3.2,0.2,6.2,1.7,8.3,4.1c1.3,1.5,2,3.3,2.4,5.3h-4.5
				c-0.4-1-0.7-2-1.4-2.9c-1.2-1.5-2.9-2.4-4.8-2.6c-1.6-0.2-3.3-0.1-4.7,0.5C47.3,66.7,45.8,68,45,69.7z"/>
			<path class="st3" d="M73.7,83.3V64c0-1.1,0.1-2.2-0.1-3.3c-0.4-2.6-2-5.1-4.2-6.6c-1.7-1.2-3.8-1.9-5.9-1.9c-7.5,0-15,0-22.5,0
				c-1.3,0-2.7,0.1-3.9,0.6c-2.8,1-5.2,3.2-6.2,6c-0.3,0.9-0.2,1.9-0.2,2.9c0,8.1,0,16.2,0,24.3c0,1-0.1,2.1,0.2,3.1
				c1.1,3.1,3.9,5.6,7.1,6.4c1.5,0.4,3,0.3,4.6,0.3c6.6,0,13.1,0,19.7,0c1.5,0,3,0,4.4-0.5c3.2-1,5.8-3.7,6.7-7
				C73.8,86.6,73.7,85,73.7,83.3z M69.9,87.9c-0.9,2.5-3.4,4.4-6.2,4.4c-7.2,0-14.5,0-21.7,0c-1.2,0-2.3,0.1-3.5-0.3
				c-2.1-0.6-3.9-2.3-4.5-4.4c-0.4-1.3-0.3-2.6-0.3-4c0-6.9,0-13.9,0-20.8c0-1.2,0.2-2.3,0.7-3.4c0.9-1.8,2.6-3.1,4.5-3.5
				c1-0.2,2.2-0.2,3.3-0.2c6.5,0,13,0,19.5,0c1.1,0,2.4-0.1,3.4,0.2c2.2,0.5,4,2.2,4.8,4.3c0.5,1.4,0.4,2.9,0.4,4.4v19
				C70.3,85,70.5,86.4,69.9,87.9z"/>
			<path class="st3" d="M59.9,76.9h4.5c-0.3,1.3-0.6,2.6-1.3,3.8c-1.9,3.2-5.4,5.2-9,5.6c-2.7,0.3-5.6-0.1-8-1.3
				c-2.8-1.4-5-3.9-5.8-6.9c-0.7-2.3-0.7-4.9-0.2-7.3c0.6-3.1,2.6-5.8,5.3-7.5c2.5-1.5,5.5-1.9,8.4-1.7c3.2,0.2,6.2,1.7,8.3,4.1
				c1.3,1.5,2,3.3,2.4,5.3h-4.5c-0.4-1-0.7-2-1.4-2.9c-1.2-1.5-2.9-2.4-4.8-2.6c-1.6-0.2-3.3-0.1-4.7,0.5c-1.7,0.7-3.2,2-4,3.7
				c-1.1,2.3-1.2,5.2-0.4,7.6c0.7,2,2.2,3.6,4.1,4.4c1.5,0.7,3.1,0.8,4.7,0.7c1.7-0.2,3.3-0.8,4.5-2C58.9,79.3,59.5,78.1,59.9,76.9z
				"/>
			<path class="st3" d="M98.2,77.8c2.1,0,4.2,0,6.2,0c-0.2,1.1-0.5,2.1-1,3.1c-1.2,2.5-3.5,4.4-6,5.5c-2.6,1.1-5.7,1.2-8.5,0.7
				c-2.6-0.5-5-1.7-6.8-3.6c-1.9-1.9-3-4.5-3.3-7.1c-0.3-2.8,0-5.8,1.3-8.4c1.5-3,4.4-5.3,7.6-6.1c2.7-0.7,5.7-0.8,8.4,0
				c3.1,0.9,6,3,7.4,6c0.5,1,0.7,2.1,1,3.1c-2.1,0-4.2,0-6.2,0c-0.4-1.1-0.9-2.2-1.8-3c-1.5-1.3-3.5-1.6-5.5-1.4
				c-1.5,0.2-2.8,0.8-3.8,1.9c-1.1,1.1-1.8,2.6-2.1,4.2c-0.2,1.6-0.1,3.3,0.4,4.8c0.6,1.7,1.8,3.1,3.4,3.9c1.4,0.7,3.1,0.8,4.6,0.6
				c1.4-0.2,2.7-0.9,3.7-2C97.6,79.4,97.9,78.6,98.2,77.8z"/>
			<path class="st3" d="M135.2,70.9c-0.6-3-2.4-5.6-4.9-7.3c-3-2.1-7.1-2.6-10.7-2.1c-2.9,0.4-5.6,1.7-7.6,3.9
				c-2.1,2.2-3.1,5.1-3.2,8.1c-0.1,2.7,0.3,5.3,1.6,7.7c1.6,2.9,4.4,5,7.6,5.8c2.8,0.7,5.9,0.7,8.7-0.1c3.4-0.9,6.3-3.4,7.8-6.7
				C135.7,77.3,135.9,74,135.2,70.9z M129.2,76.9c-0.4,1.5-1.2,2.8-2.4,3.8c-1.9,1.6-4.8,1.8-7,1.1c-2.1-0.7-3.7-2.4-4.3-4.5
				c-0.5-1.6-0.5-3.4-0.2-5c0.5-2.7,2.5-4.9,5.2-5.5c1.5-0.3,3.2-0.3,4.6,0.3c2,0.8,3.5,2.5,4.1,4.5
				C129.6,73.3,129.6,75.2,129.2,76.9z"/>
			<path class="st3" d="M181.8,72.7c0,4.6,0,9.3,0,13.9h-6.1c0-4.4,0-8.8,0-13.2c0-1.2-0.1-2.4-0.6-3.4c-0.7-1.6-2.2-2.8-3.9-3.2
				c-1.3-0.3-2.8-0.2-4.1,0.2c-1.8,0.6-3.2,2-3.7,3.8c-0.3,1.1-0.2,2.2-0.2,3.4c0,4.2,0,8.3,0,12.5h-6.1c0-5.4,0-10.7,0-16.1
				c0-0.8,0.1-1.7-0.1-2.5c-0.1-0.6-0.7-1.1-1.3-1.2c-1-0.2-2,0-3,0.2c0-1.7,0-3.3,0-5c1-0.3,2-0.6,3-0.7c1.6-0.1,3.4,0.2,4.7,1.2
				c0.7,0.5,1.2,1.3,1.6,2c0.7-0.6,1.4-1.1,2.1-1.6c1.8-1.1,3.8-1.5,5.9-1.6c1.8-0.1,3.7,0.2,5.4,0.9c2.6,1.1,4.7,3.3,5.7,6
				C181.6,69.7,181.8,71.2,181.8,72.7z"/>
			<path class="st3" d="M206.9,77.8c2.1,0,4.2,0,6.3,0c-0.2,1.1-0.5,2.1-0.9,3.1c-1.1,2.4-3.2,4.3-5.6,5.4c-2.8,1.3-6.1,1.5-9.1,0.9
				c-2.7-0.5-5.3-1.9-7.1-4c-1.7-1.9-2.6-4.4-2.9-6.9c-0.3-3,0.1-6.2,1.7-8.9c1.6-2.7,4.2-4.6,7.2-5.4c2.5-0.7,5.2-0.8,7.8-0.2
				c3.3,0.7,6.3,2.8,7.9,5.8c0.6,1.1,0.8,2.2,1.1,3.4h-6.3c-0.4-1.1-0.9-2.1-1.8-2.9c-1.6-1.4-3.7-1.7-5.7-1.4
				c-1.7,0.3-3.3,1.2-4.3,2.7c-1.5,2.1-1.8,5-1.2,7.5c0.4,1.8,1.6,3.5,3.2,4.5c1.5,0.9,3.4,1.1,5,0.8c1.4-0.2,2.7-0.9,3.6-2
				C206.3,79.3,206.6,78.6,206.9,77.8z"/>
			<path class="st3" d="M59.9,76.9h4.5c-0.3,1.3-0.6,2.6-1.3,3.8c-1.9,3.2-5.4,5.2-9,5.6c-2.7,0.3-5.6-0.1-8-1.3
				c-2.8-1.4-5-3.9-5.8-6.9c-0.7-2.3-0.7-4.9-0.2-7.3c0.6-3.1,2.6-5.8,5.3-7.5c2.5-1.5,5.5-1.9,8.4-1.7c3.2,0.2,6.2,1.7,8.3,4.1
				c1.3,1.5,2,3.3,2.4,5.3h-4.5c-0.4-1-0.7-2-1.4-2.9c-1.2-1.5-2.9-2.4-4.8-2.6c-1.6-0.2-3.3-0.1-4.7,0.5c-1.7,0.7-3.2,2-4,3.7
				c-1.1,2.3-1.2,5.2-0.4,7.6c0.7,2,2.2,3.6,4.1,4.4c1.5,0.7,3.1,0.8,4.7,0.7c1.7-0.2,3.3-0.8,4.5-2C58.9,79.3,59.5,78.1,59.9,76.9z
				"/>
			<path class="st3" d="M147.5,62.1v24.5h-6.1c0-8.2,0-16.4,0-24.5C143.4,62.1,145.5,62.1,147.5,62.1z"/>
			<path class="st3" d="M248.4,86.6c-1,0.3-2,0.6-3,0.7c-1.7,0.1-3.6-0.1-5.1-0.9c-0.8-0.4-1.4-1.1-2-1.8c-1.8,1.5-3.8,2.3-6.1,2.7
				c-2.4,0.3-4.9,0.2-7.1-0.8c-2.7-1.2-4.8-3.6-5.7-6.4c-0.5-1.4-0.6-2.9-0.6-4.4c0-4.5,0-9,0-13.6c2,0,4.1,0,6.1,0
				c0,4.2,0,8.3,0,12.5c0,1.3,0,2.5,0.4,3.8c0.6,1.7,2,3.1,3.8,3.6c1.4,0.4,2.9,0.3,4.3-0.1c1.6-0.5,3-1.7,3.7-3.3
				c0.5-1.2,0.5-2.5,0.5-3.8c0-4.2,0-8.4,0-12.6h6.1c0,5.9,0,11.7,0,17.6c0,0.9,0.1,1.7,1,2.1c1.1,0.5,2.6,0,3.7-0.3
				C248.4,83.2,248.4,84.9,248.4,86.6z"/>
			<path class="st3" d="M316.4,76.3c0,1.6,0,3.1,0,4.7c0,0.8,0.2,1.5,1,1.9c0.9,0.5,2.3,0.1,3.3,0v2.4c-1.1,0.3-2.2,0.5-3.4,0.3
				c-1.3-0.2-2.5-0.8-3.1-2c-0.5-0.9-0.6-1.8-0.6-2.8c0-1.5,0-3,0-4.5c-0.9,0-1.7,0-2.6,0V74c0.7-0.1,1.8,0.2,2.3-0.6
				c0.5-0.8,0.3-2,0.3-2.8c0.9,0,1.9,0,2.8,0c0,1.1,0,2.3,0,3.4h4.2v2.3C319.3,76.3,317.9,76.3,316.4,76.3z"/>
			<path class="st3" d="M294.7,80.8c0.1-1.4,0.1-2.6-0.5-3.9c-0.7-1.6-2.2-2.8-4-3.1c-1.6-0.3-3.4-0.1-4.8,0.9
				c-1.3,0.8-2.1,2.2-2.3,3.7c-0.2,1.4-0.1,2.9,0.5,4.1c0.8,1.5,2.3,2.6,3.9,2.9c1.9,0.4,4.1,0.1,5.6-1.2c0.7-0.6,1-1.3,1.4-2
				c-1,0-2,0-3,0c-0.4,0.3-0.8,0.8-1.3,0.9c-1.1,0.3-2.3,0.2-3.2-0.6c-0.6-0.5-0.9-1.1-1.2-1.8C288.8,80.7,291.7,80.8,294.7,80.8z
				 M285.7,78.7c0.2-0.4,0.3-0.9,0.5-1.3c0.9-1.6,3.5-2.1,4.8-0.7c0.6,0.6,0.7,1.3,0.9,2C289.9,78.8,287.8,78.8,285.7,78.7z"/>
			<path class="st3" d="M309.6,79.3c0,2,0,3.9,0,5.9h-2.8c0-2,0-4,0-6.1c0-0.8-0.2-1.6-0.7-2.2c-1.2-1.4-3.7-1.1-4.6,0.5
				c-0.4,0.6-0.4,1.4-0.4,2.1c0,1.9,0,3.8,0,5.7h-2.8c0-2.6,0-5.1,0-7.7c0-0.4,0-1-0.4-1.2c-0.5-0.2-1.1-0.1-1.6,0
				c0-0.8,0-1.5,0-2.3c1-0.3,2-0.4,3,0c0.6,0.2,0.9,0.7,1.3,1.1c0.6-0.4,1.2-0.8,1.9-1.1c1.1-0.3,2.3-0.4,3.4-0.1
				c1.6,0.3,2.9,1.5,3.4,3C309.5,77.6,309.6,78.4,309.6,79.3z"/>
			<path class="st3" d="M346.6,76.3c-1,0-1.9-0.1-2.7,0.5c-0.9,0.6-1.4,1.6-1.4,2.7c0,1.9,0,3.8,0,5.7h-2.8v-7.7c0-0.4,0-1-0.4-1.2
				c-0.5-0.2-1.1,0-1.6,0c0-0.8,0-1.5,0-2.3c1.1-0.3,2.2-0.4,3.2,0.1c0.6,0.3,0.8,0.7,1.1,1.2c0.4-0.4,0.8-0.8,1.4-1
				c1-0.5,2.1-0.5,3.2-0.5C346.6,74.5,346.6,75.4,346.6,76.3z"/>
			<path class="st3" d="M359.3,80.8c0.1-1.4,0.1-2.8-0.5-4.1c-0.7-1.5-2.1-2.6-3.8-2.9c-1.7-0.3-3.6-0.1-5,0.9
				c-1.2,0.9-2,2.2-2.2,3.7c-0.3,1.7,0,3.5,1,4.9c0.9,1.3,2.4,2,4,2.2c1.8,0.2,3.7-0.1,5.1-1.3c0.7-0.6,1-1.3,1.4-2c-1,0-2,0-3,0
				c-0.4,0.3-0.8,0.8-1.3,0.9c-1.1,0.3-2.3,0.1-3.2-0.6c-0.6-0.5-0.9-1.1-1.2-1.8C353.4,80.8,356.4,80.8,359.3,80.8z M350.4,78.7
				c0.3-0.7,0.4-1.4,1-1.9c1.1-1.2,3.3-1.3,4.4,0c0.5,0.6,0.6,1.2,0.8,1.9C354.5,78.8,352.4,78.8,350.4,78.7z"/>
			<path class="st3" d="M371.2,82.7c-0.2,0.9-0.8,1.6-1.6,2.1c-1.3,0.8-2.9,0.9-4.4,0.7c-1.4-0.2-2.8-0.8-3.6-2
				c-0.4-0.6-0.5-1.3-0.6-2c0.9,0,1.7,0,2.6,0c0.2,0.5,0.4,1.1,0.9,1.4c0.9,0.6,2.2,0.7,3.2,0.3c0.5-0.2,1-0.6,0.9-1.3
				c-0.1-0.6-0.7-0.8-1.2-1c-1.2-0.3-2.5-0.3-3.7-0.7c-0.8-0.3-1.5-0.8-1.9-1.5c-0.6-1.2-0.5-2.8,0.5-3.7c1.1-1.1,2.7-1.4,4.2-1.3
				c1.5,0,3,0.6,3.9,1.8c0.5,0.6,0.6,1.3,0.7,2.1c-0.9,0-1.7,0-2.6,0c-0.2-0.5-0.4-1.1-0.8-1.3c-0.8-0.6-2.2-0.6-3,0.1
				c-0.5,0.5-0.5,1.3,0.2,1.7c0.9,0.5,2.1,0.5,3.1,0.7c1,0.1,2,0.4,2.7,1.2C371.2,80.5,371.4,81.7,371.2,82.7z"/>
			<path class="st3" d="M282.4,74c-1.8,3.7-3.5,7.5-5.3,11.2c-0.8,0-1.7,0-2.5,0c-1.7-3.7-3.5-7.5-5.3-11.2h3
				c1.2,2.6,2.3,5.2,3.5,7.8c1.2-2.6,2.4-5.2,3.5-7.8C280.4,74,281.4,74,282.4,74z"/>
			<path class="st3" d="M336.4,82.9c0,0.8,0,1.6,0,2.4c-1,0.2-2,0.4-3,0.1c-0.7-0.2-1.1-0.6-1.6-1.1c-1.6,1.2-3.6,1.5-5.5,0.9
				c-1.3-0.4-2.4-1.4-3-2.7c-0.4-0.8-0.4-1.7-0.4-2.6c0-2,0-4,0-6h2.8c0,2,0,4,0,6c0,0.8,0.1,1.5,0.6,2.1c1.1,1.5,3.9,1.3,4.8-0.3
				c0.3-0.6,0.3-1.3,0.3-1.9c0-1.9,0-3.9,0-5.8h2.8c0,2.6,0,5.1,0,7.7c0,0.5-0.1,1.1,0.5,1.3C335.3,83.2,335.9,83,336.4,82.9z"/>
		</g>
		<rect x="258.9" y="53.8" class="st3" width="0.7" height="36.6"/>
	</g>
</g>
</svg>
