<?xml version="1.0" encoding="utf-8"?>
<!-- Generator: Adobe Illustrator 26.0.2, SVG Export Plug-In . SVG Version: 6.00 Build 0)  -->
<svg version="1.1" xmlns="http://www.w3.org/2000/svg" xmlns:xlink="http://www.w3.org/1999/xlink" x="0px" y="0px"
	 viewBox="0 0 402 146" style="enable-background:new 0 0 402 146;" xml:space="preserve">
<style type="text/css">
	.st0{display:none;}
	.st1{display:inline;fill:#190836;}
	.st2{fill:#EBE6FA;}
	.st3{fill:#181818;}
	.st4{fill-rule:evenodd;clip-rule:evenodd;fill:#181818;}
	.st5{fill:none;stroke:#181818;stroke-miterlimit:10;}
</style>
<g id="Layer_2" class="st0">
</g>
<g id="Layer_1">
	<g>
		<path class="st3" d="M101.3,96.9c-4.2,5.4-9.9,9.1-16.2,11.8h-1c3.7-10.4,4.4-21.1,3.9-32c2.2-1.3,4.5-2.7,6.7-4
			c-2.5-0.5-4.9-1.1-7.4-1.6c-3.1-4.9-5.5-9.5-11.1-11.9c-7-3.2-14.1-1.3-20.6,2.1C48,65.4,41.2,72.3,35.1,78.7v-8.6
			c2.4-16.9,14.3-29.7,31.1-32.8h12.2c9.7,2,18.5,7.1,24.2,15.3C112,65.7,111.4,84.5,101.3,96.9z"/>
		<path class="st3" d="M136.6,61.7c0.3,7.5,0.2,14.9,0,22.3c-2.4,0-4.7,0-7,0c0-7.4,0-14.9,0-22.3H136.6z"/>
		<path class="st3" d="M150.9,61.6c-0.8,3.3-1.8,5.5-3.9,8c1,0.7,2.1,1.5,3.1,2.2c0,4,0,8.1-0.1,12.1c-2.3,0-4.5,0-6.8,0
			c0-2.6-0.1-5.3-0.2-7.9c-1.7-0.1-3.4-0.2-5.1-0.4c0-2.3,0-4.5,0-6.8c2.1-2.4,4.3-4.8,6.5-7.1C146.7,61.7,148.8,61.6,150.9,61.6z"
			/>
		<path class="st3" d="M173.4,68.5c-4.9-0.1-9.8-0.9-14.8-0.8c3.8,3,7.7,1.6,12.3,2.8c2.8,2.4,1.3,8.1,1.7,11.4
			c-0.9,0.7-1.8,1.4-2.8,2.1c-5.6,0-11.2,0-16.7-1c0-2.1,0.1-4.3,0.1-6.5c4.5,0.6,8.9,1.5,13.4,1.4c-3.4-4.2-10.3-0.5-13.3-4.1
			c-0.5-3.7-0.9-8.3,0.8-11.8c5.1-0.7,10.6-0.7,15.6-0.2C172.9,62.2,172.4,66.3,173.4,68.5z"/>
		<path class="st3" d="M207.2,61.6c0,7.4,0,14.9,0,22.3c-2.3,0-4.6,0-6.9,0c0-6,0.1-11.9-0.4-17.9c-1.8,1.9-4.4,3.7-4.7,6.5
			c-0.4,3.8-0.3,7.7-0.3,11.5c-2.2,0-4.4,0-6.6,0c-0.1-5.5-0.2-10.8-2.5-16c-1.1-0.3-2.3-0.6-3.4-0.9c0,5.6,0,11.3-0.1,16.9
			c-2.3,0-4.6,0-6.9-0.1c0-7.4,0-14.8,0-22.3c4.4,0,8.7,0,13.1,0c0.9,1.1,1.8,2.2,2.7,3.4c1.2-1.1,2.4-2.1,3.5-3.1
			C198.8,61.5,203,61.6,207.2,61.6z"/>
		<path class="st3" d="M240.9,68.6c-4.8-0.2-9.6-1-14.4-0.9c4.2,3.4,9.2,1,13.6,3.5c0.7,3.7,0.4,7.7,0.5,11.5
			c-5.9,1.2-13.5,2.3-19.2-0.1c-0.2-2.1-0.4-4.1-0.5-6.2c4.1,0.5,8.1,1.2,12.1,1.9l0.1-2.7c-4-0.1-8-0.3-12-1.1
			c0.1-4.1-0.6-9,1-12.7c5.3-0.4,12-1.3,17.1,0.5C240.2,64.1,240.8,66.1,240.9,68.6z"/>
		<path class="st3" d="M260.4,61.7c0,1.9-0.1,3.7-0.1,5.6c-1.6,0-3.3,0.1-4.9,0.1c0,5.5,0,11.1-0.1,16.6c-2.3,0-4.6,0-7,0
			c0-5.5,0-11-0.1-16.6c-1.7,0-3.3-0.1-5-0.1c0-1.9,0-3.7,0-5.6C249,61.6,254.7,61.6,260.4,61.7z"/>
		<path class="st3" d="M280.8,73.7c0.1,3.4,0,6.9,0,10.3c-1.9,0-3.7-0.1-5.6-0.1c-1.8-2.8-3.1-3.8-6.2-5.2c0.8-4.3,1.3-4.1,4.9-5.9
			c-1.1-1.8-2.2-3.6-3.4-5.4c-2.5,5.4-2.3,10.8-2.4,16.7c-2.3,0-4.5,0-6.8-0.1c0-4.7-0.4-9.5,0.3-14.1c1.4-2.9,3.7-5.5,5.8-7.9
			c2.3-0.2,4.6-0.3,6.9-0.4C277.1,65.2,281.4,68.7,280.8,73.7z"/>
		<path class="st3" d="M300.3,76.9c1.4,0.6,2.8,1.3,4.1,1.9c0,1.7-0.1,3.4-0.1,5.1c-1.9,0-3.9,0.1-5.8,0.1c-4.2-4.5-6.9-7.5-7-14.1
			c1.5-0.2,2.9-0.3,4.4-0.5l0-2.1c-1.7,0-3.5,0-5.2,0c0.1,5.6,0.1,11.1-0.3,16.7c-2.2,0-4.5-0.1-6.7-0.1c0-7.4,0-14.9,0-22.3
			c5.6,0.1,11.4-0.4,17,0.3c4.2,0.7,2,8.5,2.6,11.6C302.3,74.6,301.3,75.8,300.3,76.9z"/>
		<path class="st3" d="M322.8,61.7c0,1.9,0,3.7-0.1,5.6l-5,0.1c0,5.5,0,11-0.1,16.6c-2.3,0-4.7,0-7,0.1c-0.1-5.5-0.1-11.1-0.1-16.6
			c-1.6,0-3.3-0.1-4.9-0.1c0-1.9,0-3.7,0-5.6C311.4,61.6,317.1,61.6,322.8,61.7z"/>
		<path class="st3" d="M343.4,78.3c0,1.9-0.1,3.7-0.1,5.6c-5.9,0-11.8,0-17.6,0c-0.1-7.4,0-14.9,0-22.3c5.9,0,11.9,0,17.8,0
			c0,1.9-0.1,3.7-0.1,5.6c-3.6,0-7.1,0-10.7,0.1l0,2.5c3.5,0,6.9,0,10.4,0c0.1,1.9,0.2,3.8,0.2,5.7c-3.5,0-7.1,0-10.6,0.1l0.1,2.5
			C336.2,78.2,339.8,78.3,343.4,78.3z"/>
		<path class="st3" d="M74.5,75.1c-4.1,1-5.1-3.3-2.5-5.7C76.2,68.2,78.5,73.4,74.5,75.1z"/>
		<path class="st3" d="M207.2,84c-2.3,0-4.6,0-6.9,0c0-6,0.1-11.9-0.4-17.9c-1.8,1.9-4.4,3.7-4.7,6.5c-0.4,3.8-0.3,7.7-0.3,11.5
			c-2.2,0-4.4,0-6.6,0c-0.1-5.5-0.2-10.8-2.5-16c-1.1-0.3-2.3-0.6-3.4-0.9c0,5.6,0,11.3-0.1,16.9c-2.3,0-4.6,0-6.9-0.1
			c0-7.4,0-14.8,0-22.3c4.4,0,8.7,0,13.1,0c0.9,1.1,1.8,2.2,2.7,3.4c1.2-1.1,2.4-2.1,3.5-3.1c4.2-0.3,8.5-0.2,12.7-0.2
			C207.3,69.1,207.3,76.5,207.2,84z"/>
		<path class="st3" d="M343.4,78.3c0,1.9-0.1,3.7-0.1,5.6c-5.9,0-11.8,0-17.6,0c-0.1-7.4,0-14.9,0-22.3c5.9,0,11.9,0,17.8,0
			c0,1.9-0.1,3.7-0.1,5.6c-3.6,0-7.1,0-10.7,0.1l0,2.5c3.5,0,6.9,0,10.4,0c0.1,1.9,0.2,3.8,0.2,5.7c-3.5,0-7.1,0-10.6,0.1l0.1,2.5
			C336.2,78.2,339.8,78.3,343.4,78.3z"/>
		<path class="st3" d="M136.6,84c-2.4,0-4.7,0-7,0c0-7.4,0-14.9,0-22.3h7.1C136.9,69.1,136.9,76.5,136.6,84z"/>
		<path class="st3" d="M147,69.7c1,0.7,2.1,1.5,3.1,2.2c0,4,0,8.1-0.1,12.1c-2.3,0-4.5,0-6.8,0c0-2.6-0.1-5.3-0.2-7.9
			c-1.7-0.1-3.4-0.2-5.1-0.4c0-2.3,0-4.5,0-6.8c2.1-2.4,4.3-4.8,6.5-7.1c2.1-0.1,4.2-0.1,6.3-0.2C150.2,64.9,149.1,67.1,147,69.7z"
			/>
		<path class="st3" d="M172.7,81.9c-0.9,0.7-1.8,1.4-2.8,2.1c-5.6,0-11.2,0-16.7-1c0-2.1,0.1-4.3,0.1-6.5c4.5,0.6,8.9,1.5,13.4,1.4
			c-3.4-4.2-10.3-0.5-13.3-4.1c-0.5-3.7-0.9-8.3,0.8-11.8c5.1-0.7,10.6-0.7,15.6-0.2c3.1,0.3,2.6,4.5,3.6,6.7
			c-4.9-0.1-9.8-0.9-14.8-0.8c3.8,3,7.7,1.6,12.3,2.8C173.7,72.9,172.2,78.6,172.7,81.9z"/>
		<path class="st3" d="M240,71.3c0.7,3.7,0.4,7.7,0.5,11.5c-5.9,1.2-13.5,2.3-19.2-0.1c-0.2-2.1-0.4-4.1-0.5-6.2
			c4.1,0.5,8.1,1.2,12.1,1.9l0.1-2.7c-4-0.1-8-0.3-12-1.1c0.1-4.1-0.6-9,1-12.7c5.3-0.4,12-1.3,17.1,0.5c1.1,1.6,1.6,3.6,1.7,6.1
			c-4.8-0.2-9.6-1-14.4-0.9C230.7,71.1,235.6,68.7,240,71.3z"/>
		<path class="st3" d="M260.4,61.7c0,1.9-0.1,3.7-0.1,5.6c-1.6,0-3.3,0.1-4.9,0.1c0,5.5,0,11.1-0.1,16.6c-2.3,0-4.6,0-7,0
			c0-5.5,0-11-0.1-16.6c-1.7,0-3.3-0.1-5-0.1c0-1.9,0-3.7,0-5.6C249,61.6,254.7,61.6,260.4,61.7z"/>
		<path class="st3" d="M280.8,73.7c0.1,3.4,0,6.9,0,10.3c-1.9,0-3.7-0.1-5.6-0.1c-1.8-2.8-3.1-3.8-6.2-5.2c0.8-4.3,1.3-4.1,4.9-5.9
			c-1.1-1.8-2.2-3.6-3.4-5.4c-2.5,5.4-2.3,10.8-2.4,16.7c-2.3,0-4.5,0-6.8-0.1c0-4.7-0.4-9.5,0.3-14.1c1.4-2.9,3.7-5.5,5.8-7.9
			c2.3-0.2,4.6-0.3,6.9-0.4C277.1,65.2,281.4,68.7,280.8,73.7z"/>
		<path class="st3" d="M304.4,78.8c0,1.7-0.1,3.4-0.1,5.1c-1.9,0-3.9,0.1-5.8,0.1c-4.2-4.5-6.9-7.5-7-14.1c1.5-0.2,2.9-0.3,4.4-0.5
			l0-2.1c-1.7,0-3.5,0-5.2,0c0.1,5.6,0.1,11.1-0.3,16.7c-2.2,0-4.5-0.1-6.7-0.1c0-7.4,0-14.9,0-22.3c5.6,0.1,11.4-0.4,17,0.3
			c4.2,0.7,2,8.5,2.6,11.6c-1,1.1-2,2.3-3,3.4C301.7,77.5,303.1,78.2,304.4,78.8z"/>
		<path class="st3" d="M322.8,61.7c0,1.9,0,3.7-0.1,5.6l-5,0.1c0,5.5,0,11-0.1,16.6c-2.3,0-4.7,0-7,0.1c-0.1-5.5-0.1-11.1-0.1-16.6
			c-1.6,0-3.3-0.1-4.9-0.1c0-1.9,0-3.7,0-5.6C311.4,61.6,317.1,61.6,322.8,61.7z"/>
		<path class="st3" d="M366.9,79v4.8c-1.9,0.1-3.8,0.1-5.7,0.2c-2.4-2.8-4.8-5.5-7.1-8.3c0.6-5,0.3-5.3,5.2-7.7
			c-2-0.4-4.1-0.8-6.1-1.2C353,72.6,353,78.3,353,84c-2.3,0-4.5,0-6.8,0c-0.1-7.4-0.1-14.9,0-22.3c5.8,0,11.8-0.4,17.5,0.3
			c3.3,2,1.6,8.1,2.1,11.5c-0.9,1.1-1.9,2.2-2.8,3.2C364.2,77.4,365.6,78.2,366.9,79z"/>
		<path class="st3" d="M74.5,75.1c-4.1,1-5.1-3.3-2.5-5.7C76.2,68.2,78.5,73.4,74.5,75.1z"/>
	</g>
</g>
</svg>
