<?xml version="1.0" encoding="utf-8"?>
<!-- Generator: Adobe Illustrator 26.0.2, SVG Export Plug-In . SVG Version: 6.00 Build 0)  -->
<svg version="1.1" xmlns="http://www.w3.org/2000/svg" xmlns:xlink="http://www.w3.org/1999/xlink" x="0px" y="0px"
	 viewBox="0 0 402 146" style="enable-background:new 0 0 402 146;" xml:space="preserve">
<style type="text/css">
	.st0{display:none;}
	.st1{display:inline;fill:#190836;}
	.st2{fill:#EBE6FA;}
	.st3{fill:#181818;}
	.st4{fill-rule:evenodd;clip-rule:evenodd;fill:#181818;}
	.st5{fill:none;stroke:#181818;stroke-miterlimit:10;}
</style>
<g id="Layer_2" class="st0">
</g>
<g id="Layer_1">
	<g>
		<path class="st3" d="M111.9,116.1c3.9,0,7.8,0,11.7,0v2.9c-2.7,0-5.5,0-8.2,0c0,2.5,0,5.1,0,7.6h-3.5
			C111.9,123.2,111.9,119.6,111.9,116.1z"/>
		<path class="st3" d="M111.8,108.5c4.1,0,8.2,0,12.4,0c0,1,0,2,0,2.9c-4.1,0-8.2,0-12.3,0C111.9,110.5,111.9,109.5,111.8,108.5z"/>
		<path class="st3" d="M138.3,108.5c0,6.1,0,12.1,0,18.2c-1.2,0-2.4,0-3.5,0v-18.2C135.9,108.5,137.1,108.5,138.3,108.5z"/>
		<path class="st3" d="M162.2,118c2.1,2.1,1.7,6.2-1,7.6c-4.2,2.3-8.8,1-12.4-1.9c0.5-1,0.9-1.9,1.4-2.9c1.4,0.8,2.6,1.7,4.1,2.2
			c1.5,0.3,3,0.1,4.5,0.2c0.5-1.1,1.3-2,0.2-3c-2.1-1.5-5.9-1.6-8-3.8c-1.3-1.2-1.1-3.1-0.9-4.7c0.9-2.7,3.9-3.3,6.4-3.7
			c2.3,0.2,4.6,0.9,6.7,1.8c-0.3,1-0.6,2.1-1,3.1c-2.4-0.6-4.3-1.7-6.8-1.3c-0.7,0.3-1.4,0.9-2,1.3c0.5,0.7,0.9,1.4,1.5,1.9
			C157.1,115.9,160.6,116,162.2,118z"/>
		<path class="st3" d="M186.9,108.5h3.5v18.2h-3.5c0-2.5,0-5.1,0-7.6c-2.9,0-5.9,0-8.8,0c0,2.5,0,5.1,0,7.6c-1.2,0-2.4,0-3.5,0
			c0-6.1,0-12.1,0-18.2c1.2,0,2.3,0,3.5,0v7.6c2.9,0,5.9,0,8.8,0C186.9,113.6,186.9,111,186.9,108.5z"/>
		<path class="st3" d="M232.8,110.7c-1.5-1.2-3.5-2.3-5.4-2.2c-2.9,0-5.9,0.1-8.8,0c0,6.1,0,12.1,0,18.2c4.3-0.1,8.1,0.7,12.2-1.3
			c3-1.3,4.3-4.6,4.9-7.6C235.6,115.4,234.5,112.5,232.8,110.7z M229.8,122.1c-1.9,1.7-5.3,0.9-7.7,1c0-3.9-0.1-7.8,0.1-11.6
			c2.8,0,5.5-0.8,7.7,1.5C232.7,115.4,232.3,119.7,229.8,122.1z"/>
		<path class="st3" d="M259.7,119c1.2,2.6,2.1,5.2,3.5,7.7c-1.3,0-2.7,0-4,0c-1.9-4.8-4-9.6-6-14.4c-2,4.8-4.2,9.5-6,14.4
			c-1.3,0-2.5,0-3.8,0c2-5.1,4.4-10,6.5-15c0.5-1.1,0.9-2.3,1.7-3.1c1.2-0.1,2.5,0,3.8,0C256.6,112.1,258.3,115.5,259.7,119z"/>
		<path class="st3" d="M260.5,53.9c3.1-1.7,6.4-3.3,9.6-4.9c-2.9-2-6-3.6-9-5.3c-12.5-7.2-25.1-14.4-37.6-21.6c-1.7-1-3.4-2-5.2-2.9
			c-3.2,1.4-6,3.2-9,4.9c-10.4,5.9-20.8,12-31.3,18c-3.1,1.8-6.4,3.5-9.4,5.5c-7.1-7.1-14.3-14.3-21.4-21.4
			c-2.3-2.3-4.6-4.8-7.1-6.9c-0.2,3.7-0.1,7.4-0.1,11.2c0,7.8,0,15.6,0,23.4c-0.1,11.6-0.2,23.1,0.1,34.7c2.7-2.2,5-4.8,7.4-7.2
			c7.1-7,14-14.2,21.2-21.1c14.3,8.3,28.6,16.4,42.9,24.7c2.2,1.3,4.4,2.6,6.8,3.7c17.2-10,34.6-19.8,51.8-29.8
			C266.9,57.3,263.7,55.7,260.5,53.9z M242.2,39.5c2.9-1,6.3,2,6,4.9c-0.2,1.2-0.8,2.6-1.7,3.5c-1.4,0.9-3.3,1-4.8,0.6
			c-2.1-0.6-3.2-3-3.1-5C239,41.7,240.5,40.1,242.2,39.5z"/>
		<path class="st3" d="M290.1,116.7c0.2-2.8-1.8-5.6-4.1-7.1c-1.9-1.2-4.1-1.5-6.2-1.3c-2.7,0.1-4.9,1.3-6.6,3.2
			c-1.7,1.6-2.1,3.6-2.4,5.8c0.3,2.4,1.2,5.2,3.1,6.9c2.6,2,5.8,3.1,9.1,2.3c2.8-0.7,5.3-2.6,6.7-5.2
			C290.3,119.9,290.1,118.4,290.1,116.7z M286.5,119c-0.9,3-3.9,5.2-7.1,4.3c-1.8-0.2-3-1.7-4.1-3c-1.6-3.2-0.2-7.4,3.2-8.7
			c2.3-0.5,4.7-0.5,6.4,1.4C286.7,114.7,286.7,116.7,286.5,119z"/>
		<path class="st3" d="M174.2,53.8c-2,0.1-4.1,0.2-6.1,0.2c-9.4,0-18.8-0.1-28.2,0c-0.1-7.8,0-15.6,0-23.4c0-3.7-0.1-7.5,0.1-11.2
			c2.6,2.1,4.8,4.6,7.1,6.9c7.1,7.1,14.3,14.3,21.4,21.4C170.6,49.7,172.6,51.5,174.2,53.8z"/>
		<path class="st3" d="M270.1,58.9c-17.2,10-34.6,19.9-51.8,29.8c-0.3-1.6-0.6-3.2-0.6-4.8c0-9.9,0.1-19.8,0-29.6
			c-13.4-0.1-26.8,0.1-40.2-0.1c-1.1,0.1-2.4-0.1-3.2,0.7c-2,1.7-3.7,3.7-5.6,5.4c-7.2,6.9-14.1,14.1-21.2,21.1
			c-2.5,2.4-4.8,5-7.4,7.2c-0.2-11.5-0.1-23.1-0.1-34.7c9.4-0.1,18.8,0,28.2,0c2,0,4.1,0,6.1-0.2c-1.6-2.3-3.7-4.2-5.6-6.2
			c3-2,6.3-3.7,9.4-5.5c10.4-6,20.8-12,31.3-18c3-1.7,5.9-3.6,9-4.9c-0.4,2.6-0.4,5.2-0.4,7.8c0.1,9-0.1,17.9,0.1,26.9
			c14.2,0.1,28.3,0.1,42.5,0.1C263.7,55.7,266.9,57.3,270.1,58.9z"/>
		<path class="st3" d="M261,43.7c-12.5-7.2-25.1-14.4-37.6-21.6c-1.7-1-3.4-2-5.2-2.9c-0.4,2.6-0.4,5.2-0.4,7.8
			c0.1,9-0.1,17.9,0.1,26.9c14.2,0.1,28.3,0.1,42.5,0c3.1-1.7,6.4-3.3,9.6-4.9C267.2,47,264.1,45.5,261,43.7z M248.2,44.5
			c-0.2,1.2-0.8,2.6-1.7,3.5c-1.4,0.9-3.3,1-4.8,0.6c-2.1-0.6-3.2-3-3.1-5c0.4-1.8,1.9-3.4,3.6-4C245.1,38.5,248.5,41.5,248.2,44.5z
			"/>
		<path class="st3" d="M218.3,88.7c-2.3-1.1-4.5-2.5-6.8-3.7c-14.3-8.3-28.6-16.4-42.8-24.7c1.9-1.7,3.6-3.8,5.6-5.4
			c0.8-0.8,2.1-0.6,3.2-0.7c13.4,0.1,26.8,0,40.2,0.1c0.1,9.9,0,19.8,0,29.6C217.7,85.5,218,87.1,218.3,88.7z"/>
		<path class="st3" d="M161.1,125.6c-4.2,2.3-8.8,1-12.4-1.9c0.5-1,0.9-1.9,1.4-2.9c1.4,0.8,2.6,1.7,4.1,2.2c1.5,0.3,3,0.1,4.5,0.2
			c0.5-1.1,1.3-2,0.2-3c-2.1-1.5-5.9-1.6-8-3.8c-1.3-1.2-1.1-3.1-0.9-4.7c0.9-2.7,3.9-3.3,6.4-3.7c2.3,0.2,4.6,0.9,6.7,1.8
			c-0.3,1-0.6,2.1-1,3.1c-2.4-0.6-4.3-1.7-6.8-1.3c-0.7,0.3-1.4,0.9-2,1.3c0.5,0.7,0.9,1.4,1.5,1.9c2.2,1.2,5.7,1.2,7.3,3.3
			C164.3,120,163.9,124.2,161.1,125.6z"/>
		<path class="st3" d="M290.1,116.7c0.2-2.8-1.8-5.6-4.1-7.1c-1.9-1.2-4.1-1.5-6.2-1.3c-2.7,0.1-4.9,1.3-6.6,3.2
			c-1.7,1.6-2.1,3.6-2.4,5.8c0.3,2.4,1.2,5.2,3.1,6.9c2.6,2,5.8,3.1,9.1,2.3c2.8-0.7,5.3-2.6,6.7-5.2
			C290.3,119.9,290.1,118.4,290.1,116.7z M286.5,119c-0.9,3-3.9,5.2-7.1,4.3c-1.8-0.2-3-1.7-4.1-3c-1.6-3.2-0.2-7.4,3.2-8.7
			c2.3-0.5,4.7-0.5,6.4,1.4C286.7,114.7,286.7,116.7,286.5,119z"/>
		<path class="st3" d="M124.2,108.5c0,1,0,2,0,2.9c-4.1,0-8.2,0-12.3,0c0-1,0-2,0-2.9C116,108.5,120.1,108.5,124.2,108.5z"/>
		<path class="st3" d="M138.3,126.7c-1.2,0-2.4,0-3.5,0v-18.2c1.2,0,2.4,0,3.5,0C138.2,114.6,138.3,120.6,138.3,126.7z"/>
		<path class="st3" d="M190.4,108.5v18.2h-3.5c0-2.5,0-5.1,0-7.6c-2.9,0-5.9,0-8.8,0c0,2.5,0,5.1,0,7.6c-1.2,0-2.4,0-3.5,0
			c0-6.1,0-12.1,0-18.2c1.2,0,2.3,0,3.5,0v7.6c2.9,0,5.9,0,8.8,0c0-2.5,0-5.1,0-7.6H190.4z"/>
		<path class="st3" d="M232.8,110.7c-1.5-1.2-3.5-2.3-5.4-2.2c-2.9,0-5.9,0.1-8.8,0c0,6.1,0,12.1,0,18.2c4.3-0.1,8.1,0.7,12.2-1.3
			c3-1.3,4.3-4.6,4.9-7.6C235.6,115.4,234.5,112.5,232.8,110.7z M229.8,122.1c-1.9,1.7-5.3,0.9-7.7,1c0-3.9-0.1-7.8,0.1-11.6
			c2.8,0,5.5-0.8,7.7,1.5C232.7,115.4,232.3,119.7,229.8,122.1z"/>
		<path class="st3" d="M263.2,126.7c-1.3,0-2.7,0-4,0c-1.9-4.8-4-9.6-6-14.4c-2,4.8-4.2,9.5-6,14.4c-1.3,0-2.5,0-3.8,0
			c2-5.1,4.4-10,6.5-15c0.5-1.1,0.9-2.3,1.7-3.1c1.2-0.1,2.5,0,3.8,0c1.3,3.6,3,7,4.4,10.5C260.9,121.5,261.8,124.2,263.2,126.7z"/>
		<path class="st3" d="M123.6,116.1v2.9c-2.7,0-5.5,0-8.2,0c0,2.5,0,5.1,0,7.6h-3.5c0-3.5,0-7,0-10.6
			C115.8,116.1,119.7,116.1,123.6,116.1z"/>
	</g>
</g>
</svg>
