<?xml version="1.0" encoding="utf-8"?>
<!-- Generator: Adobe Illustrator 26.0.2, SVG Export Plug-In . SVG Version: 6.00 Build 0)  -->
<svg version="1.1" xmlns="http://www.w3.org/2000/svg" xmlns:xlink="http://www.w3.org/1999/xlink" x="0px" y="0px"
	 viewBox="0 0 402 146" style="enable-background:new 0 0 402 146;" xml:space="preserve">
<style type="text/css">
	.st0{display:none;}
	.st1{display:inline;fill:#190836;}
	.st2{fill:#EBE6FA;}
	.st3{fill:#181818;}
	.st4{fill-rule:evenodd;clip-rule:evenodd;fill:#181818;}
	.st5{fill:none;stroke:#181818;stroke-miterlimit:10;}
</style>
<g id="Layer_2" class="st0">
</g>
<g id="Layer_1">
	<g>
		<path class="st3" d="M167.9,46c2.6-3.8,5.3-7.4,8.2-11c0.7-1.4,1.1-2.8,1.4-4.5c-1.7,0.3-3.5,0.6-5.2,0.8
			c-0.1,1.2-0.3,2.4-0.5,3.6c-1.8,3.1-4,6-5.9,9c-15-14.5-40.3-14.6-55.6-0.6c-15.4,14-17.6,39.2-5.6,56c-3.3,4.9-7.2,9.2-9.3,14.6
			c5.2-1.4,8-8.1,11.1-12.1c5.3,5.4,11.3,9.8,18.7,11.8c14.4,4.1,30.8,0.9,41.3-10.1C180.7,88.3,181.7,61.9,167.9,46z M112.1,55.8
			c2.5-7.3,8-14.2,15.4-16.9c7.7-2.9,16.6-1.4,23.2,3.2c3.9,2.7,6.7,6.4,9.4,10.4c-5.3,7.7-10.4,15.5-15.5,23.3
			c-6.2-1.8-12.3-3.9-18.4-5.9c-4.7,6.3-9.2,12.8-13.9,19.1C109.3,78.1,108.6,66.6,112.1,55.8z M163.1,92.3
			c-1.9,5.6-5.4,11.8-10.7,14.9c-8,5.2-19.1,4.8-27-0.5c-5.7-3.6-8.7-8.8-11.9-14.4c4.8-6.2,9.2-12.6,13.8-18.9
			c6.2,2.1,12.3,4.1,18.6,5.9c4.3-7,9.1-13.7,13.6-20.6c0.7-1,1.4-2.1,2.1-3.1C165.7,67.3,166.7,80.3,163.1,92.3z"/>
		<path class="st3" d="M169.7,31.7c4.3,2-3.3,4.7-4,1.7C166.8,32.6,168.2,32,169.7,31.7z"/>
		<path class="st3" d="M298,36c0.5,6.7,1.2,13.4,1.5,20.1c-1.1,0-2.2,0-3.4-0.1c-2.2-6.4-4.2-12.5-10.8-15.6
			c-10.5-4.8-24.5-4.1-33.8,3.2c-8.4,6.6-11.2,18-11.4,28.1c0,10.6,2.8,22.6,10.5,30.4c7.7,7.8,19.1,10.3,29.7,8.1
			c3.8-1.2,7.3-2.5,7.6-7.1c0.1-6.3,1-13.6-1.1-19.7c-3.7-3.6-10.7-0.8-12.4-6.5c10.7-0.1,21.5-0.1,32.2,0c-0.1,1.1-0.1,2.1-0.2,3.2
			c-2.5,0.7-4.9,1.5-7.3,2.3c-0.4,9.6-0.4,19.2,0.1,28.7c-17.6,4.2-35.1,7.5-51.9-1.5c-16.4-9-22.9-28.6-18.5-46.3
			c3.1-13.7,14.8-24.5,28.1-28.3C270,31.3,284.8,33.3,298,36z"/>
		<path class="st3" d="M186.4,34.8c10.9-0.1,21.7,0,32.6-0.1l0.1,3.2c-3.2,0.7-8.1,0.8-10.2,3.7c-1.5,7.1-0.5,14.9-0.8,22.1
			c0.3,14.6-0.6,29.4,0.6,44c3.4,1.3,6.8,2.3,10.4,3l0.1,3.2c-10.8-0.1-21.7,0.1-32.5-0.1c0-1.1-0.1-2.1-0.1-3.2
			c2.9-0.7,6.3-1,8.9-2.6c2.1-2.4,1.9-6.1,2-9.1c0-16.3,0-32.5,0-48.8c-0.1-3-0.1-6.9-1.7-9.6c-2.5-1.7-6.1-2-9.1-2.6
			C186.5,36.8,186.5,35.8,186.4,34.8z"/>
		<path class="st3" d="M177.8,41.3l-0.8-0.1c-0.7-1.2-1-2.6-1-4.1C178.5,36.3,178.6,39.8,177.8,41.3z"/>
	</g>
</g>
</svg>
