<?xml version="1.0" encoding="utf-8"?>
<!-- Generator: Adobe Illustrator 26.0.2, SVG Export Plug-In . SVG Version: 6.00 Build 0)  -->
<svg version="1.1" xmlns="http://www.w3.org/2000/svg" xmlns:xlink="http://www.w3.org/1999/xlink" x="0px" y="0px"
	 viewBox="0 0 402 146" style="enable-background:new 0 0 402 146;" xml:space="preserve">
<style type="text/css">
	.st0{display:none;}
	.st1{display:inline;fill:#190836;}
	.st2{fill:#EBE6FA;}
	.st3{fill:#181818;}
	.st4{fill-rule:evenodd;clip-rule:evenodd;fill:#181818;}
	.st5{fill:none;stroke:#181818;stroke-miterlimit:10;}
</style>
<g id="Layer_2" class="st0">
</g>
<g id="Layer_1">
	<g>
		<path class="st3" d="M75.9,40.2l0,0.5c-3,0-6,0.2-9-0.2C69.7,39.9,72.9,40.2,75.9,40.2z"/>
		<path class="st3" d="M103.8,77.6C102.3,87.8,96.7,95,88.5,101c-2.2,0.9-4.4,2.1-6.6,3h-0.4c-0.4-0.2-0.9-0.4-1.3-0.6
			c1.6-0.6,3.2-1.1,4.7-1.9c15.8-7,22.5-26.6,15.1-42.1c-4.4-9.5-14.5-17.1-25.1-17.8c-2.5-0.6-5-0.6-7.5,0
			c-16,1.5-28.6,16.4-27.7,32.5c0.3,12.8,8.6,24.1,20.5,28.5c0.6,0.3,1.3,0.5,1.9,0.8l-0.8,0.7c-13.8-4.1-23-17.4-22.8-31.7
			c0.1-15.9,12.5-29.9,28.3-31.9c3,0.3,6,0.2,9,0.2c13.3,1,25.6,13.2,27.7,26.3c0.1,0.5,0.2,0.9,0.3,1.4
			C103.6,71.5,103.6,74.5,103.8,77.6z"/>
		<path class="st3" d="M74.9,41.6c-2.5,0.3-4.9,0.3-7.5,0C69.9,41.1,72.4,41.1,74.9,41.6z"/>
		<path class="st3" d="M71.5,70.2c-1,1.2-3.6,2.5-5.1,2.7c-3.1-1.5-6-3.5-9-5.1c-0.3-0.1-0.6-0.3-0.9-0.4c-0.4,3.6,0.2,7.3-0.3,10.9
			l-0.8,0.3c-1.2-1.1-4.4-2-4-4c0-5.4-0.1-10.7,0.1-16.1C58.1,62.4,65,66.2,71.5,70.2z"/>
		<path class="st3" d="M75,67.2c-4.2-2.9-9.4-5.2-13.1-8.7c1.2-1.3,2.9-2.4,4.4-3.1c1.3,0.6,2.5,1.6,3.7,2.3
			c3.8,2.5,7.9,4.7,11.5,7.5C79.5,66.6,77.5,69.2,75,67.2z"/>
		<path class="st3" d="M64.6,78.3c5.1,3,10.8,5.9,15.3,9.7c-1.3,1-2.9,1.9-4.6,2.2c-1.7-0.2-3.2-1.7-4.7-2.5
			c-3.4-2.2-7.9-4.1-10.8-6.8C61.3,80,63,78.6,64.6,78.3z"/>
		<path class="st3" d="M90.3,87.5c-6.9-3.3-13.6-8.2-20.4-11.9c0.6-1.1,3.6-2.9,4.8-3c3.2,1.8,6.4,3.7,9.5,5.7
			c0.5,0.3,1,0.4,1.5,0.3c0.5-3.3-0.5-7.1,0.6-10.2c1.3,0.5,2.6,1.3,3.9,2L90.3,87.5z"/>
		<path class="st3" d="M313.8,53.1c0.2,1.4,0.2,2.8,0,4.2c-1.7,0.4-4.5-0.5-5.6,1.1c-1.4,1.1-0.9,3.6-0.9,5.1
			c0.5,1.2,5.1,0.3,6.5,0.6c0.2,1.5,0.2,2.9,0,4.4c-2.2,0.1-4.4-0.1-6.6,0.1l-0.5,0.1c-0.4,6.4,0.1,12.8-0.2,19.2
			c-1.2,0.2-2.5,0.2-3.7,0c-0.6-6,0.6-13.1-0.6-18.9c-0.4-0.9-2.7-0.3-3.6-0.4c0.1-1.5,0.1-2.9,0.3-4.4c0.6-0.3,3.3,0.1,3.1-0.8
			c0.2-3.2-0.3-6,1.9-8.7C306,52.3,310.9,53,313.8,53.1z"/>
		<path class="st3" d="M124.3,54.1c0,2.2,0,4.4-0.1,6.5c-1.6,0.2-3.4,0-5,0c1.3-0.7,3-0.4,4.4-0.6C124,58.8,123.1,54.5,124.3,54.1z"
			/>
		<path class="st3" d="M124.3,54.1c1.1-0.1,2.2-0.1,3.3,0l0,0.5c-5.1-1-1.3,4.4-3.3,6.1C124.3,58.5,124.2,56.3,124.3,54.1z"/>
		<path class="st3" d="M127.5,54.1c1.2,0.4,0.3,4.7,0.7,6c1.8,0.5,6.9-0.6,7.6,0.7h-0.5c-2.6-0.1-5.1,0.1-7.7-0.2
			c-0.2-2-0.1-4-0.2-6L127.5,54.1z"/>
		<path class="st3" d="M289,54.2c1.6-0.2,3.5-0.4,5,0.3c-1.5,0.1-3,0.1-4.5,0.3c-0.2,1.6-0.2,3.2,0,4.8c1.4,0.2,2.8,0.2,4.2,0
			c0.2-1.7,0.2-3.4,0.3-5c0.7,1.7,0.4,3.9,0.6,5.8c-1.9-0.1-3.7-0.1-5.6-0.2C288.8,58.2,288.8,56.1,289,54.2z"/>
		<path class="st3" d="M127.5,54.6c0.1,2-0.1,4,0.2,6c2.5,0.3,5.1,0.1,7.7,0.2c0,1.4,0.1,2.9-0.1,4.3c-4.7,0.6-10.5-0.6-14.9,0.6
			l-0.6,0.5l-0.6,0.6c-0.9,0.8-0.8,2,0,2.8c0.4,0.4,0.7,0.8,1.2,1.2c3,1.1,6.9,0.1,10.1,0.5c0.7,0.7,1.4,0.6,2.3,0.3
			c2.1,1,3,2,4,4.1c-0.3,1.4-0.3,2.5-0.1,3.8c-0.9,0.6-0.8,1.3-0.5,2.3c-2.2,3.3-4.4,3.1-7.9,3.9c-1.1,0.5-0.4,3.9-0.6,5
			c-4.6,0.6-1.7-2.5-3.2-5.2c-3.1-1-7-0.3-10.3-0.3c0.1-1.4,0.1-2.7,0.1-4.1c4.9-0.2,10.4,0.6,15.1-0.4c0.4-0.2,0.7-0.4,1.1-0.6
			c0.4-0.4,0.8-0.7,1.2-1.2c0.8-0.8,0.8-2.1,0-2.8c-0.5-0.5-1-1-1.6-1.2c-3.4-0.9-7.3-0.3-10.8-0.2c-1.5-0.7-3-1.4-4.3-2.4
			c-0.2-0.7-0.5-1.4-0.7-2.1c0.1-1.6,0.1-3.1,0-4.7c0.7-2.7,2.7-3.9,5-5c1.7,0,3.4,0.2,5,0C126.3,59,122.4,53.6,127.5,54.6z"/>
		<path class="st3" d="M289.5,54.8c1.5-0.2,3-0.2,4.5-0.3c-0.1,1.7-0.1,3.4-0.3,5c-1.4,0.2-2.8,0.2-4.2,0
			C289.3,58,289.3,56.3,289.5,54.8z"/>
		<path class="st3" d="M81.5,65.2c-2,1.4-4,4-6.5,2c-4.2-2.9-9.4-5.2-13.1-8.7c1.2-1.3,2.9-2.4,4.4-3.1c1.3,0.6,2.5,1.6,3.7,2.3
			C73.8,60.2,77.9,62.4,81.5,65.2z"/>
		<path class="st3" d="M150.4,56.4c-0.7,0.8-1.4,0.7-2.3,0.3C148.9,56.1,149.5,56.1,150.4,56.4z"/>
		<path class="st3" d="M150.4,56.4c0.5,0,1,0,1.6,0c0.7,0.8,1.4,0.7,2.3,0.4c0.4,0.2,0.7,0.4,1.1,0.6c0.4,1,0.7,1.3,1.8,1.5
			c3.8,7.7,7.2,15.7,11,23.5c0.4,1.4,2.6,1.5,3.4,0.6l0.5-0.6c1.1-7,0.1-16.1,0.5-23.4c-0.6-2.7,2.8-1.5,4.3-1.6
			c0.4,9.1-0.2,18.2,0.3,27.3c-1.6,5.9-11.3,5.8-13.7,0.6c-3.8-7.8-7-15.9-11-23.5c-0.4-1-1.6-1-2.2-0.1l-0.6,0.7
			c-1.2,7.4-0.1,17.7-0.6,25.6c-1.6,0-3.3,0.1-4.9-0.1c-0.3-9.1,0.1-18.2-0.2-27.3c0.7-2.3,1.7-3.1,3.9-4
			C149,57.1,149.7,57.2,150.4,56.4z"/>
		<path class="st3" d="M152,56.4c0.9-0.3,1.6-0.3,2.3,0.4C153.4,57.1,152.7,57.2,152,56.4z"/>
		<path class="st3" d="M177.8,56.7c-2,0.1-3.9,0.1-5.8,0C173.3,56,176.4,56,177.8,56.7z"/>
		<path class="st3" d="M256,56.3c0.6,0.9,1.4,0.8,2.3,0.4c3,1.4,3.9,4,5.3,6.9c2.6,6.2,5.7,12.3,8.4,18.5c0.7,1.8,2.1,1.8,3.7,1.1
			l0.4-0.2c0.4-0.1,0.5-0.5,0.5-1.1c0.2-8.1-0.2-16.2,0.2-24.3c1.6-0.2,3.3-0.1,4.9-0.2c0,8.8-0.2,17.6,0.1,26.3
			c-0.8,3.1-2.8,4.6-5.7,5.6c-1.3-0.4-2.1-0.4-3.4,0c-1.8-0.8-3.7-1.5-4.8-3.2c-3.9-8-7.3-16.4-11.4-24.3c-0.4-1-1.6-0.9-2.2-0.1
			l-0.6,0.6l-0.5,0.6c-0.4,0.4-0.5,1-0.5,1.7c-0.1,7.7,0.2,15.5-0.1,23.3c-1.4,0.2-2.9,0.1-4.3,0.1c-0.2-9.1,0.2-18.3-0.2-27.4
			C249.1,56.9,252.7,56.2,256,56.3z"/>
		<path class="st3" d="M256,56.3c0.9-0.2,1.6-0.2,2.3,0.4C257.4,57.1,256.7,57.2,256,56.3z"/>
		<path class="st3" d="M281.8,56.8c-2,0.1-3.9,0.1-5.8,0C277.3,56,280.4,56,281.8,56.8z"/>
		<path class="st3" d="M172,56.7c0.3,8.6-0.1,17.2,0.2,25.7l-0.5,0.6C171.7,74.6,171,65,172,56.7z"/>
		<path class="st3" d="M172,56.7c2,0.1,3.9,0.1,5.8,0c-0.2,8.9-0.2,18,0,27c-0.2,0.4-0.4,0.7-0.6,1.1c-0.4-9.1,0.1-18.2-0.3-27.3
			c-1.6,0.1-5-1.1-4.3,1.6c-0.3,7.3,0.6,16.4-0.5,23.4C171.9,73.9,172.3,65.3,172,56.7z"/>
		<path class="st3" d="M177.8,56.7c0.9,2.2,0.3,5.1,0.5,7.4c-0.1,6.3,0,12.5,0,18.8l-0.4,0.7C177.5,74.8,177.6,65.7,177.8,56.7z"/>
		<path class="st3" d="M276,56.7c0.3,8.7,0.1,17.5,0.1,26.2l-0.4,0.2C275.6,74.7,275,65,276,56.7z"/>
		<path class="st3" d="M276,56.7c2,0.1,3.9,0.1,5.8,0l-0.1,0.6c-1.6,0.1-3.3,0-4.9,0.2c-0.3,8.1,0,16.2-0.2,24.3
			c0,0.6-0.2,0.9-0.5,1.1C276,74.2,276.2,65.5,276,56.7z"/>
		<path class="st3" d="M281.8,56.8c0.5,0.9,0.4,1.9,0.5,2.9c-0.3,7.9,0.5,16.2-0.4,24.1c-0.4-8.8-0.1-17.6-0.1-26.3L281.8,56.8z"/>
		<path class="st3" d="M155.4,57.4c1.3,0,1.6,0.3,1.8,1.5C156.1,58.8,155.8,58.5,155.4,57.4z"/>
		<path class="st3" d="M325.7,57.9c-1.6,0.1-3.1,0.1-4.7,0C322.2,57.2,324.5,57.2,325.7,57.9z"/>
		<path class="st3" d="M321,57.9c0,1.8,0.5,4.1-0.3,5.8C320.7,61.8,320.2,59.5,321,57.9z"/>
		<path class="st3" d="M321,57.9c1.6,0.1,3.1,0.1,4.7,0c-0.1,1.9-0.2,3.8-0.1,5.6c0.4,1.2,5.1,0.2,6.5,0.7c0.2,1.4,0.1,2.9,0.1,4.3
			c-2,0.2-4.1,0-6.1,0.2l-0.5,0.1c0,4.4-0.6,9.6,0.3,13.8c0.3,0.5,0.7,0.8,1.1,1.1c1.4,0.9,3.6,0.3,5.2,0.3c-0.1,1.3-0.1,2.7-0.2,4
			c-2.4,0-4.9,0-7.3,0.2c-2.6-0.6-3.3-2.7-4-5c0.1-4.7,0.7-10.2-0.3-14.7c-2-0.8-3.2,0.2-2.9-2.7c-0.3-2.3,1.5-1.4,2.9-2.1
			C321.5,62,321,59.7,321,57.9z"/>
		<path class="st3" d="M325.7,57.9c0.8,1.6,0.4,3.8,0.5,5.6l-0.5,0C325.5,61.6,325.6,59.7,325.7,57.9z"/>
		<path class="st3" d="M71.5,70.2c-1,1.2-3.6,2.5-5.1,2.7c-3.1-1.5-6-3.5-9-5.1c-0.3-0.1-0.6-0.3-0.9-0.4c-0.4,3.6,0.2,7.3-0.3,10.9
			l-0.8,0.3c-1.2-1.1-4.4-2-4-4c0-5.4-0.1-10.7,0.1-16.1C58.1,62.4,65,66.2,71.5,70.2z"/>
		<path class="st3" d="M135.4,60.8h0.5c0.1,1.6,0.2,3.2-0.1,4.9c-5.1,0.3-10.3,0.1-15.5,0c4.4-1.2,10.2,0,14.9-0.6
			C135.4,63.7,135.4,62.2,135.4,60.8z"/>
		<path class="st3" d="M144.1,60.6c0.4,9.1-0.1,18.2,0.2,27.3c1.6,0.2,3.2,0.1,4.9,0.1v0.5c-1.8,0.2-3.7,0.2-5.5,0
			c-0.1-8.9,0-17.7-0.1-26.6C143.8,61.5,144,61,144.1,60.6z"/>
		<path class="st3" d="M248.1,60.6c0.4,9.1,0,18.3,0.2,27.4v0.5l-0.5-0.1C247.8,79.3,247.3,69.6,248.1,60.6z"/>
		<path class="st3" d="M152.5,61.9c-0.7,0.1-1.5,0.1-2.2-0.1C150.9,60.9,152.1,60.9,152.5,61.9z"/>
		<path class="st3" d="M256.6,61.9c-0.7,0.1-1.5,0.1-2.2-0.1C255,60.9,256.1,60.9,256.6,61.9z"/>
		<path class="st3" d="M143.2,61.8l0.4,0.1c0.1,8.9,0,17.7,0.1,26.6l-0.5-0.1C143,79.6,143.1,70.7,143.2,61.8z"/>
		<path class="st3" d="M149.8,62.4c0,8.7,0.2,17.4-0.1,26l-0.5,0.1V88C149.7,80.1,148.5,69.7,149.8,62.4z"/>
		<path class="st3" d="M253.8,62.4c0.1,8.7,0.1,17.5,0,26.2l-0.5,0c0-8.5,0.1-17,0-25.5L253.8,62.4z"/>
		<path class="st3" d="M253.2,63c0.1,8.5,0.1,17,0,25.5c-1.6,0.1-3.3,0.1-4.9,0V88c1.4,0,2.9,0.1,4.3-0.1c0.3-7.7,0-15.5,0.1-23.3
			C252.7,64,252.9,63.4,253.2,63z"/>
		<path class="st3" d="M203.4,63.9c-4.1,0.3-8.4,0.3-12.5,0C194.4,63.3,199.8,63.3,203.4,63.9z"/>
		<path class="st3" d="M231.1,63.5c0.6,0.1,1.2,0.2,1.7,0.4c-3.1,0.3-6.1,0.3-9.2,0C226,63.3,228.7,63.5,231.1,63.5z"/>
		<path class="st3" d="M288.4,63.7l0.5-0.1c0,8.3-0.1,16.6,0,24.9l-0.5-0.1C288.2,80.2,288.2,71.9,288.4,63.7z"/>
		<path class="st3" d="M288.9,63.6c1.6-0.2,3.3-0.2,4.9,0v0.5h-0.5c-1.2,0-2.5-0.1-3.8,0.1c-0.3,7.9-0.1,15.9-0.1,23.8l0,0.5l-0.5,0
			C288.8,80.2,288.9,71.9,288.9,63.6z"/>
		<path class="st3" d="M293.8,63.6l0.5,0.1c0.2,8.2,0.2,16.5,0,24.7l-0.5,0.1c0-8.1,0.1-16.3,0-24.4V63.6z"/>
		<path class="st3" d="M298.4,63.7c1.1-0.1,2.1-0.2,3.2-0.2h0.5c0.2,0.9-2.5,0.5-3.1,0.8c-0.2,1.4-0.2,2.9-0.3,4.4
			C298,67.2,298.3,65.2,298.4,63.7z"/>
		<path class="st3" d="M307.3,63.5h0.5c1.3,0.3,5.7-0.5,6,0.6C312.4,63.8,307.7,64.7,307.3,63.5z"/>
		<path class="st3" d="M317.3,63.6c1.1-0.1,2.2,0,3.4,0c-1.5,0.7-3.2-0.2-2.9,2.1c-0.3,2.9,0.9,1.9,2.9,2.7c-1.1,0-2.2,0.1-3.3,0
			C317.1,66.9,317.1,65.2,317.3,63.6z"/>
		<path class="st3" d="M325.6,63.5l0.5,0c2.2,0.1,4.4-0.1,6.5,0.2c0,0.9,0.6,4.8-0.5,4.8c0-1.4,0.1-2.9-0.1-4.3
			C330.7,63.7,326.1,64.7,325.6,63.5z"/>
		<path class="st3" d="M340.7,64.5c-1.3-0.3-5.1-1.3-5.3,0.7C333.1,62.8,340.8,63,340.7,64.5z"/>
		<path class="st3" d="M363,65.8c0.3-2.7-3-1.4-4.7-1.8C360,63.4,365,62.5,363,65.8z"/>
		<path class="st3" d="M192,83.7c-1-0.3-1.7-1-2.3-1.7c-0.6-1.1-0.4-2.2-0.3-3.3c4.6-0.3,9.3-0.1,13.9,0c3-0.9,5.3-1.7,6.2-5
			c-0.1-1.6-0.1-3.1,0-4.7c-1.1-3.5-2.6-4.5-6.1-5.1c-4.1,0.3-8.4,0.3-12.5,0c-3,0.8-5.6,2.3-6.2,5.6c0.3,4.5,0.3,9.1,0,13.6
			c0.8,2.3,2.7,4.3,5,5c6.1-0.3,12.3-0.1,18.4-0.1c0-1.2,0.1-2.5-0.1-3.8C202.9,83.7,197.1,84.7,192,83.7z M190.9,69
			c4.1,0.2,8.2,0.1,12.4,0c0.4,0.4,0.8,0.7,1.2,1.2c-0.2,1-0.2,1.8,0,2.8c-0.4,0.4-0.8,0.8-1.2,1.2c-4.4-0.3-8.9,0.1-13.3-0.2
			c-0.2-1.1-0.3-2.2-0.3-3.3C189.9,70,190.3,69.4,190.9,69z"/>
		<path class="st3" d="M241.4,75.8c-0.7-1.2-0.6-2.1-0.2-3.4c-0.7-4.4-3.8-7.9-8.4-8.5c-3.1,0.3-6.1,0.3-9.2,0
			c-1.2,0.2-2.4,0.5-3.6,0.8c-1.6,1-2.8,2.3-3.8,3.9c-0.3,0.5-0.6,1.1-0.9,1.6c0.3,0.9,0.5,1.7-0.6,2.1c0.2,2.5,0.2,4.9,0,7.4
			c1.1,0.4,0.9,1.3,0.6,2.2c1.5,3,3.2,5.5,6.7,6.2c4-0.2,8-0.3,11.9,0.1c4.4-0.9,6-4,7.3-8c-0.4-1.4-0.5-2.6,0.2-3.9L241.4,75.8z
			 M232.3,83.7c-2.8-0.2-5.7-0.2-8.5-0.1c-2.3-1.1-3.3-2.5-4-5c0.1-1.6,0.1-3.1,0-4.7c0.5-1.8,1.4-4.5,3.4-5c3.3,0.2,6.5,0.2,9.7,0
			c1.5,0.5,2.6,2.1,3.3,3.4c-0.1,2.5-0.1,4.9,0.1,7.4C235.5,81.9,234.4,83,232.3,83.7z"/>
		<path class="st3" d="M289.5,64.2c1.2-0.1,2.5-0.1,3.8-0.1c-0.1,7.9,0.2,15.9-0.1,23.8c-1.2,0.1-2.5,0.1-3.8,0.1
			C289.5,80.1,289.3,72.1,289.5,64.2z"/>
		<path class="st3" d="M293.3,64.1h0.5c0.1,8.1,0.1,16.3,0,24.4c-1.5,0.1-2.9,0.1-4.4,0l0-0.5c1.2,0,2.5,0,3.8-0.1
			C293.5,80,293.2,72,293.3,64.1z"/>
		<path class="st3" d="M340.7,64.5c2.3,5.8,4.6,11.8,6.9,17.6c0.2,1.2,2.4,1.3,2.7,0.1c2.7-6.1,5.1-12.3,8-18.2
			c1.7,0.4,4.9-0.8,4.7,1.8c-4.8,10.7-9.6,21.5-14,32.4c-1.6,0.3-5.7,1.5-5.2-1.3c1.5-2.5,2.4-5.2,3.7-7.8c0.9-1.4,0.1-1.9-1.3-1.6
			c-1.3-0.5-1.8-0.9-2.4-2.1c-3.1-6.6-5.3-13.6-8.4-20.2C335.6,63.2,339.4,64.2,340.7,64.5z"/>
		<path class="st3" d="M113.7,65.8l0.5-0.1c0.1,1.6,0,3.1,0,4.7C113.6,68.8,113.6,67.3,113.7,65.8z"/>
		<path class="st3" d="M119.1,66.9c0.2,1,0.2,1.8,0,2.8C118.3,68.9,118.3,67.6,119.1,66.9z"/>
		<path class="st3" d="M202.2,68.4c-3.4,0.2-6.8,0.2-10.2,0C193,67.7,201.2,67.7,202.2,68.4z"/>
		<path class="st3" d="M90.3,87.5c-6.9-3.3-13.6-8.2-20.4-11.9c0.6-1.1,3.6-2.9,4.8-3c3.2,1.8,6.4,3.7,9.5,5.7
			c0.5,0.3,1,0.4,1.5,0.3c0.5-3.3-0.5-7.1,0.6-10.2c1.3,0.5,2.6,1.3,3.9,2C90.4,76,90.3,81.7,90.3,87.5z"/>
		<path class="st3" d="M103.8,68.4c0.6,2.8,0.6,6.4,0,9.2C103.6,74.5,103.6,71.5,103.8,68.4z"/>
		<path class="st3" d="M203.3,69c-4.1,0.1-8.2,0.1-12.4,0c0.3-0.2,0.7-0.4,1.1-0.6c3.4,0.2,6.8,0.2,10.2,0
			C202.6,68.6,202.9,68.8,203.3,69z"/>
		<path class="st3" d="M232.8,68.9c-3.3,0.2-6.5,0.2-9.7,0C224.9,68.3,231,68.3,232.8,68.9z"/>
		<path class="st3" d="M298.7,68.6c0.9,0.1,3.1-0.5,3.6,0.4c-0.2,6.5-0.1,13-0.1,19.5l-0.5-0.1c-0.4-6.3,0.2-12.8-0.3-19.1
			C300.6,69.1,299.7,68.9,298.7,68.6z"/>
		<path class="st3" d="M306.8,68.7l0.5-0.1c-0.1,6.6,0,13.2-0.1,19.9c-1.6,0.2-3.3,0.2-4.9,0c0-6.5-0.1-13,0.1-19.5
			c1.1,5.8,0,12.9,0.6,18.9c1.2,0.2,2.5,0.2,3.7,0C306.9,81.5,306.4,75.1,306.8,68.7z"/>
		<path class="st3" d="M307.3,68.6c2.2-0.2,4.4-0.1,6.6-0.1c-0.3,1.2-4.6,0.3-5.9,0.7c-0.4,6.4,0.1,12.8-0.2,19.2l-0.5,0.1
			C307.3,81.9,307.2,75.2,307.3,68.6z"/>
		<path class="st3" d="M320.7,68.4c1,4.5,0.3,10,0.3,14.7C320.2,78.4,320.7,73.3,320.7,68.4z"/>
		<path class="st3" d="M325.7,68.7l0.5-0.1c-0.1,4.6,0.1,9.3-0.1,13.9C325.1,78.3,325.7,73.1,325.7,68.7z"/>
		<path class="st3" d="M209.5,69c0.6,1.6,0.6,3.1,0,4.7C209.4,72.1,209.4,70.5,209.5,69z"/>
		<path class="st3" d="M184.7,69.5c0.3,4.5,0.3,9.1,0,13.6C184,79.3,184.1,73.3,184.7,69.5z"/>
		<path class="st3" d="M90.3,70.3c0.1,5.7,0.1,11.4,0,17.2L90.3,70.3z"/>
		<path class="st3" d="M204.5,73c-0.2-1-0.2-1.8,0-2.8C205.3,71,205.3,72.2,204.5,73z"/>
		<path class="st3" d="M215.4,70.2c0.3,0.9,0.5,1.7-0.6,2.1C214.7,71.4,214.7,70.9,215.4,70.2z"/>
		<path class="st3" d="M120.3,70.9c3.7,0,7.6-0.5,11.2,0.2l-1.1,0.3C127.2,71,123.3,71.9,120.3,70.9z"/>
		<path class="st3" d="M203.3,74.2c-4.2,1-9.5,0.3-13.9,0.4c-0.2-1.3-0.2-2.6,0.3-3.9c0.1,1.1,0.2,2.2,0.3,3.3
			C194.4,74.3,198.9,73.9,203.3,74.2z"/>
		<path class="st3" d="M130.4,71.4l1.1-0.3c0.4,0.1,0.8,0.3,1.2,0.6C131.8,72,131.1,72.1,130.4,71.4z"/>
		<path class="st3" d="M214.8,72.3c0.2,2.5,0.2,4.9,0,7.4C214.1,77.4,214.1,74.7,214.8,72.3z"/>
		<path class="st3" d="M236.2,79.8c-0.2-2.5-0.2-4.9-0.1-7.4C236.9,74.4,236.8,77.7,236.2,79.8z"/>
		<path class="st3" d="M241.2,72.4c0.7,1.2,0.6,2.2,0.2,3.4C240.7,74.6,240.8,73.7,241.2,72.4z"/>
		<path class="st3" d="M219.8,78.7c-0.6-1.6-0.6-3.1,0-4.7C219.9,75.5,219.9,77.1,219.8,78.7z"/>
		<path class="st3" d="M119.1,74.8c3.5-0.1,7.4-0.6,10.8,0.2c-3.2,0.2-6.4,0.1-9.7,0.3C119.9,75.2,119.5,75,119.1,74.8z"/>
		<path class="st3" d="M120.3,75.3c3.2-0.2,6.4,0,9.7-0.3c0.7,0.2,1.1,0.7,1.6,1.2C127.9,75.1,123.8,76.5,120.3,75.3z"/>
		<path class="st3" d="M136.6,75.8c0.9,1.4,0.8,2.5-0.1,3.8C136.3,78.3,136.3,77.2,136.6,75.8z"/>
		<path class="st3" d="M131.6,76.3c0.9,0.7,0.8,2.1,0,2.8C131.4,78.1,131.3,77.3,131.6,76.3z"/>
		<path class="st3" d="M241.4,76.3c0.4,1.4,0.6,2.6-0.2,3.9C240.8,78.8,240.7,77.6,241.4,76.3z"/>
		<path class="st3" d="M79.9,88c-1.3,1-2.9,1.9-4.6,2.2c-1.7-0.2-3.2-1.7-4.7-2.5c-3.4-2.2-7.9-4.1-10.8-6.8
			c1.5-0.9,3.2-2.3,4.8-2.6C69.7,81.2,75.5,84.2,79.9,88z"/>
		<path class="st3" d="M189.4,78.7c4.6-0.3,9.3-0.1,13.9,0c-4.2,1.2-8.9,0-13.3,0.6c-0.2,0.9-0.2,1.8-0.3,2.7
			C189.1,80.9,189.3,79.8,189.4,78.7z"/>
		<path class="st3" d="M136.6,79.6c0.1,0.9,0.2,1.6-0.5,2.3C135.7,81,135.6,80.2,136.6,79.6z"/>
		<path class="st3" d="M214.8,79.7c1.1,0.4,0.9,1.3,0.6,2.2C214.7,81.2,214.7,80.6,214.8,79.7z"/>
		<path class="st3" d="M130.4,80.3c-0.3,0.2-0.7,0.4-1.1,0.6c-5.1-0.3-10.2,0-15.2-0.2C119.2,79.6,125.2,80.4,130.4,80.3z"/>
		<path class="st3" d="M114.1,80.7l0.1,0.6c0,1.4,0,2.7-0.1,4.1C113.4,84.1,113.4,81.9,114.1,80.7z"/>
		<path class="st3" d="M114.1,80.7c5.1,0.3,10.2-0.1,15.2,0.2c-4.8,1-10.2,0.2-15.1,0.4L114.1,80.7z"/>
		<path class="st3" d="M192,83.7c5.5-0.2,11.2-0.3,16.7,0c0.2,1.6,0.2,3.2,0,4.9h-0.5V88c0-1.2,0.1-2.5-0.1-3.8
			C202.9,83.7,197.1,84.7,192,83.7z"/>
		<path class="st3" d="M232.3,83.7c-2.3,0.6-6.3,0.8-8.5-0.1C226.6,83.5,229.4,83.5,232.3,83.7z"/>
		<path class="st3" d="M327.2,83.6c1.6,0,3.7-0.5,5.2,0.3C330.8,84,328.6,84.5,327.2,83.6z"/>
		<path class="st3" d="M332.4,84c0.5,0.7,0.9,4.6-0.2,4.5V88C332.2,86.7,332.3,85.3,332.4,84z"/>
		<path class="st3" d="M114.1,85.3c3.3,0,7.1-0.6,10.3,0.3C121.1,85.6,117.2,86.3,114.1,85.3z"/>
		<path class="st3" d="M124.4,85.7c1.5,2.7-1.5,5.8,3.2,5.2l0,0.5c-1.1,0.1-2.1,0.1-3.2-0.1C124.1,89.4,124.3,87.5,124.4,85.7z"/>
		<path class="st3" d="M128.2,85.8c-0.2,1.1,0.5,5.3-0.6,5.5l0-0.5C127.7,89.7,127.1,86.3,128.2,85.8z"/>
		<path class="st3" d="M346.2,87.5c1.4-0.3,2.2,0.2,1.3,1.6C347.1,88.6,346.6,88.1,346.2,87.5z"/>
		<path class="st3" d="M189.8,88.1c6.1-0.3,12.3-0.1,18.4-0.1v0.5c-5.4,0.2-10.9-0.2-16.3,0.2C191.2,88.6,190.5,88.4,189.8,88.1z"/>
		<path class="st3" d="M222,88.1c4-0.2,8-0.3,11.9,0.1c-0.6,0.2-1.1,0.4-1.7,0.5c-2.7-0.2-5.4-0.2-8,0
			C223.5,88.6,222.7,88.4,222,88.1z"/>
		<path class="st3" d="M324.9,88.2c2.4-0.2,4.9-0.2,7.3-0.2v0.5C329.8,88.6,327.2,88.9,324.9,88.2z"/>
		<path class="st3" d="M192,88.8c5.4-0.4,10.8-0.1,16.3-0.2h0.5c0.2,0.9-1.6,0.5-2.1,0.6C201.7,88.9,196.7,89.6,192,88.8z"/>
		<path class="st3" d="M224.2,88.7c2.7-0.3,5.4-0.2,8,0C229.8,89.4,226.7,89.3,224.2,88.7z"/>
		<path class="st3" d="M272.7,89.3c1.3-0.4,2.1-0.4,3.4,0C274.8,90,274,90,272.7,89.3z"/>
		<path class="st3" d="M343.8,96.9c-0.4,2.8,3.6,1.5,5.2,1.3C348.8,99.7,341.1,100,343.8,96.9z"/>
		<path class="st3" d="M81.5,104c-2,0.6-4,1.1-6.1,1.4c-2.9-0.3-5.7-0.3-8.6,0c-1.9-0.3-3.7-0.8-5.5-1.4l0.8-0.7
			c6,1.6,12.1,1.9,18.1,0C80.6,103.6,81.1,103.8,81.5,104z"/>
		<path class="st3" d="M66.8,105.5c2.9-0.3,5.7-0.3,8.6,0C72.7,106,69.6,106,66.8,105.5z"/>
	</g>
</g>
</svg>
