<?xml version="1.0" encoding="utf-8"?>
<!-- Generator: Adobe Illustrator 26.0.2, SVG Export Plug-In . SVG Version: 6.00 Build 0)  -->
<svg version="1.1" xmlns="http://www.w3.org/2000/svg" xmlns:xlink="http://www.w3.org/1999/xlink" x="0px" y="0px"
	 viewBox="0 0 402 146" style="enable-background:new 0 0 402 146;" xml:space="preserve">
<style type="text/css">
	.st0{display:none;}
	.st1{display:inline;fill:#190836;}
	.st2{fill:#EBE6FA;}
	.st3{fill:#181818;}
	.st4{fill-rule:evenodd;clip-rule:evenodd;fill:#181818;}
	.st5{fill:none;stroke:#181818;stroke-miterlimit:10;}
</style>
<g id="Layer_2" class="st0">
</g>
<g id="Layer_1">
	<g>
		<path class="st3" d="M88.8,98.4c2,0,4,0,6,0.1c0,9.4,0,18.9,0,28.3c-2,0-4-0.1-6.1-0.1C88.8,117.3,88.8,107.9,88.8,98.4z"/>
		<path class="st3" d="M109,21.8c-5.5-3.4-13.7-2.7-19.9-2.3c-0.8,9.3-0.1,18.9-0.2,28.2c6.2-0.2,14.5,1.1,20-2.3
			C117,40.4,117.2,26.9,109,21.8z M106.2,39.7c-2.7,3.1-7.6,2.2-11.4,2.6c0.1-5.8-0.3-11.5,0.2-17.3c4.1-0.9,10.6-0.5,12.8,3.7
			C109.1,32.2,109.2,37.2,106.2,39.7z"/>
		<path class="st3" d="M87.6,70.5C88.9,63,95.4,58,103,58.4c5.4,0,8.2,3.2,11.8,6.6c-1.7,1-3.3,1.9-5,2.9c-3.6-2.7-6.1-5.2-10.9-3.2
			c-7.1,3.3-7.1,14.3,0.3,17.1c4.6,1.7,7.2-0.7,10.6-3.2c1.6,0.8,3.3,1.6,4.9,2.4c-3.4,3.7-6.3,7-11.7,6.9
			C93.7,88.6,85.7,79.7,87.6,70.5z"/>
		<path class="st3" d="M125,126.7c-2,0-4,0.1-6,0.1c-4.7-6.1-9-12.4-13.5-18.6c0.1,6.2,0.1,12.3,0.1,18.5c-2.1,0-4.2,0.1-6.2,0.1
			c0-9.4,0-18.8,0-28.3c2.1,0,4.2-0.1,6.3-0.1c4.5,5.9,8.7,12,13.1,17.9c0-6-0.1-12-0.1-18c2.1,0.1,4.2,0.1,6.3,0.2
			C124.9,107.9,124.9,117.3,125,126.7z"/>
		<path class="st3" d="M133.8,77c2.3-2.1,5.2-3.3,5.8-6.7c1.2-4.7-1.9-10.7-7-11.1c-5.1-0.5-10.4-0.4-15.5,0
			c-0.3,9.4,0.1,18.9-0.1,28.3c2.1,0,4.2,0,6.3,0c0-3.6-0.1-7.2,0-10.8c6.2,0,7,6.5,9.8,10.8c2.4,0,4.8,0,7.2,0
			C138.1,84,135.9,80.5,133.8,77z M132.8,70.8c-2.7,1.5-6.6,0.9-9.6,1.2v-7.8c2.9,0.4,7.7-0.7,9.7,1.8
			C134.4,67.8,133.6,68.8,132.8,70.8z"/>
		<path class="st3" d="M118.8,40.2c-1.1-6.7-0.8-13.9-0.3-20.6c2-0.3,4.1-0.4,6.2-0.5c0,6.6-0.8,13.7,0.4,20.2
			c2.2,4.6,9.7,4.6,11.8,0c1.3-6.4,0.5-13.4,0.5-19.9c2.2,0,4.3-0.1,6.5-0.1c0,6.5,0.4,13.2-0.2,19.7c-0.7,5.6-5.6,9.2-11.1,9.1
			C126.5,48.6,120.5,46.7,118.8,40.2z"/>
		<path class="st3" d="M149.1,98.5c2.3,0,4.5,0,6.8-0.1c-3.6,9.4-7.1,18.9-10.7,28.3c-2.6,0-5.2,0-7.8,0.1
			c-3.7-9.4-7.2-18.9-10.8-28.4c2.3,0.1,4.6,0.2,6.9,0.3c2.6,7.2,4.9,14.5,8,21.5C144,112.9,146.5,105.7,149.1,98.5z"/>
		<path class="st3" d="M157,75.6c-0.8,3.8-0.2,8-0.3,11.8c-2,0-4.1,0-6.1,0c-0.1-3.9,0.7-8.5-0.5-12.2c-3.1-5.6-6.9-10.8-10.4-16.2
			c2.3,0,4.7-0.1,7-0.1c2.3,3.8,4.6,7.7,6.8,11.5c2.4-3.8,4.9-7.6,7.2-11.5c2.3,0,4.5,0,6.8,0.1C164.1,64.6,160.1,69.9,157,75.6z"/>
		<path class="st3" d="M155.1,25.2c-2.9-0.4-5.8-0.7-8.6-1.2l0.4-4.5c7.4-0.5,15-0.1,22.4-0.1c0.2,1.7,0.3,3.4,0.5,5.1
			c-2.8,0-5.6,0.1-8.5,0.1c0,7.7,0,15.4-0.1,23c-2.1,0-4.1,0.1-6.2,0.1C155,40.2,155,32.7,155.1,25.2z"/>
		<path class="st3" d="M163.8,103.9c0,1.9-0.1,3.8-0.1,5.7c4.6,0,9.3,0,13.9,0c0,1.9,0,3.7,0,5.6c-4.6,0-9.2,0-13.8,0
			c0,2.1,0,4.2-0.1,6.3c4.7,0,9.4,0,14.1,0c0,1.7,0,3.5,0,5.2c-6.7,0-13.4,0-20.1-0.1c0-9.4,0.1-18.8,0-28.3c6.7,0,13.4,0,20.1,0
			c0,1.8,0.1,3.6,0.1,5.3C173.3,103.8,168.5,103.8,163.8,103.9z"/>
		<path class="st3" d="M185.6,59.3c-5.4-0.8-11-0.3-16.4-0.4c-0.2,9.5,0,19-0.1,28.5h6.3c-0.1-3.4-0.1-6.8-0.2-10.2
			c4.5-0.3,11.1,0.9,14.4-3C194.1,69.7,191.8,61,185.6,59.3z M184.6,71.6c-3.1,0.1-6.2,0.2-9.3,0.2v-7.7c3.3,0.4,8.3-0.6,10.4,2.4
			C185.9,68.2,185.1,70,184.6,71.6z"/>
		<path class="st3" d="M173.3,23.9c3.9-4.6,11.1-5.8,16.7-4.3c2.8,1.1,5.1,3.4,7.5,5.2c-1.6,1.1-3.3,2.2-4.9,3.4
			c-2.2-1.4-4.3-2.9-6.6-4c-5.6-0.2-10.5,5-9.6,10.6c0.4,4.9,4.9,8.3,9.6,8.3c2.3-1.2,4.3-2.7,6.5-4.1c1.7,1.1,3.3,2.3,5,3.4
			c-5.5,5-10.6,7.4-18.1,5C169.7,44.4,167.1,31.1,173.3,23.9z"/>
		<path class="st3" d="M201.2,113.2c4,4.3,1.7,11.4-3.7,13.2c-6.5,1.2-12.7,0.9-18-3.4c1.1-1.5,2.2-3.1,3.3-4.6
			c3.8,2.1,6.8,4.4,11.4,3.3c1.8-0.3,2.9-1.5,3.2-3.8c-4.5-2.5-10.5-2.6-14.5-5.7c-3.9-4-2.5-10.1,2.2-12.7c6.3-3.1,12-1,17.7,2
			c-1.1,1.5-2.2,3.1-3.3,4.6c-5.2-2.5-9.1-4.5-14.1,0.1C190.3,109.3,196.9,109.5,201.2,113.2z"/>
		<path class="st3" d="M215.9,64.3c-2.8,0-5.6,0.1-8.5,0.1c0,7.7,0,15.4,0.1,23c-2,0-4.1,0.1-6.1,0.1c0-7.7,0-15.4,0-23.2
			c-2.7,0-5.4,0-8.1,0c-0.1-1.8-0.2-3.6-0.2-5.4c7.6,0,15.2,0,22.8,0V64.3z"/>
		<path class="st3" d="M199.7,47.7c0-9.5,0-18.9,0-28.4c2.1,0,4.1,0.1,6.2,0.1c0,3.6-0.1,7.1-0.1,10.7c4.5,0.1,8.9,0.2,13.4,0.2
			c0-3.6-0.1-7.2,0.2-10.7c2-0.3,4-0.4,5.9-0.5c-0.1,9.5-0.1,19,0,28.5c-2,0-4.1,0.1-6.1,0.1V35.7c-4.4,0-8.9,0-13.3,0
			c0,4,0,7.9,0,11.9C203.8,47.6,201.8,47.7,199.7,47.7z"/>
		<path class="st3" d="M226.6,103.8c-2.8,0-5.6,0-8.3,0c0,7.6,0,15.2,0.1,22.9c-2,0-4.1,0.1-6.2,0.1c0-7.6,0-15.3,0.1-22.9
			c-2.8,0-5.7-0.1-8.5-0.1c0-1.8,0-3.5,0-5.3c7.5,0,15.1,0,22.6,0C226.5,100.2,226.6,102,226.6,103.8z"/>
		<path class="st3" d="M243.5,64.8c-3.7-5.8-10.9-7.7-17.3-5.7c-8.3,2.6-12.1,12.2-8.7,20.1c3.6,8.7,15.4,11.5,22.7,5.7
			C246.5,80.2,248,71.2,243.5,64.8z M236.2,80.8c-2.9,2-7.1,1.9-10.1,0c-5-3.7-4.8-12.2,0.4-15.6c3-1.9,7.5-1.8,10.1,0.7
			C241,69.7,240.7,77.3,236.2,80.8z"/>
		<path class="st3" d="M254.4,104.3c-3.9-6.1-12.6-7.9-19.1-4.9c-8.7,3.9-10.8,15.7-4.9,22.9c4.3,5.3,11.2,5.2,17.3,3.9
			C256.6,123.1,259.2,111.9,254.4,104.3z M239.6,121.7c-7.8-2.2-8.3-14.3-1.1-17.6c6.1-2.3,12,1.6,12.1,8.1
			C251.1,118.5,245.9,123.3,239.6,121.7z"/>
		<path class="st3" d="M276.8,116.6c1.6-1.2,3.3-2.3,4.7-3.7c3.4-5,1-12.9-5.3-14c-5.2-0.9-10.7-0.6-16-0.3
			c-0.5,9.3,0,18.8-0.2,28.1c2.1,0,4.2,0,6.2,0c-0.1-3.4-0.1-6.9-0.1-10.3c1.5,0.3,2.9,0.6,4.3,1c2.1,2.9,3.7,6.2,5.4,9.3
			c2.4,0,4.8,0.1,7.3,0.1C281.2,123.4,279,120,276.8,116.6z M275,111.2c-2.9,0.2-5.9,0.3-8.8,0.4c0-2.6,0-5.2,0-7.9
			c4.7,0.2,8-1,11.2,3.3C276.6,108.5,275.8,109.8,275,111.2z"/>
		<path class="st3" d="M260.4,87.9c-0.1-1.2-0.2-2.3-0.3-3.5c15.7-0.1,31.5-0.2,47.2,0.1c-0.1,1.1-0.1,2.2-0.2,3.4
			C291.5,87.9,276,87.9,260.4,87.9z"/>
		<path class="st3" d="M306.1,113.2c3.9,4,1.5,11.4-3.5,13.1c-6.7,1.4-12.8,1-18.3-3.3c1.2-1.6,2.3-3.1,3.5-4.7
			c4.9,3.2,9.9,5.9,14.8,1c-3-5.2-12.8-3.1-16-8.6c-2.5-4.1-0.6-9.3,3.6-11.4c6.3-2.9,11.8-0.8,17.5,2.1c-1.1,1.5-2.2,3.1-3.3,4.6
			c-3-1.2-6.7-3.3-10-2.5c-3.2,0.4-4.2,3.3-0.8,4.4C297.6,109.5,303.1,110.2,306.1,113.2z"/>
		<path class="st3" d="M283.9,72.5c-2.3-2-4.6-3.9-7-5.9c2.4-2.1,4.7-4.3,7-6.5c1.4,1.5,2.9,3,4.3,4.5c1.4-1.2,2.7-2.4,4.1-3.5
			c-2.8-2.7-5.7-5.4-8.5-8.1c-3.6,3.5-7.3,6.9-10.7,10.6c-6.5-5.9-13.3-11.4-20-17.1c2.1,11.8,4.3,23.5,6.4,35.3
			c16.2,0,32.4,0.1,48.7,0c2-11.8,4.1-23.5,6.4-35.2C304.4,55,294.3,63.8,283.9,72.5z M264.4,78.1c2.3-2.2,4.7-4.3,7.2-6.4
			c-1.3-1-2.6-2.1-3.9-3.1c-1.5,1.5-3.1,3-4.6,4.5c-0.7-4.8-1.5-9.5-2.4-14.2c1.2,1,2.3,2,3.5,3c6.4,5.5,13.2,10.6,19.6,16.2
			C277.4,77.8,270.9,77.7,264.4,78.1z M304.8,73.2c-1.5-1.6-3.1-3.2-4.6-4.7c-1.3,1-2.6,2.1-3.9,3.1c2.4,2,4.7,4.1,7,6.2
			c-6.4,0-12.9,0.1-19.3,0c7.7-6.2,15.4-12.3,23.1-18.6C306.3,63.8,305.5,68.5,304.8,73.2z"/>
		<path class="st3" d="M109,21.8c-5.5-3.4-13.7-2.7-19.9-2.3c-0.8,9.3-0.1,18.9-0.2,28.2c6.2-0.2,14.5,1.1,20-2.3
			C117,40.4,117.2,26.9,109,21.8z M106.2,39.7c-2.7,3.1-7.6,2.2-11.4,2.6c0.1-5.8-0.3-11.5,0.2-17.3c4.1-0.9,10.6-0.5,12.8,3.7
			C109.1,32.2,109.2,37.2,106.2,39.7z"/>
		<path class="st3" d="M143.7,39c-0.7,5.6-5.6,9.2-11.1,9.1c-6.1,0.5-12.1-1.3-13.8-7.8c-1.1-6.7-0.8-13.9-0.3-20.6
			c2-0.3,4.1-0.4,6.2-0.5c0,6.6-0.8,13.7,0.4,20.2c2.2,4.6,9.7,4.6,11.8,0c1.3-6.4,0.5-13.4,0.5-19.9c2.2,0,4.3-0.1,6.5-0.1
			C143.9,25.8,144.4,32.5,143.7,39z"/>
		<path class="st3" d="M169.8,24.5c-2.8,0-5.6,0.1-8.5,0.1c0,7.7,0,15.4-0.1,23c-2.1,0-4.1,0.1-6.2,0.1c-0.1-7.5-0.1-15,0-22.5
			c-2.9-0.4-5.8-0.7-8.6-1.2l0.4-4.5c7.4-0.5,15-0.1,22.4-0.1C169.5,21.1,169.6,22.8,169.8,24.5z"/>
		<path class="st3" d="M197.5,42.3c-5.5,5-10.6,7.4-18.1,5c-9.7-2.8-12.4-16.1-6.1-23.3c3.9-4.6,11.1-5.8,16.7-4.3
			c2.8,1.1,5.1,3.4,7.5,5.2c-1.6,1.1-3.3,2.2-4.9,3.4c-2.2-1.4-4.3-2.9-6.6-4c-5.6-0.2-10.5,5-9.6,10.6c0.4,4.9,4.9,8.3,9.6,8.3
			c2.3-1.2,4.3-2.7,6.5-4.1C194.2,40,195.9,41.1,197.5,42.3z"/>
		<path class="st3" d="M225.3,47.6c-2,0-4.1,0.1-6.1,0.1V35.7c-4.4,0-8.9,0-13.3,0c0,4,0,7.9,0,11.9c-2,0-4.1,0.1-6.1,0.1
			c0-9.5,0-18.9,0-28.4c2.1,0,4.1,0.1,6.2,0.1c0,3.6-0.1,7.1-0.1,10.7c4.5,0.1,8.9,0.2,13.4,0.2c0-3.6-0.1-7.2,0.2-10.7
			c2-0.3,4-0.4,5.9-0.5C225.2,28.6,225.2,38.1,225.3,47.6z"/>
		<path class="st3" d="M283.9,72.5c-2.3-2-4.6-3.9-7-5.9c2.4-2.1,4.7-4.3,7-6.5c1.4,1.5,2.9,3,4.3,4.5c1.4-1.2,2.7-2.4,4.1-3.5
			c-2.8-2.7-5.7-5.4-8.5-8.1c-3.6,3.5-7.3,6.9-10.7,10.6c-6.5-5.9-13.3-11.4-20-17.1c2.1,11.8,4.3,23.5,6.4,35.3
			c16.2,0,32.4,0.1,48.7,0c2-11.8,4.1-23.5,6.4-35.2C304.4,55,294.3,63.8,283.9,72.5z M264.4,78.1c2.3-2.2,4.7-4.3,7.2-6.4
			c-1.3-1-2.6-2.1-3.9-3.1c-1.5,1.5-3.1,3-4.6,4.5c-0.7-4.8-1.5-9.5-2.4-14.2c1.2,1,2.3,2,3.5,3c6.4,5.5,13.2,10.6,19.6,16.2
			C277.4,77.8,270.9,77.7,264.4,78.1z M304.8,73.2c-1.5-1.6-3.1-3.2-4.6-4.7c-1.3,1-2.6,2.1-3.9,3.1c2.4,2,4.7,4.1,7,6.2
			c-6.4,0-12.9,0.1-19.3,0c7.7-6.2,15.4-12.3,23.1-18.6C306.3,63.8,305.5,68.5,304.8,73.2z"/>
		<path class="st3" d="M109.8,78.5c1.6,0.8,3.3,1.6,4.9,2.4c-3.4,3.7-6.3,7-11.7,6.9c-9.4,0.7-17.3-8.2-15.4-17.4
			C88.9,63,95.4,58,103,58.4c5.4,0,8.2,3.2,11.8,6.6c-1.7,1-3.3,1.9-5,2.9c-3.6-2.7-6.1-5.2-10.9-3.2c-7.1,3.3-7.1,14.3,0.3,17.1
			C103.8,83.5,106.4,81.1,109.8,78.5z"/>
		<path class="st3" d="M133.8,77c2.3-2.1,5.2-3.3,5.8-6.7c1.2-4.7-1.9-10.7-7-11.1c-5.1-0.5-10.4-0.4-15.5,0
			c-0.3,9.4,0.1,18.9-0.1,28.3c2.1,0,4.2,0,6.3,0c0-3.6-0.1-7.2,0-10.8c6.2,0,7,6.5,9.8,10.8c2.4,0,4.8,0,7.2,0
			C138.1,84,135.9,80.5,133.8,77z M132.8,70.8c-2.7,1.5-6.6,0.9-9.6,1.2v-7.8c2.9,0.4,7.7-0.7,9.7,1.8
			C134.4,67.8,133.6,68.8,132.8,70.8z"/>
		<path class="st3" d="M157,75.6c-0.8,3.8-0.2,8-0.3,11.8c-2,0-4.1,0-6.1,0c-0.1-3.9,0.7-8.5-0.5-12.2c-3.1-5.6-6.9-10.8-10.4-16.2
			c2.3,0,4.7-0.1,7-0.1c2.3,3.8,4.6,7.7,6.8,11.5c2.4-3.8,4.9-7.6,7.2-11.5c2.3,0,4.5,0,6.8,0.1C164.1,64.6,160.1,69.9,157,75.6z"/>
		<path class="st3" d="M185.6,59.3c-5.4-0.8-11-0.3-16.4-0.4c-0.2,9.5,0,19-0.1,28.5h6.3c-0.1-3.4-0.1-6.8-0.2-10.2
			c4.5-0.3,11.1,0.9,14.4-3C194.1,69.7,191.8,61,185.6,59.3z M184.6,71.6c-3.1,0.1-6.2,0.2-9.3,0.2v-7.7c3.3,0.4,8.3-0.6,10.4,2.4
			C185.9,68.2,185.1,70,184.6,71.6z"/>
		<path class="st3" d="M215.9,64.3c-2.8,0-5.6,0.1-8.5,0.1c0,7.7,0,15.4,0.1,23c-2,0-4.1,0.1-6.1,0.1c0-7.7,0-15.4,0-23.2
			c-2.7,0-5.4,0-8.1,0c-0.1-1.8-0.2-3.6-0.2-5.4c7.6,0,15.2,0,22.8,0V64.3z"/>
		<path class="st3" d="M243.5,64.8c-3.7-5.8-10.9-7.7-17.3-5.7c-8.3,2.6-12.1,12.2-8.7,20.1c3.6,8.7,15.4,11.5,22.7,5.7
			C246.5,80.2,248,71.2,243.5,64.8z M236.2,80.8c-2.9,2-7.1,1.9-10.1,0c-5-3.7-4.8-12.2,0.4-15.6c3-1.9,7.5-1.8,10.1,0.7
			C241,69.7,240.7,77.3,236.2,80.8z"/>
		<path class="st3" d="M307.3,84.5c-0.1,1.1-0.1,2.2-0.2,3.4c-15.6,0.1-31.1,0-46.7,0.1c-0.1-1.2-0.2-2.3-0.3-3.5
			C275.9,84.3,291.6,84.2,307.3,84.5z"/>
		<path class="st3" d="M276.8,116.6c1.6-1.2,3.3-2.3,4.7-3.7c3.4-5,1-12.9-5.3-14c-5.2-0.9-10.7-0.6-16-0.3
			c-0.5,9.3,0,18.8-0.2,28.1c2.1,0,4.2,0,6.2,0c-0.1-3.4-0.1-6.9-0.1-10.3c1.5,0.3,2.9,0.6,4.3,1c2.1,2.9,3.7,6.2,5.4,9.3
			c2.4,0,4.8,0.1,7.3,0.1C281.2,123.4,279,120,276.8,116.6z M275,111.2c-2.9,0.2-5.9,0.3-8.8,0.4c0-2.6,0-5.2,0-7.9
			c4.7,0.2,8-1,11.2,3.3C276.6,108.5,275.8,109.8,275,111.2z"/>
		<path class="st3" d="M94.8,98.5c0,9.4,0,18.9,0,28.3c-2,0-4-0.1-6.1-0.1c0-9.4,0-18.8,0-28.3C90.8,98.5,92.8,98.5,94.8,98.5z"/>
		<path class="st3" d="M119,126.8c-4.7-6.1-9-12.4-13.5-18.6c0.1,6.2,0.1,12.3,0.1,18.5c-2.1,0-4.2,0.1-6.2,0.1c0-9.4,0-18.8,0-28.3
			c2.1,0,4.2-0.1,6.3-0.1c4.5,5.9,8.7,12,13.1,17.9c0-6-0.1-12-0.1-18c2.1,0.1,4.2,0.1,6.3,0.2c-0.1,9.4-0.1,18.8,0,28.2
			C123,126.7,121,126.8,119,126.8z"/>
		<path class="st3" d="M155.9,98.4c-3.6,9.4-7.1,18.9-10.7,28.3c-2.6,0-5.2,0-7.8,0.1c-3.7-9.4-7.2-18.9-10.8-28.4
			c2.3,0.1,4.6,0.2,6.9,0.3c2.6,7.2,4.9,14.5,8,21.5c2.6-7.2,5-14.5,7.7-21.7C151.4,98.5,153.7,98.4,155.9,98.4z"/>
		<path class="st3" d="M177.9,121.5c0,1.7,0,3.5,0,5.2c-6.7,0-13.4,0-20.1-0.1c0-9.4,0.1-18.8,0-28.3c6.7,0,13.4,0,20.1,0
			c0,1.8,0.1,3.6,0.1,5.3c-4.7,0-9.5,0-14.2,0.1c0,1.9-0.1,3.8-0.1,5.7c4.6,0,9.3,0,13.9,0c0,1.9,0,3.7,0,5.6c-4.6,0-9.2,0-13.8,0
			c0,2.1,0,4.2-0.1,6.3C168.5,121.5,173.2,121.5,177.9,121.5z"/>
		<path class="st3" d="M197.4,126.4c-6.5,1.2-12.7,0.9-18-3.4c1.1-1.5,2.2-3.1,3.3-4.6c3.8,2.1,6.8,4.4,11.4,3.3
			c1.8-0.3,2.9-1.5,3.2-3.8c-4.5-2.5-10.5-2.6-14.5-5.7c-3.9-4-2.5-10.1,2.2-12.7c6.3-3.1,12-1,17.7,2c-1.1,1.5-2.2,3.1-3.3,4.6
			c-5.2-2.5-9.1-4.5-14.1,0.1c4.9,3,11.5,3.2,15.8,6.9C205.2,117.4,202.8,124.6,197.4,126.4z"/>
		<path class="st3" d="M218.3,103.8c0,7.6,0,15.2,0.1,22.9c-2,0-4.1,0.1-6.2,0.1c0-7.6,0-15.3,0.1-22.9c-2.8,0-5.7-0.1-8.5-0.1
			c0-1.8,0-3.5,0-5.3c7.5,0,15.1,0,22.6,0c0,1.8,0.1,3.6,0.1,5.4C223.8,103.8,221,103.8,218.3,103.8z"/>
		<path class="st3" d="M254.4,104.3c-3.9-6.1-12.6-7.9-19.1-4.9c-8.7,3.9-10.8,15.7-4.9,22.9c4.3,5.3,11.2,5.2,17.3,3.9
			C256.6,123.1,259.2,111.9,254.4,104.3z M239.6,121.7c-7.8-2.2-8.3-14.3-1.1-17.6c6.1-2.3,12,1.6,12.1,8.1
			C251.1,118.5,245.9,123.3,239.6,121.7z"/>
		<path class="st3" d="M302.6,126.3c-6.7,1.4-12.8,1-18.3-3.3c1.2-1.6,2.3-3.1,3.5-4.7c4.9,3.2,9.9,5.9,14.8,1
			c-3-5.2-12.8-3.1-16-8.6c-2.5-4.1-0.6-9.3,3.6-11.4c6.3-2.9,11.8-0.8,17.5,2.1c-1.1,1.5-2.2,3.1-3.3,4.6c-3-1.2-6.7-3.3-10-2.5
			c-3.2,0.4-4.2,3.3-0.8,4.4c3.9,1.5,9.5,2.1,12.5,5.2C310.1,117.2,307.7,124.6,302.6,126.3z"/>
	</g>
</g>
</svg>
