<?xml version="1.0" encoding="utf-8"?>
<!-- Generator: Adobe Illustrator 26.0.2, SVG Export Plug-In . SVG Version: 6.00 Build 0)  -->
<svg version="1.1" xmlns="http://www.w3.org/2000/svg" xmlns:xlink="http://www.w3.org/1999/xlink" x="0px" y="0px"
	 viewBox="0 0 402 146" style="enable-background:new 0 0 402 146;" xml:space="preserve">
<style type="text/css">
	.st0{display:none;}
	.st1{display:inline;fill:#190836;}
	.st2{fill:#EBE6FA;}
	.st3{fill:#181818;}
	.st4{fill-rule:evenodd;clip-rule:evenodd;fill:#181818;}
	.st5{fill:none;stroke:#181818;stroke-miterlimit:10;}
</style>
<g id="Layer_2" class="st0">
</g>
<g id="Layer_1">
	<g>
		<path class="st3" d="M110.3,117.7c2.4,4.1,4.9,8.1,7.4,12.2c-0.9,0-1.9,0.1-2.8,0c-0.8-1-1.3-2.2-2-3.3c-2.1,0-4.2,0-6.3,0
			c0.4-0.7,0.7-1.3,1.1-2c1.3,0,2.7,0,4,0c-0.9-1.6-1.9-3.2-2.9-4.8c-2,3.4-4,6.8-6,10.2c-0.9,0-1.8,0-2.7,0c2.4-4,4.8-8,7.2-12
			c0.2-0.4,0.4-0.8,0.7-1.1c0.4-0.5,1.3-0.5,1.7,0C110,117.1,110.2,117.4,110.3,117.7z"/>
		<path class="st3" d="M121.5,127.6c3,0,5.9,0,8.9,0c0,0.8,0,1.6,0,2.3c-3.8,0-7.5,0-11.3,0v-11.7c0-0.5,0-1.1,0-1.6
			c0.8-0.1,1.6,0,2.4,0C121.5,120.3,121.4,123.9,121.5,127.6z"/>
		<path class="st3" d="M147.1,119.9c-0.7-1.5-2.1-2.6-3.7-3c-1.2-0.4-2.4-0.2-3.7-0.3c-1.2,0-2.5-0.1-3.6,0.2
			c-1.3,0.4-2.5,1.1-3.3,2.2c-0.9,1.2-1.3,2.6-1.3,4.1c0,1.5,0.4,3.1,1.3,4.3c0.8,1.1,2,1.9,3.4,2.3c1,0.3,2.2,0.2,3.3,0.2
			c1.2,0,2.5,0.1,3.6-0.2c1.5-0.4,2.8-1.4,3.6-2.7C148.1,124.9,148.2,122.1,147.1,119.9z M145.3,124.4c-0.4,1.6-1.8,2.9-3.4,3.1
			c-1,0.1-2,0-3,0.1c-1,0-1.9,0-2.8-0.5c-1.7-0.9-2.4-2.9-2.1-4.7c0.2-1.4,1.2-2.7,2.5-3.2c0.9-0.4,1.7-0.2,2.7-0.2
			c0.7,0,1.5,0,2.2,0c1.3,0,2.7,0.7,3.4,1.9C145.5,121.9,145.7,123.2,145.3,124.4z"/>
		<path class="st3" d="M198.3,122.2c2.5-0.1,5,0,7.4,0c0,0.7,0,1.3,0,2c-2.5,0-4.9,0-7.4,0C198.3,123.5,198.2,122.8,198.3,122.2z"/>
		<path class="st3" d="M206.2,116.6c0,0.8,0,1.6,0,2.4c-3.2,0-6.4,0-9.6,0c0,2.9,0,5.7,0,8.6c3.2,0,6.4,0,9.6,0c0,0.8,0,1.6,0,2.3
			c-4,0-7.9,0-11.9,0c0-3.9,0-7.8,0-11.7c0-0.5,0-1.1,0-1.6C198.2,116.6,202.2,116.6,206.2,116.6z"/>
		<path class="st3" d="M217.4,117.4c2.5,4.2,5,8.3,7.5,12.5c-1,0-1.9,0-2.8,0c-0.7-1.1-1.3-2.2-2-3.3c-2.1,0-4.2,0-6.3,0
			c0.4-0.7,0.7-1.3,1.1-2c1.3,0,2.7,0,4,0c-1-1.6-1.9-3.2-2.9-4.8c-1.7,2.9-3.4,5.8-5.1,8.7c-0.3,0.5-0.5,1-0.9,1.4
			c-0.9,0.1-1.8,0-2.7,0c2.5-4.2,5-8.4,7.5-12.6c0.2-0.3,0.4-0.6,0.7-0.8c0.3-0.2,0.7-0.2,1-0.1C216.8,116.6,217.1,117,217.4,117.4z
			"/>
		<path class="st3" d="M237.6,127.6c0,0.8,0,1.6,0,2.3c-3.8,0-7.6,0-11.3,0v-11.7c0-0.5,0-1.1,0-1.6c0.8-0.1,1.6,0,2.3,0
			c0,3.7,0,7.3,0,11C231.6,127.6,234.6,127.6,237.6,127.6z"/>
		<path class="st3" d="M236.4,116.6c4.2,0,8.3,0,12.5,0c0,0.8,0,1.6,0,2.4c-1.7,0-3.4,0-5.1,0c-0.1,3.6,0,7.3,0,10.9
			c-0.8,0-1.6,0-2.4,0c0-3.6,0-7.3,0-10.9c-1.7,0-3.4,0-5,0C236.3,118.2,236.3,117.4,236.4,116.6z"/>
		<path class="st3" d="M252.6,116.6c0,4.5,0,8.9,0,13.4c-0.8,0-1.6,0-2.3,0c0-4.5,0-8.9,0-13.4C251.1,116.6,251.9,116.6,252.6,116.6
			z"/>
		<path class="st3" d="M263.4,116.6c0,4.5,0,8.9,0,13.4c-0.8,0-1.6,0-2.4,0c0-1.9,0-3.8,0-5.8c-2.2,0-4.5,0-6.7,0v-2.1
			c2.2,0,4.5,0,6.7,0c0-1.8,0-3.7,0-5.5H263.4z"/>
		<path class="st3" d="M206.7,75.1c1.2,2.6,0.5,5.8-1.6,7.6c-1.9,1.7-4.7,2.1-7,1.2c-1.6-0.7-2.8-2-3.5-3.6c-0.7-1.6-0.7-3.5,0-5.1
			c0.9-2.3,3.2-3.9,5.7-4C203,71,205.6,72.6,206.7,75.1z"/>
		<path class="st3" d="M280,25c-3.2,0-6.4-0.1-9.6,0c-10.4,23.8-20.8,47.7-31.2,71.5c-1.2-2.6-2.4-5.2-3.5-7.9
			c3.4-3.6,5.8-7.8,7.6-12.3c-0.5-0.1-1-0.2-1.4-0.3c-0.5,0.9-0.8,1.9-1.3,2.9c-1.4,3-3.3,6-5.5,8.5c-1.6-3.8-3.3-7.5-4.9-11.2
			c-7.4-16.7-14.8-33.4-22.2-50c-0.2-0.4-0.3-1.1-0.8-1.3c-0.3,0-0.7,0-0.9,0.3c-3,6.9-6.1,13.8-9.1,20.7c-4,9.2-8,18.3-12.1,27.5
			c-3.5,7.9-6.9,15.9-10.5,23.8c-5.8-12.9-11.7-25.7-17.5-38.6c-4.3-9.5-8.5-19-12.7-28.5c-0.4-0.7-0.6-1.5-0.9-2.2
			c-0.5-1-0.9-2-1.4-3c-6.6,0-13.1,0-19.7,0c0,0.2,0,0.5,0,0.7c2.6,0,5.2,0,7.8,0c1.1,2.2,2,4.6,3.1,6.8c0.4,0.9,0.9,1.7,1,2.6
			c0.1,0.4,0.3,0.7,0.5,1.1c0.5,0.6,0.6,1.2,1,1.9c8.9,20.1,17.8,40.2,26.7,60.4c0.7,0,1.4,0,2,0c1-0.1,1.9,0.1,2.8,0.1
			c2.6,0,5.2,0.1,7.8-0.1c1.1-2.9,2.4-5.7,3.7-8.5c2.6,2.1,5.5,3.9,8.5,5.4c1.4,0.6,2.7,1.3,4.1,1.7c6.5,2.2,13.5,3.2,20.4,2.7
			c5.1-0.4,10.1-1.6,14.7-3.9c0.5,1,0.9,2,1.3,3h9.3c0.5,0,1.1,0,1.6,0c0.3,0,0.5-0.2,0.7-0.5c2.6-6.1,5.4-12.2,8-18.3
			c3.6-8.2,7.2-16.4,10.8-24.6c4.1-9.3,8.1-18.5,12.2-27.8c0.2-0.5,0.4-1.1,0.7-1.6c0.2-0.1,0.5-0.1,0.8-0.1c2.7,0,5.4,0,8,0.1
			C280.1,25.5,280.1,25.3,280,25z M208.5,99c-2.7-0.1-5.4-0.3-8.1-0.9c-5.5-1.3-10.6-4.3-14.2-8.7c-1.6-1.9-2.9-4.1-4.1-6.3
			c6.3-14.7,12.7-29.4,19-44.1c0.1-0.2,0.1-0.4,0.2-0.5c4.6,10.6,9.4,21.1,14,31.7c3.7,8.2,7.3,16.4,11,24.6
			C220.8,97.8,214.7,99,208.5,99z"/>
		<path class="st3" d="M277,116.6c2.5,0,4.9,0,7.4,0c0,0.8,0,1.6,0,2.4c-2.5,0-4.9,0-7.4,0c-1.5,0-3,1-3.6,2.4
			c-0.6,1.4-0.5,3.2,0.4,4.5c0.7,1.1,2,1.7,3.3,1.7c2.4,0,4.8,0,7.2,0c0,0.8,0,1.6,0,2.3c-2.1,0-4.3,0-6.4,0c-0.8,0-1.6,0-2.3-0.1
			c-1.1-0.3-2.1-0.8-2.9-1.6c-1.6-1.5-2.2-3.7-2-5.8c0.1-1.5,0.7-2.9,1.7-3.9C273.5,117.3,275.3,116.6,277,116.6z"/>
		<path class="st3" d="M297.5,127.6c0,0.8,0,1.6,0,2.3c-3.8,0-7.5,0-11.3,0c0-3.9,0-7.8,0-11.7c0-0.5,0-1.1,0-1.6
			c0.8-0.1,1.6,0,2.4,0c0,3.7,0,7.3,0,11C291.6,127.6,294.5,127.5,297.5,127.6z"/>
		<path class="st3" d="M240.5,19.2v20.6c0,1-0.1,2-0.1,3c-0.5-0.4-0.8-0.7-1-1.4c-1.3-4.5-3.2-9-5.9-12.8c-2.7-3.8-6.2-7.1-10.4-9.2
			c-4.5-2.2-9.5-3.1-14.5-2.9c-3,0.1-6.1,0.5-8.9,1.4c-2.2,0.7-4.4,1.7-6.3,3c-4.2,2.7-7.4,6.7-9.7,11.1c-2.8,5.4-4.3,11.4-5.2,17.4
			c-0.2,1.5-0.3,3-0.3,4.6c-0.1,2.1-0.2,4.1-0.1,6.2c-0.2,3.1,0.4,6.3,0.8,9.4c0.3,1.6,0.7,3.3,1,4.9c0.1,0.5-0.3,1-0.5,1.4
			c-1.6,2.9-3.1,5.9-4.7,8.8c-0.4-0.4-0.8-0.8-1.1-1.2c-4.3-5.5-7.1-12.1-8.1-19c-0.6-3.3-0.6-6.6-0.4-10c0.5-5.8,2.2-11.5,5-16.6
			c5.4-10,15.2-17.4,26.1-20.3c3.8-1,7.6-1.6,11.5-1.8h2.8l0.2,0l0.1,0c1.1,0.1,2.2,0.1,3.3,0.3c4.3,0.5,8.6,1.9,12.8,3.1
			c1.9,0.6,4,1.1,6,1.3c1.6,0.1,3.2,0,4.7-0.7c1.1-0.6,1.8-1.8,2.6-2.8C240.4,17.8,240.5,18.5,240.5,19.2z"/>
		<path class="st3" d="M206.7,75.1c1.2,2.6,0.5,5.8-1.6,7.6c-1.9,1.7-4.7,2.1-7,1.2c-1.6-0.7-2.8-2-3.5-3.6c-0.7-1.6-0.7-3.5,0-5.1
			c0.9-2.3,3.2-3.9,5.7-4C203,71,205.6,72.6,206.7,75.1z"/>
		<path class="st3" d="M280,25c-3.2,0-6.4-0.1-9.6,0c-10.4,23.8-20.8,47.7-31.2,71.5c-1.2-2.6-2.4-5.2-3.5-7.9
			c3.4-3.6,5.8-7.8,7.6-12.3c-0.5-0.1-1-0.2-1.4-0.3c-0.5,0.9-0.8,1.9-1.3,2.9c-1.4,3-3.3,6-5.5,8.5c-1.6-3.8-3.3-7.5-4.9-11.2
			c-7.4-16.7-14.8-33.4-22.2-50c-0.2-0.4-0.3-1.1-0.8-1.3c-0.3,0-0.7,0-0.9,0.3c-3,6.9-6.1,13.8-9.1,20.7c-4,9.2-8,18.3-12.1,27.5
			c-3.5,7.9-6.9,15.9-10.5,23.8c-5.8-12.9-11.7-25.7-17.5-38.6c-4.3-9.5-8.5-19-12.7-28.5c-0.4-0.7-0.6-1.5-0.9-2.2
			c-0.5-1-0.9-2-1.4-3c-6.6,0-13.1,0-19.7,0c0,0.2,0,0.5,0,0.7c2.6,0,5.2,0,7.8,0c1.1,2.2,2,4.6,3.1,6.8c0.4,0.9,0.9,1.7,1,2.6
			c0.1,0.4,0.3,0.7,0.5,1.1c0.5,0.6,0.6,1.2,1,1.9c8.9,20.1,17.8,40.2,26.7,60.4c0.7,0,1.4,0,2,0c1-0.1,1.9,0.1,2.8,0.1
			c2.6,0,5.2,0.1,7.8-0.1c1.1-2.9,2.4-5.7,3.7-8.5c2.6,2.1,5.5,3.9,8.5,5.4c1.4,0.6,2.7,1.3,4.1,1.7c6.5,2.2,13.5,3.2,20.4,2.7
			c5.1-0.4,10.1-1.6,14.7-3.9c0.5,1,0.9,2,1.3,3h9.3c0.5,0,1.1,0,1.6,0c0.3,0,0.5-0.2,0.7-0.5c2.6-6.1,5.4-12.2,8-18.3
			c3.6-8.2,7.2-16.4,10.8-24.6c4.1-9.3,8.1-18.5,12.2-27.8c0.2-0.5,0.4-1.1,0.7-1.6c0.2-0.1,0.5-0.1,0.8-0.1c2.7,0,5.4,0,8,0.1
			C280.1,25.5,280.1,25.3,280,25z M208.5,99c-2.7-0.1-5.4-0.3-8.1-0.9c-5.5-1.3-10.6-4.3-14.2-8.7c-1.6-1.9-2.9-4.1-4.1-6.3
			c6.3-14.7,12.7-29.4,19-44.1c0.1-0.2,0.1-0.4,0.2-0.5c4.6,10.6,9.4,21.1,14,31.7c3.7,8.2,7.3,16.4,11,24.6
			C220.8,97.8,214.7,99,208.5,99z"/>
		<path class="st3" d="M205.1,82.7c-1.9,1.7-4.7,2.1-7,1.2c-1.6-0.7-2.8-2-3.5-3.6c-0.7-1.6-0.7-3.5,0-5.1c0.9-2.3,3.2-3.9,5.7-4
			c2.7-0.2,5.3,1.4,6.4,3.9C207.9,77.7,207.2,80.9,205.1,82.7z"/>
		<path class="st3" d="M205.1,82.7c-1.9,1.7-4.7,2.1-7,1.2c-1.6-0.7-2.8-2-3.5-3.6c-0.7-1.6-0.7-3.5,0-5.1c0.9-2.3,3.2-3.9,5.7-4
			c2.7-0.2,5.3,1.4,6.4,3.9C207.9,77.7,207.2,80.9,205.1,82.7z"/>
		<path class="st3" d="M89.9,129.9c-1,0-1.9,0-2.9,0c-0.7-1-1.2-2.1-1.9-3.1c-0.1-0.2-0.5-0.2-0.7-0.2c-1.9,0-3.9,0-5.8,0
			c0.4-0.7,0.8-1.3,1.1-2c1.3,0,2.7,0,4,0c-0.9-1.6-1.9-3.2-2.9-4.8c-1.7,2.9-3.5,5.9-5.2,8.8c-0.3,0.4-0.5,0.9-0.8,1.3
			c-0.9,0.1-1.8,0-2.7,0v0c2.5-4.2,5.1-8.4,7.6-12.6c0.2-0.3,0.5-0.7,0.8-0.8c0.4-0.1,0.9-0.1,1.2,0.2c0.3,0.3,0.5,0.7,0.8,1.1
			C85,121.8,87.5,125.9,89.9,129.9z"/>
		<path class="st3" d="M117.7,129.9c-0.9,0-1.9,0.1-2.8,0c-0.8-1-1.3-2.2-2-3.3c-2.1,0-4.2,0-6.3,0c0.4-0.7,0.7-1.3,1.1-2
			c1.3,0,2.7,0,4,0c-0.9-1.6-1.9-3.2-2.9-4.8c-2,3.4-4,6.8-6,10.2c-0.9,0-1.8,0-2.7,0c2.4-4,4.8-8,7.2-12c0.2-0.4,0.4-0.8,0.7-1.1
			c0.4-0.5,1.3-0.5,1.7,0c0.2,0.3,0.4,0.6,0.6,0.9C112.8,121.8,115.2,125.8,117.7,129.9z"/>
		<path class="st3" d="M163.5,128.4c0,0.4,0,0.8-0.2,1.2c-0.2,0.2-0.4,0.4-0.7,0.5H162c-0.7-0.3-1.1-0.8-1.6-1.3
			c-2.1-2.1-4.2-4.2-6.3-6.3c-0.7-0.8-1.4-1.5-2.2-2.2c0,3.2,0,6.4,0,9.6c-0.8,0-1.5,0-2.3,0c0-3.8,0-7.7,0-11.5
			c0-0.5,0-1.1,0.3-1.6c0.6-0.7,1.6-0.4,2.1,0.2c1.6,1.6,3.1,3.2,4.7,4.7c1.5,1.5,3,3,4.5,4.4c0-3.2,0-6.4,0-9.6c0.8,0,1.5,0,2.3,0
			C163.5,120.5,163.5,124.5,163.5,128.4z"/>
		<path class="st3" d="M224.9,129.9c-1,0-1.9,0-2.8,0c-0.7-1.1-1.3-2.2-2-3.3c-2.1,0-4.2,0-6.3,0c0.4-0.7,0.7-1.3,1.1-2
			c1.3,0,2.7,0,4,0c-1-1.6-1.9-3.2-2.9-4.8c-1.7,2.9-3.4,5.8-5.1,8.7c-0.3,0.5-0.5,1-0.9,1.4c-0.9,0.1-1.8,0-2.7,0
			c2.5-4.2,5-8.4,7.5-12.6c0.2-0.3,0.4-0.6,0.7-0.8c0.3-0.2,0.7-0.2,1-0.1c0.4,0.1,0.7,0.6,0.9,0.9
			C219.8,121.6,222.4,125.7,224.9,129.9z"/>
		<path class="st3" d="M103.7,116.6c-2.6,4.3-5.1,8.5-7.7,12.8c-0.2,0.3-0.5,0.5-0.8,0.7h-0.7c-0.8-0.5-1-1.2-1.5-2
			c-2.3-3.8-4.6-7.7-6.9-11.5c1,0,1.9,0,2.9,0c2,3.4,4,6.8,6,10.2c2-3.4,4-6.8,6-10.2C101.9,116.6,102.8,116.6,103.7,116.6z"/>
		<path class="st3" d="M130.3,127.6c0,0.8,0,1.6,0,2.3c-3.8,0-7.5,0-11.3,0v-11.7c0-0.5,0-1.1,0-1.6c0.8-0.1,1.6,0,2.4,0
			c0,3.7,0,7.3,0,11C124.4,127.6,127.4,127.6,130.3,127.6z"/>
		<path class="st3" d="M147.1,119.9c-0.7-1.5-2.1-2.6-3.7-3c-1.2-0.4-2.4-0.2-3.7-0.3c-1.2,0-2.5-0.1-3.6,0.2
			c-1.3,0.4-2.5,1.1-3.3,2.2c-0.9,1.2-1.3,2.6-1.3,4.1c0,1.5,0.4,3.1,1.3,4.3c0.8,1.1,2,1.9,3.4,2.3c1,0.3,2.2,0.2,3.3,0.2
			c1.2,0,2.5,0.1,3.6-0.2c1.5-0.4,2.8-1.4,3.6-2.7C148.1,124.9,148.2,122.1,147.1,119.9z M145.3,124.4c-0.4,1.6-1.8,2.9-3.4,3.1
			c-1,0.1-2,0-3,0.1c-1,0-1.9,0-2.8-0.5c-1.7-0.9-2.4-2.9-2.1-4.7c0.2-1.4,1.2-2.7,2.5-3.2c0.9-0.4,1.7-0.2,2.7-0.2
			c0.7,0,1.5,0,2.2,0c1.3,0,2.7,0.7,3.4,1.9C145.5,121.9,145.7,123.2,145.3,124.4z"/>
		<path class="st3" d="M192.9,116.6c-2.2,4.1-4.5,8.2-6.7,12.4c-0.3,0.5-0.5,0.9-1.1,1.1h-0.7c-0.8-0.3-1-1-1.4-1.7
			c-0.5-0.9-1-1.9-1.5-2.8c-0.7,1.2-1.3,2.4-1.9,3.7c-0.2,0.5-0.5,0.7-1,0.9h-0.7c-0.4-0.2-0.7-0.4-1-0.8c-2.3-4.2-4.6-8.4-6.8-12.7
			c1,0,1.9,0,2.9,0c1.8,3.4,3.6,6.8,5.3,10.1c0.7-1.2,1.3-2.3,2-3.5c-1.1-2.2-2.3-4.4-3.4-6.6c1,0,1.9,0,2.9,0
			c1.7,3.4,3.4,6.8,5.1,10.1c1.8-3.4,3.6-6.8,5.4-10.1C191.1,116.6,192,116.6,192.9,116.6z"/>
		<path class="st3" d="M196.6,119c0,2.9,0,5.7,0,8.6c3.2,0,6.4,0,9.6,0c0,0.8,0,1.6,0,2.3c-4,0-7.9,0-11.9,0c0-3.9,0-7.8,0-11.7
			c0-0.5,0-1.1,0-1.6c3.9-0.1,7.9,0,11.9,0c0,0.8,0,1.6,0,2.4C203,119,199.8,119,196.6,119z"/>
		<path class="st3" d="M226.3,129.9v-11.7c0-0.5,0-1.1,0-1.6c0.8-0.1,1.6,0,2.3,0c0,3.7,0,7.3,0,11c3,0,6,0,9,0c0,0.8,0,1.6,0,2.3
			C233.8,129.9,230,129.9,226.3,129.9z"/>
		<path class="st3" d="M248.9,116.6c0,0.8,0,1.6,0,2.4c-1.7,0-3.4,0-5.1,0c-0.1,3.6,0,7.3,0,10.9c-0.8,0-1.6,0-2.4,0
			c0-3.6,0-7.3,0-10.9c-1.7,0-3.4,0-5,0c0-0.8,0-1.6,0-2.4C240.5,116.6,244.7,116.6,248.9,116.6z"/>
		<path class="st3" d="M252.6,130c-0.8,0-1.6,0-2.3,0c0-4.5,0-8.9,0-13.4c0.8,0,1.6,0,2.4,0C252.6,121.1,252.7,125.5,252.6,130z"/>
		<path class="st3" d="M263.4,130c-0.8,0-1.6,0-2.4,0c0-1.9,0-3.8,0-5.8c-2.2,0-4.5,0-6.7,0v-2.1c2.2,0,4.5,0,6.7,0
			c0-1.8,0-3.7,0-5.5h2.4C263.4,121.1,263.4,125.5,263.4,130z"/>
		<path class="st3" d="M273.4,121.4c-0.6,1.4-0.5,3.2,0.4,4.5c0.7,1.1,2,1.7,3.3,1.7c2.4,0,4.8,0,7.2,0c0,0.8,0,1.6,0,2.3
			c-2.1,0-4.3,0-6.4,0c-0.8,0-1.6,0-2.3-0.1c-1.1-0.3-2.1-0.8-2.9-1.6c-1.6-1.5-2.2-3.7-2-5.8c0.1-1.5,0.7-2.9,1.7-3.9
			c1.2-1.2,2.9-1.9,4.6-1.9c2.5,0,4.9,0,7.4,0c0,0.8,0,1.6,0,2.4c-2.5,0-4.9,0-7.4,0C275.4,119,274,119.9,273.4,121.4z"/>
		<path class="st3" d="M297.5,127.6c0,0.8,0,1.6,0,2.3c-3.8,0-7.5,0-11.3,0c0-3.9,0-7.8,0-11.7c0-0.5,0-1.1,0-1.6
			c0.8-0.1,1.6,0,2.4,0c0,3.7,0,7.3,0,11C291.6,127.6,294.5,127.5,297.5,127.6z"/>
		<path class="st3" d="M313.4,123.6c0,0.9-0.1,1.8-0.3,2.6c-0.3,1.1-0.9,2.1-1.9,2.8c-1.2,0.8-2.8,1-4.2,1.1h-1.8
			c-1.6-0.1-3.5-0.4-4.7-1.6c-1.2-1.1-1.5-2.7-1.6-4.3c0-2.5,0-5.1,0-7.6c0.8,0,1.6,0,2.4,0c0,2.4,0,4.9,0,7.3
			c0,0.9,0.1,1.8,0.6,2.5c0.4,0.6,1.1,1,1.9,1.1c1.6,0.3,3.2,0.4,4.8,0c0.7-0.2,1.4-0.5,1.9-1.1c0.5-0.7,0.6-1.6,0.6-2.5
			c0-2.4,0-4.9,0-7.3c0.8,0,1.6,0,2.3,0C313.4,118.9,313.3,121.3,313.4,123.6z"/>
		<path class="st3" d="M327.8,122.9c0.6-0.3,1.1-0.7,1.4-1.3c0.5-1.3,0.3-3.1-0.8-4c-0.9-0.7-2.1-1-3.2-0.9c-3.3,0-6.6,0-9.8,0
			c0,4.4,0,8.9,0,13.3c3.4,0,6.8,0,10.2,0c0.9,0,1.7-0.2,2.5-0.7c1-0.7,1.6-1.8,1.7-3v-0.9C329.5,124.1,328.9,123.4,327.8,122.9z
			 M326.7,127.1c-0.7,0.4-1.5,0.5-2.3,0.5h-6.6c0-2.9,0-5.7,0-8.6c2.3,0,4.6,0,6.9,0c0.6,0,1.4,0.1,1.9,0.5c0.6,0.5,0.6,1.6,0.1,2.2
			c-0.4,0.5-1.1,0.5-1.7,0.5c-1.9,0-3.8,0-5.7,0c0,0.7,0,1.3,0,2c1.9,0,3.9,0,5.8,0c0.5,0,1,0,1.4,0.3
			C327.5,125,327.6,126.6,326.7,127.1z"/>
		<path class="st3" d="M205.7,122.1c0,0.7,0,1.3,0,2c-2.5,0-4.9,0-7.4,0c0-0.7,0-1.3,0-2C200.8,122.1,203.2,122.2,205.7,122.1z"/>
		<path class="st3" d="M181.5,125.6c0.5,0.9,1,1.9,1.5,2.8c0.4,0.7,0.6,1.4,1.4,1.7h-5.8c0.5-0.2,0.7-0.4,1-0.9
			C180.2,128,180.9,126.8,181.5,125.6z"/>
	</g>
</g>
</svg>
