<?xml version="1.0" encoding="utf-8"?>
<!-- Generator: Adobe Illustrator 26.0.2, SVG Export Plug-In . SVG Version: 6.00 Build 0)  -->
<svg version="1.1" xmlns="http://www.w3.org/2000/svg" xmlns:xlink="http://www.w3.org/1999/xlink" x="0px" y="0px"
	 viewBox="0 0 402 146" style="enable-background:new 0 0 402 146;" xml:space="preserve">
<style type="text/css">
	.st0{display:none;}
	.st1{display:inline;fill:#190836;}
	.st2{fill:#EBE6FA;}
	.st3{fill:#181818;}
	.st4{fill-rule:evenodd;clip-rule:evenodd;fill:#181818;}
	.st5{fill:none;stroke:#181818;stroke-miterlimit:10;}
</style>
<g id="Layer_2" class="st0">
</g>
<g id="Layer_1">
	<g>
		<path class="st3" d="M93.9,28.1c-2-3.4-0.4-7.9,3.2-9.4c3.2-1.3,6.9,0.1,8.4,3.1c1.8,3.3,0.1,7.7-3.3,9.1
			C99.1,32.2,95.5,31,93.9,28.1z"/>
		<path class="st3" d="M98.4,76.8C81,87,63.5,97.3,46,107.5c-2.3,1.4-4.6,2.7-7,4c18.3-12.3,36.6-24.7,54.9-36.9
			c0-11.3,0-22.6,0-33.9c0-2.1,0.6-4.1,2.3-5.4c2.5-2,6.3-1.7,8.3,0.8c1.4,1.5,1.5,3.3,1.5,5.3c0,9.6,0,19.1,0,28.7
			c-0.1,1.2,0.2,2.6-1.1,3.3C102.9,74.5,100.6,75.6,98.4,76.8z"/>
		<path class="st3" d="M162.9,45.9c-10.4,7.2-21,14.2-31.5,21.2c7.3,2.1,13.7,6.9,17.7,13.4c1.3,2.1,1.2,4.8-0.2,6.7
			c-1.6,2.4-4.5,3.1-7.1,2.3c-2.1-0.7-3-2.5-4.2-4.1c-3.7-5-10.1-7.7-16.2-6.9c-6.1,0.7-11.4,4.8-13.8,10.4
			c-2.5,5.7-1.8,12.5,1.9,17.4c3.2,4.5,8.8,7.3,14.3,7.2c4.4,0,8.7-1.8,12-4.8c1.5-1.4,2.4-3.2,3.7-4.6c2-2.2,5.7-2.4,8-0.5
			c2.4,1.8,3.1,5.1,1.6,7.8c-5.2,8.8-15.1,14.4-25.3,14.4c-8.7,0.1-17.2-3.9-22.8-10.4c-6.8-7.9-9-19.3-5.6-29.1
			c0.5-1.6,1.8-2.1,3.1-2.9C120,71,141.4,58.3,162.9,45.9z"/>
		<rect x="182.2" y="37" class="st3" width="4.5" height="34.1"/>
		<path class="st3" d="M202.7,48.4c-2.8,1.3-3.9,4.2-4,7.1c-0.1,5.2,0,10.4,0,15.6h-4.5c0-8.9,0-17.8,0-26.8h4.5
			c0,1.2-0.1,2.4-0.1,3.6c4-5.1,12.3-5.6,16.8-0.9c2.1,2.1,2.8,5,2.8,7.9c0,5.4,0,10.8,0,16.2h-4.3c0-4.8,0-9.6,0-14.4
			c0-2.4-0.3-5-2-6.9C209.7,47.4,205.6,47.1,202.7,48.4z"/>
		<path class="st3" d="M225.6,71.1c0-8.9-0.1-17.8,0.1-26.7c1.4-0.1,2.9-0.1,4.4-0.1c0,8.9,0,17.8,0,26.8H225.6z"/>
		<path class="st3" d="M226.7,34.1c2.6-1.2,5.1,1.9,3.7,4.3c-0.8,1.6-2.9,2-4.4,1C224.1,38.1,224.5,34.9,226.7,34.1z"/>
		<path class="st3" d="M240,105.4c0.4,2.1,0.6,4.5-0.1,6.6c-1.7,2.3-4.7,4.3-7.5,5c-5.3,1.3-11.4,0.3-15.7-3.2
			c-6.7-5.5-7.6-16.5-2.4-23.3c2.7-3.6,6.8-5.8,11.2-6.6c4.7-0.8,9.3-0.1,13.8,1.4c0,2.8,0.1,5.6-0.2,8.4c-1.7-2.3-1.5-5-4.2-6.5
			c-5.3-3.3-13.3-1.6-16.8,3.6c-2.2,3.1-2.6,7.1-2.4,10.8c0.3,4.4,1.8,8.7,5.3,11.5c4.5,3.8,11.4,3.2,15.2-1.3
			C238,109.9,238.7,107.7,240,105.4z"/>
		<path class="st3" d="M241,69.8c-1.9-1.3-2.4-3.7-2.4-5.9c0-5.3,0-10.6,0-15.9c-1.2,0-2.3,0-3.5,0c0-1.2,0-2.4,0-3.6
			c1.2,0,2.3,0,3.5,0v-6.8c1.5,0,2.9,0,4.4,0v6.8c2.3,0,4.7,0,7,0c0,1.2,0,2.4,0,3.7c-2.3,0-4.7,0-7,0c0,5.1,0,10.2,0,15.3
			c0.1,1.4,0,3,1.5,3.6c1.7,0.6,3.7,0.3,5.5,0.4c0,1.2,0,2.5,0,3.7C247.2,71,243.4,71.5,241,69.8z"/>
		<path class="st3" d="M255.4,71.1c0-8.9-0.1-17.8,0.1-26.7c1.4-0.1,2.9-0.1,4.3-0.1c0,8.9,0,17.8,0,26.8H255.4z"/>
		<path class="st3" d="M256.1,34.3c2.3-1.3,4.9,0.7,4.4,3.2c-0.4,2.2-2.9,3.2-4.7,1.9C254.1,38.2,254.2,35.3,256.1,34.3z"/>
		<path class="st3" d="M261.5,114.5c-0.8-1.5-0.6-3.5-0.7-5.2c0-3.4,0.2-6.8-0.1-10.2c-0.2-1.7-1-3.3-2.7-3.9
			c-3.9-1.5-8.1-0.3-11.9,1.1c-0.1,2.3-0.1,4.6,0.6,6.9c0.7-1.5,1.1-3.2,2-4.6c1.4-2.1,4.6-2.5,6.7-1.4c1.8,1.6,1.4,4.9,1.6,7.1
			c-3.4,1-7.8,2-10.4,4.7c-2.1,2.1-2.3,6.3,0.6,7.8c3.6,1.7,7.2,0.1,9.7-2.7c0.7,1.1,1.3,2.5,2.7,2.9c3.1,0.9,6.1-1.4,6.7-4.4
			C264.7,113.4,263.2,115.1,261.5,114.5z M256.9,112.7c-1.3,0.7-2.6,1.6-4.1,1.9c-1.1,0.1-2.4-0.3-3.5-0.6c-0.2-1.6-0.6-3,0.3-4.4
			c1.6-2.2,4.7-3,7.2-3.8C256.9,108.2,256.9,110.4,256.9,112.7z"/>
		<path class="st3" d="M289.9,98.7c-1.8-3.2-5.7-4.7-9.2-3.9c-2.5,0.5-4.2,2.6-5.9,4.2c0.1-1.6,0.2-3.2,0.4-4.8
			c-2.8,1.4-6.2,2.4-8.5,4.6c1.4,0,2.8,0,4.2-0.1c0.6,6.3,0.1,12.7,0.3,19c-0.1,2.6,0.3,5.7-0.6,8.1c-1,0.7-2.1,1.1-3.1,1.7
			c4,0.5,8.1,0.2,12.2,0.3l0.1-0.9c-1.3-0.3-3.4-0.2-4.3-1.2c-0.8-2.6-0.3-5.7-0.4-8.4c3.9,0.6,7.6,0.5,10.9-1.8
			C291.4,112,293,104.2,289.9,98.7z M286.6,111.3c-1.1,2.8-4,4.2-6.8,4c-1.8,0-3.3-0.9-4.8-1.8c0-4.4,0-8.8,0-13.1
			c2-1.4,4-3.1,6.6-2.9c2.8,0.1,4.6,2.3,5.3,4.8C287.7,105.2,287.7,108.5,286.6,111.3z"/>
		<path class="st3" d="M288.4,44.3c0,1.5,0,3,0,4.5c-1.5-1.7-3-3.2-5.1-4.1c-4.6-1.9-10.5-0.9-13.9,2.8c-3.7,3.7-4.4,9.5-3.2,14.4
			c1.4,5.1,5.7,9.2,11.1,9.5c4.6,0.4,8.4-1.5,11-5.2c0,1.6-0.1,3.2-0.1,4.8c1.5,0,3,0,4.5,0c0-8.9,0-17.8,0-26.8
			C291.4,44.3,289.9,44.3,288.4,44.3z M287,63.3c-2.5,4.2-8,5.5-12.1,3.2c-3.5-2-4.8-5.9-4.5-9.7c0.1-3.8,2.5-7.4,6.2-8.6
			c3-1,6.5-0.3,8.8,1.9C288.9,53.1,289.3,59.3,287,63.3z"/>
		<path class="st3" d="M303.5,87.7c-0.3,1.8-2.2,2.5-3.8,1.7c-1.7-0.9-1.6-3.4,0-4.4C301.7,83.9,303.9,85.5,303.5,87.7z"/>
		<path class="st3" d="M303.6,114.8c1.4,0.7,2.8,1.1,4.2,1.8c-4,0.4-8.1,0.3-12.1,0.1c1-0.7,2.1-1.3,3-2.2c0.5-1.4,0.4-3.1,0.4-4.6
			c-0.1-3,0.1-6,0-9c-0.1-0.9,0.1-1.7-0.9-2.1c-1.4-0.1-2.8,0.1-4.2-0.1c2.8-1.8,6.1-3.1,9.2-4.4c-0.3,5.4-0.1,10.8-0.2,16.3
			C303,111.9,302.9,113.6,303.6,114.8z"/>
		<path class="st3" d="M301.4,48c-1.1,0-2.3,0-3.4,0c0-1.2,0-2.4,0-3.7c1.1,0,2.3,0,3.4,0c0-2.3,0-4.5,0-6.8c1.5,0,3,0,4.5,0
			c0,2.3,0,4.5,0,6.8c2.3,0,4.6,0,7,0c0,1.2,0,2.4,0,3.7c-2.3,0-4.6,0-7,0c0,5.1,0,10.2,0,15.3c0.1,1.1,0,2.7,1,3.4
			c1.7,0.8,4.1,0.5,6,0.6v3.7c-2.9-0.1-6.6,0.5-9.1-1.3c-1.8-1.2-2.3-3.8-2.4-5.9C301.4,58.6,301.4,53.3,301.4,48z"/>
		<path class="st3" d="M324.9,112.9c-1.3,1.8-2.9,3.9-5.1,4.5c-2,0.4-4.5,0.3-5.9-1.4c-1.1-1.3-1.1-3.2-1.2-4.8c0-4.6,0-9.2,0-13.8
			c-1.1,0-2.2,0-3.4,0c0-0.7,0-1.3,0-2h3.4v-6.7c1.4-0.2,2.7-0.5,4.1-0.7c-0.1,2.5-0.2,4.9-0.3,7.4c2.4,0,4.8,0,7.3,0
			c0,0.7,0,1.3,0,2c-2.4,0-4.8,0-7.2,0.3c-0.1,4.3-0.1,8.7-0.1,13c0.1,1.4,0.1,3.4,1.7,4C320.4,115.2,322.6,113.2,324.9,112.9z"/>
		<path class="st3" d="M339.1,47c-3.7-3.2-9-3.9-13.6-2.5c-4.2,1.3-7.5,4.9-8.5,9.2c-1.1,4.8-0.3,10.3,3.3,13.9
			c4.9,5,13.6,5.1,18.8,0.6C345.2,63.1,345.2,52.2,339.1,47z M337.7,63.2c-2.7,5-10.4,5.9-14.2,1.7c-2.5-2.6-2.8-6.5-2.2-9.9
			c0.6-3.2,2.7-6.1,6-7c3.7-1.1,8.1,0.2,10.2,3.5C339.6,54.8,339.6,60,337.7,63.2z"/>
		<path class="st3" d="M345.1,114.7c-1-1-0.9-2.2-1-3.5c-0.1-3.6,0.1-7.2,0-10.8c-0.1-1.6-0.2-3.1-1.4-4.3c-1.6-1.5-4.1-1.6-6.1-1.5
			c-2.5,0.1-4.8,0.9-7.1,1.8c0,2.3-0.1,4.6,0.2,6.8c1.2-1.6,1.7-3.5,2.8-5.1c1.5-1.6,4.8-2,6.4-0.5c1.7,1.6,1.2,4.8,1.3,6.9
			c-3.5,1-8.3,2.1-10.7,5.1c-1.9,2.2-1.7,6.3,1.2,7.5c3.6,1.5,6.9,0,9.4-2.7c0.9,1.2,1.4,2.7,3,2.9c3.1,0.6,5.8-1.7,6.5-4.6
			C348.3,113.3,346.7,114.8,345.1,114.7z M340.2,112.8c-1.5,0.8-3,1.9-4.8,1.9c-1.1,0-2.2-0.3-2.8-1.3c-0.7-1.5-0.1-3.4,1.1-4.5
			c1.7-1.6,4.3-2.3,6.4-3C340.2,108.2,340.2,110.5,340.2,112.8z"/>
		<path class="st3" d="M363,116.6c-4,0.4-8,0.3-12,0.1c1-0.7,2.1-1.3,2.9-2.1c0.4-1,0.4-2.3,0.5-3.4c0-8.4,0-16.8,0-25.1
			c-0.1-1.1,0.1-2.3-0.6-3.2c-1.5-0.1-3,0-4.5-0.2c2.9-1.8,6.1-3,9.1-4.5c-0.3,10.4-0.1,20.8-0.2,31.2c0,1.7-0.1,3.7,0.5,5.4
			C360,115.5,361.6,115.9,363,116.6z"/>
		<path class="st3" d="M349.5,71.1c0-8.9,0-17.8,0-26.7c1.5,0,2.9,0,4.4,0c0,1.4,0,2.8-0.1,4.2c1-1.3,1.9-2.6,3.4-3.5
			c1.6-1,3.5-1.1,5.3-1.4c0,1.5,0,3.1,0.1,4.6c-2.2,0.2-4.2,0.1-6.1,1.5c-2.2,1.7-2.6,4.4-2.6,7c0,4.8,0,9.6,0,14.4H349.5z"/>
		<path class="st3" d="M102.1,30.9c-3.1,1.2-6.7,0.1-8.3-2.9c-2-3.4-0.4-7.9,3.2-9.4c3.2-1.3,6.9,0.1,8.4,3.1
			C107.3,25.1,105.6,29.5,102.1,30.9z"/>
		<path class="st3" d="M106.1,69.9c-0.1,1.2,0.2,2.6-1.1,3.3c-2.1,1.3-4.4,2.3-6.6,3.6C81,87,63.5,97.3,46,107.5
			c-2.3,1.4-4.6,2.7-7,4c18.3-12.3,36.6-24.7,54.9-36.9c0-11.3,0-22.6,0-33.9c0-2.1,0.6-4.1,2.3-5.4c2.5-2,6.3-1.7,8.3,0.8
			c1.4,1.5,1.5,3.3,1.5,5.3C106,50.8,106,60.3,106.1,69.9z"/>
		<path class="st3" d="M230.4,38.4c-0.8,1.6-2.9,2-4.4,1c-1.9-1.3-1.5-4.5,0.7-5.3C229.3,32.9,231.7,36,230.4,38.4z"/>
		<path class="st3" d="M260.6,37.5c-0.4,2.2-2.9,3.2-4.7,1.9c-1.8-1.2-1.7-4.1,0.2-5.1C258.4,32.9,261,35,260.6,37.5z"/>
		<rect x="182.2" y="37" class="st3" width="4.5" height="34.1"/>
		<path class="st3" d="M250,67.4c0,1.2,0,2.5,0,3.7c-2.8-0.1-6.6,0.5-9-1.3c-1.9-1.3-2.4-3.7-2.4-5.9c0-5.3,0-10.6,0-15.9
			c-1.2,0-2.3,0-3.5,0c0-1.2,0-2.4,0-3.6c1.2,0,2.3,0,3.5,0v-6.8c1.5,0,2.9,0,4.4,0v6.8c2.3,0,4.7,0,7,0c0,1.2,0,2.4,0,3.7
			c-2.3,0-4.7,0-7,0c0,5.1,0,10.2,0,15.3c0.1,1.4,0,3,1.5,3.6C246.2,67.6,248.2,67.3,250,67.4z"/>
		<path class="st3" d="M312.8,67.4v3.7c-2.9-0.1-6.6,0.5-9.1-1.3c-1.8-1.2-2.3-3.8-2.4-5.9c0-5.3,0-10.6,0-16c-1.1,0-2.3,0-3.4,0
			c0-1.2,0-2.4,0-3.7c1.1,0,2.3,0,3.4,0c0-2.3,0-4.5,0-6.8c1.5,0,3,0,4.5,0c0,2.3,0,4.5,0,6.8c2.3,0,4.6,0,7,0c0,1.2,0,2.4,0,3.7
			c-2.3,0-4.6,0-7,0c0,5.1,0,10.2,0,15.3c0.1,1.1,0,2.7,1,3.4C308.6,67.6,311,67.3,312.8,67.4z"/>
		<path class="st3" d="M218.2,71.1h-4.3c0-4.8,0-9.6,0-14.4c0-2.4-0.3-5-2-6.9c-2.2-2.5-6.3-2.7-9.2-1.4c-2.8,1.3-3.9,4.2-4,7.1
			c-0.1,5.2,0,10.4,0,15.6h-4.5c0-8.9,0-17.8,0-26.8h4.5c0,1.2-0.1,2.4-0.1,3.6c4-5.1,12.3-5.6,16.8-0.9c2.1,2.1,2.8,5,2.8,7.9
			C218.2,60.3,218.2,65.7,218.2,71.1z"/>
		<path class="st3" d="M230,44.3c0,8.9,0,17.8,0,26.8h-4.4c0-8.9-0.1-17.8,0.1-26.7C227.1,44.3,228.5,44.3,230,44.3z"/>
		<path class="st3" d="M255.4,71.1c0-8.9-0.1-17.8,0.1-26.7c1.4-0.1,2.9-0.1,4.3-0.1c0,8.9,0,17.8,0,26.8H255.4z"/>
		<path class="st3" d="M288.4,44.3c0,1.5,0,3,0,4.5c-1.5-1.7-3-3.2-5.1-4.1c-4.6-1.9-10.5-0.9-13.9,2.8c-3.7,3.7-4.4,9.5-3.2,14.4
			c1.4,5.1,5.7,9.2,11.1,9.5c4.6,0.4,8.4-1.5,11-5.2c0,1.6-0.1,3.2-0.1,4.8c1.5,0,3,0,4.5,0c0-8.9,0-17.8,0-26.8
			C291.4,44.3,289.9,44.3,288.4,44.3z M287,63.3c-2.5,4.2-8,5.5-12.1,3.2c-3.5-2-4.8-5.9-4.5-9.7c0.1-3.8,2.5-7.4,6.2-8.6
			c3-1,6.5-0.3,8.8,1.9C288.9,53.1,289.3,59.3,287,63.3z"/>
		<path class="st3" d="M339.1,47c-3.7-3.2-9-3.9-13.6-2.5c-4.2,1.3-7.5,4.9-8.5,9.2c-1.1,4.8-0.3,10.3,3.3,13.9
			c4.9,5,13.6,5.1,18.8,0.6C345.2,63.1,345.2,52.2,339.1,47z M337.7,63.2c-2.7,5-10.4,5.9-14.2,1.7c-2.5-2.6-2.8-6.5-2.2-9.9
			c0.6-3.2,2.7-6.1,6-7c3.7-1.1,8.1,0.2,10.2,3.5C339.6,54.8,339.6,60,337.7,63.2z"/>
		<path class="st3" d="M362.6,48.3c-2.2,0.2-4.2,0.1-6.1,1.5c-2.2,1.7-2.6,4.4-2.6,7c0,4.8,0,9.6,0,14.4h-4.4c0-8.9,0-17.8,0-26.7
			c1.5,0,2.9,0,4.4,0c0,1.4,0,2.8-0.1,4.2c1-1.3,1.9-2.6,3.4-3.5c1.6-1,3.5-1.1,5.3-1.4C362.6,45.2,362.6,46.7,362.6,48.3z"/>
		<path class="st3" d="M107.5,88.9c-2.5,5.7-1.8,12.5,1.9,17.4c3.2,4.5,8.8,7.3,14.3,7.2c4.4,0,8.7-1.8,12-4.8
			c1.5-1.4,2.4-3.2,3.7-4.6c2-2.2,5.7-2.4,8-0.5c2.4,1.8,3.1,5.1,1.6,7.8c-5.2,8.8-15.1,14.4-25.3,14.4c-8.7,0.1-17.2-3.9-22.8-10.4
			c-6.8-7.9-9-19.3-5.6-29.1c0.5-1.6,1.8-2.1,3.1-2.9C120,71,141.4,58.3,162.9,45.9c-10.4,7.2-21,14.2-31.5,21.2
			c7.3,2.1,13.7,6.9,17.7,13.4c1.3,2.1,1.2,4.8-0.2,6.7c-1.6,2.4-4.5,3.1-7.1,2.3c-2.1-0.7-3-2.5-4.2-4.1c-3.7-5-10.1-7.7-16.2-6.9
			C115.3,79.2,109.9,83.3,107.5,88.9z"/>
		<path class="st3" d="M363,116.6c-4,0.4-8,0.3-12,0.1c1-0.7,2.1-1.3,2.9-2.1c0.4-1,0.4-2.3,0.5-3.4c0-8.4,0-16.8,0-25.1
			c-0.1-1.1,0.1-2.3-0.6-3.2c-1.5-0.1-3,0-4.5-0.2c2.9-1.8,6.1-3,9.1-4.5c-0.3,10.4-0.1,20.8-0.2,31.2c0,1.7-0.1,3.7,0.5,5.4
			C360,115.5,361.6,115.9,363,116.6z"/>
		<path class="st3" d="M239.9,112c-1.7,2.3-4.7,4.3-7.5,5c-5.3,1.3-11.4,0.3-15.7-3.2c-6.7-5.5-7.6-16.5-2.4-23.3
			c2.7-3.6,6.8-5.8,11.2-6.6c4.7-0.8,9.3-0.1,13.8,1.4c0,2.8,0.1,5.6-0.2,8.4c-1.7-2.3-1.5-5-4.2-6.5c-5.3-3.3-13.3-1.6-16.8,3.6
			c-2.2,3.1-2.6,7.1-2.4,10.8c0.3,4.4,1.8,8.7,5.3,11.5c4.5,3.8,11.4,3.2,15.2-1.3c1.7-1.9,2.5-4.2,3.7-6.4
			C240.4,107.5,240.6,109.9,239.9,112z"/>
		<path class="st3" d="M303.5,87.7c-0.3,1.8-2.2,2.5-3.8,1.7c-1.7-0.9-1.6-3.4,0-4.4C301.7,83.9,303.9,85.5,303.5,87.7z"/>
		<path class="st3" d="M324.9,112.9c-1.3,1.8-2.9,3.9-5.1,4.5c-2,0.4-4.5,0.3-5.9-1.4c-1.1-1.3-1.1-3.2-1.2-4.8c0-4.6,0-9.2,0-13.8
			c-1.1,0-2.2,0-3.4,0c0-0.7,0-1.3,0-2h3.4v-6.7c1.4-0.2,2.7-0.5,4.1-0.7c-0.1,2.5-0.2,4.9-0.3,7.4c2.4,0,4.8,0,7.3,0
			c0,0.7,0,1.3,0,2c-2.4,0-4.8,0-7.2,0.3c-0.1,4.3-0.1,8.7-0.1,13c0.1,1.4,0.1,3.4,1.7,4C320.4,115.2,322.6,113.2,324.9,112.9z"/>
		<path class="st3" d="M261.5,114.5c-0.8-1.5-0.6-3.5-0.7-5.2c0-3.4,0.2-6.8-0.1-10.2c-0.2-1.7-1-3.3-2.7-3.9
			c-3.9-1.5-8.1-0.3-11.9,1.1c-0.1,2.3-0.1,4.6,0.6,6.9c0.7-1.5,1.1-3.2,2-4.6c1.4-2.1,4.6-2.5,6.7-1.4c1.8,1.6,1.4,4.9,1.6,7.1
			c-3.4,1-7.8,2-10.4,4.7c-2.1,2.1-2.3,6.3,0.6,7.8c3.6,1.7,7.2,0.1,9.7-2.7c0.7,1.1,1.3,2.5,2.7,2.9c3.1,0.9,6.1-1.4,6.7-4.4
			C264.7,113.4,263.2,115.1,261.5,114.5z M256.9,112.7c-1.3,0.7-2.6,1.6-4.1,1.9c-1.1,0.1-2.4-0.3-3.5-0.6c-0.2-1.6-0.6-3,0.3-4.4
			c1.6-2.2,4.7-3,7.2-3.8C256.9,108.2,256.9,110.4,256.9,112.7z"/>
		<path class="st3" d="M289.9,98.7c-1.8-3.2-5.7-4.7-9.2-3.9c-2.5,0.5-4.2,2.6-5.9,4.2c0.1-1.6,0.2-3.2,0.4-4.8
			c-2.8,1.4-6.2,2.4-8.5,4.6c1.4,0,2.8,0,4.2-0.1c0.6,6.3,0.1,12.7,0.3,19c-0.1,2.6,0.3,5.7-0.6,8.1c-1,0.7-2.1,1.1-3.1,1.7
			c4,0.5,8.1,0.2,12.2,0.3l0.1-0.9c-1.3-0.3-3.4-0.2-4.3-1.2c-0.8-2.6-0.3-5.7-0.4-8.4c3.9,0.6,7.6,0.5,10.9-1.8
			C291.4,112,293,104.2,289.9,98.7z M286.6,111.3c-1.1,2.8-4,4.2-6.8,4c-1.8,0-3.3-0.9-4.8-1.8c0-4.4,0-8.8,0-13.1
			c2-1.4,4-3.1,6.6-2.9c2.8,0.1,4.6,2.3,5.3,4.8C287.7,105.2,287.7,108.5,286.6,111.3z"/>
		<path class="st3" d="M307.8,116.6c-4,0.4-8.1,0.3-12.1,0.1c1-0.7,2.1-1.3,3-2.2c0.5-1.4,0.4-3.1,0.4-4.6c-0.1-3,0.1-6,0-9
			c-0.1-0.9,0.1-1.7-0.9-2.1c-1.4-0.1-2.8,0.1-4.2-0.1c2.8-1.8,6.1-3.1,9.2-4.4c-0.3,5.4-0.1,10.8-0.2,16.3c0.1,1.3-0.1,3.1,0.6,4.2
			C305,115.5,306.4,115.9,307.8,116.6z"/>
		<path class="st3" d="M345.1,114.7c-1-1-0.9-2.2-1-3.5c-0.1-3.6,0.1-7.2,0-10.8c-0.1-1.6-0.2-3.1-1.4-4.3c-1.6-1.5-4.1-1.6-6.1-1.5
			c-2.5,0.1-4.8,0.9-7.1,1.8c0,2.3-0.1,4.6,0.2,6.8c1.2-1.6,1.7-3.5,2.8-5.1c1.5-1.6,4.8-2,6.4-0.5c1.7,1.6,1.2,4.8,1.3,6.9
			c-3.5,1-8.3,2.1-10.7,5.1c-1.9,2.2-1.7,6.3,1.2,7.5c3.6,1.5,6.9,0,9.4-2.7c0.9,1.2,1.4,2.7,3,2.9c3.1,0.6,5.8-1.7,6.5-4.6
			C348.3,113.3,346.7,114.8,345.1,114.7z M340.2,112.8c-1.5,0.8-3,1.9-4.8,1.9c-1.1,0-2.2-0.3-2.8-1.3c-0.7-1.5-0.1-3.4,1.1-4.5
			c1.7-1.6,4.3-2.3,6.4-3C340.2,108.2,340.2,110.5,340.2,112.8z"/>
	</g>
</g>
</svg>
