<?xml version="1.0" encoding="utf-8"?>
<!-- Generator: Adobe Illustrator 26.0.1, SVG Export Plug-In . SVG Version: 6.00 Build 0)  -->
<svg version="1.1" id="Layer_1" xmlns="http://www.w3.org/2000/svg" xmlns:xlink="http://www.w3.org/1999/xlink" x="0px" y="0px"
	 viewBox="0 0 402 146" style="enable-background:new 0 0 402 146;" xml:space="preserve">
<style type="text/css">
	.st0{fill:#363435;}
</style>
<path class="st0" d="M153.9,11.7c10.7,0,21.6,0,32.3,0c1.5,0,2.9-0.1,4.4,0.1c0.2,0.1,0.3,0.3,0.5,0.4c0.1,0.4,0.1,0.8,0.1,1.3
	c0,26.3,0,52.6,0,78.8c17.7,0,35.3,0,53,0c0.2,2.6,0.1,5.2,0.1,7.9c0,1.5,0.2,3.3-0.7,4.6c-0.7,1.1-2.1,1.4-3.4,1.4
	c-20.3,0-40.6,0-61,0c-0.7,0-1.5,0.1-2.2-0.2c0.1-1.6,0-3.1,0.1-4.7c0-25.1,0-50.1,0-75.2c-3.6,0-7.1,0-10.7,0
	c-0.6,0-1.6,0.1-1.9,0.7c-0.4,1.2-0.3,2.7-0.3,4c0,23.6,0,47.2,0,70.8c0,1.4,0,2.9-0.1,4.3c-0.5,0.2-1.1,0.3-1.7,0.3
	c-2.8,0-5.6,0-8.4,0c-1.1,0-2.1-0.3-2.8-1.1c-0.9-1-0.8-2.4-0.8-3.7c0-28.7,0-57.4,0-86.1C150.5,13.5,152.1,11.7,153.9,11.7z"/>
<path class="st0" d="M244.4,51.4c0-12,0-23.9,0-35.9c0-1.1-0.1-2.1-1-2.9c-0.8-0.8-1.8-1-2.9-1c-12.2,0-24.5,0-36.6,0
	c-0.1,22.3,0,45,0,67.4c4.6,0,9.3,0,13.9,0c0-8.2,0-16.5,0-24.7c0-0.5,0.1-1.3,0.6-1.6c0.9-0.2,1.9-0.1,2.8-0.1c7.6,0,15.5,0,23.1,0
	C244.5,52.5,244.3,51.7,244.4,51.4z M229.3,38c-1.2,0.3-2.5,0.3-3.7,0.3c-2,0-4,0.1-5.9-0.2c-0.5-0.1-1-0.3-1.1-0.8
	c-0.3-1.4-0.1-3-0.2-4.4c0.1-2.1-0.2-4.3,0.2-6.4c0.5-0.3,1-0.4,1.6-0.4c2.6,0,5.2,0,7.8,0c0.7,0,1.7,0.1,2.2,0.7
	c0.5,0.7,0.4,1.6,0.4,2.4c0,2.3,0,4.6,0,6.9C230.7,37.1,230,37.7,229.3,38z"/>
<path class="st0" d="M231.2,65.5c4.4,0,8.8,0,13.1,0c0,3.3,0,6.5,0,9.8c0,1.1,0,2.2-0.8,3c-0.7,0.8-1.7,0.9-2.7,0.9
	c-3.2,0-6.4,0-9.6,0C231.2,74.7,231.2,70.1,231.2,65.5z"/>
<path class="st0" d="M239.9,127.9c-0.3-1.9-1.7-3.4-3.6-3.9c-1.7-0.4-3.9-0.2-5.2,1c-2.2,1.8-2.4,5.4-0.6,7.5
	c2.3,2.6,7.1,2.3,8.8-0.7C239.9,130.6,240.3,129.1,239.9,127.9z M237.1,131.6c-1.3,1.2-3.4,1.2-4.7,0c-1.5-1.6-1.3-4.4,0.6-5.6
	c1.3-0.6,2.9-0.6,4,0.4C238.4,127.8,238.4,130.2,237.1,131.6z"/>
<path class="st0" d="M155.9,124.1c0.7,0,1.3,0,2,0c0,2.8,0,5.5,0,8.3c1,0,2,0,3,0c0,0.6,0,1.1,0,1.7c-1.7,0-3.4,0.1-5.1,0
	C156,130.7,155.9,127.4,155.9,124.1z"/>
<path class="st0" d="M173.8,125.3c-0.5-0.6-1.2-1.1-2-1.2c-1.3-0.1-2.7,0-4-0.1c0,3.3,0,6.7,0,10c0.6,0,1.3,0,1.9,0
	c0-1.2-0.1-2.4,0.1-3.7c1.4,0,2.8,0.1,3.9-1C174.5,128.2,174.6,126.6,173.8,125.3z M171.9,128.3c-0.7,0.3-1.4,0.4-2.2,0.4
	c0-1-0.1-2.1,0.1-3.1c0.7,0,1.4,0.1,2,0.4C172.4,127,172.4,127.3,171.9,128.3z"/>
<path class="st0" d="M181.2,124.1c0.6,0,1.3,0,1.9,0c0,3.3,0,6.7,0,10c-0.6,0-1.3,0-1.9,0C181.2,130.7,181.1,127.4,181.2,124.1z"/>
<path class="st0" d="M205.7,124.8c-1.8-1.2-3.9-0.6-5.9-0.9c-0.3,1.2-0.1,2.4-0.1,3.7c0,2.2-0.1,4.3,0.1,6.5
	c2.1-0.1,4.3,0.4,6.1-0.9C208.6,131.3,208.5,126.6,205.7,124.8z M204.6,131.7c-1,0.7-2,0.6-3.1,0.7c0-2.2,0-4.4,0-6.7
	c1.2,0,2.3,0.1,3.3,0.9C206.2,127.9,206.2,130.5,204.6,131.7z"/>
<path class="st0" d="M220.8,127.3c-0.4-1.1-0.9-2.1-1.3-3.2c-0.5,0-1.1-0.1-1.6,0c-1.4,3.3-2.9,6.6-4.3,10c0.7,0,1.4,0,2.1,0
	c0.3-0.7,0.6-1.4,0.8-2.1c1.3,0,2.7,0,4,0c0.4,0.7,0.6,1.4,0.9,2.1c0.7,0,1.4,0,2.2,0C222.7,131.8,221.8,129.5,220.8,127.3z
	 M217.3,130.4c0.5-1.2,1-2.5,1.4-3.7c0.4,1.3,1,2.4,1.4,3.7C219.1,130.4,218.2,130.4,217.3,130.4z"/>
</svg>
