<?xml version="1.0" encoding="utf-8"?>
<!-- Generator: Adobe Illustrator 26.0.1, SVG Export Plug-In . SVG Version: 6.00 Build 0)  -->
<svg version="1.1" id="Layer_1" xmlns="http://www.w3.org/2000/svg" xmlns:xlink="http://www.w3.org/1999/xlink" x="0px" y="0px"
	 viewBox="0 0 402 146" style="enable-background:new 0 0 402 146;" xml:space="preserve">
<style type="text/css">
	.st0{display:none;}
	.st1{fill:#363435;}
	.st2{enable-background:new    ;}
</style>
<g>
	<polygon class="st1" points="240.4,104.2 229.3,97.8 229.3,64.5 240.4,71 	"/>
	<polygon class="st1" points="218.2,104.1 229.3,97.8 229.3,64.5 218.2,70.9 	"/>
	<polygon class="st1" points="232.4,88.1 232.4,99.6 182.2,71.5 192.7,65.5 	"/>
	<polygon class="st1" points="171.6,79.2 160.5,72.9 160.5,104.6 171.6,111 182.7,104.6 182.7,72.9 	"/>
	<polygon class="st1" points="229.3,31.6 218.2,25.2 218.2,56.9 229.3,63.3 240.4,56.9 240.4,25.2 	"/>
	<polygon class="st1" points="240.4,104.1 229.4,110.7 172.2,77.1 182.7,71.4 	"/>
	<polygon class="st1" points="182.7,58 171.6,51.7 171.6,19.9 182.7,26.3 	"/>
	<polygon class="st1" points="160.5,58 171.6,51.7 171.6,19.9 160.5,26.3 	"/>
	<polygon class="st1" points="182.7,89.5 171.6,83.3 171.6,51.6 182.7,57.8 	"/>
	<polygon class="st1" points="160.5,89.7 171.6,83.3 171.6,51.6 160.5,58 	"/>
	<polygon class="st1" points="182.7,104.6 171.6,98.2 171.6,66.5 182.7,72.9 	"/>
	<polygon class="st1" points="160.5,104.6 171.6,98.2 171.6,66.5 160.5,72.9 	"/>
	<polygon class="st1" points="239.8,38.1 228.8,31.6 171.6,65.2 182.7,71.4 	"/>
	<polygon class="st1" points="229.3,31.6 218.3,25.1 161.1,58.7 161.1,71.3 	"/>
	<polygon class="st1" points="240.4,56.9 229.3,50.5 229.3,18.8 240.4,25.2 	"/>
	<polygon class="st1" points="218.2,56.9 229.3,50.5 229.3,18.8 218.2,25.2 	"/>
	<g class="st2">
		<path class="st1" d="M167.6,123.5v2h-1.5v-2c0-1.2-0.3-2-0.8-2.5c-0.5-0.5-1.5-0.7-3-0.7v5.2h-1.5v-11h1.5v4.5
			c0.8,0,1.2,0,1.4,0.1l2.2-4.5h1.6l-2.5,4.9C166.8,119.9,167.6,121.3,167.6,123.5z"/>
		<path class="st1" d="M170.2,118.9c0.7-0.8,1.6-1.1,2.7-1.1c0.5,0,1,0.1,1.5,0.3c0.5,0.2,0.9,0.5,1.2,0.8c0.4,0.4,0.6,0.8,0.8,1.2
			c0.2,0.5,0.3,1,0.3,1.5c0,0.5-0.1,1.1-0.3,1.5c-0.2,0.5-0.5,0.9-0.8,1.2c-0.3,0.4-0.8,0.6-1.2,0.8c-0.5,0.2-1,0.3-1.5,0.3
			c-0.6,0-1.1-0.1-1.5-0.3c-0.5-0.2-0.9-0.5-1.2-0.8c-0.3-0.4-0.6-0.8-0.8-1.2c-0.2-0.5-0.3-1-0.3-1.5
			C169.1,120.5,169.5,119.6,170.2,118.9z M172.9,119c-0.7,0-1.3,0.2-1.8,0.7c-0.4,0.5-0.7,1.1-0.7,1.9c0,0.8,0.2,1.4,0.7,1.9
			c0.4,0.5,1,0.7,1.8,0.7c0.7,0,1.3-0.2,1.8-0.7c0.4-0.5,0.7-1.1,0.7-1.9c0-0.8-0.2-1.4-0.7-1.9C174.3,119.3,173.7,119,172.9,119z"
			/>
		<path class="st1" d="M178.5,117.9h6.9c0.7,0,1.3,0.1,1.8,0.4c0.4,0.3,0.7,0.6,0.9,1.1c0.1,0.4,0.2,1,0.2,1.6v4.4h-1.4V121
			c0-0.8-0.2-1.4-0.7-1.6c-0.3-0.1-0.8-0.2-1.5-0.2H184v6.2h-1.4v-6.2h-2.7v6.2h-1.4L178.5,117.9L178.5,117.9z"/>
		<path class="st1" d="M190.2,117.9h6.9c0.7,0,1.3,0.1,1.8,0.4c0.4,0.3,0.7,0.6,0.9,1.1c0.1,0.4,0.2,1,0.2,1.6v4.4h-1.4V121
			c0-0.8-0.2-1.4-0.7-1.6c-0.3-0.1-0.8-0.2-1.5-0.2h-0.6v6.2h-1.4v-6.2h-2.7v6.2h-1.4L190.2,117.9L190.2,117.9z"/>
		<path class="st1" d="M208.1,125.4h-2.7c-1.2,0-2-0.2-2.5-0.5c-0.4-0.3-0.7-0.7-0.9-1.1c-0.1-0.4-0.2-1-0.2-1.7v-4.2h1.4v4.2
			c0,0.2,0,0.3,0,0.5c0,0.1,0,0.3,0.1,0.5c0.1,0.2,0.2,0.4,0.3,0.5c0.1,0.1,0.3,0.2,0.5,0.3c0.2,0.1,0.5,0.1,0.8,0.1h1.8v-6.2h1.4
			L208.1,125.4L208.1,125.4z"/>
		<path class="st1" d="M210.2,117.9h2.7c1.2,0,2,0.2,2.5,0.5c0.4,0.3,0.7,0.7,0.9,1.1s0.2,1,0.2,1.7v4.2H215v-4.2c0-0.2,0-0.3,0-0.5
			c0-0.1,0-0.3-0.1-0.5c-0.1-0.2-0.2-0.4-0.3-0.5c-0.1-0.1-0.3-0.2-0.5-0.3c-0.2-0.1-0.5-0.1-0.8-0.1h-1.8v6.2h-1.4L210.2,117.9
			L210.2,117.9z"/>
		<path class="st1" d="M220.3,125.4H219v-6.2h-1.3l0.6-1.3h2V125.4z M218.9,116.3c-0.1-0.2-0.2-0.4-0.2-0.6c0-0.2,0.1-0.4,0.2-0.6
			c0.1-0.2,0.3-0.3,0.6-0.3c0.3,0,0.5,0.1,0.6,0.3c0.1,0.2,0.2,0.4,0.2,0.6c0,0.2-0.1,0.4-0.2,0.6c-0.1,0.2-0.3,0.3-0.6,0.3
			C219.2,116.6,219,116.5,218.9,116.3z"/>
		<path class="st1" d="M221.7,119.2l2.8-2.8v1.5h2.1v1.3h-2.1v3.2c0,0.4,0.1,0.7,0.2,0.9c0.1,0.2,0.3,0.4,0.5,0.5
			c0.2,0.1,0.4,0.2,0.7,0.2c0.2,0,0.5,0,0.8,0v1.3c-1.2,0-2.1-0.2-2.7-0.7c-0.6-0.5-0.9-1.2-0.9-2.3v-3.2L221.7,119.2L221.7,119.2z"
			/>
		<path class="st1" d="M232.3,121v1.4c-0.4-0.3-0.9-0.5-1.5-0.5c-0.5,0-0.9,0.1-1.1,0.3c-0.3,0.2-0.4,0.5-0.4,0.8c0,0.7,0.5,1,1.5,1
			h2.1v-3c0-1.3-0.6-1.9-1.9-1.9h-2.5v-1.3h2.6c1,0,1.8,0.3,2.3,0.8c0.5,0.5,0.8,1.2,0.8,2.2v4.6h-3.5c-0.9,0-1.6-0.2-2.1-0.6
			c-0.5-0.4-0.8-1-0.8-1.7c0-0.8,0.3-1.3,0.8-1.7c0.6-0.4,1.2-0.6,2.1-0.6C231.2,120.7,231.7,120.8,232.3,121z"/>
		<path class="st1" d="M241.2,117.9v1.3h-2.8c-0.3,0-0.6,0.1-0.8,0.2c-0.2,0.1-0.3,0.3-0.3,0.5c0,0.1,0,0.2,0.1,0.3
			c0.1,0.1,0.1,0.2,0.2,0.2c0.1,0.1,0.2,0.1,0.3,0.2c0.1,0.1,0.3,0.1,0.3,0.1c0.1,0,0.4,0.1,1,0.3c0.6,0.2,1,0.3,1.3,0.5
			c0.3,0.1,0.5,0.3,0.7,0.5c0.2,0.2,0.2,0.4,0.3,0.6c0,0.2,0.1,0.4,0.1,0.6c0,1.4-1,2.1-2.9,2.1h-2.7v-1.3h2.7c1,0,1.5-0.3,1.5-0.8
			c0-0.3-0.1-0.5-0.4-0.6c-0.3-0.2-0.6-0.3-1.1-0.4c-0.4-0.1-0.8-0.2-1.2-0.4c-0.4-0.2-0.8-0.4-1.1-0.7c-0.3-0.3-0.4-0.8-0.4-1.3
			c0-0.6,0.2-1.1,0.7-1.5c0.5-0.3,1.1-0.5,1.8-0.5L241.2,117.9L241.2,117.9z"/>
	</g>
</g>
</svg>
