<?xml version="1.0" encoding="utf-8"?>
<!-- Generator: Adobe Illustrator 25.4.1, SVG Export Plug-In . SVG Version: 6.00 Build 0)  -->
<svg version="1.1" id="Layer_1" xmlns="http://www.w3.org/2000/svg" xmlns:xlink="http://www.w3.org/1999/xlink" x="0px" y="0px"
	 viewBox="0 0 223 226" style="enable-background:new 0 0 223 226;" xml:space="preserve">
<style type="text/css">
	.st0{fill:#3861FB;}
	.st1{fill:#FFFFFF;}
</style>
<circle class="st0" cx="111.5" cy="113" r="111.5"/>
<path class="st1" d="M196.9,109.1c-0.8-24.6-12.9-48.4-31.9-63.9c-11.5-9.4-25.4-15.7-40-18.1c-3.3-0.6-6.7-0.6-10.1-1.1h-5
	c-4.4,0.4-8.8,0.6-13.2,1.4c-16.7,3-32.3,11.1-44.4,22.9c-10.2,9.9-17.9,22.2-22.1,35.7c-4.7,14.5-5.4,30.5-2.3,45.4
	c4.2,19.8,15.4,37.8,31.3,50.3c11.1,8.8,24.4,14.6,38.4,16.9c3.9,0.7,8,0.9,12,1.2h3.5c3.2-0.3,6.4-0.5,9.5-0.8
	c15.6-2.1,30.6-8.6,42.8-18.7c2.2-1.9,5.2-4,6.2-6.8c1.5-4.2-0.9-9.1-5.3-10.2c-2.9-1-5.9,0.3-7.9,2.4
	c-11.3,10.4-25.9,16.9-41.2,18.1c-9.9,0.9-19.9-0.5-29.3-3.9c-11-4-20.8-10.8-28.6-19.4c12-19.7,24.3-39.3,36.5-58.8
	c0,8.9,0,17.8,0,26.7c0.1,5.1,0.4,9.8,3.2,14.3c2.4,4,7.8,6.1,12.2,4.4c5-1.6,8.5-6.1,11.2-10.4c6.4-10.3,12.7-20.6,19.1-30.9
	c0.9-1.6,1.9-3.1,3-4.6c0,5.7,0,11.4,0,17.1c0,10.3,4,21,13.4,26.1c7.1,3.8,16,3.9,23.1,0c6.4-3.3,10.9-9.1,13.5-15.8
	C197.1,122.3,197.1,115.9,196.9,109.1z M179.8,124c-1.9,4.3-6,8-11,7.5c-3.3,0-5.9-2.3-7.1-5.2c-1.9-4.2-1.6-9.6-1.6-14.1
	c-0.1-5.2,0.1-10.5-0.1-15.7c-0.2-4.5-1.7-9.5-5.1-12.7c-3.5-3.4-9.3-3.8-13.4-1.3c-4.4,2.4-7.5,6.5-10.2,10.6
	c-6.7,10.6-13.1,21.4-19.8,31.9c0-11.9,0-23.9,0-35.8c0-4.2-0.8-8.7-3.6-12c-2.5-2.9-6.8-3.7-10.3-2.4c-3.3,1.4-5.9,4.5-7.8,7.5
	c-13.3,21.4-26.7,42.8-39.9,64.2c-7.5-14.2-9.9-30.9-7-46.7c2.2-11.9,7.4-23.2,15.1-32.5c9.1-11,21.5-19.2,35.2-23.1
	c12.3-3.4,25.6-3.3,37.9,0.3c13.9,4.1,26.4,12.6,35.3,24.1c8.8,11.1,14.1,24.8,15.1,38.9C181.7,113.2,182.2,118.7,179.8,124z"/>
</svg>
