<?xml version="1.0" encoding="utf-8"?>
<!-- Generator: Adobe Illustrator 26.0.3, SVG Export Plug-In . SVG Version: 6.00 Build 0)  -->
<svg version="1.1" id="Layer_1" xmlns="http://www.w3.org/2000/svg" xmlns:xlink="http://www.w3.org/1999/xlink" x="0px" y="0px"
	 viewBox="0 0 33.2 20.4" style="enable-background:new 0 0 33.2 20.4;" xml:space="preserve">
<style type="text/css">
	.st0{fill:#00B897;}
	.st1{fill:#76FCB2;}
	.st2{fill:url(#SVGID_1_);}
</style>
<g>
	<path class="st0" d="M32.7,14.4L25.5,1.9c-1.6-2.6-5.4-2.6-6.9,0.1L11,15c-1.4,2.4,0.3,5.4,3.1,5.4h15.1
		C32.1,20.4,34.2,17.3,32.7,14.4z"/>
	<path class="st1" d="M22.3,15.4l-0.4-0.8c-0.4-0.7-1.3-2.3-1.3-2.3L14.5,1.8c-1.6-2.3-5.3-2.5-6.9,0.4L0.5,14.4
		C-0.9,17,0.8,20.3,4,20.4h15h6.4h3.8C25.3,20.4,24.1,18.4,22.3,15.4z"/>
	
		<linearGradient id="SVGID_1_" gradientUnits="userSpaceOnUse" x1="8.9849" y1="-213.2872" x2="26.4366" y2="-219.7361" gradientTransform="matrix(1 0 0 -1 0 -202.6145)">
		<stop  offset="0" style="stop-color:#53E57A;stop-opacity:0"/>
		<stop  offset="1" style="stop-color:#00A977"/>
	</linearGradient>
	<path class="st2" d="M22.3,15.4l-0.4-0.8c-0.4-0.7-1.3-2.3-1.3-2.3l-3.9-6.9L11,15c-1.4,2.4,0.3,5.4,3.1,5.4H19h6.4h3.8
		C25.3,20.4,24.1,18.4,22.3,15.4z"/>
</g>
</svg>
