<?xml version="1.0" encoding="utf-8"?>
<!-- Generator: Adobe Illustrator 25.4.1, SVG Export Plug-In . SVG Version: 6.00 Build 0)  -->
<svg version="1.1" id="Layer_1" xmlns="http://www.w3.org/2000/svg" xmlns:xlink="http://www.w3.org/1999/xlink" x="0px" y="0px"
	 viewBox="0 0 24 24" style="enable-background:new 0 0 24 24;" xml:space="preserve">
<style type="text/css">
	.st0{fill:url(#SVGID_1_);}
	.st1{fill-rule:evenodd;clip-rule:evenodd;fill:#633001;}
	.st2{fill:#FEDC90;}
	.st3{fill-rule:evenodd;clip-rule:evenodd;fill:#D1884F;}
	.st4{fill:#633001;}
</style>
<linearGradient id="SVGID_1_" gradientUnits="userSpaceOnUse" x1="1142.2499" y1="-753.585" x2="1142.2499" y2="-843.585" gradientTransform="matrix(0.2667 0 0 -0.2667 -292.6 -200.956)">
	<stop  offset="0" style="stop-color:#54DADE"/>
	<stop  offset="0.7622" style="stop-color:#24C7D6"/>
</linearGradient>
<circle class="st0" cx="12" cy="12" r="12"/>
<g>
	<path class="st1" d="M6.2,5.7C5.9,4.2,7,2.8,8.6,2.8c1.3,0,2.4,1.1,2.4,2.4v3c0.3,0,0.7,0,1,0c0.3,0,0.7,0,1,0v-3
		c0-1.3,1.1-2.4,2.4-2.4c1.5,0,2.7,1.4,2.4,2.9l-0.7,3.5c2.3,1,4,2.7,4,4.8v1.3c0,1.8-1.2,3.2-2.8,4.2c-1.6,1-3.9,1.6-6.3,1.6
		s-4.6-0.6-6.3-1.6c-1.6-1-2.8-2.5-2.8-4.2V14c0-2.1,1.7-3.8,3.9-4.8L6.2,5.7z M16.3,9.7l0.8-4.1c0.2-1-0.6-2-1.7-2
		c-0.9,0-1.7,0.8-1.7,1.7V9C13.5,9,13.2,9,13,9c-0.3,0-0.6,0-1,0c-0.3,0-0.7,0-1,0c-0.3,0-0.5,0-0.7,0.1V5.2c0-0.9-0.8-1.7-1.7-1.7
		c-1.1,0-1.9,1-1.7,2l0.8,4.1c-2.4,0.9-4,2.5-4,4.4v1.3c0,2.8,3.7,5.1,8.4,5.1c4.6,0,8.4-2.3,8.4-5.1V14
		C20.4,12.2,18.7,10.6,16.3,9.7z"/>
	<path class="st2" d="M20.4,15.3c0,2.8-3.7,5.1-8.4,5.1c-4.6,0-8.4-2.3-8.4-5.1V14h16.7V15.3z"/>
	<path class="st3" d="M6.9,5.5c-0.2-1,0.6-2,1.7-2c0.9,0,1.7,0.8,1.7,1.7v3.8C10.8,9,11.4,8.9,12,8.9c0.6,0,1.2,0,1.7,0.1V5.2
		c0-0.9,0.8-1.7,1.7-1.7c1.1,0,1.9,1,1.7,2l-0.8,4.1c2.4,0.9,4.1,2.5,4.1,4.4c0,2.8-3.7,5.1-8.4,5.1c-4.6,0-8.4-2.3-8.4-5.1
		c0-1.9,1.6-3.5,4-4.4L6.9,5.5z"/>
	<path class="st4" d="M9.7,13.7c0,0.8-0.4,1.4-0.9,1.4c-0.5,0-0.9-0.6-0.9-1.4c0-0.8,0.4-1.4,0.9-1.4C9.3,12.3,9.7,12.9,9.7,13.7z"
		/>
	<path class="st4" d="M16.1,13.7c0,0.8-0.4,1.4-0.9,1.4c-0.5,0-0.9-0.6-0.9-1.4c0-0.8,0.4-1.4,0.9-1.4
		C15.7,12.3,16.1,12.9,16.1,13.7z"/>
</g>
</svg>
